  0
SECTION
  2
HEADER
  9
$ACADVER
  1
AC1024
  9
$ACADMAINTVER
 70
6
  9
$DWGCODEPAGE
  3
ANSI_1252
  9
$LASTSAVEDBY
  1
ezdxf
  9
$INSBASE
 10
0.0
 20
0.0
 30
0.0
  9
$EXTMIN
 10
1e+20
 20
1e+20
 30
1e+20
  9
$EXTMAX
 10
-1e+20
 20
-1e+20
 30
-1e+20
  9
$LIMMIN
 10
0.0
 20
0.0
  9
$LIMMAX
 10
420.0
 20
297.0
  9
$ORTHOMODE
 70
0
  9
$REGENMODE
 70
1
  9
$FILLMODE
 70
1
  9
$QTEXTMODE
 70
0
  9
$MIRRTEXT
 70
1
  9
$LTSCALE
 40
1.0
  9
$ATTMODE
 70
1
  9
$TEXTSIZE
 40
2.5
  9
$TRACEWID
 40
1.0
  9
$TEXTSTYLE
  7
Standard
  9
$CLAYER
  8
0
  9
$CELTYPE
  6
ByLayer
  9
$CECOLOR
 62
256
  9
$CELTSCALE
 40
1.0
  9
$DISPSILH
 70
0
  9
$DIMSCALE
 40
1.0
  9
$DIMASZ
 40
2.5
  9
$DIMEXO
 40
0.625
  9
$DIMDLI
 40
3.75
  9
$DIMRND
 40
0.0
  9
$DIMDLE
 40
0.0
  9
$DIMEXE
 40
1.25
  9
$DIMTP
 40
0.0
  9
$DIMTM
 40
0.0
  9
$DIMTXT
 40
2.5
  9
$DIMCEN
 40
2.5
  9
$DIMTSZ
 40
0.0
  9
$DIMTOL
 70
0
  9
$DIMLIM
 70
0
  9
$DIMTIH
 70
0
  9
$DIMTOH
 70
0
  9
$DIMSE1
 70
0
  9
$DIMSE2
 70
0
  9
$DIMTAD
 70
1
  9
$DIMZIN
 70
8
  9
$DIMBLK
  1

  9
$DIMASO
 70
1
  9
$DIMSHO
 70
1
  9
$DIMPOST
  1

  9
$DIMAPOST
  1

  9
$DIMALT
 70
0
  9
$DIMALTD
 70
3
  9
$DIMALTF
 40
0.03937007874
  9
$DIMLFAC
 40
1.0
  9
$DIMTOFL
 70
1
  9
$DIMTVP
 40
0.0
  9
$DIMTIX
 70
0
  9
$DIMSOXD
 70
0
  9
$DIMSAH
 70
0
  9
$DIMBLK1
  1

  9
$DIMBLK2
  1

  9
$DIMSTYLE
  2
ISO-25
  9
$DIMCLRD
 70
0
  9
$DIMCLRE
 70
0
  9
$DIMCLRT
 70
0
  9
$DIMTFAC
 40
1.0
  9
$DIMGAP
 40
0.625
  9
$DIMJUST
 70
0
  9
$DIMSD1
 70
0
  9
$DIMSD2
 70
0
  9
$DIMTOLJ
 70
0
  9
$DIMTZIN
 70
8
  9
$DIMALTZ
 70
0
  9
$DIMALTTZ
 70
0
  9
$DIMUPT
 70
0
  9
$DIMDEC
 70
2
  9
$DIMTDEC
 70
2
  9
$DIMALTU
 70
2
  9
$DIMALTTD
 70
3
  9
$DIMTXSTY
  7
Standard
  9
$DIMAUNIT
 70
0
  9
$DIMADEC
 70
0
  9
$DIMALTRND
 40
0.0
  9
$DIMAZIN
 70
0
  9
$DIMDSEP
 70
44
  9
$DIMATFIT
 70
3
  9
$DIMFRAC
 70
0
  9
$DIMLDRBLK
  1

  9
$DIMLUNIT
 70
2
  9
$DIMLWD
 70
-2
  9
$DIMLWE
 70
-2
  9
$DIMTMOVE
 70
0
  9
$DIMFXL
 40
1.0
  9
$DIMFXLON
 70
0
  9
$DIMJOGANG
 40
0.785398163397
  9
$DIMTFILL
 70
0
  9
$DIMTFILLCLR
 70
0
  9
$DIMARCSYM
 70
0
  9
$DIMLTYPE
  6

  9
$DIMLTEX1
  6

  9
$DIMLTEX2
  6

  9
$DIMTXTDIRECTION
 70
0
  9
$LUNITS
 70
2
  9
$LUPREC
 70
4
  9
$SKETCHINC
 40
1.0
  9
$FILLETRAD
 40
10.0
  9
$AUNITS
 70
0
  9
$AUPREC
 70
2
  9
$MENU
  1
.
  9
$ELEVATION
 40
0.0
  9
$PELEVATION
 40
0.0
  9
$THICKNESS
 40
0.0
  9
$LIMCHECK
 70
0
  9
$CHAMFERA
 40
0.0
  9
$CHAMFERB
 40
0.0
  9
$CHAMFERC
 40
0.0
  9
$CHAMFERD
 40
0.0
  9
$SKPOLY
 70
0
  9
$TDCREATE
 40
2461299.5231944444
  9
$TDUCREATE
 40
2458532.153996898
  9
$TDUPDATE
 40
2461299.5231944444
  9
$TDUUPDATE
 40
2458532.1544311
  9
$TDINDWG
 40
0.0
  9
$TDUSRTIMER
 40
0.0
  9
$USRTIMER
 70
1
  9
$ANGBASE
 50
0.0
  9
$ANGDIR
 70
0
  9
$PDMODE
 70
0
  9
$PDSIZE
 40
0.0
  9
$PLINEWID
 40
0.0
  9
$SPLFRAME
 70
0
  9
$SPLINETYPE
 70
6
  9
$SPLINESEGS
 70
8
  9
$HANDSEED
  5
28E
  9
$SURFTAB1
 70
6
  9
$SURFTAB2
 70
6
  9
$SURFTYPE
 70
6
  9
$SURFU
 70
6
  9
$SURFV
 70
6
  9
$UCSBASE
  2

  9
$UCSNAME
  2

  9
$UCSORG
 10
0.0
 20
0.0
 30
0.0
  9
$UCSXDIR
 10
1.0
 20
0.0
 30
0.0
  9
$UCSYDIR
 10
0.0
 20
1.0
 30
0.0
  9
$UCSORTHOREF
  2

  9
$UCSORTHOVIEW
 70
0
  9
$UCSORGTOP
 10
0.0
 20
0.0
 30
0.0
  9
$UCSORGBOTTOM
 10
0.0
 20
0.0
 30
0.0
  9
$UCSORGLEFT
 10
0.0
 20
0.0
 30
0.0
  9
$UCSORGRIGHT
 10
0.0
 20
0.0
 30
0.0
  9
$UCSORGFRONT
 10
0.0
 20
0.0
 30
0.0
  9
$UCSORGBACK
 10
0.0
 20
0.0
 30
0.0
  9
$PUCSBASE
  2

  9
$PUCSNAME
  2

  9
$PUCSORG
 10
0.0
 20
0.0
 30
0.0
  9
$PUCSXDIR
 10
1.0
 20
0.0
 30
0.0
  9
$PUCSYDIR
 10
0.0
 20
1.0
 30
0.0
  9
$PUCSORTHOREF
  2

  9
$PUCSORTHOVIEW
 70
0
  9
$PUCSORGTOP
 10
0.0
 20
0.0
 30
0.0
  9
$PUCSORGBOTTOM
 10
0.0
 20
0.0
 30
0.0
  9
$PUCSORGLEFT
 10
0.0
 20
0.0
 30
0.0
  9
$PUCSORGRIGHT
 10
0.0
 20
0.0
 30
0.0
  9
$PUCSORGFRONT
 10
0.0
 20
0.0
 30
0.0
  9
$PUCSORGBACK
 10
0.0
 20
0.0
 30
0.0
  9
$USERI1
 70
0
  9
$USERI2
 70
0
  9
$USERI3
 70
0
  9
$USERI4
 70
0
  9
$USERI5
 70
0
  9
$USERR1
 40
0.0
  9
$USERR2
 40
0.0
  9
$USERR3
 40
0.0
  9
$USERR4
 40
0.0
  9
$USERR5
 40
0.0
  9
$WORLDVIEW
 70
1
  9
$SHADEDGE
 70
3
  9
$SHADEDIF
 70
70
  9
$TILEMODE
 70
1
  9
$MAXACTVP
 70
64
  9
$PINSBASE
 10
0.0
 20
0.0
 30
0.0
  9
$PLIMCHECK
 70
0
  9
$PEXTMIN
 10
1e+20
 20
1e+20
 30
1e+20
  9
$PEXTMAX
 10
-1e+20
 20
-1e+20
 30
-1e+20
  9
$PLIMMIN
 10
0.0
 20
0.0
  9
$PLIMMAX
 10
420.0
 20
297.0
  9
$UNITMODE
 70
0
  9
$VISRETAIN
 70
1
  9
$PLINEGEN
 70
0
  9
$PSLTSCALE
 70
1
  9
$TREEDEPTH
 70
3020
  9
$CMLSTYLE
  2
Standard
  9
$CMLJUST
 70
0
  9
$CMLSCALE
 40
20.0
  9
$PROXYGRAPHICS
 70
1
  9
$MEASUREMENT
 70
1
  9
$CELWEIGHT
370
-1
  9
$ENDCAPS
280
0
  9
$JOINSTYLE
280
0
  9
$LWDISPLAY
290
0
  9
$INSUNITS
 70
6
  9
$HYPERLINKBASE
  1

  9
$STYLESHEET
  1

  9
$XEDIT
290
1
  9
$CEPSNTYPE
380
0
  9
$PSTYLEMODE
290
1
  9
$FINGERPRINTGUID
  2
{8C9F622B-186A-4A85-8B44-12DF0CEB95D6}
  9
$VERSIONGUID
  2
{49C42635-95A4-4D15-8726-69DA612CFFC8}
  9
$EXTNAMES
290
1
  9
$PSVPSCALE
 40
0.0
  9
$OLESTARTUP
290
0
  9
$SORTENTS
280
127
  9
$INDEXCTL
280
0
  9
$HIDETEXT
280
1
  9
$XCLIPFRAME
280
1
  9
$HALOGAP
280
0
  9
$OBSCOLOR
 70
257
  9
$OBSLTYPE
280
0
  9
$INTERSECTIONDISPLAY
280
0
  9
$INTERSECTIONCOLOR
 70
257
  9
$DIMASSOC
280
2
  9
$PROJECTNAME
  1

  9
$CAMERADISPLAY
290
0
  9
$LENSLENGTH
 40
50.0
  9
$CAMERAHEIGHT
 40
0.0
  9
$STEPSPERSEC
 40
24.0
  9
$STEPSIZE
 40
100.0
  9
$3DDWFPREC
 40
2.0
  9
$PSOLWIDTH
 40
0.005
  9
$PSOLHEIGHT
 40
0.08
  9
$LOFTANG1
 40
1.570796326795
  9
$LOFTANG2
 40
1.570796326795
  9
$LOFTMAG1
 40
0.0
  9
$LOFTMAG2
 40
0.0
  9
$LOFTPARAM
 70
7
  9
$LOFTNORMALS
280
1
  9
$LATITUDE
 40
37.795
  9
$LONGITUDE
 40
-122.394
  9
$NORTHDIRECTION
 40
0.0
  9
$TIMEZONE
 70
-8000
  9
$LIGHTGLYPHDISPLAY
280
1
  9
$TILEMODELIGHTSYNCH
280
1
  9
$CMATERIAL
347
20
  9
$SOLIDHIST
280
0
  9
$SHOWHIST
280
1
  9
$DWFFRAME
280
2
  9
$DGNFRAME
280
2
  9
$REALWORLDSCALE
290
1
  9
$INTERFERECOLOR
 62
256
  9
$CSHADOW
280
0
  9
$SHADOWPLANELOCATION
 40
0.0
  0
ENDSEC
  0
SECTION
  2
CLASSES
  0
CLASS
  1
ACDBDICTIONARYWDFLT
  2
AcDbDictionaryWithDefault
  3
ObjectDBX Classes
 90
0
 91
0
280
0
281
0
  0
CLASS
  1
SUN
  2
AcDbSun
  3
SCENEOE
 90
1153
 91
0
280
0
281
0
  0
CLASS
  1
VISUALSTYLE
  2
AcDbVisualStyle
  3
ObjectDBX Classes
 90
4095
 91
0
280
0
281
0
  0
CLASS
  1
MATERIAL
  2
AcDbMaterial
  3
ObjectDBX Classes
 90
1153
 91
0
280
0
281
0
  0
CLASS
  1
SCALE
  2
AcDbScale
  3
ObjectDBX Classes
 90
1153
 91
0
280
0
281
0
  0
CLASS
  1
TABLESTYLE
  2
AcDbTableStyle
  3
ObjectDBX Classes
 90
4095
 91
0
280
0
281
0
  0
CLASS
  1
MLEADERSTYLE
  2
AcDbMLeaderStyle
  3
ACDB_MLEADERSTYLE_CLASS
 90
4095
 91
0
280
0
281
0
  0
CLASS
  1
DICTIONARYVAR
  2
AcDbDictionaryVar
  3
ObjectDBX Classes
 90
0
 91
0
280
0
281
0
  0
CLASS
  1
CELLSTYLEMAP
  2
AcDbCellStyleMap
  3
ObjectDBX Classes
 90
1152
 91
0
280
0
281
0
  0
CLASS
  1
MENTALRAYRENDERSETTINGS
  2
AcDbMentalRayRenderSettings
  3
SCENEOE
 90
1024
 91
0
280
0
281
0
  0
CLASS
  1
ACDBDETAILVIEWSTYLE
  2
AcDbDetailViewStyle
  3
ObjectDBX Classes
 90
1025
 91
0
280
0
281
0
  0
CLASS
  1
ACDBSECTIONVIEWSTYLE
  2
AcDbSectionViewStyle
  3
ObjectDBX Classes
 90
1025
 91
0
280
0
281
0
  0
CLASS
  1
RASTERVARIABLES
  2
AcDbRasterVariables
  3
ISM
 90
0
 91
0
280
0
281
0
  0
CLASS
  1
ACDBPLACEHOLDER
  2
AcDbPlaceHolder
  3
ObjectDBX Classes
 90
0
 91
0
280
0
281
0
  0
CLASS
  1
LAYOUT
  2
AcDbLayout
  3
ObjectDBX Classes
 90
0
 91
0
280
0
281
0
  0
ENDSEC
  0
SECTION
  2
TABLES
  0
TABLE
  2
VPORT
  5
8
330
0
100
AcDbSymbolTable
 70
1
  0
VPORT
  5
23
330
8
100
AcDbSymbolTableRecord
100
AcDbViewportTableRecord
  2
*Active
 70
0
 10
0.0
 20
0.0
 11
1.0
 21
1.0
 12
0.0
 22
0.0
 13
0.0
 23
0.0
 14
0.5
 24
0.5
 15
0.5
 25
0.5
 16
0.0
 26
0.0
 36
1.0
 17
0.0
 27
0.0
 37
0.0
 40
1000.0
 41
1.34
 42
50.0
 43
0.0
 44
0.0
 50
0.0
 51
0.0
 71
0
 72
1000
 73
1
 74
3
 75
0
 76
0
 77
0
 78
0
281
0
 65
0
146
0.0
  0
ENDTAB
  0
TABLE
  2
LTYPE
  5
2
330
0
100
AcDbSymbolTable
 70
3
  0
LTYPE
  5
24
330
2
100
AcDbSymbolTableRecord
100
AcDbLinetypeTableRecord
  2
ByBlock
 70
0
  3

 72
65
 73
0
 40
0.0
  0
LTYPE
  5
25
330
2
100
AcDbSymbolTableRecord
100
AcDbLinetypeTableRecord
  2
ByLayer
 70
0
  3

 72
65
 73
0
 40
0.0
  0
LTYPE
  5
26
330
2
100
AcDbSymbolTableRecord
100
AcDbLinetypeTableRecord
  2
Continuous
 70
0
  3

 72
65
 73
0
 40
0.0
  0
ENDTAB
  0
TABLE
  2
LAYER
  5
1
330
0
100
AcDbSymbolTable
 70
8
  0
LAYER
  5
27
330
1
100
AcDbSymbolTableRecord
100
AcDbLayerTableRecord
  2
0
 70
0
 62
7
  6
Continuous
370
-3
390
13
347
21
  0
LAYER
  5
28
330
1
100
AcDbSymbolTableRecord
100
AcDbLayerTableRecord
  2
Defpoints
 70
0
 62
7
  6
Continuous
290
0
370
-3
390
13
347
21
  0
LAYER
  5
2F
330
1
100
AcDbSymbolTableRecord
100
AcDbLayerTableRecord
  2
F7_TRAMO_AU_00_01
 70
0
 62
3
  6
Continuous
370
-3
390
13
347
21
  0
LAYER
  5
30
330
1
100
AcDbSymbolTableRecord
100
AcDbLayerTableRecord
  2
F7_TRAMO_AU_01_05
 70
0
 62
4
  6
Continuous
370
-3
390
13
347
21
  0
LAYER
  5
31
330
1
100
AcDbSymbolTableRecord
100
AcDbLayerTableRecord
  2
F7_TRAMO_AU_05_15
 70
0
 62
2
  6
Continuous
370
-3
390
13
347
21
  0
LAYER
  5
32
330
1
100
AcDbSymbolTableRecord
100
AcDbLayerTableRecord
  2
F7_TRAMO_AU_15_50
 70
0
 62
30
  6
Continuous
370
-3
390
13
347
21
  0
LAYER
  5
33
330
1
100
AcDbSymbolTableRecord
100
AcDbLayerTableRecord
  2
F7_TRAMO_AU_GE_50
 70
0
 62
1
  6
Continuous
370
-3
390
13
347
21
  0
LAYER
  5
34
330
1
100
AcDbSymbolTableRecord
100
AcDbLayerTableRecord
  2
F7_ETIQUETAS
 70
0
 62
-8
  6
Continuous
370
-3
390
13
347
21
  0
ENDTAB
  0
TABLE
  2
STYLE
  5
5
330
0
100
AcDbSymbolTable
 70
1
  0
STYLE
  5
29
330
5
100
AcDbSymbolTableRecord
100
AcDbTextStyleTableRecord
  2
Standard
 70
0
 40
0.0
 41
1.0
 50
0.0
 71
0
 42
2.5
  3
txt
  4

  0
ENDTAB
  0
TABLE
  2
VIEW
  5
7
330
0
100
AcDbSymbolTable
 70
0
  0
ENDTAB
  0
TABLE
  2
UCS
  5
6
330
0
100
AcDbSymbolTable
 70
0
  0
ENDTAB
  0
TABLE
  2
APPID
  5
3
330
0
100
AcDbSymbolTable
 70
3
  0
APPID
  5
2A
330
3
100
AcDbSymbolTableRecord
100
AcDbRegAppTableRecord
  2
ACAD
 70
0
  0
APPID
  5
28B
330
3
100
AcDbSymbolTableRecord
100
AcDbRegAppTableRecord
  2
HATCHBACKGROUNDCOLOR
 70
0
  0
APPID
  5
28C
330
3
100
AcDbSymbolTableRecord
100
AcDbRegAppTableRecord
  2
EZDXF
 70
0
  0
ENDTAB
  0
TABLE
  2
DIMSTYLE
  5
4
330
0
100
AcDbSymbolTable
 70
1
100
AcDbDimStyleTable
  0
DIMSTYLE
105
2B
330
4
100
AcDbSymbolTableRecord
100
AcDbDimStyleTableRecord
  2
Standard
 70
0
 40
1.0
 41
2.5
 42
0.625
 43
3.75
 44
1.25
 45
0.0
 46
0.0
 47
0.0
 48
0.0
 49
2.5
140
2.5
141
2.5
142
0.0
143
0.03937007874
144
1.0
145
0.0
146
1.0
147
0.625
148
0.0
 69
0
 70
0
 71
0
 72
0
 73
0
 74
0
 75
0
 76
0
 77
1
 78
8
 79
3
170
0
171
3
172
1
173
0
174
0
175
0
176
0
177
0
178
0
179
2
271
2
272
2
273
2
274
3
275
0
276
0
277
2
278
44
279
0
280
0
281
0
282
0
283
0
284
8
285
0
286
0
288
0
289
3
290
0
371
-2
372
-2
  0
ENDTAB
  0
TABLE
  2
BLOCK_RECORD
  5
9
330
0
100
AcDbSymbolTable
 70
2
  0
BLOCK_RECORD
  5
17
330
9
100
AcDbSymbolTableRecord
100
AcDbBlockTableRecord
  2
*Model_Space
340
1A
 70
0
280
1
281
0
  0
BLOCK_RECORD
  5
1B
330
9
100
AcDbSymbolTableRecord
100
AcDbBlockTableRecord
  2
*Paper_Space
340
1E
 70
0
280
1
281
0
  0
ENDTAB
  0
ENDSEC
  0
SECTION
  2
BLOCKS
  0
BLOCK
  5
18
330
17
100
AcDbEntity
  8
0
100
AcDbBlockBegin
  2
*Model_Space
 70
0
 10
0.0
 20
0.0
 30
0.0
  3
*Model_Space
  1

  0
ENDBLK
  5
19
330
17
100
AcDbEntity
  8
0
100
AcDbBlockEnd
  0
BLOCK
  5
1C
330
1B
100
AcDbEntity
  8
0
100
AcDbBlockBegin
  2
*Paper_Space
 70
0
 10
0.0
 20
0.0
 30
0.0
  3
*Paper_Space
  1

  0
ENDBLK
  5
1D
330
1B
100
AcDbEntity
  8
0
100
AcDbBlockEnd
  0
ENDSEC
  0
SECTION
  2
ENTITIES
  0
LINE
  5
35
330
17
100
AcDbEntity
  8
F7_TRAMO_AU_00_01
100
AcDbLine
 10
114.87578452995513
 20
39.61854344047606
 30
63.3069999999999
 11
114.9862258899957
 21
40.05391908995807
 31
61.36699999999996
  0
TEXT
  5
36
330
17
100
AcDbEntity
  8
F7_ETIQUETAS
100
AcDbText
 10
114.93100520997541
 20
39.836231265217066
 30
62.33699999999993
 40
0.4
  1
TR-0001 | Au 0.46
 11
114.93100520997541
 21
39.836231265217066
 31
62.33699999999993
100
AcDbText
  0
LINE
  5
37
330
17
100
AcDbEntity
  8
F7_TRAMO_AU_00_01
100
AcDbLine
 10
114.9862258899957
 20
40.05391908995807
 30
61.36699999999996
 11
115.1293932099361
 21
40.82177759986371
 31
59.456999999999994
  0
TEXT
  5
38
330
17
100
AcDbEntity
  8
F7_ETIQUETAS
100
AcDbText
 10
115.0578095499659
 20
40.43784834491089
 30
60.41199999999998
 40
0.4
  1
TR-0002 | Au 0.16
 11
115.0578095499659
 21
40.43784834491089
 31
60.41199999999998
100
AcDbText
  0
LINE
  5
39
330
17
100
AcDbEntity
  8
F7_TRAMO_AU_00_01
100
AcDbLine
 10
114.57659833994694
 20
38.50816186983138
 30
67.13699999999994
 11
114.72371014999226
 21
39.16502629965544
 31
65.197
  0
TEXT
  5
3A
330
17
100
AcDbEntity
  8
F7_ETIQUETAS
100
AcDbText
 10
114.6501542449696
 20
38.83659408474341
 30
66.16699999999997
 40
0.4
  1
TR-0003 | Au 0.19
 11
114.6501542449696
 21
38.83659408474341
 31
66.16699999999997
100
AcDbText
  0
LINE
  5
3B
330
17
100
AcDbEntity
  8
F7_TRAMO_AU_00_01
100
AcDbLine
 10
133.13509999995586
 20
50.231399999931455
 30
0.0
 11
134.99029999994673
 21
49.48909999988973
 31
0.0
  0
TEXT
  5
3C
330
17
100
AcDbEntity
  8
F7_ETIQUETAS
100
AcDbText
 10
134.0626999999513
 20
49.86024999991059
 30
0.0
 40
0.4
  1
TR-0004 | Au 0.38
 11
134.0626999999513
 21
49.86024999991059
 31
0.0
100
AcDbText
  0
LINE
  5
3D
330
17
100
AcDbEntity
  8
F7_TRAMO_AU_00_01
100
AcDbLine
 10
134.99029999994673
 20
49.48909999988973
 30
0.0
 11
136.88919999997597
 21
48.865100000053644
 31
0.0
  0
TEXT
  5
3E
330
17
100
AcDbEntity
  8
F7_ETIQUETAS
100
AcDbText
 10
135.93974999996135
 20
49.17709999997169
 30
0.0
 40
0.4
  1
TR-0005 | Au 0.31
 11
135.93974999996135
 21
49.17709999997169
 31
0.0
100
AcDbText
  0
LINE
  5
3F
330
17
100
AcDbEntity
  8
F7_TRAMO_AU_00_01
100
AcDbLine
 10
136.88919999997597
 20
48.865100000053644
 30
0.0
 11
138.82319999998435
 21
48.35670000035316
 31
0.0
  0
TEXT
  5
40
330
17
100
AcDbEntity
  8
F7_ETIQUETAS
100
AcDbText
 10
137.85619999998016
 20
48.6109000002034
 30
0.0
 40
0.4
  1
TR-0006 | Au 0.12
 11
137.85619999998016
 21
48.6109000002034
 31
0.0
100
AcDbText
  0
LINE
  5
41
330
17
100
AcDbEntity
  8
F7_TRAMO_AU_00_01
100
AcDbLine
 10
138.82319999998435
 20
48.35670000035316
 30
0.0
 11
140.74060000001919
 21
47.787800000049174
 31
0.0
  0
TEXT
  5
42
330
17
100
AcDbEntity
  8
F7_ETIQUETAS
100
AcDbText
 10
139.78190000000177
 20
48.072250000201166
 30
0.0
 40
0.4
  1
TR-0007 | Au 0.13
 11
139.78190000000177
 21
48.072250000201166
 31
0.0
100
AcDbText
  0
LINE
  5
43
330
17
100
AcDbEntity
  8
F7_TRAMO_AU_00_01
100
AcDbLine
 10
140.74060000001919
 20
47.787800000049174
 30
0.0
 11
142.68880000000354
 21
47.33779999986291
 31
0.0
  0
TEXT
  5
44
330
17
100
AcDbEntity
  8
F7_ETIQUETAS
100
AcDbText
 10
141.71470000001136
 20
47.56279999995604
 30
0.0
 40
0.4
  1
TR-0008 | Au 0.15
 11
141.71470000001136
 21
47.56279999995604
 31
0.0
100
AcDbText
  0
LINE
  5
45
330
17
100
AcDbEntity
  8
F7_TRAMO_AU_00_01
100
AcDbLine
 10
142.68880000000354
 20
47.33779999986291
 30
0.0
 11
144.6422999999486
 21
46.9093000004068
 31
0.0
  0
TEXT
  5
46
330
17
100
AcDbEntity
  8
F7_ETIQUETAS
100
AcDbText
 10
143.66554999997607
 20
47.123550000134856
 30
0.0
 40
0.4
  1
TR-0009 | Au 0.12
 11
143.66554999997607
 21
47.123550000134856
 31
0.0
100
AcDbText
  0
LINE
  5
47
330
17
100
AcDbEntity
  8
F7_TRAMO_AU_00_01
100
AcDbLine
 10
144.6422999999486
 20
46.9093000004068
 30
0.0
 11
146.59679999994114
 21
46.48489999957383
 31
0.0
  0
TEXT
  5
48
330
17
100
AcDbEntity
  8
F7_ETIQUETAS
100
AcDbText
 10
145.61954999994487
 20
46.697099999990314
 30
0.0
 40
0.4
  1
TR-0010 | Au 0.09
 11
145.61954999994487
 21
46.697099999990314
 31
0.0
100
AcDbText
  0
LINE
  5
49
330
17
100
AcDbEntity
  8
F7_TRAMO_AU_00_01
100
AcDbLine
 10
146.59679999994114
 20
46.48489999957383
 30
0.0
 11
148.54960000002757
 21
46.05319999996573
 31
0.0
  0
TEXT
  5
4A
330
17
100
AcDbEntity
  8
F7_ETIQUETAS
100
AcDbText
 10
147.57319999998435
 20
46.26904999976978
 30
0.0
 40
0.4
  1
TR-0011 | Au 0.49
 11
147.57319999998435
 21
46.26904999976978
 31
0.0
100
AcDbText
  0
LINE
  5
4B
330
17
100
AcDbEntity
  8
F7_TRAMO_AU_00_01
100
AcDbLine
 10
148.54960000002757
 20
46.05319999996573
 30
0.0
 11
150.52939999999944
 21
45.8238000003621
 31
0.0
  0
TEXT
  5
4C
330
17
100
AcDbEntity
  8
F7_ETIQUETAS
100
AcDbText
 10
149.5395000000135
 20
45.93850000016391
 30
0.0
 40
0.4
  1
TR-0012 | Au 0.53
 11
149.5395000000135
 21
45.93850000016391
 31
0.0
100
AcDbText
  0
LINE
  5
4D
330
17
100
AcDbEntity
  8
F7_TRAMO_AU_00_01
100
AcDbLine
 10
150.52939999999944
 20
45.8238000003621
 30
0.0
 11
152.51319999992847
 21
46.044700000435114
 31
0.0
  0
TEXT
  5
4E
330
17
100
AcDbEntity
  8
F7_ETIQUETAS
100
AcDbText
 10
151.52129999996396
 20
45.934250000398606
 30
0.0
 40
0.4
  1
TR-0013 | Au 0.11
 11
151.52129999996396
 21
45.934250000398606
 31
0.0
100
AcDbText
  0
LINE
  5
4F
330
17
100
AcDbEntity
  8
F7_TRAMO_AU_00_01
100
AcDbLine
 10
152.51319999992847
 20
46.044700000435114
 30
0.0
 11
154.4714999999851
 21
46.43350000027567
 31
0.0
  0
TEXT
  5
50
330
17
100
AcDbEntity
  8
F7_ETIQUETAS
100
AcDbText
 10
153.4923499999568
 20
46.23910000035539
 30
0.0
 40
0.4
  1
TR-0014 | Au 0.16
 11
153.4923499999568
 21
46.23910000035539
 31
0.0
100
AcDbText
  0
LINE
  5
51
330
17
100
AcDbEntity
  8
F7_TRAMO_AU_05_15
100
AcDbLine
 10
338.420999999973
 20
3.724399999715388
 30
51.59699999999998
 11
340.37509999994654
 21
3.339100000448525
 31
51.59699999999998
  0
TEXT
  5
52
330
17
100
AcDbEntity
  8
F7_ETIQUETAS
100
AcDbText
 10
339.39804999995977
 20
3.5317500000819564
 30
51.59699999999998
 40
0.4
  1
TR-0015 | Au 7.30
 11
339.39804999995977
 21
3.5317500000819564
 31
51.59699999999998
100
AcDbText
  0
LINE
  5
53
330
17
100
AcDbEntity
  8
F7_TRAMO_AU_01_05
100
AcDbLine
 10
340.37509999994654
 20
3.339100000448525
 30
51.59699999999998
 11
341.61509999993723
 21
2.9259999999776483
 31
51.27719999999999
  0
TEXT
  5
54
330
17
100
AcDbEntity
  8
F7_ETIQUETAS
100
AcDbText
 10
340.9950999999419
 20
3.1325500002130866
 30
51.43709999999999
 40
0.4
  1
TR-0016 | Au 2.74
 11
340.9950999999419
 21
3.1325500002130866
 31
51.43709999999999
100
AcDbText
  0
LINE
  5
55
330
17
100
AcDbEntity
  8
F7_TRAMO_AU_00_01
100
AcDbLine
 10
341.61509999993723
 20
2.9259999999776483
 30
51.27719999999999
 11
342.31160000001546
 21
2.853400000371039
 31
51.59699999999998
  0
TEXT
  5
56
330
17
100
AcDbEntity
  8
F7_ETIQUETAS
100
AcDbText
 10
341.96334999997634
 20
2.8897000001743436
 30
51.43709999999999
 40
0.4
  1
TR-0017 | Au 0.08
 11
341.96334999997634
 21
2.8897000001743436
 31
51.43709999999999
100
AcDbText
  0
LINE
  5
57
330
17
100
AcDbEntity
  8
F7_TRAMO_AU_00_01
100
AcDbLine
 10
342.31160000001546
 20
2.853400000371039
 30
51.59699999999998
 11
344.22159999993164
 21
2.2626000000163913
 31
51.59699999999998
  0
TEXT
  5
58
330
17
100
AcDbEntity
  8
F7_ETIQUETAS
100
AcDbText
 10
343.26659999997355
 20
2.558000000193715
 30
51.59699999999998
 40
0.4
  1
TR-0018 | Au 0.09
 11
343.26659999997355
 21
2.558000000193715
 31
51.59699999999998
100
AcDbText
  0
LINE
  5
59
330
17
100
AcDbEntity
  8
F7_TRAMO_AU_01_05
100
AcDbLine
 10
344.22159999993164
 20
2.2626000000163913
 30
51.59699999999998
 11
346.2060000000056
 21
1.9691000003367662
 31
51.59699999999998
  0
TEXT
  5
5A
330
17
100
AcDbEntity
  8
F7_ETIQUETAS
100
AcDbText
 10
345.2137999999686
 20
2.1158500001765788
 30
51.59699999999998
 40
0.4
  1
TR-0019 | Au 1.04
 11
345.2137999999686
 21
2.1158500001765788
 31
51.59699999999998
100
AcDbText
  0
LINE
  5
5B
330
17
100
AcDbEntity
  8
F7_TRAMO_AU_05_15
100
AcDbLine
 10
346.2060000000056
 20
1.9691000003367662
 30
51.59699999999998
 11
348.20649999997113
 21
1.9126000003889203
 31
51.59699999999998
  0
TEXT
  5
5C
330
17
100
AcDbEntity
  8
F7_ETIQUETAS
100
AcDbText
 10
347.20624999998836
 20
1.9408500003628433
 30
51.59699999999998
 40
0.4
  1
TR-0020 | Au 6.58
 11
347.20624999998836
 21
1.9408500003628433
 31
51.59699999999998
100
AcDbText
  0
LINE
  5
5D
330
17
100
AcDbEntity
  8
F7_TRAMO_AU_05_15
100
AcDbLine
 10
348.20649999997113
 20
1.9126000003889203
 30
51.59699999999998
 11
350.204000000027
 21
1.8161000004038215
 31
51.59699999999998
  0
TEXT
  5
5E
330
17
100
AcDbEntity
  8
F7_ETIQUETAS
100
AcDbText
 10
349.20524999999907
 20
1.8643500003963709
 30
51.59699999999998
 40
0.4
  1
TR-0021 | Au 5.29
 11
349.20524999999907
 21
1.8643500003963709
 31
51.59699999999998
100
AcDbText
  0
LINE
  5
5F
330
17
100
AcDbEntity
  8
F7_TRAMO_AU_01_05
100
AcDbLine
 10
350.204000000027
 20
1.8161000004038215
 30
51.59699999999998
 11
352.20349999994505
 21
1.8092000000178814
 31
51.59699999999998
  0
TEXT
  5
60
330
17
100
AcDbEntity
  8
F7_ETIQUETAS
100
AcDbText
 10
351.20374999998603
 20
1.8126500002108514
 30
51.59699999999998
 40
0.4
  1
TR-0022 | Au 1.12
 11
351.20374999998603
 21
1.8126500002108514
 31
51.59699999999998
100
AcDbText
  0
LINE
  5
61
330
17
100
AcDbEntity
  8
F7_TRAMO_AU_01_05
100
AcDbLine
 10
352.20349999994505
 20
1.8092000000178814
 30
51.59699999999998
 11
354.48470000003
 21
1.8174999998882413
 31
51.59699999999998
  0
TEXT
  5
62
330
17
100
AcDbEntity
  8
F7_ETIQUETAS
100
AcDbText
 10
353.3440999999875
 20
1.8133499999530613
 30
51.59699999999998
 40
0.4
  1
TR-0023 | Au 1.14
 11
353.3440999999875
 21
1.8133499999530613
 31
51.59699999999998
100
AcDbText
  0
LINE
  5
63
330
17
100
AcDbEntity
  8
F7_TRAMO_AU_00_01
100
AcDbLine
 10
354.48470000003
 20
1.8174999998882413
 30
51.59699999999998
 11
355.2927999999374
 21
1.2627999996766448
 31
51.59699999999998
  0
TEXT
  5
64
330
17
100
AcDbEntity
  8
F7_ETIQUETAS
100
AcDbText
 10
354.8887499999837
 20
1.540149999782443
 30
51.59699999999998
 40
0.4
  1
TR-0024 | Au 0.66
 11
354.8887499999837
 21
1.540149999782443
 31
51.59699999999998
100
AcDbText
  0
LINE
  5
65
330
17
100
AcDbEntity
  8
F7_TRAMO_AU_00_01
100
AcDbLine
 10
355.2927999999374
 20
1.2627999996766448
 30
51.59699999999998
 11
357.54839999997057
 21
0.8005999997258186
 31
51.59699999999998
  0
TEXT
  5
66
330
17
100
AcDbEntity
  8
F7_ETIQUETAS
100
AcDbText
 10
356.420599999954
 20
1.0316999997012317
 30
51.59699999999998
 40
0.4
  1
TR-0025 | Au 0.45
 11
356.420599999954
 21
1.0316999997012317
 31
51.59699999999998
100
AcDbText
  0
LINE
  5
67
330
17
100
AcDbEntity
  8
F7_TRAMO_AU_01_05
100
AcDbLine
 10
357.54839999997057
 20
0.8005999997258186
 30
51.59699999999998
 11
359.91419999999925
 21
0.6986999996006489
 31
51.59699999999998
  0
TEXT
  5
68
330
17
100
AcDbEntity
  8
F7_ETIQUETAS
100
AcDbText
 10
358.7312999999849
 20
0.7496499996632338
 30
51.59699999999998
 40
0.4
  1
TR-0026 | Au 1.58
 11
358.7312999999849
 21
0.7496499996632338
 31
51.59699999999998
100
AcDbText
  0
LINE
  5
69
330
17
100
AcDbEntity
  8
F7_TRAMO_AU_01_05
100
AcDbLine
 10
359.91419999999925
 20
0.6986999996006489
 30
51.59699999999998
 11
361.45880000002217
 21
0.5189000004902482
 31
51.59699999999998
  0
TEXT
  5
6A
330
17
100
AcDbEntity
  8
F7_ETIQUETAS
100
AcDbText
 10
360.6865000000107
 20
0.6088000000454485
 30
51.59699999999998
 40
0.4
  1
TR-0027 | Au 2.62
 11
360.6865000000107
 21
0.6088000000454485
 31
51.59699999999998
100
AcDbText
  0
LINE
  5
6B
330
17
100
AcDbEntity
  8
F7_TRAMO_AU_00_01
100
AcDbLine
 10
361.45880000002217
 20
0.5189000004902482
 30
51.59699999999998
 11
364.38670000003185
 21
0.80489999987185
 31
51.59699999999998
  0
TEXT
  5
6C
330
17
100
AcDbEntity
  8
F7_ETIQUETAS
100
AcDbText
 10
362.922750000027
 20
0.6619000001810491
 30
51.59699999999998
 40
0.4
  1
TR-0028 | Au 0.76
 11
362.922750000027
 21
0.6619000001810491
 31
51.59699999999998
100
AcDbText
  0
LINE
  5
6D
330
17
100
AcDbEntity
  8
F7_TRAMO_AU_00_01
100
AcDbLine
 10
364.38670000003185
 20
0.80489999987185
 30
51.59699999999998
 11
366.3674999999348
 21
0.7852999996393919
 31
51.59699999999998
  0
TEXT
  5
6E
330
17
100
AcDbEntity
  8
F7_ETIQUETAS
100
AcDbText
 10
365.37709999998333
 20
0.795099999755621
 30
51.59699999999998
 40
0.4
  1
TR-0029 | Au 0.43
 11
365.37709999998333
 21
0.795099999755621
 31
51.59699999999998
100
AcDbText
  0
LINE
  5
6F
330
17
100
AcDbEntity
  8
F7_TRAMO_AU_01_05
100
AcDbLine
 10
366.3674999999348
 20
0.7852999996393919
 30
51.59699999999998
 11
366.3283999999985
 21
0.0
 31
51.59699999999998
  0
TEXT
  5
70
330
17
100
AcDbEntity
  8
F7_ETIQUETAS
100
AcDbText
 10
366.34794999996666
 20
0.39264999981969595
 30
51.59699999999998
 40
0.4
  1
TR-0030 | Au 1.25
 11
366.34794999996666
 21
0.39264999981969595
 31
51.59699999999998
100
AcDbText
  0
LINE
  5
71
330
17
100
AcDbEntity
  8
F7_TRAMO_AU_01_05
100
AcDbLine
 10
366.3283999999985
 20
0.0
 30
51.59699999999998
 11
367.73649999999907
 21
0.5001999996602535
 31
51.59699999999998
  0
TEXT
  5
72
330
17
100
AcDbEntity
  8
F7_ETIQUETAS
100
AcDbText
 10
367.0324499999988
 20
0.25009999983012676
 30
51.59699999999998
 40
0.4
  1
TR-0031 | Au 1.42
 11
367.0324499999988
 21
0.25009999983012676
 31
51.59699999999998
100
AcDbText
  0
LINE
  5
73
330
17
100
AcDbEntity
  8
F7_TRAMO_AU_00_01
100
AcDbLine
 10
367.73649999999907
 20
0.5001999996602535
 30
51.59699999999998
 11
370.7321000000229
 21
0.007699999958276749
 31
51.59699999999998
  0
TEXT
  5
74
330
17
100
AcDbEntity
  8
F7_ETIQUETAS
100
AcDbText
 10
369.234300000011
 20
0.25394999980926514
 30
51.59699999999998
 40
0.4
  1
TR-0032 | Au 0.53
 11
369.234300000011
 21
0.25394999980926514
 31
51.59699999999998
100
AcDbText
  0
LINE
  5
75
330
17
100
AcDbEntity
  8
F7_TRAMO_AU_00_01
100
AcDbLine
 10
370.7321000000229
 20
0.007699999958276749
 30
51.59699999999998
 11
373.87569999997504
 21
0.8459000000730157
 31
51.59699999999998
  0
TEXT
  5
76
330
17
100
AcDbEntity
  8
F7_ETIQUETAS
100
AcDbText
 10
372.303899999999
 20
0.4268000000156462
 30
51.59699999999998
 40
0.4
  1
TR-0033 | Au 0.10
 11
372.303899999999
 21
0.4268000000156462
 31
51.59699999999998
100
AcDbText
  0
LINE
  5
77
330
17
100
AcDbEntity
  8
F7_TRAMO_AU_00_01
100
AcDbLine
 10
11.216316417674534
 20
52.52306155394763
 30
51.84699999999998
 11
13.15077096002642
 21
52.015237151645124
 31
51.84699999999998
  0
TEXT
  5
78
330
17
100
AcDbEntity
  8
F7_ETIQUETAS
100
AcDbText
 10
12.183543688850477
 20
52.269149352796376
 30
51.84699999999998
 40
0.4
  1
TR-0034 | Au 0.74
 11
12.183543688850477
 21
52.269149352796376
 31
51.84699999999998
100
AcDbText
  0
LINE
  5
79
330
17
100
AcDbEntity
  8
F7_TRAMO_AU_00_01
100
AcDbLine
 10
13.15077096002642
 20
52.015237151645124
 30
51.84699999999998
 11
15.135119104990736
 21
51.82399496808648
 31
51.84699999999998
  0
TEXT
  5
7A
330
17
100
AcDbEntity
  8
F7_ETIQUETAS
100
AcDbText
 10
14.142945032508578
 20
51.9196160598658
 30
51.84699999999998
 40
0.4
  1
TR-0035 | Au 0.50
 11
14.142945032508578
 21
51.9196160598658
 31
51.84699999999998
100
AcDbText
  0
LINE
  5
7B
330
17
100
AcDbEntity
  8
F7_TRAMO_AU_05_15
100
AcDbLine
 10
15.135119104990736
 20
51.82399496808648
 30
51.84699999999998
 11
17.119959214585833
 21
51.59051546640694
 31
51.84699999999998
  0
TEXT
  5
7C
330
17
100
AcDbEntity
  8
F7_ETIQUETAS
100
AcDbText
 10
16.127539159788284
 20
51.70725521724671
 30
51.84699999999998
 40
0.4
  1
TR-0036 | Au 11.81
 11
16.127539159788284
 21
51.70725521724671
 31
51.84699999999998
100
AcDbText
  0
LINE
  5
7D
330
17
100
AcDbEntity
  8
F7_TRAMO_AU_15_50
100
AcDbLine
 10
17.119959214585833
 20
51.59051546640694
 30
51.84699999999998
 11
19.256555730476975
 21
51.70864383969456
 31
51.84699999999998
  0
TEXT
  5
7E
330
17
100
AcDbEntity
  8
F7_ETIQUETAS
100
AcDbText
 10
18.188257472531404
 20
51.64957965305075
 30
51.84699999999998
 40
0.4
  1
TR-0037 | Au 17.06
 11
18.188257472531404
 21
51.64957965305075
 31
51.84699999999998
100
AcDbText
  0
LINE
  5
7F
330
17
100
AcDbEntity
  8
F7_TRAMO_AU_05_15
100
AcDbLine
 10
19.256555730476975
 20
51.70864383969456
 30
51.84699999999998
 11
20.908634254476056
 21
52.49741495214403
 31
51.84699999999998
  0
TEXT
  5
80
330
17
100
AcDbEntity
  8
F7_ETIQUETAS
100
AcDbText
 10
20.082594992476515
 20
52.10302939591929
 30
51.84699999999998
 40
0.4
  1
TR-0038 | Au 10.80
 11
20.082594992476515
 21
52.10302939591929
 31
51.84699999999998
100
AcDbText
  0
LINE
  5
81
330
17
100
AcDbEntity
  8
F7_TRAMO_AU_15_50
100
AcDbLine
 10
20.908634254476056
 20
52.49741495214403
 30
51.84699999999998
 11
22.391471189330332
 21
53.80543035827577
 31
51.84699999999998
  0
TEXT
  5
82
330
17
100
AcDbEntity
  8
F7_ETIQUETAS
100
AcDbText
 10
21.650052721903194
 20
53.1514226552099
 30
51.84699999999998
 40
0.4
  1
TR-0039 | Au 28.04
 11
21.650052721903194
 21
53.1514226552099
 31
51.84699999999998
100
AcDbText
  0
LINE
  5
83
330
17
100
AcDbEntity
  8
F7_TRAMO_AU_GE_50
100
AcDbLine
 10
22.391471189330332
 20
53.80543035827577
 30
51.84699999999998
 11
24.294706722954288
 21
54.443118292838335
 31
51.84699999999998
  0
TEXT
  5
84
330
17
100
AcDbEntity
  8
F7_ETIQUETAS
100
AcDbText
 10
23.34308895614231
 20
54.12427432555705
 30
51.84699999999998
 40
0.4
  1
TR-0040 | Au 64.46
 11
23.34308895614231
 21
54.12427432555705
 31
51.84699999999998
100
AcDbText
  0
LINE
  5
85
330
17
100
AcDbEntity
  8
F7_TRAMO_AU_15_50
100
AcDbLine
 10
24.294706722954288
 20
54.443118292838335
 30
51.84699999999998
 11
26.17704373691231
 21
55.08697970956564
 31
51.84699999999998
  0
TEXT
  5
86
330
17
100
AcDbEntity
  8
F7_ETIQUETAS
100
AcDbText
 10
25.2358752299333
 20
54.76504900120199
 30
51.84699999999998
 40
0.4
  1
TR-0041 | Au 38.15
 11
25.2358752299333
 21
54.76504900120199
 31
51.84699999999998
100
AcDbText
  0
LINE
  5
87
330
17
100
AcDbEntity
  8
F7_TRAMO_AU_05_15
100
AcDbLine
 10
26.17704373691231
 20
55.08697970956564
 30
51.84699999999998
 11
28.158796768984757
 21
55.32755241822451
 31
51.84699999999998
  0
TEXT
  5
88
330
17
100
AcDbEntity
  8
F7_ETIQUETAS
100
AcDbText
 10
27.167920252948534
 20
55.20726606389508
 30
51.84699999999998
 40
0.4
  1
TR-0042 | Au 9.37
 11
27.167920252948534
 21
55.20726606389508
 31
51.84699999999998
100
AcDbText
  0
LINE
  5
89
330
17
100
AcDbEntity
  8
F7_TRAMO_AU_05_15
100
AcDbLine
 10
28.158796768984757
 20
55.32755241822451
 30
51.84699999999998
 11
30.152034800034016
 21
55.48247607797384
 31
51.84699999999998
  0
TEXT
  5
8A
330
17
100
AcDbEntity
  8
F7_ETIQUETAS
100
AcDbText
 10
29.155415784509387
 20
55.40501424809918
 30
51.84699999999998
 40
0.4
  1
TR-0043 | Au 11.96
 11
29.155415784509387
 21
55.40501424809918
 31
51.84699999999998
100
AcDbText
  0
LINE
  5
8B
330
17
100
AcDbEntity
  8
F7_TRAMO_AU_05_15
100
AcDbLine
 10
30.152034800034016
 20
55.48247607797384
 30
51.84699999999998
 11
32.1483745011501
 21
55.60332972090691
 31
51.84699999999998
  0
TEXT
  5
8C
330
17
100
AcDbEntity
  8
F7_ETIQUETAS
100
AcDbText
 10
31.15020465059206
 20
55.54290289944038
 30
51.84699999999998
 40
0.4
  1
TR-0044 | Au 9.15
 11
31.15020465059206
 21
55.54290289944038
 31
51.84699999999998
100
AcDbText
  0
LINE
  5
8D
330
17
100
AcDbEntity
  8
F7_TRAMO_AU_01_05
100
AcDbLine
 10
32.1483745011501
 20
55.60332972090691
 30
51.84699999999998
 11
34.14689364598598
 21
55.64427399635315
 31
51.84699999999998
  0
TEXT
  5
8E
330
17
100
AcDbEntity
  8
F7_ETIQUETAS
100
AcDbText
 10
33.14763407356804
 20
55.62380185863003
 30
51.84699999999998
 40
0.4
  1
TR-0045 | Au 4.55
 11
33.14763407356804
 21
55.62380185863003
 31
51.84699999999998
100
AcDbText
  0
LINE
  5
8F
330
17
100
AcDbEntity
  8
F7_TRAMO_AU_15_50
100
AcDbLine
 10
34.14689364598598
 20
55.64427399635315
 30
51.84699999999998
 11
35.64837430708576
 21
55.636726047843695
 31
51.84699999999998
  0
TEXT
  5
90
330
17
100
AcDbEntity
  8
F7_ETIQUETAS
100
AcDbText
 10
34.89763397653587
 20
55.64050002209842
 30
51.84699999999998
 40
0.4
  1
TR-0046 | Au 46.28
 11
34.89763397653587
 21
55.64050002209842
 31
51.84699999999998
100
AcDbText
  0
LINE
  5
91
330
17
100
AcDbEntity
  8
F7_TRAMO_AU_GE_50
100
AcDbLine
 10
35.64837430708576
 20
55.636726047843695
 30
51.84699999999998
 11
37.5492730186088
 21
55.161691159941256
 31
51.84699999999998
  0
TEXT
  5
92
330
17
100
AcDbEntity
  8
F7_ETIQUETAS
100
AcDbText
 10
36.59882366284728
 20
55.399208603892475
 30
51.84699999999998
 40
0.4
  1
TR-0047 | Au 56.34
 11
36.59882366284728
 21
55.399208603892475
 31
51.84699999999998
100
AcDbText
  0
LINE
  5
93
330
17
100
AcDbEntity
  8
F7_TRAMO_AU_15_50
100
AcDbLine
 10
37.5492730186088
 20
55.161691159941256
 30
51.84699999999998
 11
39.5312956153648
 21
54.85838970914483
 31
51.84699999999998
  0
TEXT
  5
94
330
17
100
AcDbEntity
  8
F7_ETIQUETAS
100
AcDbText
 10
38.5402843169868
 20
55.01004043454304
 30
51.84699999999998
 40
0.4
  1
TR-0048 | Au 28.91
 11
38.5402843169868
 21
55.01004043454304
 31
51.84699999999998
100
AcDbText
  0
LINE
  5
95
330
17
100
AcDbEntity
  8
F7_TRAMO_AU_01_05
100
AcDbLine
 10
39.5312956153648
 20
54.85838970914483
 30
51.84699999999998
 11
41.489366191555746
 21
54.48798477463424
 31
51.84699999999998
  0
TEXT
  5
96
330
17
100
AcDbEntity
  8
F7_ETIQUETAS
100
AcDbText
 10
40.51033090346027
 20
54.673187241889536
 30
51.84699999999998
 40
0.4
  1
TR-0049 | Au 3.06
 11
40.51033090346027
 21
54.673187241889536
 31
51.84699999999998
100
AcDbText
  0
LINE
  5
97
330
17
100
AcDbEntity
  8
F7_TRAMO_AU_00_01
100
AcDbLine
 10
41.489366191555746
 20
54.48798477463424
 30
51.84699999999998
 11
43.46342670475133
 21
54.13522894773632
 31
51.84699999999998
  0
TEXT
  5
98
330
17
100
AcDbEntity
  8
F7_ETIQUETAS
100
AcDbText
 10
42.47639644815354
 20
54.31160686118528
 30
51.84699999999998
 40
0.4
  1
TR-0050 | Au 0.78
 11
42.47639644815354
 21
54.31160686118528
 31
51.84699999999998
100
AcDbText
  0
LINE
  5
99
330
17
100
AcDbEntity
  8
F7_TRAMO_AU_00_01
100
AcDbLine
 10
43.46342670475133
 20
54.13522894773632
 30
51.84699999999998
 11
45.44937002577353
 21
53.876622434705496
 31
51.84699999999998
  0
TEXT
  5
9A
330
17
100
AcDbEntity
  8
F7_ETIQUETAS
100
AcDbText
 10
44.45639836526243
 20
54.00592569122091
 30
51.84699999999998
 40
0.4
  1
TR-0051 | Au 0.75
 11
44.45639836526243
 21
54.00592569122091
 31
51.84699999999998
100
AcDbText
  0
LINE
  5
9B
330
17
100
AcDbEntity
  8
F7_TRAMO_AU_01_05
100
AcDbLine
 10
45.44937002577353
 20
53.876622434705496
 30
51.84699999999998
 11
47.433580257580616
 21
53.64421282708645
 31
51.84699999999998
  0
TEXT
  5
9C
330
17
100
AcDbEntity
  8
F7_ETIQUETAS
100
AcDbText
 10
46.441475141677074
 20
53.76041763089597
 30
51.84699999999998
 40
0.4
  1
TR-0052 | Au 1.38
 11
46.441475141677074
 21
53.76041763089597
 31
51.84699999999998
100
AcDbText
  0
LINE
  5
9D
330
17
100
AcDbEntity
  8
F7_TRAMO_AU_00_01
100
AcDbLine
 10
47.433580257580616
 20
53.64421282708645
 30
51.84699999999998
 11
49.39286989404354
 21
53.26837014313787
 31
51.84699999999998
  0
TEXT
  5
9E
330
17
100
AcDbEntity
  8
F7_ETIQUETAS
100
AcDbText
 10
48.41322507581208
 20
53.45629148511216
 30
51.84699999999998
 40
0.4
  1
TR-0053 | Au 0.91
 11
48.41322507581208
 21
53.45629148511216
 31
51.84699999999998
100
AcDbText
  0
LINE
  5
9F
330
17
100
AcDbEntity
  8
F7_TRAMO_AU_05_15
100
AcDbLine
 10
49.39286989404354
 20
53.26837014313787
 30
51.84699999999998
 11
51.23100268363487
 21
52.51474748272449
 31
51.84699999999998
  0
TEXT
  5
A0
330
17
100
AcDbEntity
  8
F7_ETIQUETAS
100
AcDbText
 10
50.311936288839206
 20
52.89155881293118
 30
51.84699999999998
 40
0.4
  1
TR-0054 | Au 6.76
 11
50.311936288839206
 21
52.89155881293118
 31
51.84699999999998
100
AcDbText
  0
LINE
  5
A1
330
17
100
AcDbEntity
  8
F7_TRAMO_AU_01_05
100
AcDbLine
 10
51.23100268363487
 20
52.51474748272449
 30
51.84699999999998
 11
53.06416299578268
 21
51.74803229048848
 31
51.84699999999998
  0
TEXT
  5
A2
330
17
100
AcDbEntity
  8
F7_ETIQUETAS
100
AcDbText
 10
52.147582839708775
 20
52.131389886606485
 30
51.84699999999998
 40
0.4
  1
TR-0055 | Au 4.12
 11
52.147582839708775
 21
52.131389886606485
 31
51.84699999999998
100
AcDbText
  0
LINE
  5
A3
330
17
100
AcDbEntity
  8
F7_TRAMO_AU_00_01
100
AcDbLine
 10
53.06416299578268
 20
51.74803229048848
 30
51.84699999999998
 11
55.03959285560995
 21
51.27058223634958
 31
51.84699999999998
  0
TEXT
  5
A4
330
17
100
AcDbEntity
  8
F7_ETIQUETAS
100
AcDbText
 10
54.05187792569632
 20
51.50930726341903
 30
51.84699999999998
 40
0.4
  1
TR-0056 | Au 0.36
 11
54.05187792569632
 21
51.50930726341903
 31
51.84699999999998
100
AcDbText
  0
LINE
  5
A5
330
17
100
AcDbEntity
  8
F7_TRAMO_AU_05_15
100
AcDbLine
 10
55.03959285560995
 20
51.27058223634958
 30
51.84699999999998
 11
56.98416551947594
 21
50.78019733261317
 31
51.84699999999998
  0
TEXT
  5
A6
330
17
100
AcDbEntity
  8
F7_ETIQUETAS
100
AcDbText
 10
56.011879187542945
 20
51.025389784481376
 30
51.84699999999998
 40
0.4
  1
TR-0057 | Au 9.67
 11
56.011879187542945
 21
51.025389784481376
 31
51.84699999999998
100
AcDbText
  0
LINE
  5
A7
330
17
100
AcDbEntity
  8
F7_TRAMO_AU_05_15
100
AcDbLine
 10
56.98416551947594
 20
50.78019733261317
 30
51.84699999999998
 11
58.98438086814713
 21
50.81023244187236
 31
51.84699999999998
  0
TEXT
  5
A8
330
17
100
AcDbEntity
  8
F7_ETIQUETAS
100
AcDbText
 10
57.98427319381153
 20
50.795214887242764
 30
51.84699999999998
 40
0.4
  1
TR-0058 | Au 7.85
 11
57.98427319381153
 21
50.795214887242764
 31
51.84699999999998
100
AcDbText
  0
LINE
  5
A9
330
17
100
AcDbEntity
  8
F7_TRAMO_AU_05_15
100
AcDbLine
 10
58.98438086814713
 20
50.81023244187236
 30
51.84699999999998
 11
60.94061027432326
 21
50.48419076669961
 31
51.84699999999998
  0
TEXT
  5
AA
330
17
100
AcDbEntity
  8
F7_ETIQUETAS
100
AcDbText
 10
59.962495571235195
 20
50.647211604285985
 30
51.84699999999998
 40
0.4
  1
TR-0059 | Au 12.24
 11
59.962495571235195
 21
50.647211604285985
 31
51.84699999999998
100
AcDbText
  0
LINE
  5
AB
330
17
100
AcDbEntity
  8
F7_TRAMO_AU_05_15
100
AcDbLine
 10
60.94061027432326
 20
50.48419076669961
 30
51.84699999999998
 11
62.921462027938105
 21
50.165676057338715
 31
51.84699999999998
  0
TEXT
  5
AC
330
17
100
AcDbEntity
  8
F7_ETIQUETAS
100
AcDbText
 10
61.931036151130684
 20
50.32493341201916
 30
51.84699999999998
 40
0.4
  1
TR-0060 | Au 10.66
 11
61.931036151130684
 21
50.32493341201916
 31
51.84699999999998
100
AcDbText
  0
LINE
  5
AD
330
17
100
AcDbEntity
  8
F7_TRAMO_AU_00_01
100
AcDbLine
 10
62.921462027938105
 20
50.165676057338715
 30
51.84699999999998
 11
64.9155535697937
 21
49.91657832823694
 31
51.84699999999998
  0
TEXT
  5
AE
330
17
100
AcDbEntity
  8
F7_ETIQUETAS
100
AcDbText
 10
63.9185077988659
 20
50.041127192787826
 30
51.84699999999998
 40
0.4
  1
TR-0061 | Au 0.32
 11
63.9185077988659
 21
50.041127192787826
 31
51.84699999999998
100
AcDbText
  0
LINE
  5
AF
330
17
100
AcDbEntity
  8
F7_TRAMO_AU_00_01
100
AcDbLine
 10
64.9155535697937
 20
49.91657832823694
 30
51.84699999999998
 11
66.89033022860531
 21
49.83618706744164
 31
51.84699999999998
  0
TEXT
  5
B0
330
17
100
AcDbEntity
  8
F7_ETIQUETAS
100
AcDbText
 10
65.9029418991995
 20
49.87638269783929
 30
51.84699999999998
 40
0.4
  1
TR-0062 | Au 0.55
 11
65.9029418991995
 21
49.87638269783929
 31
51.84699999999998
100
AcDbText
  0
LINE
  5
B1
330
17
100
AcDbEntity
  8
F7_TRAMO_AU_05_15
100
AcDbLine
 10
66.89033022860531
 20
49.83618706744164
 30
51.84699999999998
 11
68.86584864917677
 21
49.519793027080595
 31
51.84699999999998
  0
TEXT
  5
B2
330
17
100
AcDbEntity
  8
F7_ETIQUETAS
100
AcDbText
 10
67.87808943889104
 20
49.67799004726112
 30
51.84699999999998
 40
0.4
  1
TR-0063 | Au 13.75
 11
67.87808943889104
 21
49.67799004726112
 31
51.84699999999998
100
AcDbText
  0
LINE
  5
B3
330
17
100
AcDbEntity
  8
F7_TRAMO_AU_15_50
100
AcDbLine
 10
68.86584864917677
 20
49.519793027080595
 30
51.84699999999998
 11
70.7956229436677
 21
49.1531763933599
 31
51.84699999999998
  0
TEXT
  5
B4
330
17
100
AcDbEntity
  8
F7_ETIQUETAS
100
AcDbText
 10
69.83073579642223
 20
49.33648471022025
 30
51.84699999999998
 40
0.4
  1
TR-0064 | Au 18.06
 11
69.83073579642223
 21
49.33648471022025
 31
51.84699999999998
100
AcDbText
  0
LINE
  5
B5
330
17
100
AcDbEntity
  8
F7_TRAMO_AU_15_50
100
AcDbLine
 10
70.7956229436677
 20
49.1531763933599
 30
51.84699999999998
 11
72.80244733404834
 21
49.16273084934801
 31
51.84699999999998
  0
TEXT
  5
B6
330
17
100
AcDbEntity
  8
F7_ETIQUETAS
100
AcDbText
 10
71.79903513885802
 20
49.157953621353954
 30
51.84699999999998
 40
0.4
  1
TR-0065 | Au 24.89
 11
71.79903513885802
 21
49.157953621353954
 31
51.84699999999998
100
AcDbText
  0
LINE
  5
B7
330
17
100
AcDbEntity
  8
F7_TRAMO_AU_15_50
100
AcDbLine
 10
72.80244733404834
 20
49.16273084934801
 30
51.84699999999998
 11
80.5060999999987
 21
47.99170000012964
 31
51.74699999999996
  0
TEXT
  5
B8
330
17
100
AcDbEntity
  8
F7_ETIQUETAS
100
AcDbText
 10
76.65427366702352
 20
48.577215424738824
 30
51.79699999999997
 40
0.4
  1
TR-0066 | Au 30.58
 11
76.65427366702352
 21
48.577215424738824
 31
51.79699999999997
100
AcDbText
  0
LINE
  5
B9
330
17
100
AcDbEntity
  8
F7_TRAMO_AU_15_50
100
AcDbLine
 10
80.5060999999987
 20
47.99170000012964
 30
51.74699999999996
 11
82.48060000000987
 21
47.594800000078976
 31
51.84699999999998
  0
TEXT
  5
BA
330
17
100
AcDbEntity
  8
F7_ETIQUETAS
100
AcDbText
 10
81.49335000000428
 20
47.79325000010431
 30
51.79699999999997
 40
0.4
  1
TR-0067 | Au 17.99
 11
81.49335000000428
 21
47.79325000010431
 31
51.79699999999997
100
AcDbText
  0
LINE
  5
BB
330
17
100
AcDbEntity
  8
F7_TRAMO_AU_05_15
100
AcDbLine
 10
82.48060000000987
 20
47.594800000078976
 30
51.84699999999998
 11
84.4375
 21
46.97939999960363
 31
51.84699999999998
  0
TEXT
  5
BC
330
17
100
AcDbEntity
  8
F7_ETIQUETAS
100
AcDbText
 10
83.45905000000494
 20
47.2870999998413
 30
51.84699999999998
 40
0.4
  1
TR-0068 | Au 6.14
 11
83.45905000000494
 21
47.2870999998413
 31
51.84699999999998
100
AcDbText
  0
LINE
  5
BD
330
17
100
AcDbEntity
  8
F7_TRAMO_AU_05_15
100
AcDbLine
 10
84.4375
 20
46.97939999960363
 30
51.84699999999998
 11
86.33539999998175
 21
45.63229999970645
 31
51.84699999999998
  0
TEXT
  5
BE
330
17
100
AcDbEntity
  8
F7_ETIQUETAS
100
AcDbText
 10
85.38644999999087
 20
46.30584999965504
 30
51.84699999999998
 40
0.4
  1
TR-0069 | Au 7.59
 11
85.38644999999087
 21
46.30584999965504
 31
51.84699999999998
100
AcDbText
  0
LINE
  5
BF
330
17
100
AcDbEntity
  8
F7_TRAMO_AU_05_15
100
AcDbLine
 10
86.33539999998175
 20
45.63229999970645
 30
51.84699999999998
 11
88.32799999997951
 21
45.460199999623
 31
51.84699999999998
  0
TEXT
  5
C0
330
17
100
AcDbEntity
  8
F7_ETIQUETAS
100
AcDbText
 10
87.33169999998063
 20
45.546249999664724
 30
51.84699999999998
 40
0.4
  1
TR-0070 | Au 10.58
 11
87.33169999998063
 21
45.546249999664724
 31
51.84699999999998
100
AcDbText
  0
LINE
  5
C1
330
17
100
AcDbEntity
  8
F7_TRAMO_AU_15_50
100
AcDbLine
 10
88.32799999997951
 20
45.460199999623
 30
51.84699999999998
 11
90.32699999993201
 21
45.36629999987781
 31
51.84699999999998
  0
TEXT
  5
C2
330
17
100
AcDbEntity
  8
F7_ETIQUETAS
100
AcDbText
 10
89.32749999995576
 20
45.413249999750406
 30
51.84699999999998
 40
0.4
  1
TR-0071 | Au 31.51
 11
89.32749999995576
 21
45.413249999750406
 31
51.84699999999998
100
AcDbText
  0
LINE
  5
C3
330
17
100
AcDbEntity
  8
F7_TRAMO_AU_05_15
100
AcDbLine
 10
90.32699999993201
 20
45.36629999987781
 30
51.84699999999998
 11
93.43209999997634
 21
44.96459999959916
 31
51.84699999999998
  0
TEXT
  5
C4
330
17
100
AcDbEntity
  8
F7_ETIQUETAS
100
AcDbText
 10
91.87954999995418
 20
45.165449999738485
 30
51.84699999999998
 40
0.4
  1
TR-0072 | Au 9.31
 11
91.87954999995418
 21
45.165449999738485
 31
51.84699999999998
100
AcDbText
  0
LINE
  5
C5
330
17
100
AcDbEntity
  8
F7_TRAMO_AU_01_05
100
AcDbLine
 10
93.43209999997634
 20
44.96459999959916
 30
51.84699999999998
 11
95.44149999995716
 21
44.74899999983609
 31
51.84699999999998
  0
TEXT
  5
C6
330
17
100
AcDbEntity
  8
F7_ETIQUETAS
100
AcDbText
 10
94.43679999996675
 20
44.85679999971762
 30
51.84699999999998
 40
0.4
  1
TR-0073 | Au 1.87
 11
94.43679999996675
 21
44.85679999971762
 31
51.84699999999998
100
AcDbText
  0
LINE
  5
C7
330
17
100
AcDbEntity
  8
F7_TRAMO_AU_05_15
100
AcDbLine
 10
95.44149999995716
 20
44.74899999983609
 30
51.84699999999998
 11
97.34789999993518
 21
44.342299999669194
 31
51.84699999999998
  0
TEXT
  5
C8
330
17
100
AcDbEntity
  8
F7_ETIQUETAS
100
AcDbText
 10
96.39469999994617
 20
44.54564999975264
 30
51.84699999999998
 40
0.4
  1
TR-0074 | Au 5.87
 11
96.39469999994617
 21
44.54564999975264
 31
51.84699999999998
100
AcDbText
  0
LINE
  5
C9
330
17
100
AcDbEntity
  8
F7_TRAMO_AU_05_15
100
AcDbLine
 10
97.34789999993518
 20
44.342299999669194
 30
51.84699999999998
 11
99.36159999994561
 21
44.29229999985546
 31
51.84699999999998
  0
TEXT
  5
CA
330
17
100
AcDbEntity
  8
F7_ETIQUETAS
100
AcDbText
 10
98.3547499999404
 20
44.31729999976233
 30
51.84699999999998
 40
0.4
  1
TR-0075 | Au 7.02
 11
98.3547499999404
 21
44.31729999976233
 31
51.84699999999998
100
AcDbText
  0
LINE
  5
CB
330
17
100
AcDbEntity
  8
F7_TRAMO_AU_01_05
100
AcDbLine
 10
99.36159999994561
 20
44.29229999985546
 30
51.84699999999998
 11
101.35800000000745
 21
44.323200000450015
 31
51.84699999999998
  0
TEXT
  5
CC
330
17
100
AcDbEntity
  8
F7_ETIQUETAS
100
AcDbText
 10
100.35979999997653
 20
44.30775000015274
 30
51.84699999999998
 40
0.4
  1
TR-0076 | Au 1.86
 11
100.35979999997653
 21
44.30775000015274
 31
51.84699999999998
100
AcDbText
  0
LINE
  5
CD
330
17
100
AcDbEntity
  8
F7_TRAMO_AU_01_05
100
AcDbLine
 10
101.35800000000745
 20
44.323200000450015
 30
51.84699999999998
 11
103.33259999996517
 21
44.57270000036806
 31
51.84699999999998
  0
TEXT
  5
CE
330
17
100
AcDbEntity
  8
F7_ETIQUETAS
100
AcDbText
 10
102.34529999998631
 20
44.44795000040904
 30
51.84699999999998
 40
0.4
  1
TR-0077 | Au 1.16
 11
102.34529999998631
 21
44.44795000040904
 31
51.84699999999998
100
AcDbText
  0
LINE
  5
CF
330
17
100
AcDbEntity
  8
F7_TRAMO_AU_00_01
100
AcDbLine
 10
103.33259999996517
 20
44.57270000036806
 30
51.84699999999998
 11
105.34109999996144
 21
44.52599999960512
 31
51.84699999999998
  0
TEXT
  5
D0
330
17
100
AcDbEntity
  8
F7_ETIQUETAS
100
AcDbText
 10
104.3368499999633
 20
44.54934999998659
 30
51.84699999999998
 40
0.4
  1
TR-0078 | Au 0.71
 11
104.3368499999633
 21
44.54934999998659
 31
51.84699999999998
100
AcDbText
  0
LINE
  5
D1
330
17
100
AcDbEntity
  8
F7_TRAMO_AU_01_05
100
AcDbLine
 10
105.34109999996144
 20
44.52599999960512
 30
51.84699999999998
 11
107.08779999997932
 21
44.053000000305474
 31
51.84699999999998
  0
TEXT
  5
D2
330
17
100
AcDbEntity
  8
F7_ETIQUETAS
100
AcDbText
 10
106.21444999997038
 20
44.2894999999553
 30
51.84699999999998
 40
0.4
  1
TR-0079 | Au 1.77
 11
106.21444999997038
 21
44.2894999999553
 31
51.84699999999998
100
AcDbText
  0
LINE
  5
D3
330
17
100
AcDbEntity
  8
F7_TRAMO_AU_01_05
100
AcDbLine
 10
107.08779999997932
 20
44.053000000305474
 30
51.84699999999998
 11
108.95439999992959
 21
43.637799999676645
 31
51.84699999999998
  0
TEXT
  5
D4
330
17
100
AcDbEntity
  8
F7_ETIQUETAS
100
AcDbText
 10
108.02109999995446
 20
43.84539999999106
 30
51.84699999999998
 40
0.4
  1
TR-0080 | Au 1.51
 11
108.02109999995446
 21
43.84539999999106
 31
51.84699999999998
100
AcDbText
  0
LINE
  5
D5
330
17
100
AcDbEntity
  8
F7_TRAMO_AU_00_01
100
AcDbLine
 10
108.95439999992959
 20
43.637799999676645
 30
51.84699999999998
 11
110.97279999998864
 21
43.50719999987632
 31
51.84699999999998
  0
TEXT
  5
D6
330
17
100
AcDbEntity
  8
F7_ETIQUETAS
100
AcDbText
 10
109.96359999995911
 20
43.57249999977648
 30
51.84699999999998
 40
0.4
  1
TR-0081 | Au 0.28
 11
109.96359999995911
 21
43.57249999977648
 31
51.84699999999998
100
AcDbText
  0
LINE
  5
D7
330
17
100
AcDbEntity
  8
F7_TRAMO_AU_00_01
100
AcDbLine
 10
110.97279999998864
 20
43.50719999987632
 30
51.84699999999998
 11
112.93859999999404
 21
43.14039999991655
 31
51.84699999999998
  0
TEXT
  5
D8
330
17
100
AcDbEntity
  8
F7_ETIQUETAS
100
AcDbText
 10
111.95569999999134
 20
43.32379999989644
 30
51.84699999999998
 40
0.4
  1
TR-0082 | Au 0.16
 11
111.95569999999134
 21
43.32379999989644
 31
51.84699999999998
100
AcDbText
  0
LINE
  5
D9
330
17
100
AcDbEntity
  8
F7_TRAMO_AU_00_01
100
AcDbLine
 10
112.93859999999404
 20
43.14039999991655
 30
51.84699999999998
 11
114.82589999993797
 21
42.6304999999702
 31
51.84699999999998
  0
TEXT
  5
DA
330
17
100
AcDbEntity
  8
F7_ETIQUETAS
100
AcDbText
 10
113.882249999966
 20
42.885449999943376
 30
51.84699999999998
 40
0.4
  1
TR-0083 | Au 0.05
 11
113.882249999966
 21
42.885449999943376
 31
51.84699999999998
100
AcDbText
  0
LINE
  5
DB
330
17
100
AcDbEntity
  8
F7_TRAMO_AU_00_01
100
AcDbLine
 10
114.82589999993797
 20
42.6304999999702
 30
51.84699999999998
 11
116.63549999997485
 21
41.96250000037253
 31
51.84699999999998
  0
TEXT
  5
DC
330
17
100
AcDbEntity
  8
F7_ETIQUETAS
100
AcDbText
 10
115.73069999995641
 20
42.29650000017136
 30
51.84699999999998
 40
0.4
  1
TR-0084 | Au 0.05
 11
115.73069999995641
 21
42.29650000017136
 31
51.84699999999998
100
AcDbText
  0
LINE
  5
DD
330
17
100
AcDbEntity
  8
F7_TRAMO_AU_00_01
100
AcDbLine
 10
116.63549999997485
 20
41.96250000037253
 30
51.84699999999998
 11
117.73899999994319
 21
40.317800000309944
 31
51.84699999999998
  0
TEXT
  5
DE
330
17
100
AcDbEntity
  8
F7_ETIQUETAS
100
AcDbText
 10
117.18724999995902
 20
41.14015000034124
 30
51.84699999999998
 40
0.4
  1
TR-0085 | Au 0.05
 11
117.18724999995902
 21
41.14015000034124
 31
51.84699999999998
100
AcDbText
  0
LINE
  5
DF
330
17
100
AcDbEntity
  8
F7_TRAMO_AU_00_01
100
AcDbLine
 10
117.73899999994319
 20
40.317800000309944
 30
51.84699999999998
 11
122.12780000001658
 21
35.533800000324845
 31
51.79699999999991
  0
TEXT
  5
E0
330
17
100
AcDbEntity
  8
F7_ETIQUETAS
100
AcDbText
 10
119.93339999997988
 20
37.925800000317395
 30
51.821999999999946
 40
0.4
  1
TR-0086 | Au 0.07
 11
119.93339999997988
 21
37.925800000317395
 31
51.821999999999946
100
AcDbText
  0
LINE
  5
E1
330
17
100
AcDbEntity
  8
F7_TRAMO_AU_00_01
100
AcDbLine
 10
144.50520000001416
 20
35.59979999996722
 30
51.79699999999991
 11
146.3275999999605
 21
35.05009999964386
 31
51.79699999999991
  0
TEXT
  5
E2
330
17
100
AcDbEntity
  8
F7_ETIQUETAS
100
AcDbText
 10
145.41639999998733
 20
35.32494999980554
 30
51.79699999999991
 40
0.4
  1
TR-0087 | Au 0.45
 11
145.41639999998733
 21
35.32494999980554
 31
51.79699999999991
100
AcDbText
  0
LINE
  5
E3
330
17
100
AcDbEntity
  8
F7_TRAMO_AU_00_01
100
AcDbLine
 10
146.3275999999605
 20
35.05009999964386
 30
51.79699999999991
 11
148.11069999996107
 21
34.404799999669194
 31
51.79699999999991
  0
TEXT
  5
E4
330
17
100
AcDbEntity
  8
F7_ETIQUETAS
100
AcDbText
 10
147.2191499999608
 20
34.72744999965653
 30
51.79699999999991
 40
0.4
  1
TR-0088 | Au 0.15
 11
147.2191499999608
 21
34.72744999965653
 31
51.79699999999991
100
AcDbText
  0
LINE
  5
E5
330
17
100
AcDbEntity
  8
F7_TRAMO_AU_00_01
100
AcDbLine
 10
148.11069999996107
 20
34.404799999669194
 30
51.79699999999991
 11
149.97879999992438
 21
34.69570000004023
 31
51.79699999999991
  0
TEXT
  5
E6
330
17
100
AcDbEntity
  8
F7_ETIQUETAS
100
AcDbText
 10
149.04474999994272
 20
34.550249999854714
 30
51.79699999999991
 40
0.4
  1
TR-0089 | Au 0.45
 11
149.04474999994272
 21
34.550249999854714
 31
51.79699999999991
100
AcDbText
  0
LINE
  5
E7
330
17
100
AcDbEntity
  8
F7_TRAMO_AU_15_50
100
AcDbLine
 10
149.97879999992438
 20
34.69570000004023
 30
51.79699999999991
 11
151.86060000001453
 21
34.774400000460446
 31
51.79699999999991
  0
TEXT
  5
E8
330
17
100
AcDbEntity
  8
F7_ETIQUETAS
100
AcDbText
 10
150.91969999996945
 20
34.73505000025034
 30
51.79699999999991
 40
0.4
  1
TR-0090 | Au 26.45
 11
150.91969999996945
 21
34.73505000025034
 31
51.79699999999991
100
AcDbText
  0
LINE
  5
E9
330
17
100
AcDbEntity
  8
F7_TRAMO_AU_05_15
100
AcDbLine
 10
151.86060000001453
 20
34.774400000460446
 30
51.79699999999991
 11
153.74989999993704
 21
34.71459999959916
 31
51.79699999999991
  0
TEXT
  5
EA
330
17
100
AcDbEntity
  8
F7_ETIQUETAS
100
AcDbText
 10
152.80524999997579
 20
34.7445000000298
 30
51.79699999999991
 40
0.4
  1
TR-0091 | Au 13.17
 11
152.80524999997579
 21
34.7445000000298
 31
51.79699999999991
100
AcDbText
  0
LINE
  5
EB
330
17
100
AcDbEntity
  8
F7_TRAMO_AU_01_05
100
AcDbLine
 10
153.74989999993704
 20
34.71459999959916
 30
51.79699999999991
 11
155.62879999994766
 21
34.55929999984801
 31
51.79699999999991
  0
TEXT
  5
EC
330
17
100
AcDbEntity
  8
F7_ETIQUETAS
100
AcDbText
 10
154.68934999994235
 20
34.63694999972358
 30
51.79699999999991
 40
0.4
  1
TR-0092 | Au 1.08
 11
154.68934999994235
 21
34.63694999972358
 31
51.79699999999991
100
AcDbText
  0
LINE
  5
ED
330
17
100
AcDbEntity
  8
F7_TRAMO_AU_00_01
100
AcDbLine
 10
155.62879999994766
 20
34.55929999984801
 30
51.79699999999991
 11
157.49529999995138
 21
34.23699999973178
 31
51.79699999999991
  0
TEXT
  5
EE
330
17
100
AcDbEntity
  8
F7_ETIQUETAS
100
AcDbText
 10
156.56204999994952
 20
34.398149999789894
 30
51.79699999999991
 40
0.4
  1
TR-0093 | Au 0.81
 11
156.56204999994952
 21
34.398149999789894
 31
51.79699999999991
100
AcDbText
  0
LINE
  5
EF
330
17
100
AcDbEntity
  8
F7_TRAMO_AU_00_01
100
AcDbLine
 10
157.49529999995138
 20
34.23699999973178
 30
51.79699999999991
 11
159.37839999992866
 21
34.017099999822676
 31
51.79699999999991
  0
TEXT
  5
F0
330
17
100
AcDbEntity
  8
F7_ETIQUETAS
100
AcDbText
 10
158.43684999994002
 20
34.12704999977723
 30
51.79699999999991
 40
0.4
  1
TR-0094 | Au 0.63
 11
158.43684999994002
 21
34.12704999977723
 31
51.79699999999991
100
AcDbText
  0
LINE
  5
F1
330
17
100
AcDbEntity
  8
F7_TRAMO_AU_00_01
100
AcDbLine
 10
159.37839999992866
 20
34.017099999822676
 30
51.79699999999991
 11
161.19439999992028
 21
33.51009999960661
 31
51.79699999999991
  0
TEXT
  5
F2
330
17
100
AcDbEntity
  8
F7_ETIQUETAS
100
AcDbText
 10
160.28639999992447
 20
33.76359999971464
 30
51.79699999999991
 40
0.4
  1
TR-0095 | Au 0.05
 11
160.28639999992447
 21
33.76359999971464
 31
51.79699999999991
100
AcDbText
  0
LINE
  5
F3
330
17
100
AcDbEntity
  8
F7_TRAMO_AU_00_01
100
AcDbLine
 10
161.19439999992028
 20
33.51009999960661
 30
51.79699999999991
 11
163.0174999999581
 21
33.01049999985844
 31
51.79699999999991
  0
TEXT
  5
F4
330
17
100
AcDbEntity
  8
F7_ETIQUETAS
100
AcDbText
 10
162.10594999993918
 20
33.260299999732524
 30
51.79699999999991
 40
0.4
  1
TR-0096 | Au 0.05
 11
162.10594999993918
 21
33.260299999732524
 31
51.79699999999991
100
AcDbText
  0
LINE
  5
F5
330
17
100
AcDbEntity
  8
F7_TRAMO_AU_00_01
100
AcDbLine
 10
163.0174999999581
 20
33.01049999985844
 30
51.79699999999991
 11
164.88219999999274
 21
32.691300000064075
 31
51.79699999999991
  0
TEXT
  5
F6
330
17
100
AcDbEntity
  8
F7_ETIQUETAS
100
AcDbText
 10
163.9498499999754
 20
32.85089999996126
 30
51.79699999999991
 40
0.4
  1
TR-0097 | Au 0.09
 11
163.9498499999754
 21
32.85089999996126
 31
51.79699999999991
100
AcDbText
  0
LINE
  5
F7
330
17
100
AcDbEntity
  8
F7_TRAMO_AU_15_50
100
AcDbLine
 10
164.88219999999274
 20
32.691300000064075
 30
51.79699999999991
 11
166.62069999997038
 21
31.971300000324845
 31
51.79699999999991
  0
TEXT
  5
F8
330
17
100
AcDbEntity
  8
F7_ETIQUETAS
100
AcDbText
 10
165.75144999998156
 20
32.33130000019446
 30
51.79699999999991
 40
0.4
  1
TR-0098 | Au 23.61
 11
165.75144999998156
 21
32.33130000019446
 31
51.79699999999991
100
AcDbText
  0
LINE
  5
F9
330
17
100
AcDbEntity
  8
F7_TRAMO_AU_15_50
100
AcDbLine
 10
166.62069999997038
 20
31.971300000324845
 30
51.79699999999991
 11
168.40700000000652
 21
31.310399999842048
 31
51.79699999999991
  0
TEXT
  5
FA
330
17
100
AcDbEntity
  8
F7_ETIQUETAS
100
AcDbText
 10
167.51384999998845
 20
31.640850000083447
 30
51.79699999999991
 40
0.4
  1
TR-0099 | Au 21.19
 11
167.51384999998845
 21
31.640850000083447
 31
51.79699999999991
100
AcDbText
  0
LINE
  5
FB
330
17
100
AcDbEntity
  8
F7_TRAMO_AU_05_15
100
AcDbLine
 10
168.40700000000652
 20
31.310399999842048
 30
51.79699999999991
 11
170.30929999996442
 21
31.23049999959767
 31
51.79699999999991
  0
TEXT
  5
FC
330
17
100
AcDbEntity
  8
F7_ETIQUETAS
100
AcDbText
 10
169.35814999998547
 20
31.270449999719858
 30
51.79699999999991
 40
0.4
  1
TR-0100 | Au 14.69
 11
169.35814999998547
 21
31.270449999719858
 31
51.79699999999991
100
AcDbText
  0
LINE
  5
FD
330
17
100
AcDbEntity
  8
F7_TRAMO_AU_15_50
100
AcDbLine
 10
170.30929999996442
 20
31.23049999959767
 30
51.79699999999991
 11
172.1931999999797
 21
31.13729999959469
 31
51.79699999999991
  0
TEXT
  5
FE
330
17
100
AcDbEntity
  8
F7_ETIQUETAS
100
AcDbText
 10
171.25124999997206
 20
31.18389999959618
 30
51.79699999999991
 40
0.4
  1
TR-0101 | Au 22.91
 11
171.25124999997206
 21
31.18389999959618
 31
51.79699999999991
100
AcDbText
  0
LINE
  5
FF
330
17
100
AcDbEntity
  8
F7_TRAMO_AU_15_50
100
AcDbLine
 10
172.1931999999797
 20
31.13729999959469
 30
51.79699999999991
 11
174.0677999999607
 21
30.992999999783933
 31
51.79699999999991
  0
TEXT
  5
100
330
17
100
AcDbEntity
  8
F7_ETIQUETAS
100
AcDbText
 10
173.1304999999702
 20
31.06514999968931
 30
51.79699999999991
 40
0.4
  1
TR-0102 | Au 20.67
 11
173.1304999999702
 21
31.06514999968931
 31
51.79699999999991
100
AcDbText
  0
LINE
  5
101
330
17
100
AcDbEntity
  8
F7_TRAMO_AU_15_50
100
AcDbLine
 10
174.0677999999607
 20
30.992999999783933
 30
51.79699999999991
 11
175.936299999943
 21
30.802500000223517
 31
51.79699999999991
  0
TEXT
  5
102
330
17
100
AcDbEntity
  8
F7_ETIQUETAS
100
AcDbText
 10
175.00204999995185
 20
30.897750000003725
 30
51.79699999999991
 40
0.4
  1
TR-0103 | Au 17.08
 11
175.00204999995185
 21
30.897750000003725
 31
51.79699999999991
100
AcDbText
  0
LINE
  5
103
330
17
100
AcDbEntity
  8
F7_TRAMO_AU_05_15
100
AcDbLine
 10
175.936299999943
 20
30.802500000223517
 30
51.79699999999991
 11
177.6927999999607
 21
30.10840000025928
 31
51.79699999999991
  0
TEXT
  5
104
330
17
100
AcDbEntity
  8
F7_ETIQUETAS
100
AcDbText
 10
176.81454999995185
 20
30.4554500002414
 30
51.79699999999991
 40
0.4
  1
TR-0104 | Au 9.50
 11
176.81454999995185
 21
30.4554500002414
 31
51.79699999999991
100
AcDbText
  0
LINE
  5
105
330
17
100
AcDbEntity
  8
F7_TRAMO_AU_00_01
100
AcDbLine
 10
246.91599999996834
 20
19.603900000452995
 30
11.047599999999989
 11
252.8177999999607
 21
19.004200000315905
 31
11.09579999999994
  0
TEXT
  5
106
330
17
100
AcDbEntity
  8
F7_ETIQUETAS
100
AcDbText
 10
249.86689999996452
 20
19.30405000038445
 30
11.071699999999964
 40
0.4
  1
TR-0105 | Au 0.12
 11
249.86689999996452
 21
19.30405000038445
 31
11.071699999999964
100
AcDbText
  0
LINE
  5
107
330
17
100
AcDbEntity
  8
F7_TRAMO_AU_00_01
100
AcDbLine
 10
252.8177999999607
 20
19.004200000315905
 30
11.09579999999994
 11
254.81319999997504
 21
18.86739999987185
 31
11.09579999999994
  0
TEXT
  5
108
330
17
100
AcDbEntity
  8
F7_ETIQUETAS
100
AcDbText
 10
253.81549999996787
 20
18.935800000093877
 30
11.09579999999994
 40
0.4
  1
TR-0106 | Au 0.13
 11
253.81549999996787
 21
18.935800000093877
 31
11.09579999999994
100
AcDbText
  0
LINE
  5
109
330
17
100
AcDbEntity
  8
F7_TRAMO_AU_01_05
100
AcDbLine
 10
197.25740000000224
 20
26.568800000473857
 30
11.494899999999916
 11
199.07199999992736
 21
25.727800000458956
 31
11.494899999999916
  0
TEXT
  5
10A
330
17
100
AcDbEntity
  8
F7_ETIQUETAS
100
AcDbText
 10
198.1646999999648
 20
26.148300000466406
 30
11.494899999999916
 40
0.4
  1
TR-0107 | Au 4.37
 11
198.1646999999648
 21
26.148300000466406
 31
11.494899999999916
100
AcDbText
  0
LINE
  5
10B
330
17
100
AcDbEntity
  8
F7_TRAMO_AU_01_05
100
AcDbLine
 10
199.07199999992736
 20
25.727800000458956
 30
11.494899999999916
 11
201.02879999997094
 21
25.31400000024587
 31
11.190200000000004
  0
TEXT
  5
10C
330
17
100
AcDbEntity
  8
F7_ETIQUETAS
100
AcDbText
 10
200.05039999994915
 20
25.520900000352412
 30
11.34254999999996
 40
0.4
  1
TR-0108 | Au 3.04
 11
200.05039999994915
 21
25.520900000352412
 31
11.34254999999996
100
AcDbText
  0
LINE
  5
10D
330
17
100
AcDbEntity
  8
F7_TRAMO_AU_01_05
100
AcDbLine
 10
14.594700000016019
 20
48.32589999958873
 30
58.0098999999999
 11
16.586000000010245
 21
48.15110000036657
 31
58.0098999999999
  0
TEXT
  5
10E
330
17
100
AcDbEntity
  8
F7_ETIQUETAS
100
AcDbText
 10
15.590350000013132
 20
48.23849999997765
 30
58.0098999999999
 40
0.4
  1
TR-0109 | Au 4.47
 11
15.590350000013132
 21
48.23849999997765
 31
58.0098999999999
100
AcDbText
  0
LINE
  5
10F
330
17
100
AcDbEntity
  8
F7_TRAMO_AU_01_05
100
AcDbLine
 10
1.9201999999349937
 20
52.121600000187755
 30
109.24699999999996
 11
3.8402999999234453
 21
51.561999999918044
 31
109.24699999999996
  0
TEXT
  5
110
330
17
100
AcDbEntity
  8
F7_ETIQUETAS
100
AcDbText
 10
2.8802499999292195
 20
51.8418000000529
 30
109.24699999999996
 40
0.4
  1
TR-0110 | Au 4.07
 11
2.8802499999292195
 21
51.8418000000529
 31
109.24699999999996
100
AcDbText
  0
LINE
  5
111
330
17
100
AcDbEntity
  8
F7_TRAMO_AU_05_15
100
AcDbLine
 10
3.8402999999234453
 20
51.561999999918044
 30
109.24699999999996
 11
5.756399999954738
 21
50.988599999807775
 31
109.24699999999996
  0
TEXT
  5
112
330
17
100
AcDbEntity
  8
F7_ETIQUETAS
100
AcDbText
 10
4.7983499999390915
 20
51.27529999986291
 30
109.24699999999996
 40
0.4
  1
TR-0111 | Au 5.18
 11
4.7983499999390915
 21
51.27529999986291
 31
109.24699999999996
100
AcDbText
  0
LINE
  5
113
330
17
100
AcDbEntity
  8
F7_TRAMO_AU_01_05
100
AcDbLine
 10
5.756399999954738
 20
50.988599999807775
 30
109.24699999999996
 11
7.675700000021607
 21
50.4281000001356
 31
109.24699999999996
  0
TEXT
  5
114
330
17
100
AcDbEntity
  8
F7_ETIQUETAS
100
AcDbText
 10
6.716049999988172
 20
50.70834999997169
 30
109.24699999999996
 40
0.4
  1
TR-0112 | Au 2.58
 11
6.716049999988172
 21
50.70834999997169
 31
109.24699999999996
100
AcDbText
  0
LINE
  5
115
330
17
100
AcDbEntity
  8
F7_TRAMO_AU_00_01
100
AcDbLine
 10
7.675700000021607
 20
50.4281000001356
 30
109.24699999999996
 11
9.630000000004657
 21
50.00300000049174
 31
109.24699999999996
  0
TEXT
  5
116
330
17
100
AcDbEntity
  8
F7_ETIQUETAS
100
AcDbText
 10
8.652850000013132
 20
50.21555000031367
 30
109.24699999999996
 40
0.4
  1
TR-0113 | Au 0.37
 11
8.652850000013132
 21
50.21555000031367
 31
109.24699999999996
100
AcDbText
  0
LINE
  5
117
330
17
100
AcDbEntity
  8
F7_TRAMO_AU_00_01
100
AcDbLine
 10
9.630000000004657
 20
50.00300000049174
 30
109.24699999999996
 11
11.572799999965355
 21
49.53859999962151
 31
109.24699999999996
  0
TEXT
  5
118
330
17
100
AcDbEntity
  8
F7_ETIQUETAS
100
AcDbText
 10
10.601399999985006
 20
49.770800000056624
 30
109.24699999999996
 40
0.4
  1
TR-0114 | Au 0.13
 11
10.601399999985006
 21
49.770800000056624
 31
109.24699999999996
100
AcDbText
  0
LINE
  5
119
330
17
100
AcDbEntity
  8
F7_TRAMO_AU_05_15
100
AcDbLine
 10
11.572799999965355
 20
49.53859999962151
 30
109.24699999999996
 11
13.449799999943934
 21
48.84790000040084
 31
109.24699999999996
  0
TEXT
  5
11A
330
17
100
AcDbEntity
  8
F7_ETIQUETAS
100
AcDbText
 10
12.511299999954645
 20
49.193250000011176
 30
109.24699999999996
 40
0.4
  1
TR-0115 | Au 6.84
 11
12.511299999954645
 21
49.193250000011176
 31
109.24699999999996
100
AcDbText
  0
LINE
  5
11B
330
17
100
AcDbEntity
  8
F7_TRAMO_AU_01_05
100
AcDbLine
 10
24.803799999994226
 20
54.043600000441074
 30
57.05939999999998
 11
26.807700000004843
 21
54.18769999966025
 31
57.04289999999992
  0
TEXT
  5
11C
330
17
100
AcDbEntity
  8
F7_ETIQUETAS
100
AcDbText
 10
25.805749999999534
 20
54.115650000050664
 30
57.05114999999995
 40
0.4
  1
TR-0116 | Au 1.19
 11
25.805749999999534
 21
54.115650000050664
 31
57.05114999999995
100
AcDbText
  0
LINE
  5
11D
330
17
100
AcDbEntity
  8
F7_TRAMO_AU_00_01
100
AcDbLine
 10
26.807700000004843
 20
54.18769999966025
 30
57.04289999999992
 11
28.697799999965355
 21
54.02560000028461
 31
57.098499999999945
  0
TEXT
  5
11E
330
17
100
AcDbEntity
  8
F7_ETIQUETAS
100
AcDbText
 10
27.7527499999851
 20
54.10664999997243
 30
57.07069999999993
 40
0.4
  1
TR-0117 | Au 0.49
 11
27.7527499999851
 21
54.10664999997243
 31
57.07069999999993
100
AcDbText
  0
LINE
  5
11F
330
17
100
AcDbEntity
  8
F7_TRAMO_AU_00_01
100
AcDbLine
 10
28.697799999965355
 20
54.02560000028461
 30
57.098499999999945
 11
30.91279999993276
 21
53.82510000001639
 31
56.851299999999924
  0
TEXT
  5
120
330
17
100
AcDbEntity
  8
F7_ETIQUETAS
100
AcDbText
 10
29.805299999949057
 20
53.9253500001505
 30
56.974899999999934
 40
0.4
  1
TR-0118 | Au 0.90
 11
29.805299999949057
 21
53.9253500001505
 31
56.974899999999934
100
AcDbText
  0
LINE
  5
121
330
17
100
AcDbEntity
  8
F7_TRAMO_AU_05_15
100
AcDbLine
 10
30.91279999993276
 20
53.82510000001639
 30
56.851299999999924
 11
32.89839999994729
 21
53.43730000033975
 31
56.851299999999924
  0
TEXT
  5
122
330
17
100
AcDbEntity
  8
F7_ETIQUETAS
100
AcDbText
 10
31.905599999940023
 20
53.63120000017807
 30
56.851299999999924
 40
0.4
  1
TR-0119 | Au 10.84
 11
31.905599999940023
 21
53.63120000017807
 31
56.851299999999924
100
AcDbText
  0
LINE
  5
123
330
17
100
AcDbEntity
  8
F7_TRAMO_AU_05_15
100
AcDbLine
 10
32.89839999994729
 20
53.43730000033975
 30
56.851299999999924
 11
34.852599999983795
 21
53.081799999810755
 31
56.51109999999994
  0
TEXT
  5
124
330
17
100
AcDbEntity
  8
F7_ETIQUETAS
100
AcDbText
 10
33.87549999996554
 20
53.25955000007525
 30
56.68119999999993
 40
0.4
  1
TR-0120 | Au 12.63
 11
33.87549999996554
 21
53.25955000007525
 31
56.68119999999993
100
AcDbText
  0
LINE
  5
125
330
17
100
AcDbEntity
  8
F7_TRAMO_AU_05_15
100
AcDbLine
 10
34.852599999983795
 20
53.081799999810755
 30
56.51109999999994
 11
37.69059999997262
 21
52.73170000035316
 31
55.995399999999904
  0
TEXT
  5
126
330
17
100
AcDbEntity
  8
F7_ETIQUETAS
100
AcDbText
 10
36.27159999997821
 20
52.906750000081956
 30
56.25324999999992
 40
0.4
  1
TR-0121 | Au 6.00
 11
36.27159999997821
 21
52.906750000081956
 31
56.25324999999992
100
AcDbText
  0
LINE
  5
127
330
17
100
AcDbEntity
  8
F7_TRAMO_AU_05_15
100
AcDbLine
 10
37.69059999997262
 20
52.73170000035316
 30
55.995399999999904
 11
41.29629999992903
 21
52.1288999998942
 31
56.789999999999964
  0
TEXT
  5
128
330
17
100
AcDbEntity
  8
F7_ETIQUETAS
100
AcDbText
 10
39.493449999950826
 20
52.43030000012368
 30
56.392699999999934
 40
0.4
  1
TR-0122 | Au 6.37
 11
39.493449999950826
 21
52.43030000012368
 31
56.392699999999934
100
AcDbText
  0
LINE
  5
129
330
17
100
AcDbEntity
  8
F7_TRAMO_AU_00_01
100
AcDbLine
 10
41.29629999992903
 20
52.1288999998942
 30
56.789999999999964
 11
47.35809999995399
 21
50.142099999822676
 31
56.46289999999999
  0
TEXT
  5
12A
330
17
100
AcDbEntity
  8
F7_ETIQUETAS
100
AcDbText
 10
44.32719999994151
 20
51.13549999985844
 30
56.62644999999998
 40
0.4
  1
TR-0123 | Au 0.10
 11
44.32719999994151
 21
51.13549999985844
 31
56.62644999999998
100
AcDbText
  0
LINE
  5
12B
330
17
100
AcDbEntity
  8
F7_TRAMO_AU_15_50
100
AcDbLine
 10
60.79839999997057
 20
49.71490000002086
 30
56.945499999999925
 11
62.79449999995995
 21
49.58990000002086
 31
56.945499999999925
  0
TEXT
  5
12C
330
17
100
AcDbEntity
  8
F7_ETIQUETAS
100
AcDbText
 10
61.79644999996526
 20
49.65240000002086
 30
56.945499999999925
 40
0.4
  1
TR-0124 | Au 38.79
 11
61.79644999996526
 21
49.65240000002086
 31
56.945499999999925
100
AcDbText
  0
LINE
  5
12D
330
17
100
AcDbEntity
  8
F7_TRAMO_AU_GE_50
100
AcDbLine
 10
62.79449999995995
 20
49.58990000002086
 30
56.945499999999925
 11
64.96149999997579
 21
49.410199999809265
 31
56.945499999999925
  0
TEXT
  5
12E
330
17
100
AcDbEntity
  8
F7_ETIQUETAS
100
AcDbText
 10
63.87799999996787
 20
49.50004999991506
 30
56.945499999999925
 40
0.4
  1
TR-0125 | Au 59.76
 11
63.87799999996787
 21
49.50004999991506
 31
56.945499999999925
100
AcDbText
  0
LINE
  5
12F
330
17
100
AcDbEntity
  8
F7_TRAMO_AU_05_15
100
AcDbLine
 10
64.96149999997579
 20
49.410199999809265
 30
56.945499999999925
 11
66.94900000002235
 21
49.213700000196695
 31
56.019199999999955
  0
TEXT
  5
130
330
17
100
AcDbEntity
  8
F7_ETIQUETAS
100
AcDbText
 10
65.95524999999907
 20
49.31195000000298
 30
56.48234999999994
 40
0.4
  1
TR-0126 | Au 13.03
 11
65.95524999999907
 21
49.31195000000298
 31
56.48234999999994
100
AcDbText
  0
LINE
  5
131
330
17
100
AcDbEntity
  8
F7_TRAMO_AU_01_05
100
AcDbLine
 10
66.94900000002235
 20
49.213700000196695
 30
56.019199999999955
 11
69.34970000002068
 21
49.384200000204146
 31
56.019199999999955
  0
TEXT
  5
132
330
17
100
AcDbEntity
  8
F7_ETIQUETAS
100
AcDbText
 10
68.14935000002151
 20
49.29895000020042
 30
56.019199999999955
 40
0.4
  1
TR-0127 | Au 3.78
 11
68.14935000002151
 21
49.29895000020042
 31
56.019199999999955
100
AcDbText
  0
LINE
  5
133
330
17
100
AcDbEntity
  8
F7_TRAMO_AU_05_15
100
AcDbLine
 10
69.34970000002068
 20
49.384200000204146
 30
56.019199999999955
 11
71.55400000000373
 21
48.93020000029355
 31
56.019199999999955
  0
TEXT
  5
134
330
17
100
AcDbEntity
  8
F7_ETIQUETAS
100
AcDbText
 10
70.4518500000122
 20
49.15720000024885
 30
56.019199999999955
 40
0.4
  1
TR-0128 | Au 11.51
 11
70.4518500000122
 21
49.15720000024885
 31
56.019199999999955
100
AcDbText
  0
LINE
  5
135
330
17
100
AcDbEntity
  8
F7_TRAMO_AU_05_15
100
AcDbLine
 10
71.55400000000373
 20
48.93020000029355
 30
56.019199999999955
 11
74.82149999996182
 21
48.50619999971241
 31
55.625
  0
TEXT
  5
136
330
17
100
AcDbEntity
  8
F7_ETIQUETAS
100
AcDbText
 10
73.18774999998277
 20
48.71820000000298
 30
55.82209999999998
 40
0.4
  1
TR-0129 | Au 9.42
 11
73.18774999998277
 21
48.71820000000298
 31
55.82209999999998
100
AcDbText
  0
LINE
  5
137
330
17
100
AcDbEntity
  8
F7_TRAMO_AU_15_50
100
AcDbLine
 10
74.82149999996182
 20
48.50619999971241
 30
55.625
 11
76.69310000003316
 21
47.76439999975264
 31
55.625
  0
TEXT
  5
138
330
17
100
AcDbEntity
  8
F7_ETIQUETAS
100
AcDbText
 10
75.75729999999749
 20
48.135299999732524
 30
55.625
 40
0.4
  1
TR-0130 | Au 18.59
 11
75.75729999999749
 21
48.135299999732524
 31
55.625
100
AcDbText
  0
LINE
  5
139
330
17
100
AcDbEntity
  8
F7_TRAMO_AU_GE_50
100
AcDbLine
 10
76.69310000003316
 20
47.76439999975264
 30
55.625
 11
78.88240000000224
 21
47.52630000002682
 31
55.625
  0
TEXT
  5
13A
330
17
100
AcDbEntity
  8
F7_ETIQUETAS
100
AcDbText
 10
77.7877500000177
 20
47.64534999988973
 30
55.625
 40
0.4
  1
TR-0131 | Au 61.79
 11
77.7877500000177
 21
47.64534999988973
 31
55.625
100
AcDbText
  0
LINE
  5
13B
330
17
100
AcDbEntity
  8
F7_TRAMO_AU_GE_50
100
AcDbLine
 10
78.88240000000224
 20
47.52630000002682
 30
55.625
 11
81.98710000002757
 21
47.103799999691546
 31
55.303
  0
TEXT
  5
13C
330
17
100
AcDbEntity
  8
F7_ETIQUETAS
100
AcDbText
 10
80.4347500000149
 20
47.315049999859184
 30
55.464
 40
0.4
  1
TR-0132 | Au 60.75
 11
80.4347500000149
 21
47.315049999859184
 31
55.464
100
AcDbText
  0
LINE
  5
13D
330
17
100
AcDbEntity
  8
F7_TRAMO_AU_01_05
100
AcDbLine
 10
81.98710000002757
 20
47.103799999691546
 30
55.303
 11
83.97430000000168
 21
46.87800000049174
 31
55.21639999999991
  0
TEXT
  5
13E
330
17
100
AcDbEntity
  8
F7_ETIQUETAS
100
AcDbText
 10
82.98070000001462
 20
46.99090000009164
 30
55.25969999999995
 40
0.4
  1
TR-0133 | Au 2.91
 11
82.98070000001462
 21
46.99090000009164
 31
55.25969999999995
100
AcDbText
  0
LINE
  5
13F
330
17
100
AcDbEntity
  8
F7_TRAMO_AU_05_15
100
AcDbLine
 10
83.97430000000168
 20
46.87800000049174
 30
55.21639999999991
 11
85.70389999996405
 21
45.897699999623
 31
55.553
  0
TEXT
  5
140
330
17
100
AcDbEntity
  8
F7_ETIQUETAS
100
AcDbText
 10
84.83909999998286
 20
46.38785000005737
 30
55.38469999999995
 40
0.4
  1
TR-0134 | Au 5.82
 11
84.83909999998286
 21
46.38785000005737
 31
55.38469999999995
100
AcDbText
  0
LINE
  5
141
330
17
100
AcDbEntity
  8
F7_TRAMO_AU_05_15
100
AcDbLine
 10
85.70389999996405
 20
45.897699999623
 30
55.553
 11
87.40720000001602
 21
44.85879999957979
 31
55.450399999999945
  0
TEXT
  5
142
330
17
100
AcDbEntity
  8
F7_ETIQUETAS
100
AcDbText
 10
86.55554999999003
 20
45.378249999601394
 30
55.50169999999997
 40
0.4
  1
TR-0135 | Au 5.94
 11
86.55554999999003
 21
45.378249999601394
 31
55.50169999999997
100
AcDbText
  0
LINE
  5
143
330
17
100
AcDbEntity
  8
F7_TRAMO_AU_15_50
100
AcDbLine
 10
87.40720000001602
 20
44.85879999957979
 30
55.450399999999945
 11
89.32140000001527
 21
44.36079999990761
 31
55.62189999999998
  0
TEXT
  5
144
330
17
100
AcDbEntity
  8
F7_ETIQUETAS
100
AcDbText
 10
88.36430000001565
 20
44.6097999997437
 30
55.536149999999964
 40
0.4
  1
TR-0136 | Au 25.44
 11
88.36430000001565
 21
44.6097999997437
 31
55.536149999999964
100
AcDbText
  0
LINE
  5
145
330
17
100
AcDbEntity
  8
F7_TRAMO_AU_15_50
100
AcDbLine
 10
89.32140000001527
 20
44.36079999990761
 30
55.62189999999998
 11
91.32140000001527
 21
44.36079999990761
 31
55.865099999999984
  0
TEXT
  5
146
330
17
100
AcDbEntity
  8
F7_ETIQUETAS
100
AcDbText
 10
90.32140000001527
 20
44.36079999990761
 30
55.74349999999998
 40
0.4
  1
TR-0137 | Au 22.99
 11
90.32140000001527
 21
44.36079999990761
 31
55.74349999999998
100
AcDbText
  0
LINE
  5
147
330
17
100
AcDbEntity
  8
F7_TRAMO_AU_00_01
100
AcDbLine
 10
91.32140000001527
 20
44.36079999990761
 30
55.865099999999984
 11
93.31810000003316
 21
44.25729999970645
 31
55.78120000000001
  0
TEXT
  5
148
330
17
100
AcDbEntity
  8
F7_ETIQUETAS
100
AcDbText
 10
92.31975000002421
 20
44.30904999980703
 30
55.82315
 40
0.4
  1
TR-0138 | Au 0.30
 11
92.31975000002421
 21
44.30904999980703
 31
55.82315
100
AcDbText
  0
LINE
  5
149
330
17
100
AcDbEntity
  8
F7_TRAMO_AU_01_05
100
AcDbLine
 10
93.31810000003316
 20
44.25729999970645
 30
55.78120000000001
 11
95.31409999995958
 21
44.13009999971837
 31
55.65199999999993
  0
TEXT
  5
14A
330
17
100
AcDbEntity
  8
F7_ETIQUETAS
100
AcDbText
 10
94.31609999999637
 20
44.19369999971241
 30
55.71659999999997
 40
0.4
  1
TR-0139 | Au 2.96
 11
94.31609999999637
 21
44.19369999971241
 31
55.71659999999997
100
AcDbText
  0
LINE
  5
14B
330
17
100
AcDbEntity
  8
F7_TRAMO_AU_05_15
100
AcDbLine
 10
95.31409999995958
 20
44.13009999971837
 30
55.65199999999993
 11
97.30589999991935
 21
44.20230000000447
 31
55.67199999999991
  0
TEXT
  5
14C
330
17
100
AcDbEntity
  8
F7_ETIQUETAS
100
AcDbText
 10
96.30999999993946
 20
44.16619999986142
 30
55.66199999999992
 40
0.4
  1
TR-0140 | Au 8.79
 11
96.30999999993946
 21
44.16619999986142
 31
55.66199999999992
100
AcDbText
  0
LINE
  5
14D
330
17
100
AcDbEntity
  8
F7_TRAMO_AU_05_15
100
AcDbLine
 10
97.30589999991935
 20
44.20230000000447
 30
55.67199999999991
 11
99.29940000001807
 21
44.309100000187755
 31
55.826799999999935
  0
TEXT
  5
14E
330
17
100
AcDbEntity
  8
F7_ETIQUETAS
100
AcDbText
 10
98.30264999996871
 20
44.25570000009611
 30
55.74939999999992
 40
0.4
  1
TR-0141 | Au 7.62
 11
98.30264999996871
 21
44.25570000009611
 31
55.74939999999992
100
AcDbText
  0
LINE
  5
14F
330
17
100
AcDbEntity
  8
F7_TRAMO_AU_01_05
100
AcDbLine
 10
99.29940000001807
 20
44.309100000187755
 30
55.826799999999935
 11
101.29920000000857
 21
44.279099999926984
 31
55.92999999999995
  0
TEXT
  5
150
330
17
100
AcDbEntity
  8
F7_ETIQUETAS
100
AcDbText
 10
100.29930000001332
 20
44.29410000005737
 30
55.87839999999994
 40
0.4
  1
TR-0142 | Au 2.59
 11
100.29930000001332
 21
44.29410000005737
 31
55.87839999999994
100
AcDbText
  0
LINE
  5
151
330
17
100
AcDbEntity
  8
F7_TRAMO_AU_GE_50
100
AcDbLine
 10
88.39299999992363
 20
34.59499999973923
 30
77.33699999999999
 11
90.39299999992363
 21
34.59499999973923
 31
77.33699999999999
  0
TEXT
  5
152
330
17
100
AcDbEntity
  8
F7_ETIQUETAS
100
AcDbText
 10
89.39299999992363
 20
34.59499999973923
 30
77.33699999999999
 40
0.4
  1
TR-0143 | Au 69.25
 11
89.39299999992363
 21
34.59499999973923
 31
77.33699999999999
100
AcDbText
  0
LINE
  5
153
330
17
100
AcDbEntity
  8
F7_TRAMO_AU_GE_50
100
AcDbLine
 10
90.39299999992363
 20
34.59499999973923
 30
77.33699999999999
 11
92.38699999998789
 21
34.74600000027567
 31
77.33699999999999
  0
TEXT
  5
154
330
17
100
AcDbEntity
  8
F7_ETIQUETAS
100
AcDbText
 10
91.38999999995576
 20
34.67050000000745
 30
77.33699999999999
 40
0.4
  1
TR-0144 | Au 53.19
 11
91.38999999995576
 21
34.67050000000745
 31
77.33699999999999
100
AcDbText
  0
LINE
  5
155
330
17
100
AcDbEntity
  8
F7_TRAMO_AU_05_15
100
AcDbLine
 10
92.38699999998789
 20
34.74600000027567
 30
77.33699999999999
 11
94.38300000003073
 21
34.62999999988824
 31
77.33699999999999
  0
TEXT
  5
156
330
17
100
AcDbEntity
  8
F7_ETIQUETAS
100
AcDbText
 10
93.38500000000931
 20
34.688000000081956
 30
77.33699999999999
 40
0.4
  1
TR-0145 | Au 11.49
 11
93.38500000000931
 21
34.688000000081956
 31
77.33699999999999
100
AcDbText
  0
LINE
  5
157
330
17
100
AcDbEntity
  8
F7_TRAMO_AU_15_50
100
AcDbLine
 10
94.38300000003073
 20
34.62999999988824
 30
77.33699999999999
 11
96.37899999995716
 21
34.50800000037998
 31
77.33699999999999
  0
TEXT
  5
158
330
17
100
AcDbEntity
  8
F7_ETIQUETAS
100
AcDbText
 10
95.38099999999395
 20
34.56900000013411
 30
77.33699999999999
 40
0.4
  1
TR-0146 | Au 18.55
 11
95.38099999999395
 21
34.56900000013411
 31
77.33699999999999
100
AcDbText
  0
LINE
  5
159
330
17
100
AcDbEntity
  8
F7_TRAMO_AU_15_50
100
AcDbLine
 10
96.37899999995716
 20
34.50800000037998
 30
77.33699999999999
 11
98.375
 21
34.49600000027567
 31
77.33699999999999
  0
TEXT
  5
15A
330
17
100
AcDbEntity
  8
F7_ETIQUETAS
100
AcDbText
 10
97.37699999997858
 20
34.502000000327826
 30
77.33699999999999
 40
0.4
  1
TR-0147 | Au 23.17
 11
97.37699999997858
 21
34.502000000327826
 31
77.33699999999999
100
AcDbText
  0
LINE
  5
15B
330
17
100
AcDbEntity
  8
F7_TRAMO_AU_05_15
100
AcDbLine
 10
98.375
 20
34.49600000027567
 30
77.33699999999999
 11
100.36699999996927
 21
34.66799999959767
 31
77.33699999999999
  0
TEXT
  5
15C
330
17
100
AcDbEntity
  8
F7_ETIQUETAS
100
AcDbText
 10
99.37099999998463
 20
34.58199999993667
 30
77.33699999999999
 40
0.4
  1
TR-0148 | Au 11.28
 11
99.37099999998463
 21
34.58199999993667
 31
77.33699999999999
100
AcDbText
  0
LINE
  5
15D
330
17
100
AcDbEntity
  8
F7_TRAMO_AU_01_05
100
AcDbLine
 10
100.36699999996927
 20
34.66799999959767
 30
77.33699999999999
 11
102.3519999999553
 21
34.87800000049174
 31
77.33600000000001
  0
TEXT
  5
15E
330
17
100
AcDbEntity
  8
F7_ETIQUETAS
100
AcDbText
 10
101.35949999996228
 20
34.7730000000447
 30
77.3365
 40
0.4
  1
TR-0149 | Au 3.64
 11
101.35949999996228
 21
34.7730000000447
 31
77.3365
100
AcDbText
  0
LINE
  5
15F
330
17
100
AcDbEntity
  8
F7_TRAMO_AU_01_05
100
AcDbLine
 10
102.3519999999553
 20
34.87800000049174
 30
77.33600000000001
 11
104.34999999997672
 21
34.838000000454485
 31
77.29699999999991
  0
TEXT
  5
160
330
17
100
AcDbEntity
  8
F7_ETIQUETAS
100
AcDbText
 10
103.350999999966
 20
34.85800000047311
 30
77.31649999999996
 40
0.4
  1
TR-0150 | Au 1.48
 11
103.350999999966
 21
34.85800000047311
 31
77.31649999999996
100
AcDbText
  0
LINE
  5
161
330
17
100
AcDbEntity
  8
F7_TRAMO_AU_00_01
100
AcDbLine
 10
104.34999999997672
 20
34.838000000454485
 30
77.29699999999991
 11
106.32999999995809
 21
34.55599999986589
 31
77.22699999999998
  0
TEXT
  5
162
330
17
100
AcDbEntity
  8
F7_ETIQUETAS
100
AcDbText
 10
105.3399999999674
 20
34.69700000016019
 30
77.26199999999994
 40
0.4
  1
TR-0151 | Au 0.94
 11
105.3399999999674
 21
34.69700000016019
 31
77.26199999999994
100
AcDbText
  0
LINE
  5
163
330
17
100
AcDbEntity
  8
F7_TRAMO_AU_01_05
100
AcDbLine
 10
106.32999999995809
 20
34.55599999986589
 30
77.22699999999998
 11
108.30999999993946
 21
34.274000000208616
 31
77.15699999999993
  0
TEXT
  5
164
330
17
100
AcDbEntity
  8
F7_ETIQUETAS
100
AcDbText
 10
107.31999999994878
 20
34.41500000003725
 30
77.19199999999995
 40
0.4
  1
TR-0152 | Au 1.32
 11
107.31999999994878
 21
34.41500000003725
 31
77.19199999999995
100
AcDbText
  0
LINE
  5
165
330
17
100
AcDbEntity
  8
F7_TRAMO_AU_00_01
100
AcDbLine
 10
108.30999999993946
 20
34.274000000208616
 30
77.15699999999993
 11
110.28999999992084
 21
33.99299999978393
 31
77.08699999999999
  0
TEXT
  5
166
330
17
100
AcDbEntity
  8
F7_ETIQUETAS
100
AcDbText
 10
109.29999999993015
 20
34.133499999996275
 30
77.12199999999996
 40
0.4
  1
TR-0153 | Au 0.88
 11
109.29999999993015
 21
34.133499999996275
 31
77.12199999999996
100
AcDbText
  0
LINE
  5
167
330
17
100
AcDbEntity
  8
F7_TRAMO_AU_01_05
100
AcDbLine
 10
110.28999999992084
 20
33.99299999978393
 30
77.08699999999999
 11
112.25699999998324
 21
33.63200000021607
 31
77.01799999999992
  0
TEXT
  5
168
330
17
100
AcDbEntity
  8
F7_ETIQUETAS
100
AcDbText
 10
111.27349999995204
 20
33.8125
 30
77.05249999999995
 40
0.4
  1
TR-0154 | Au 1.21
 11
111.27349999995204
 21
33.8125
 31
77.05249999999995
100
AcDbText
  0
LINE
  5
169
330
17
100
AcDbEntity
  8
F7_TRAMO_AU_01_05
100
AcDbLine
 10
112.25699999998324
 20
33.63200000021607
 30
77.01799999999992
 11
114.22199999995064
 21
33.26200000010431
 31
76.94899999999996
  0
TEXT
  5
16A
330
17
100
AcDbEntity
  8
F7_ETIQUETAS
100
AcDbText
 10
113.23949999996694
 20
33.44700000016019
 30
76.98349999999994
 40
0.4
  1
TR-0155 | Au 2.62
 11
113.23949999996694
 21
33.44700000016019
 31
76.98349999999994
100
AcDbText
  0
LINE
  5
16B
330
17
100
AcDbEntity
  8
F7_TRAMO_AU_01_05
100
AcDbLine
 10
114.22199999995064
 20
33.26200000010431
 30
76.94899999999996
 11
116.2149999999674
 21
33.186999999918044
 31
76.88099999999997
  0
TEXT
  5
16C
330
17
100
AcDbEntity
  8
F7_ETIQUETAS
100
AcDbText
 10
115.21849999995902
 20
33.224500000011176
 30
76.91499999999996
 40
0.4
  1
TR-0156 | Au 3.46
 11
115.21849999995902
 21
33.224500000011176
 31
76.91499999999996
100
AcDbText
  0
LINE
  5
16D
330
17
100
AcDbEntity
  8
F7_TRAMO_AU_GE_50
100
AcDbLine
 10
116.2149999999674
 20
33.186999999918044
 30
76.88099999999997
 11
118.2149999999674
 21
33.186999999918044
 31
76.74799999999993
  0
TEXT
  5
16E
330
17
100
AcDbEntity
  8
F7_ETIQUETAS
100
AcDbText
 10
117.2149999999674
 20
33.186999999918044
 30
76.81449999999995
 40
0.4
  1
TR-0157 | Au 65.96
 11
117.2149999999674
 21
33.186999999918044
 31
76.81449999999995
100
AcDbText
  0
LINE
  5
16F
330
17
100
AcDbEntity
  8
F7_TRAMO_AU_GE_50
100
AcDbLine
 10
118.2149999999674
 20
33.186999999918044
 30
76.74799999999993
 11
120.2149999999674
 21
33.186999999918044
 31
76.56899999999996
  0
TEXT
  5
170
330
17
100
AcDbEntity
  8
F7_ETIQUETAS
100
AcDbText
 10
119.2149999999674
 20
33.186999999918044
 30
76.65849999999995
 40
0.4
  1
TR-0158 | Au 70.37
 11
119.2149999999674
 21
33.186999999918044
 31
76.65849999999995
100
AcDbText
  0
LINE
  5
171
330
17
100
AcDbEntity
  8
F7_TRAMO_AU_01_05
100
AcDbLine
 10
120.2149999999674
 20
33.186999999918044
 30
76.56899999999996
 11
122.2149999999674
 21
33.186999999918044
 31
76.20499999999993
  0
TEXT
  5
172
330
17
100
AcDbEntity
  8
F7_ETIQUETAS
100
AcDbText
 10
121.2149999999674
 20
33.186999999918044
 30
76.38699999999994
 40
0.4
  1
TR-0159 | Au 1.96
 11
121.2149999999674
 21
33.186999999918044
 31
76.38699999999994
100
AcDbText
  0
LINE
  5
173
330
17
100
AcDbEntity
  8
F7_TRAMO_AU_00_01
100
AcDbLine
 10
122.2149999999674
 20
33.186999999918044
 30
76.20499999999993
 11
124.2149999999674
 21
33.16500000003725
 31
76.20499999999993
  0
TEXT
  5
174
330
17
100
AcDbEntity
  8
F7_ETIQUETAS
100
AcDbText
 10
123.2149999999674
 20
33.17599999997765
 30
76.20499999999993
 40
0.4
  1
TR-0160 | Au 0.48
 11
123.2149999999674
 21
33.17599999997765
 31
76.20499999999993
100
AcDbText
  0
LINE
  5
175
330
17
100
AcDbEntity
  8
F7_TRAMO_AU_00_01
100
AcDbLine
 10
124.2149999999674
 20
33.16500000003725
 30
76.20499999999993
 11
126.2139999999199
 21
33.178000000305474
 31
76.20499999999993
  0
TEXT
  5
176
330
17
100
AcDbEntity
  8
F7_ETIQUETAS
100
AcDbText
 10
125.21449999994365
 20
33.17150000017136
 30
76.20499999999993
 40
0.4
  1
TR-0161 | Au 0.24
 11
125.21449999994365
 21
33.17150000017136
 31
76.20499999999993
100
AcDbText
  0
LINE
  5
177
330
17
100
AcDbEntity
  8
F7_TRAMO_AU_01_05
100
AcDbLine
 10
126.2139999999199
 20
33.178000000305474
 30
76.20499999999993
 11
128.18599999998696
 21
33.50300000049174
 31
76.10699999999997
  0
TEXT
  5
178
330
17
100
AcDbEntity
  8
F7_ETIQUETAS
100
AcDbText
 10
127.19999999995343
 20
33.340500000398606
 30
76.15599999999995
 40
0.4
  1
TR-0162 | Au 4.25
 11
127.19999999995343
 21
33.340500000398606
 31
76.15599999999995
100
AcDbText
  0
LINE
  5
179
330
17
100
AcDbEntity
  8
F7_TRAMO_AU_05_15
100
AcDbLine
 10
217.52610000001732
 20
24.88190000038594
 30
11.09579999999994
 11
219.5097999999998
 21
24.700299999676645
 31
11.09579999999994
  0
TEXT
  5
17A
330
17
100
AcDbEntity
  8
F7_ETIQUETAS
100
AcDbText
 10
218.51795000000857
 20
24.791100000031292
 30
11.09579999999994
 40
0.4
  1
TR-0163 | Au 8.27
 11
218.51795000000857
 21
24.791100000031292
 31
11.09579999999994
100
AcDbText
  0
LINE
  5
17B
330
17
100
AcDbEntity
  8
F7_TRAMO_AU_05_15
100
AcDbLine
 10
219.5097999999998
 20
24.700299999676645
 30
11.09579999999994
 11
221.50769999995828
 21
24.831899999640882
 31
11.09579999999994
  0
TEXT
  5
17C
330
17
100
AcDbEntity
  8
F7_ETIQUETAS
100
AcDbText
 10
220.50874999997905
 20
24.766099999658763
 30
11.09579999999994
 40
0.4
  1
TR-0164 | Au 6.52
 11
220.50874999997905
 21
24.766099999658763
 31
11.09579999999994
100
AcDbText
  0
LINE
  5
17D
330
17
100
AcDbEntity
  8
F7_TRAMO_AU_15_50
100
AcDbLine
 10
221.50769999995828
 20
24.831899999640882
 30
11.09579999999994
 11
223.45429999998305
 21
24.671099999919534
 31
11.09579999999994
  0
TEXT
  5
17E
330
17
100
AcDbEntity
  8
F7_ETIQUETAS
100
AcDbText
 10
222.48099999997066
 20
24.751499999780208
 30
11.09579999999994
 40
0.4
  1
TR-0165 | Au 24.83
 11
222.48099999997066
 21
24.751499999780208
 31
11.09579999999994
100
AcDbText
  0
LINE
  5
17F
330
17
100
AcDbEntity
  8
F7_TRAMO_AU_15_50
100
AcDbLine
 10
223.45429999998305
 20
24.671099999919534
 30
11.09579999999994
 11
227.43920000002254
 21
24.074199999682605
 31
11.09579999999994
  0
TEXT
  5
180
330
17
100
AcDbEntity
  8
F7_ETIQUETAS
100
AcDbText
 10
225.4467500000028
 20
24.37264999980107
 30
11.09579999999994
 40
0.4
  1
TR-0166 | Au 20.66
 11
225.4467500000028
 21
24.37264999980107
 31
11.09579999999994
100
AcDbText
  0
LINE
  5
181
330
17
100
AcDbEntity
  8
F7_TRAMO_AU_01_05
100
AcDbLine
 10
227.43920000002254
 20
24.074199999682605
 30
11.09579999999994
 11
231.37320000003092
 21
23.355999999679625
 31
11.09579999999994
  0
TEXT
  5
182
330
17
100
AcDbEntity
  8
F7_ETIQUETAS
100
AcDbText
 10
229.40620000002673
 20
23.715099999681115
 30
11.09579999999994
 40
0.4
  1
TR-0167 | Au 1.24
 11
229.40620000002673
 21
23.715099999681115
 31
11.09579999999994
100
AcDbText
  0
LINE
  5
183
330
17
100
AcDbEntity
  8
F7_TRAMO_AU_01_05
100
AcDbLine
 10
231.37320000003092
 20
23.355999999679625
 30
11.09579999999994
 11
233.33750000002328
 21
22.981700000353158
 31
11.09579999999994
  0
TEXT
  5
184
330
17
100
AcDbEntity
  8
F7_ETIQUETAS
100
AcDbText
 10
232.3553500000271
 20
23.16885000001639
 30
11.09579999999994
 40
0.4
  1
TR-0168 | Au 2.12
 11
232.3553500000271
 21
23.16885000001639
 31
11.09579999999994
100
AcDbText
  0
LINE
  5
185
330
17
100
AcDbEntity
  8
F7_TRAMO_AU_01_05
100
AcDbLine
 10
233.33750000002328
 20
22.981700000353158
 30
11.09579999999994
 11
235.3229000000283
 21
22.745799999684095
 31
11.09579999999994
  0
TEXT
  5
186
330
17
100
AcDbEntity
  8
F7_ETIQUETAS
100
AcDbText
 10
234.3302000000258
 20
22.863750000018626
 30
11.09579999999994
 40
0.4
  1
TR-0169 | Au 3.28
 11
234.3302000000258
 21
22.863750000018626
 31
11.09579999999994
100
AcDbText
  0
LINE
  5
187
330
17
100
AcDbEntity
  8
F7_TRAMO_AU_01_05
100
AcDbLine
 10
235.3229000000283
 20
22.745799999684095
 30
11.09579999999994
 11
237.52209999994375
 21
22.78110000025481
 31
11.09579999999994
  0
TEXT
  5
188
330
17
100
AcDbEntity
  8
F7_ETIQUETAS
100
AcDbText
 10
236.42249999998603
 20
22.763449999969453
 30
11.09579999999994
 40
0.4
  1
TR-0170 | Au 3.02
 11
236.42249999998603
 21
22.763449999969453
 31
11.09579999999994
100
AcDbText
  0
LINE
  5
189
330
17
100
AcDbEntity
  8
F7_TRAMO_AU_01_05
100
AcDbLine
 10
237.52209999994375
 20
22.78110000025481
 30
11.09579999999994
 11
239.52090000000317
 21
22.71750000026077
 31
11.09579999999994
  0
TEXT
  5
18A
330
17
100
AcDbEntity
  8
F7_ETIQUETAS
100
AcDbText
 10
238.52149999997346
 20
22.74930000025779
 30
11.09579999999994
 40
0.4
  1
TR-0171 | Au 1.98
 11
238.52149999997346
 21
22.74930000025779
 31
11.09579999999994
100
AcDbText
  0
LINE
  5
18B
330
17
100
AcDbEntity
  8
F7_TRAMO_AU_00_01
100
AcDbLine
 10
239.52090000000317
 20
22.71750000026077
 30
11.09579999999994
 11
241.38419999997132
 21
22.00899999961257
 31
11.09579999999994
  0
TEXT
  5
18C
330
17
100
AcDbEntity
  8
F7_ETIQUETAS
100
AcDbText
 10
240.45254999998724
 20
22.36324999993667
 30
11.09579999999994
 40
0.4
  1
TR-0172 | Au 0.53
 11
240.45254999998724
 21
22.36324999993667
 31
11.09579999999994
100
AcDbText
  0
LINE
  5
18D
330
17
100
AcDbEntity
  8
F7_TRAMO_AU_00_01
100
AcDbLine
 10
241.38419999997132
 20
22.00899999961257
 30
11.09579999999994
 11
242.66310000000522
 21
20.503200000151992
 31
11.09579999999994
  0
TEXT
  5
18E
330
17
100
AcDbEntity
  8
F7_ETIQUETAS
100
AcDbText
 10
242.02364999998827
 20
21.25609999988228
 30
11.09579999999994
 40
0.4
  1
TR-0173 | Au 0.89
 11
242.02364999998827
 21
21.25609999988228
 31
11.09579999999994
100
AcDbText
  0
LINE
  5
18F
330
17
100
AcDbEntity
  8
F7_TRAMO_AU_01_05
100
AcDbLine
 10
242.66310000000522
 20
20.503200000151992
 30
11.09579999999994
 11
244.35800000000745
 21
19.674100000411272
 31
11.09579999999994
  0
TEXT
  5
190
330
17
100
AcDbEntity
  8
F7_ETIQUETAS
100
AcDbText
 10
243.51055000000633
 20
20.088650000281632
 30
11.09579999999994
 40
0.4
  1
TR-0174 | Au 1.06
 11
243.51055000000633
 21
20.088650000281632
 31
11.09579999999994
100
AcDbText
  0
LINE
  5
191
330
17
100
AcDbEntity
  8
F7_TRAMO_AU_01_05
100
AcDbLine
 10
202.67765541002154
 20
25.769269480369985
 30
11.190239959999985
 11
204.46238829998765
 21
25.672290969640017
 31
11.190239959999985
  0
TEXT
  5
192
330
17
100
AcDbEntity
  8
F7_ETIQUETAS
100
AcDbText
 10
203.5700218550046
 20
25.720780225005
 30
11.190239959999985
 40
0.4
  1
TR-0175 | Au 1.06
 11
203.5700218550046
 21
25.720780225005
 31
11.190239959999985
100
AcDbText
  0
LINE
  5
193
330
17
100
AcDbEntity
  8
F7_TRAMO_AU_00_01
100
AcDbLine
 10
204.46238829998765
 20
25.672290969640017
 30
11.190239959999985
 11
206.4467935699504
 21
26.00908020976931
 31
11.190239959999985
  0
TEXT
  5
194
330
17
100
AcDbEntity
  8
F7_ETIQUETAS
100
AcDbText
 10
205.45459093496902
 20
25.840685589704663
 30
11.190239959999985
 40
0.4
  1
TR-0176 | Au 0.46
 11
205.45459093496902
 21
25.840685589704663
 31
11.190239959999985
100
AcDbText
  0
LINE
  5
195
330
17
100
AcDbEntity
  8
F7_TRAMO_AU_00_01
100
AcDbLine
 10
206.4467935699504
 20
26.00908020976931
 30
11.190239959999985
 11
208.32793946994934
 21
26.294828670099378
 31
11.175313249999931
  0
TEXT
  5
196
330
17
100
AcDbEntity
  8
F7_ETIQUETAS
100
AcDbText
 10
207.38736651994986
 20
26.151954439934343
 30
11.182776604999958
 40
0.4
  1
TR-0177 | Au 0.42
 11
207.38736651994986
 21
26.151954439934343
 31
11.182776604999958
100
AcDbText
  0
LINE
  5
197
330
17
100
AcDbEntity
  8
F7_TRAMO_AU_00_01
100
AcDbLine
 10
208.32793946994934
 20
26.294828670099378
 30
11.175313249999931
 11
210.31382615992334
 21
25.92171906027943
 31
11.142827109999985
  0
TEXT
  5
198
330
17
100
AcDbEntity
  8
F7_ETIQUETAS
100
AcDbText
 10
209.32088281493634
 20
26.108273865189403
 30
11.159070179999958
 40
0.4
  1
TR-0178 | Au 0.64
 11
209.32088281493634
 21
26.108273865189403
 31
11.159070179999958
100
AcDbText
  0
LINE
  5
199
330
17
100
AcDbEntity
  8
F7_TRAMO_AU_00_01
100
AcDbLine
 10
210.31382615992334
 20
25.92171906027943
 30
11.142827109999985
 11
212.22321555996314
 21
25.36422611027956
 31
11.105633669999975
  0
TEXT
  5
19A
330
17
100
AcDbEntity
  8
F7_ETIQUETAS
100
AcDbText
 10
211.26852085994324
 20
25.642972585279495
 30
11.12423038999998
 40
0.4
  1
TR-0179 | Au 0.16
 11
211.26852085994324
 21
25.642972585279495
 31
11.12423038999998
100
AcDbText
  0
LINE
  5
19B
330
17
100
AcDbEntity
  8
F7_TRAMO_AU_05_15
100
AcDbLine
 10
212.22321555996314
 20
25.36422611027956
 30
11.105633669999975
 11
214.21708660002332
 21
25.29149517044425
 31
11.043972139999937
  0
TEXT
  5
19C
330
17
100
AcDbEntity
  8
F7_ETIQUETAS
100
AcDbText
 10
213.22015107999323
 20
25.327860640361905
 30
11.074802904999956
 40
0.4
  1
TR-0180 | Au 5.92
 11
213.22015107999323
 21
25.327860640361905
 31
11.074802904999956
100
AcDbText
  0
LINE
  5
19D
330
17
100
AcDbEntity
  8
F7_TRAMO_AU_15_50
100
AcDbLine
 10
214.21708660002332
 20
25.29149517044425
 30
11.043972139999937
 11
216.0769391199574
 21
25.25137470010668
 31
10.97486927
  0
TEXT
  5
19E
330
17
100
AcDbEntity
  8
F7_ETIQUETAS
100
AcDbText
 10
215.14701285999035
 20
25.271434935275465
 30
11.009420704999968
 40
0.4
  1
TR-0181 | Au 17.22
 11
215.14701285999035
 21
25.271434935275465
 31
11.009420704999968
100
AcDbText
  0
LINE
  5
19F
330
17
100
AcDbEntity
  8
F7_TRAMO_AU_15_50
100
AcDbLine
 10
216.0769391199574
 20
25.25137470010668
 30
10.97486927
 11
216.18426810996607
 21
25.539671749807894
 31
10.974164789999918
  0
TEXT
  5
1A0
330
17
100
AcDbEntity
  8
F7_ETIQUETAS
100
AcDbText
 10
216.13060361496173
 20
25.395523224957287
 30
10.974517029999959
 40
0.4
  1
TR-0182 | Au 16.15
 11
216.13060361496173
 21
25.395523224957287
 31
10.974517029999959
100
AcDbText
  0
LINE
  5
1A1
330
17
100
AcDbEntity
  8
F7_TRAMO_AU_00_01
100
AcDbLine
 10
184.77308452001307
 20
18.371690340340137
 30
80.39017710999997
 11
186.70525351993274
 21
17.898805749602616
 31
80.39017710999997
  0
TEXT
  5
1A2
330
17
100
AcDbEntity
  8
F7_ETIQUETAS
100
AcDbText
 10
185.7391690199729
 20
18.135248044971377
 30
80.39017710999997
 40
0.4
  1
TR-0183 | Au 0.20
 11
185.7391690199729
 21
18.135248044971377
 31
80.39017710999997
100
AcDbText
  0
LINE
  5
1A3
330
17
100
AcDbEntity
  8
F7_TRAMO_AU_01_05
100
AcDbLine
 10
186.70525351993274
 20
17.898805749602616
 30
80.39017710999997
 11
188.56858433003072
 21
17.44276881031692
 31
80.39017710999997
  0
TEXT
  5
1A4
330
17
100
AcDbEntity
  8
F7_ETIQUETAS
100
AcDbText
 10
187.63691892498173
 20
17.670787279959768
 30
80.39017710999997
 40
0.4
  1
TR-0184 | Au 4.96
 11
187.63691892498173
 21
17.670787279959768
 31
80.39017710999997
100
AcDbText
  0
LINE
  5
1A5
330
17
100
AcDbEntity
  8
F7_TRAMO_AU_05_15
100
AcDbLine
 10
188.56858433003072
 20
17.44276881031692
 30
80.39017710999997
 11
190.5258601399837
 21
16.829443220049143
 31
80.39017710999997
  0
TEXT
  5
1A6
330
17
100
AcDbEntity
  8
F7_ETIQUETAS
100
AcDbText
 10
189.5472222350072
 20
17.13610601518303
 30
80.39017710999997
 40
0.4
  1
TR-0185 | Au 6.87
 11
189.5472222350072
 21
17.13610601518303
 31
80.39017710999997
100
AcDbText
  0
LINE
  5
1A7
330
17
100
AcDbEntity
  8
F7_TRAMO_AU_05_15
100
AcDbLine
 10
190.5258601399837
 20
16.829443220049143
 30
80.39017710999997
 11
192.46727699995972
 21
16.833984290249646
 31
80.39017710999997
  0
TEXT
  5
1A8
330
17
100
AcDbEntity
  8
F7_ETIQUETAS
100
AcDbText
 10
191.4965685699717
 20
16.831713755149394
 30
80.39017710999997
 40
0.4
  1
TR-0186 | Au 6.23
 11
191.4965685699717
 21
16.831713755149394
 31
80.39017710999997
100
AcDbText
  0
LINE
  5
1A9
330
17
100
AcDbEntity
  8
F7_TRAMO_AU_01_05
100
AcDbLine
 10
192.46727699995972
 20
16.833984290249646
 30
80.39017710999997
 11
194.55193320999388
 21
16.61434544995427
 31
80.39017710999997
  0
TEXT
  5
1AA
330
17
100
AcDbEntity
  8
F7_ETIQUETAS
100
AcDbText
 10
193.5096051049768
 20
16.72416487010196
 30
80.39017710999997
 40
0.4
  1
TR-0187 | Au 4.95
 11
193.5096051049768
 21
16.72416487010196
 31
80.39017710999997
100
AcDbText
  0
LINE
  5
1AB
330
17
100
AcDbEntity
  8
F7_TRAMO_AU_15_50
100
AcDbLine
 10
194.55193320999388
 20
16.61434544995427
 30
80.39017710999997
 11
196.65626721002627
 21
16.71346857957542
 31
80.39017710999997
  0
TEXT
  5
1AC
330
17
100
AcDbEntity
  8
F7_ETIQUETAS
100
AcDbText
 10
195.60410021001007
 20
16.663907014764845
 30
80.39017710999997
 40
0.4
  1
TR-0188 | Au 15.68
 11
195.60410021001007
 21
16.663907014764845
 31
80.39017710999997
100
AcDbText
  0
LINE
  5
1AD
330
17
100
AcDbEntity
  8
F7_TRAMO_AU_15_50
100
AcDbLine
 10
196.65626721002627
 20
16.71346857957542
 30
80.39017710999997
 11
196.65626721002627
 21
16.71346857957542
 31
83.19653406999998
  0
TEXT
  5
1AE
330
17
100
AcDbEntity
  8
F7_ETIQUETAS
100
AcDbText
 10
196.65626721002627
 20
16.71346857957542
 30
81.79335558999998
 40
0.4
  1
TR-0189 | Au 18.60
 11
196.65626721002627
 21
16.71346857957542
 31
81.79335558999998
100
AcDbText
  0
LINE
  5
1AF
330
17
100
AcDbEntity
  8
F7_TRAMO_AU_05_15
100
AcDbLine
 10
196.65626721002627
 20
16.71346857957542
 30
83.19653406999998
 11
198.6526709999889
 21
16.75952162966132
 31
80.39017710999997
  0
TEXT
  5
1B0
330
17
100
AcDbEntity
  8
F7_ETIQUETAS
100
AcDbText
 10
197.6544691050076
 20
16.73649510461837
 30
81.79335558999998
 40
0.4
  1
TR-0190 | Au 11.25
 11
197.6544691050076
 21
16.73649510461837
 31
81.79335558999998
100
AcDbText
  0
LINE
  5
1B1
330
17
100
AcDbEntity
  8
F7_TRAMO_AU_01_05
100
AcDbLine
 10
198.6526709999889
 20
16.75952162966132
 30
80.39017710999997
 11
198.6526709999889
 21
16.75952162966132
 31
83.19653406999998
  0
TEXT
  5
1B2
330
17
100
AcDbEntity
  8
F7_ETIQUETAS
100
AcDbText
 10
198.6526709999889
 20
16.75952162966132
 30
81.79335558999998
 40
0.4
  1
TR-0191 | Au 1.36
 11
198.6526709999889
 21
16.75952162966132
 31
81.79335558999998
100
AcDbText
  0
LINE
  5
1B3
330
17
100
AcDbEntity
  8
F7_TRAMO_AU_01_05
100
AcDbLine
 10
198.6526709999889
 20
16.75952162966132
 30
83.19653406999998
 11
200.27193971001543
 21
16.979376980103552
 31
80.39017710999997
  0
TEXT
  5
1B4
330
17
100
AcDbEntity
  8
F7_ETIQUETAS
100
AcDbText
 10
199.46230535500217
 20
16.869449304882437
 30
81.79335558999998
 40
0.4
  1
TR-0192 | Au 1.41
 11
199.46230535500217
 21
16.869449304882437
 31
81.79335558999998
100
AcDbText
  0
LINE
  5
1B5
330
17
100
AcDbEntity
  8
F7_TRAMO_AU_15_50
100
AcDbLine
 10
200.27193971001543
 20
16.979376980103552
 30
80.39017710999997
 11
200.27193971001543
 21
16.979376980103552
 31
83.19653406999998
  0
TEXT
  5
1B6
330
17
100
AcDbEntity
  8
F7_ETIQUETAS
100
AcDbText
 10
200.27193971001543
 20
16.979376980103552
 30
81.79335558999998
 40
0.4
  1
TR-0193 | Au 29.23
 11
200.27193971001543
 21
16.979376980103552
 31
81.79335558999998
100
AcDbText
  0
LINE
  5
1B7
330
17
100
AcDbEntity
  8
F7_TRAMO_AU_15_50
100
AcDbLine
 10
200.27193971001543
 20
16.979376980103552
 30
83.19653406999998
 11
202.303314890014
 21
16.934685019776225
 31
80.39017710999997
  0
TEXT
  5
1B8
330
17
100
AcDbEntity
  8
F7_ETIQUETAS
100
AcDbText
 10
201.28762730001472
 20
16.95703099993989
 30
81.79335558999998
 40
0.4
  1
TR-0194 | Au 29.58
 11
201.28762730001472
 21
16.95703099993989
 31
81.79335558999998
100
AcDbText
  0
LINE
  5
1B9
330
17
100
AcDbEntity
  8
F7_TRAMO_AU_05_15
100
AcDbLine
 10
202.303314890014
 20
16.934685019776225
 30
80.39017710999997
 11
202.303314890014
 21
16.934685019776225
 31
83.19653406999998
  0
TEXT
  5
1BA
330
17
100
AcDbEntity
  8
F7_ETIQUETAS
100
AcDbText
 10
202.303314890014
 20
16.934685019776225
 30
81.79335558999998
 40
0.4
  1
TR-0195 | Au 9.32
 11
202.303314890014
 21
16.934685019776225
 31
81.79335558999998
100
AcDbText
  0
LINE
  5
1BB
330
17
100
AcDbEntity
  8
F7_TRAMO_AU_05_15
100
AcDbLine
 10
202.303314890014
 20
16.934685019776225
 30
83.19653406999998
 11
204.52652185002808
 21
17.012948400340974
 31
80.39017710999997
  0
TEXT
  5
1BC
330
17
100
AcDbEntity
  8
F7_ETIQUETAS
100
AcDbText
 10
203.41491837002104
 20
16.9738167100586
 30
81.79335558999998
 40
0.4
  1
TR-0196 | Au 7.51
 11
203.41491837002104
 21
16.9738167100586
 31
81.79335558999998
100
AcDbText
  0
LINE
  5
1BD
330
17
100
AcDbEntity
  8
F7_TRAMO_AU_05_15
100
AcDbLine
 10
204.52652185002808
 20
17.012948400340974
 30
80.39017710999997
 11
204.52652185002808
 21
17.012948400340974
 31
83.19653406999998
  0
TEXT
  5
1BE
330
17
100
AcDbEntity
  8
F7_ETIQUETAS
100
AcDbText
 10
204.52652185002808
 20
17.012948400340974
 30
81.79335558999998
 40
0.4
  1
TR-0197 | Au 9.03
 11
204.52652185002808
 21
17.012948400340974
 31
81.79335558999998
100
AcDbText
  0
LINE
  5
1BF
330
17
100
AcDbEntity
  8
F7_TRAMO_AU_05_15
100
AcDbLine
 10
204.52652185002808
 20
17.012948400340974
 30
83.19653406999998
 11
206.479117579991
 21
17.041776590049267
 31
80.39017710999997
  0
TEXT
  5
1C0
330
17
100
AcDbEntity
  8
F7_ETIQUETAS
100
AcDbText
 10
205.50281971500954
 20
17.02736249519512
 30
81.79335558999998
 40
0.4
  1
TR-0198 | Au 7.86
 11
205.50281971500954
 21
17.02736249519512
 31
81.79335558999998
100
AcDbText
  0
LINE
  5
1C1
330
17
100
AcDbEntity
  8
F7_TRAMO_AU_05_15
100
AcDbLine
 10
206.479117579991
 20
17.041776590049267
 30
80.39017710999997
 11
206.479117579991
 21
17.041776590049267
 31
83.19653406999998
  0
TEXT
  5
1C2
330
17
100
AcDbEntity
  8
F7_ETIQUETAS
100
AcDbText
 10
206.479117579991
 20
17.041776590049267
 30
81.79335558999998
 40
0.4
  1
TR-0199 | Au 11.16
 11
206.479117579991
 21
17.041776590049267
 31
81.79335558999998
100
AcDbText
  0
LINE
  5
1C3
330
17
100
AcDbEntity
  8
F7_TRAMO_AU_15_50
100
AcDbLine
 10
206.479117579991
 20
17.041776590049267
 30
83.19653406999998
 11
208.38295271003153
 21
16.85336131043732
 31
80.39017710999997
  0
TEXT
  5
1C4
330
17
100
AcDbEntity
  8
F7_ETIQUETAS
100
AcDbText
 10
207.43103514501126
 20
16.947568950243294
 30
81.79335558999998
 40
0.4
  1
TR-0200 | Au 20.94
 11
207.43103514501126
 21
16.947568950243294
 31
81.79335558999998
100
AcDbText
  0
LINE
  5
1C5
330
17
100
AcDbEntity
  8
F7_TRAMO_AU_05_15
100
AcDbLine
 10
208.38295271003153
 20
16.85336131043732
 30
80.39017710999997
 11
208.38295271003153
 21
16.85336131043732
 31
83.19653406999998
  0
TEXT
  5
1C6
330
17
100
AcDbEntity
  8
F7_ETIQUETAS
100
AcDbText
 10
208.38295271003153
 20
16.85336131043732
 30
81.79335558999998
 40
0.4
  1
TR-0201 | Au 6.57
 11
208.38295271003153
 21
16.85336131043732
 31
81.79335558999998
100
AcDbText
  0
LINE
  5
1C7
330
17
100
AcDbEntity
  8
F7_TRAMO_AU_15_50
100
AcDbLine
 10
184.77308452001307
 20
18.371690340340137
 30
84.45912624999994
 11
186.70525351993274
 21
17.898805749602616
 31
84.45912624999994
  0
TEXT
  5
1C8
330
17
100
AcDbEntity
  8
F7_ETIQUETAS
100
AcDbText
 10
185.7391690199729
 20
18.135248044971377
 30
84.45912624999994
 40
0.4
  1
TR-0202 | Au 19.00
 11
185.7391690199729
 21
18.135248044971377
 31
84.45912624999994
100
AcDbText
  0
LINE
  5
1C9
330
17
100
AcDbEntity
  8
F7_TRAMO_AU_15_50
100
AcDbLine
 10
186.70525351993274
 20
17.898805749602616
 30
84.45912624999994
 11
188.56858433003072
 21
17.44276881031692
 31
84.45912624999994
  0
TEXT
  5
1CA
330
17
100
AcDbEntity
  8
F7_ETIQUETAS
100
AcDbText
 10
187.63691892498173
 20
17.670787279959768
 30
84.45912624999994
 40
0.4
  1
TR-0203 | Au 22.25
 11
187.63691892498173
 21
17.670787279959768
 31
84.45912624999994
100
AcDbText
  0
LINE
  5
1CB
330
17
100
AcDbEntity
  8
F7_TRAMO_AU_15_50
100
AcDbLine
 10
188.56858433003072
 20
17.44276881031692
 30
84.45912624999994
 11
190.5258601399837
 21
16.829443220049143
 31
84.45912624999994
  0
TEXT
  5
1CC
330
17
100
AcDbEntity
  8
F7_ETIQUETAS
100
AcDbText
 10
189.5472222350072
 20
17.13610601518303
 30
84.45912624999994
 40
0.4
  1
TR-0204 | Au 30.99
 11
189.5472222350072
 21
17.13610601518303
 31
84.45912624999994
100
AcDbText
  0
LINE
  5
1CD
330
17
100
AcDbEntity
  8
F7_TRAMO_AU_15_50
100
AcDbLine
 10
190.5258601399837
 20
16.829443220049143
 30
84.45912624999994
 11
192.46727699995972
 21
16.833984290249646
 31
84.45912624999994
  0
TEXT
  5
1CE
330
17
100
AcDbEntity
  8
F7_ETIQUETAS
100
AcDbText
 10
191.4965685699717
 20
16.831713755149394
 30
84.45912624999994
 40
0.4
  1
TR-0205 | Au 16.43
 11
191.4965685699717
 21
16.831713755149394
 31
84.45912624999994
100
AcDbText
  0
LINE
  5
1CF
330
17
100
AcDbEntity
  8
F7_TRAMO_AU_01_05
100
AcDbLine
 10
192.46727699995972
 20
16.833984290249646
 30
84.45912624999994
 11
194.55193320999388
 21
16.61434544995427
 31
84.45912624999994
  0
TEXT
  5
1D0
330
17
100
AcDbEntity
  8
F7_ETIQUETAS
100
AcDbText
 10
193.5096051049768
 20
16.72416487010196
 30
84.45912624999994
 40
0.4
  1
TR-0206 | Au 1.91
 11
193.5096051049768
 21
16.72416487010196
 31
84.45912624999994
100
AcDbText
  0
LINE
  5
1D1
330
17
100
AcDbEntity
  8
F7_TRAMO_AU_GE_50
100
AcDbLine
 10
213.57681134995073
 20
16.27727985009551
 30
84.27016185999992
 11
213.57681134995073
 21
16.27727985009551
 31
85.97229115999994
  0
TEXT
  5
1D2
330
17
100
AcDbEntity
  8
F7_ETIQUETAS
100
AcDbText
 10
213.57681134995073
 20
16.27727985009551
 30
85.12122650999993
 40
0.4
  1
TR-0207 | Au 106.89
 11
213.57681134995073
 21
16.27727985009551
 31
85.12122650999993
100
AcDbText
  0
LINE
  5
1D3
330
17
100
AcDbEntity
  8
F7_TRAMO_AU_GE_50
100
AcDbLine
 10
213.57681134995073
 20
16.27727985009551
 30
85.97229115999994
 11
215.6154546199832
 21
16.353971740230918
 31
84.27016185999992
  0
TEXT
  5
1D4
330
17
100
AcDbEntity
  8
F7_ETIQUETAS
100
AcDbText
 10
214.59613298496697
 20
16.315625795163214
 30
85.12122650999993
 40
0.4
  1
TR-0208 | Au 201.04
 11
214.59613298496697
 21
16.315625795163214
 31
85.12122650999993
100
AcDbText
  0
LINE
  5
1D5
330
17
100
AcDbEntity
  8
F7_TRAMO_AU_GE_50
100
AcDbLine
 10
215.6154546199832
 20
16.353971740230918
 30
84.27016185999992
 11
215.6154546199832
 21
16.353971740230918
 31
85.97229115999994
  0
TEXT
  5
1D6
330
17
100
AcDbEntity
  8
F7_ETIQUETAS
100
AcDbText
 10
215.6154546199832
 20
16.353971740230918
 30
85.12122650999993
 40
0.4
  1
TR-0209 | Au 66.09
 11
215.6154546199832
 21
16.353971740230918
 31
85.12122650999993
100
AcDbText
  0
LINE
  5
1D7
330
17
100
AcDbEntity
  8
F7_TRAMO_AU_15_50
100
AcDbLine
 10
215.6154546199832
 20
16.353971740230918
 30
85.97229115999994
 11
217.53055618994404
 21
16.39336314983666
 31
84.27016185999992
  0
TEXT
  5
1D8
330
17
100
AcDbEntity
  8
F7_ETIQUETAS
100
AcDbText
 10
216.57300540496362
 20
16.37366744503379
 30
85.12122650999993
 40
0.4
  1
TR-0210 | Au 48.12
 11
216.57300540496362
 21
16.37366744503379
 31
85.12122650999993
100
AcDbText
  0
LINE
  5
1D9
330
17
100
AcDbEntity
  8
F7_TRAMO_AU_GE_50
100
AcDbLine
 10
217.53055618994404
 20
16.39336314983666
 30
84.27016185999992
 11
217.53055618994404
 21
16.39336314983666
 31
85.97229115999994
  0
TEXT
  5
1DA
330
17
100
AcDbEntity
  8
F7_ETIQUETAS
100
AcDbText
 10
217.53055618994404
 20
16.39336314983666
 30
85.12122650999993
 40
0.4
  1
TR-0211 | Au 80.79
 11
217.53055618994404
 21
16.39336314983666
 31
85.12122650999993
100
AcDbText
  0
LINE
  5
1DB
330
17
100
AcDbEntity
  8
F7_TRAMO_AU_15_50
100
AcDbLine
 10
217.53055618994404
 20
16.39336314983666
 30
85.97229115999994
 11
219.4243575599976
 21
15.654856899753213
 31
84.27016185999992
  0
TEXT
  5
1DC
330
17
100
AcDbEntity
  8
F7_ETIQUETAS
100
AcDbText
 10
218.4774568749708
 20
16.024110024794936
 30
85.12122650999993
 40
0.4
  1
TR-0212 | Au 30.03
 11
218.4774568749708
 21
16.024110024794936
 31
85.12122650999993
100
AcDbText
  0
LINE
  5
1DD
330
17
100
AcDbEntity
  8
F7_TRAMO_AU_15_50
100
AcDbLine
 10
219.4243575599976
 20
15.654856899753213
 30
84.27016185999992
 11
219.4243575599976
 21
15.654856899753213
 31
85.97229115999994
  0
TEXT
  5
1DE
330
17
100
AcDbEntity
  8
F7_ETIQUETAS
100
AcDbText
 10
219.4243575599976
 20
15.654856899753213
 30
85.12122650999993
 40
0.4
  1
TR-0213 | Au 32.69
 11
219.4243575599976
 21
15.654856899753213
 31
85.12122650999993
100
AcDbText
  0
LINE
  5
1DF
330
17
100
AcDbEntity
  8
F7_TRAMO_AU_15_50
100
AcDbLine
 10
219.4243575599976
 20
15.654856899753213
 30
85.97229115999994
 11
221.49929375993088
 21
15.369591570459306
 31
84.27016185999992
  0
TEXT
  5
1E0
330
17
100
AcDbEntity
  8
F7_ETIQUETAS
100
AcDbText
 10
220.46182565996423
 20
15.51222423510626
 30
85.12122650999993
 40
0.4
  1
TR-0214 | Au 43.19
 11
220.46182565996423
 21
15.51222423510626
 31
85.12122650999993
100
AcDbText
  0
LINE
  5
1E1
330
17
100
AcDbEntity
  8
F7_TRAMO_AU_05_15
100
AcDbLine
 10
221.49929375993088
 20
15.369591570459306
 30
84.27016185999992
 11
221.49929375993088
 21
15.369591570459306
 31
85.97229115999994
  0
TEXT
  5
1E2
330
17
100
AcDbEntity
  8
F7_ETIQUETAS
100
AcDbText
 10
221.49929375993088
 20
15.369591570459306
 30
85.12122650999993
 40
0.4
  1
TR-0215 | Au 10.93
 11
221.49929375993088
 21
15.369591570459306
 31
85.12122650999993
100
AcDbText
  0
LINE
  5
1E3
330
17
100
AcDbEntity
  8
F7_TRAMO_AU_15_50
100
AcDbLine
 10
221.49929375993088
 20
15.369591570459306
 30
85.97229115999994
 11
223.2245855500223
 21
14.85223693959415
 31
84.27016185999992
  0
TEXT
  5
1E4
330
17
100
AcDbEntity
  8
F7_ETIQUETAS
100
AcDbText
 10
222.3619396549766
 20
15.110914255026728
 30
85.12122650999993
 40
0.4
  1
TR-0216 | Au 21.95
 11
222.3619396549766
 21
15.110914255026728
 31
85.12122650999993
100
AcDbText
  0
LINE
  5
1E5
330
17
100
AcDbEntity
  8
F7_TRAMO_AU_GE_50
100
AcDbLine
 10
223.2245855500223
 20
14.85223693959415
 30
84.27016185999992
 11
223.2245855500223
 21
14.85223693959415
 31
85.97229115999994
  0
TEXT
  5
1E6
330
17
100
AcDbEntity
  8
F7_ETIQUETAS
100
AcDbText
 10
223.2245855500223
 20
14.85223693959415
 30
85.12122650999993
 40
0.4
  1
TR-0217 | Au 126.80
 11
223.2245855500223
 21
14.85223693959415
 31
85.12122650999993
100
AcDbText
  0
LINE
  5
1E7
330
17
100
AcDbEntity
  8
F7_TRAMO_AU_GE_50
100
AcDbLine
 10
223.2245855500223
 20
14.85223693959415
 30
85.97229115999994
 11
225.23419376998208
 21
15.13000997994095
 31
84.27016185999992
  0
TEXT
  5
1E8
330
17
100
AcDbEntity
  8
F7_ETIQUETAS
100
AcDbText
 10
224.2293896600022
 20
14.99112345976755
 30
85.12122650999993
 40
0.4
  1
TR-0218 | Au 119.44
 11
224.2293896600022
 21
14.99112345976755
 31
85.12122650999993
100
AcDbText
  0
LINE
  5
1E9
330
17
100
AcDbEntity
  8
F7_TRAMO_AU_15_50
100
AcDbLine
 10
225.23419376998208
 20
15.13000997994095
 30
84.27016185999992
 11
225.23419376998208
 21
15.13000997994095
 31
85.97229115999994
  0
TEXT
  5
1EA
330
17
100
AcDbEntity
  8
F7_ETIQUETAS
100
AcDbText
 10
225.23419376998208
 20
15.13000997994095
 30
85.12122650999993
 40
0.4
  1
TR-0219 | Au 27.78
 11
225.23419376998208
 21
15.13000997994095
 31
85.12122650999993
100
AcDbText
  0
LINE
  5
1EB
330
17
100
AcDbEntity
  8
F7_TRAMO_AU_15_50
100
AcDbLine
 10
225.23419376998208
 20
15.13000997994095
 30
85.97229115999994
 11
227.22626238001976
 21
14.902717269957066
 31
84.27016185999992
  0
TEXT
  5
1EC
330
17
100
AcDbEntity
  8
F7_ETIQUETAS
100
AcDbText
 10
226.23022807500092
 20
15.016363624949008
 30
85.12122650999993
 40
0.4
  1
TR-0220 | Au 21.22
 11
226.23022807500092
 21
15.016363624949008
 31
85.12122650999993
100
AcDbText
  0
LINE
  5
1ED
330
17
100
AcDbEntity
  8
F7_TRAMO_AU_05_15
100
AcDbLine
 10
227.22626238001976
 20
14.902717269957066
 30
84.27016185999992
 11
227.22626238001976
 21
14.902717269957066
 31
85.97229115999994
  0
TEXT
  5
1EE
330
17
100
AcDbEntity
  8
F7_ETIQUETAS
100
AcDbText
 10
227.22626238001976
 20
14.902717269957066
 30
85.12122650999993
 40
0.4
  1
TR-0221 | Au 9.96
 11
227.22626238001976
 21
14.902717269957066
 31
85.12122650999993
100
AcDbText
  0
LINE
  5
1EF
330
17
100
AcDbEntity
  8
F7_TRAMO_AU_15_50
100
AcDbLine
 10
227.22626238001976
 20
14.902717269957066
 30
85.97229115999994
 11
229.6056067799218
 21
14.7414526399225
 31
84.27016185999992
  0
TEXT
  5
1F0
330
17
100
AcDbEntity
  8
F7_ETIQUETAS
100
AcDbText
 10
228.41593457997078
 20
14.822084954939783
 30
85.12122650999993
 40
0.4
  1
TR-0222 | Au 31.95
 11
228.41593457997078
 21
14.822084954939783
 31
85.12122650999993
100
AcDbText
  0
LINE
  5
1F1
330
17
100
AcDbEntity
  8
F7_TRAMO_AU_15_50
100
AcDbLine
 10
229.6056067799218
 20
14.7414526399225
 30
84.27016185999992
 11
229.6056067799218
 21
14.7414526399225
 31
85.97229115999994
  0
TEXT
  5
1F2
330
17
100
AcDbEntity
  8
F7_ETIQUETAS
100
AcDbText
 10
229.6056067799218
 20
14.7414526399225
 30
85.12122650999993
 40
0.4
  1
TR-0223 | Au 40.10
 11
229.6056067799218
 21
14.7414526399225
 31
85.12122650999993
100
AcDbText
  0
LINE
  5
1F3
330
17
100
AcDbEntity
  8
F7_TRAMO_AU_05_15
100
AcDbLine
 10
229.6056067799218
 20
14.7414526399225
 30
85.97229115999994
 11
231.42000615992583
 21
14.65389281976968
 31
84.27016185999992
  0
TEXT
  5
1F4
330
17
100
AcDbEntity
  8
F7_ETIQUETAS
100
AcDbText
 10
230.51280646992382
 20
14.69767272984609
 30
85.12122650999993
 40
0.4
  1
TR-0224 | Au 13.25
 11
230.51280646992382
 21
14.69767272984609
 31
85.12122650999993
100
AcDbText
  0
LINE
  5
1F5
330
17
100
AcDbEntity
  8
F7_TRAMO_AU_15_50
100
AcDbLine
 10
231.42000615992583
 20
14.65389281976968
 30
84.27016185999992
 11
231.42000615992583
 21
14.65389281976968
 31
85.97229115999994
  0
TEXT
  5
1F6
330
17
100
AcDbEntity
  8
F7_ETIQUETAS
100
AcDbText
 10
231.42000615992583
 20
14.65389281976968
 30
85.12122650999993
 40
0.4
  1
TR-0225 | Au 15.06
 11
231.42000615992583
 21
14.65389281976968
 31
85.12122650999993
100
AcDbText
  0
LINE
  5
1F7
330
17
100
AcDbEntity
  8
F7_TRAMO_AU_05_15
100
AcDbLine
 10
231.42000615992583
 20
14.65389281976968
 30
85.97229115999994
 11
233.43386425997596
 21
14.569520279765129
 31
84.27016185999992
  0
TEXT
  5
1F8
330
17
100
AcDbEntity
  8
F7_ETIQUETAS
100
AcDbText
 10
232.4269352099509
 20
14.611706549767405
 30
85.12122650999993
 40
0.4
  1
TR-0226 | Au 9.29
 11
232.4269352099509
 21
14.611706549767405
 31
85.12122650999993
100
AcDbText
  0
LINE
  5
1F9
330
17
100
AcDbEntity
  8
F7_TRAMO_AU_00_01
100
AcDbLine
 10
233.43386425997596
 20
14.569520279765129
 30
84.27016185999992
 11
233.43386425997596
 21
14.569520279765129
 31
85.97229115999994
  0
TEXT
  5
1FA
330
17
100
AcDbEntity
  8
F7_ETIQUETAS
100
AcDbText
 10
233.43386425997596
 20
14.569520279765129
 30
85.12122650999993
 40
0.4
  1
TR-0227 | Au 0.98
 11
233.43386425997596
 21
14.569520279765129
 31
85.12122650999993
100
AcDbText
  0
LINE
  5
1FB
330
17
100
AcDbEntity
  8
F7_TRAMO_AU_01_05
100
AcDbLine
 10
233.43386425997596
 20
14.569520279765129
 30
85.97229115999994
 11
235.3584810399916
 21
14.667303510010242
 31
84.27016185999992
  0
TEXT
  5
1FC
330
17
100
AcDbEntity
  8
F7_ETIQUETAS
100
AcDbText
 10
234.39617264998378
 20
14.618411894887686
 30
85.12122650999993
 40
0.4
  1
TR-0228 | Au 1.15
 11
234.39617264998378
 21
14.618411894887686
 31
85.12122650999993
100
AcDbText
  0
LINE
  5
1FD
330
17
100
AcDbEntity
  8
F7_TRAMO_AU_05_15
100
AcDbLine
 10
235.3584810399916
 20
14.667303510010242
 30
84.27016185999992
 11
235.3584810399916
 21
14.667303510010242
 31
85.97229115999994
  0
TEXT
  5
1FE
330
17
100
AcDbEntity
  8
F7_ETIQUETAS
100
AcDbText
 10
235.3584810399916
 20
14.667303510010242
 30
85.12122650999993
 40
0.4
  1
TR-0229 | Au 11.12
 11
235.3584810399916
 21
14.667303510010242
 31
85.12122650999993
100
AcDbText
  0
LINE
  5
1FF
330
17
100
AcDbEntity
  8
F7_TRAMO_AU_15_50
100
AcDbLine
 10
235.3584810399916
 20
14.667303510010242
 30
85.97229115999994
 11
237.37644372996874
 21
14.816250430420041
 31
84.27016185999992
  0
TEXT
  5
200
330
17
100
AcDbEntity
  8
F7_ETIQUETAS
100
AcDbText
 10
236.36746238498017
 20
14.741776970215142
 30
85.12122650999993
 40
0.4
  1
TR-0230 | Au 16.77
 11
236.36746238498017
 21
14.741776970215142
 31
85.12122650999993
100
AcDbText
  0
LINE
  5
201
330
17
100
AcDbEntity
  8
F7_TRAMO_AU_05_15
100
AcDbLine
 10
237.37644372996874
 20
14.816250430420041
 30
84.27016185999992
 11
237.37644372996874
 21
14.816250430420041
 31
85.97229115999994
  0
TEXT
  5
202
330
17
100
AcDbEntity
  8
F7_ETIQUETAS
100
AcDbText
 10
237.37644372996874
 20
14.816250430420041
 30
85.12122650999993
 40
0.4
  1
TR-0231 | Au 11.51
 11
237.37644372996874
 21
14.816250430420041
 31
85.12122650999993
100
AcDbText
  0
LINE
  5
203
330
17
100
AcDbEntity
  8
F7_TRAMO_AU_01_05
100
AcDbLine
 10
237.37644372996874
 20
14.816250430420041
 30
85.97229115999994
 11
239.41731019993313
 21
14.71877321973443
 31
84.27016185999992
  0
TEXT
  5
204
330
17
100
AcDbEntity
  8
F7_ETIQUETAS
100
AcDbText
 10
238.39687696495093
 20
14.767511825077236
 30
85.12122650999993
 40
0.4
  1
TR-0232 | Au 3.34
 11
238.39687696495093
 21
14.767511825077236
 31
85.12122650999993
100
AcDbText
  0
LINE
  5
205
330
17
100
AcDbEntity
  8
F7_TRAMO_AU_15_50
100
AcDbLine
 10
239.41731019993313
 20
14.71877321973443
 30
84.27016185999992
 11
239.41731019993313
 21
14.71877321973443
 31
85.97229115999994
  0
TEXT
  5
206
330
17
100
AcDbEntity
  8
F7_ETIQUETAS
100
AcDbText
 10
239.41731019993313
 20
14.71877321973443
 30
85.12122650999993
 40
0.4
  1
TR-0233 | Au 17.78
 11
239.41731019993313
 21
14.71877321973443
 31
85.12122650999993
100
AcDbText
  0
LINE
  5
207
330
17
100
AcDbEntity
  8
F7_TRAMO_AU_15_50
100
AcDbLine
 10
239.41731019993313
 20
14.71877321973443
 30
85.97229115999994
 11
241.34046579001006
 21
14.683374130167067
 31
84.27016185999992
  0
TEXT
  5
208
330
17
100
AcDbEntity
  8
F7_ETIQUETAS
100
AcDbText
 10
240.3788879949716
 20
14.701073674950749
 30
85.12122650999993
 40
0.4
  1
TR-0234 | Au 21.80
 11
240.3788879949716
 21
14.701073674950749
 31
85.12122650999993
100
AcDbText
  0
LINE
  5
209
330
17
100
AcDbEntity
  8
F7_TRAMO_AU_05_15
100
AcDbLine
 10
241.34046579001006
 20
14.683374130167067
 30
84.27016185999992
 11
241.34046579001006
 21
14.683374130167067
 31
85.97229115999994
  0
TEXT
  5
20A
330
17
100
AcDbEntity
  8
F7_ETIQUETAS
100
AcDbText
 10
241.34046579001006
 20
14.683374130167067
 30
85.12122650999993
 40
0.4
  1
TR-0235 | Au 9.85
 11
241.34046579001006
 21
14.683374130167067
 31
85.12122650999993
100
AcDbText
  0
LINE
  5
20B
330
17
100
AcDbEntity
  8
F7_TRAMO_AU_05_15
100
AcDbLine
 10
191.3059999999823
 20
18.356999999843538
 30
91.46499999999992
 11
195.2949999999255
 21
18.09499999973923
 31
91.57399999999996
  0
TEXT
  5
20C
330
17
100
AcDbEntity
  8
F7_ETIQUETAS
100
AcDbText
 10
193.3004999999539
 20
18.225999999791384
 30
91.51949999999994
 40
0.4
  1
TR-0236 | Au 7.76
 11
193.3004999999539
 21
18.225999999791384
 31
91.51949999999994
100
AcDbText
  0
LINE
  5
20D
330
17
100
AcDbEntity
  8
F7_TRAMO_AU_00_01
100
AcDbLine
 10
195.2949999999255
 20
18.09499999973923
 30
91.57399999999996
 11
197.28799999994226
 21
17.924999999813735
 31
91.67699999999991
  0
TEXT
  5
20E
330
17
100
AcDbEntity
  8
F7_ETIQUETAS
100
AcDbText
 10
196.29149999993388
 20
18.009999999776483
 30
91.62549999999993
 40
0.4
  1
TR-0237 | Au 0.62
 11
196.29149999993388
 21
18.009999999776483
 31
91.62549999999993
100
AcDbText
  0
LINE
  5
20F
330
17
100
AcDbEntity
  8
F7_TRAMO_AU_01_05
100
AcDbLine
 10
197.28799999994226
 20
17.924999999813735
 30
91.67699999999991
 11
199.2839999999851
 21
17.940999999642372
 31
91.78099999999995
  0
TEXT
  5
210
330
17
100
AcDbEntity
  8
F7_ETIQUETAS
100
AcDbText
 10
198.28599999996368
 20
17.932999999728054
 30
91.72899999999993
 40
0.4
  1
TR-0238 | Au 4.55
 11
198.28599999996368
 21
17.932999999728054
 31
91.72899999999993
100
AcDbText
  0
LINE
  5
211
330
17
100
AcDbEntity
  8
F7_TRAMO_AU_05_15
100
AcDbLine
 10
199.2839999999851
 20
17.940999999642372
 30
91.78099999999995
 11
201.28200000000652
 21
18.03000000026077
 31
91.98699999999997
  0
TEXT
  5
212
330
17
100
AcDbEntity
  8
F7_ETIQUETAS
100
AcDbText
 10
200.2829999999958
 20
17.98549999995157
 30
91.88399999999996
 40
0.4
  1
TR-0239 | Au 5.39
 11
200.2829999999958
 21
17.98549999995157
 31
91.88399999999996
100
AcDbText
  0
LINE
  5
213
330
17
100
AcDbEntity
  8
F7_TRAMO_AU_GE_50
100
AcDbLine
 10
201.28200000000652
 20
18.03000000026077
 30
91.98699999999997
 11
203.28099999995902
 21
18.09499999973923
 31
91.98699999999997
  0
TEXT
  5
214
330
17
100
AcDbEntity
  8
F7_ETIQUETAS
100
AcDbText
 10
202.28149999998277
 20
18.0625
 30
91.98699999999997
 40
0.4
  1
TR-0240 | Au 128.34
 11
202.28149999998277
 21
18.0625
 31
91.98699999999997
100
AcDbText
  0
LINE
  5
215
330
17
100
AcDbEntity
  8
F7_TRAMO_AU_GE_50
100
AcDbLine
 10
203.28099999995902
 20
18.09499999973923
 30
91.98699999999997
 11
205.27599999995437
 21
17.998999999836087
 31
92.09499999999991
  0
TEXT
  5
216
330
17
100
AcDbEntity
  8
F7_ETIQUETAS
100
AcDbText
 10
204.2784999999567
 20
18.04699999978766
 30
92.04099999999994
 40
0.4
  1
TR-0241 | Au 152.62
 11
204.2784999999567
 21
18.04699999978766
 31
92.04099999999994
100
AcDbText
  0
LINE
  5
217
330
17
100
AcDbEntity
  8
F7_TRAMO_AU_15_50
100
AcDbLine
 10
205.27599999995437
 20
17.998999999836087
 30
92.09499999999991
 11
207.27599999995437
 21
17.99199999962002
 31
92.19899999999996
  0
TEXT
  5
218
330
17
100
AcDbEntity
  8
F7_ETIQUETAS
100
AcDbText
 10
206.27599999995437
 20
17.995499999728054
 30
92.14699999999993
 40
0.4
  1
TR-0242 | Au 34.94
 11
206.27599999995437
 21
17.995499999728054
 31
92.14699999999993
100
AcDbText
  0
LINE
  5
219
330
17
100
AcDbEntity
  8
F7_TRAMO_AU_01_05
100
AcDbLine
 10
37.35719633998815
 20
52.29344537016004
 30
60.70540822999999
 11
39.247705599991605
 21
51.641674970276654
 31
60.70540822999999
  0
TEXT
  5
21A
330
17
100
AcDbEntity
  8
F7_ETIQUETAS
100
AcDbText
 10
38.30245096998988
 20
51.96756017021835
 30
60.70540822999999
 40
0.4
  1
TR-0243 | Au 1.85
 11
38.30245096998988
 21
51.96756017021835
 31
60.70540822999999
100
AcDbText
  0
LINE
  5
21B
330
17
100
AcDbEntity
  8
F7_TRAMO_AU_01_05
100
AcDbLine
 10
39.247705599991605
 20
51.641674970276654
 30
60.70540822999999
 11
41.17618682002649
 21
51.13116534985602
 31
60.70540822999999
  0
TEXT
  5
21C
330
17
100
AcDbEntity
  8
F7_ETIQUETAS
100
AcDbText
 10
40.211946210009046
 20
51.386420160066336
 30
60.70540822999999
 40
0.4
  1
TR-0244 | Au 1.12
 11
40.211946210009046
 21
51.386420160066336
 31
60.70540822999999
100
AcDbText
  0
LINE
  5
21D
330
17
100
AcDbEntity
  8
F7_TRAMO_AU_01_05
100
AcDbLine
 10
41.17618682002649
 20
51.13116534985602
 30
60.70540822999999
 11
43.14157532993704
 21
50.77542440965772
 31
60.70540822999999
  0
TEXT
  5
21E
330
17
100
AcDbEntity
  8
F7_ETIQUETAS
100
AcDbText
 10
42.158881074981764
 20
50.95329487975687
 30
60.70540822999999
 40
0.4
  1
TR-0245 | Au 2.85
 11
42.158881074981764
 21
50.95329487975687
 31
60.70540822999999
100
AcDbText
  0
LINE
  5
21F
330
17
100
AcDbEntity
  8
F7_TRAMO_AU_01_05
100
AcDbLine
 10
43.14157532993704
 20
50.77542440965772
 30
60.70540822999999
 11
49.13818064995576
 21
50.582580329850316
 31
60.70540822999999
  0
TEXT
  5
220
330
17
100
AcDbEntity
  8
F7_ETIQUETAS
100
AcDbText
 10
46.1398779899464
 20
50.679002369754016
 30
60.70540822999999
 40
0.4
  1
TR-0246 | Au 3.08
 11
46.1398779899464
 21
50.679002369754016
 31
60.70540822999999
100
AcDbText
  0
LINE
  5
221
330
17
100
AcDbEntity
  8
F7_TRAMO_AU_01_05
100
AcDbLine
 10
49.13818064995576
 20
50.582580329850316
 30
60.70540822999999
 11
51.137108749942854
 21
50.51710931956768
 31
60.70540822999999
  0
TEXT
  5
222
330
17
100
AcDbEntity
  8
F7_ETIQUETAS
100
AcDbText
 10
50.137644699949306
 20
50.549844824709
 30
60.70540822999999
 40
0.4
  1
TR-0247 | Au 1.55
 11
50.137644699949306
 21
50.549844824709
 31
60.70540822999999
100
AcDbText
  0
LINE
  5
223
330
17
100
AcDbEntity
  8
F7_TRAMO_AU_01_05
100
AcDbLine
 10
51.137108749942854
 20
50.51710931956768
 30
60.70540822999999
 11
53.13241915998515
 21
50.42702335957438
 31
60.70540822999999
  0
TEXT
  5
224
330
17
100
AcDbEntity
  8
F7_ETIQUETAS
100
AcDbText
 10
52.134763954964
 20
50.47206633957103
 30
60.70540822999999
 40
0.4
  1
TR-0248 | Au 1.57
 11
52.134763954964
 21
50.47206633957103
 31
60.70540822999999
100
AcDbText
  0
LINE
  5
225
330
17
100
AcDbEntity
  8
F7_TRAMO_AU_01_05
100
AcDbLine
 10
53.13241915998515
 20
50.42702335957438
 30
60.70540822999999
 11
55.01156096998602
 21
49.74231463018805
 31
60.70540822999999
  0
TEXT
  5
226
330
17
100
AcDbEntity
  8
F7_ETIQUETAS
100
AcDbText
 10
54.071990064985584
 20
50.08466899488121
 30
60.70540822999999
 40
0.4
  1
TR-0249 | Au 4.19
 11
54.071990064985584
 21
50.08466899488121
 31
60.70540822999999
100
AcDbText
  0
LINE
  5
227
330
17
100
AcDbEntity
  8
F7_TRAMO_AU_05_15
100
AcDbLine
 10
55.01156096998602
 20
49.74231463018805
 30
60.70540822999999
 11
56.88976145000197
 21
49.054158699698746
 31
60.70540822999999
  0
TEXT
  5
228
330
17
100
AcDbEntity
  8
F7_ETIQUETAS
100
AcDbText
 10
55.950661209993996
 20
49.3982366649434
 30
60.70540822999999
 40
0.4
  1
TR-0250 | Au 6.38
 11
55.950661209993996
 21
49.3982366649434
 31
60.70540822999999
100
AcDbText
  0
LINE
  5
229
330
17
100
AcDbEntity
  8
F7_TRAMO_AU_01_05
100
AcDbLine
 10
56.88976145000197
 20
49.054158699698746
 30
60.70540822999999
 11
58.768903260002844
 21
48.36944997031242
 31
60.70540822999999
  0
TEXT
  5
22A
330
17
100
AcDbEntity
  8
F7_ETIQUETAS
100
AcDbText
 10
57.82933235500241
 20
48.71180433500558
 30
60.70540822999999
 40
0.4
  1
TR-0251 | Au 2.47
 11
57.82933235500241
 21
48.71180433500558
 31
60.70540822999999
100
AcDbText
  0
LINE
  5
22B
330
17
100
AcDbEntity
  8
F7_TRAMO_AU_01_05
100
AcDbLine
 10
61.01136897993274
 20
47.676937909796834
 30
63.82161428999996
 11
62.92117106996011
 21
47.083089450374246
 31
63.82161428999996
  0
TEXT
  5
22C
330
17
100
AcDbEntity
  8
F7_ETIQUETAS
100
AcDbText
 10
61.966270024946425
 20
47.38001368008554
 30
63.82161428999996
 40
0.4
  1
TR-0252 | Au 2.94
 11
61.966270024946425
 21
47.38001368008554
 31
63.82161428999996
100
AcDbText
  0
LINE
  5
22D
330
17
100
AcDbEntity
  8
F7_TRAMO_AU_01_05
100
AcDbLine
 10
62.92117106996011
 20
47.083089450374246
 30
63.82161428999996
 11
64.89328981994186
 21
46.774201639927924
 31
63.82161428999996
  0
TEXT
  5
22E
330
17
100
AcDbEntity
  8
F7_ETIQUETAS
100
AcDbText
 10
63.90723044495098
 20
46.928645545151085
 30
63.82161428999996
 40
0.4
  1
TR-0253 | Au 3.05
 11
63.90723044495098
 21
46.928645545151085
 31
63.82161428999996
100
AcDbText
  0
LINE
  5
22F
330
17
100
AcDbEntity
  8
F7_TRAMO_AU_05_15
100
AcDbLine
 10
64.89328981994186
 20
46.774201639927924
 30
63.82161428999996
 11
66.89810719992965
 21
46.51388810016215
 31
63.82161428999996
  0
TEXT
  5
230
330
17
100
AcDbEntity
  8
F7_ETIQUETAS
100
AcDbText
 10
65.89569850993576
 20
46.644044870045036
 30
63.82161428999996
 40
0.4
  1
TR-0254 | Au 9.72
 11
65.89569850993576
 21
46.644044870045036
 31
63.82161428999996
100
AcDbText
  0
LINE
  5
231
330
17
100
AcDbEntity
  8
F7_TRAMO_AU_15_50
100
AcDbLine
 10
66.89810719992965
 20
46.51388810016215
 30
63.82161428999996
 11
68.85999133996665
 21
46.25914919003844
 31
63.82161428999996
  0
TEXT
  5
232
330
17
100
AcDbEntity
  8
F7_ETIQUETAS
100
AcDbText
 10
67.87904926994815
 20
46.386518645100296
 30
63.82161428999996
 40
0.4
  1
TR-0255 | Au 27.34
 11
67.87904926994815
 21
46.386518645100296
 31
63.82161428999996
100
AcDbText
  0
LINE
  5
233
330
17
100
AcDbEntity
  8
F7_TRAMO_AU_05_15
100
AcDbLine
 10
68.85999133996665
 20
46.25914919003844
 30
63.82161428999996
 11
70.84191709000152
 21
45.99203892983496
 31
63.82161428999996
  0
TEXT
  5
234
330
17
100
AcDbEntity
  8
F7_ETIQUETAS
100
AcDbText
 10
69.85095421498409
 20
46.1255940599367
 30
63.82161428999996
 40
0.4
  1
TR-0256 | Au 7.04
 11
69.85095421498409
 21
46.1255940599367
 31
63.82161428999996
100
AcDbText
  0
LINE
  5
235
330
17
100
AcDbEntity
  8
F7_TRAMO_AU_00_01
100
AcDbLine
 10
70.84191709000152
 20
45.99203892983496
 30
63.82161428999996
 11
74.79467456997372
 21
45.39586803968996
 31
63.82161428999996
  0
TEXT
  5
236
330
17
100
AcDbEntity
  8
F7_ETIQUETAS
100
AcDbText
 10
72.81829582998762
 20
45.69395348476246
 30
63.82161428999996
 40
0.4
  1
TR-0257 | Au 0.22
 11
72.81829582998762
 21
45.69395348476246
 31
63.82161428999996
100
AcDbText
  0
LINE
  5
237
330
17
100
AcDbEntity
  8
F7_TRAMO_AU_00_01
100
AcDbLine
 10
74.79467456997372
 20
45.39586803968996
 30
63.82161428999996
 11
76.78944586997386
 21
45.251343039795756
 31
63.82161428999996
  0
TEXT
  5
238
330
17
100
AcDbEntity
  8
F7_ETIQUETAS
100
AcDbText
 10
75.79206021997379
 20
45.32360553974286
 30
63.82161428999996
 40
0.4
  1
TR-0258 | Au 0.73
 11
75.79206021997379
 21
45.32360553974286
 31
63.82161428999996
100
AcDbText
  0
LINE
  5
239
330
17
100
AcDbEntity
  8
F7_TRAMO_AU_05_15
100
AcDbLine
 10
76.78944586997386
 20
45.251343039795756
 30
63.82161428999996
 11
78.784217169974
 21
45.1068180501461
 31
63.82161428999996
  0
TEXT
  5
23A
330
17
100
AcDbEntity
  8
F7_ETIQUETAS
100
AcDbText
 10
77.78683151997393
 20
45.17908054497093
 30
63.82161428999996
 40
0.4
  1
TR-0259 | Au 9.94
 11
77.78683151997393
 21
45.17908054497093
 31
63.82161428999996
100
AcDbText
  0
LINE
  5
23B
330
17
100
AcDbEntity
  8
F7_TRAMO_AU_01_05
100
AcDbLine
 10
81.28191149001941
 20
44.75128006003797
 30
65.03597692999995
 11
83.24740702996496
 21
44.366842470131814
 31
65.03597692999995
  0
TEXT
  5
23C
330
17
100
AcDbEntity
  8
F7_ETIQUETAS
100
AcDbText
 10
82.26465925999219
 20
44.55906126508489
 30
65.03597692999995
 40
0.4
  1
TR-0260 | Au 3.45
 11
82.26465925999219
 21
44.55906126508489
 31
65.03597692999995
100
AcDbText
  0
LINE
  5
23D
330
17
100
AcDbEntity
  8
F7_TRAMO_AU_15_50
100
AcDbLine
 10
83.24740702996496
 20
44.366842470131814
 30
65.03597692999995
 11
85.12882789992727
 21
43.725288569927216
 31
65.03597692999995
  0
TEXT
  5
23E
330
17
100
AcDbEntity
  8
F7_ETIQUETAS
100
AcDbText
 10
84.18811746494612
 20
44.046065520029515
 30
65.03597692999995
 40
0.4
  1
TR-0261 | Au 15.81
 11
84.18811746494612
 21
44.046065520029515
 31
65.03597692999995
100
AcDbText
  0
LINE
  5
23F
330
17
100
AcDbEntity
  8
F7_TRAMO_AU_15_50
100
AcDbLine
 10
85.12882789992727
 20
43.725288569927216
 30
65.03597692999995
 11
86.95482927002013
 21
42.90937251970172
 31
65.03597692999995
  0
TEXT
  5
240
330
17
100
AcDbEntity
  8
F7_ETIQUETAS
100
AcDbText
 10
86.0418285849737
 20
43.31733054481447
 30
65.03597692999995
 40
0.4
  1
TR-0262 | Au 15.87
 11
86.0418285849737
 21
43.31733054481447
 31
65.03597692999995
100
AcDbText
  0
LINE
  5
241
330
17
100
AcDbEntity
  8
F7_TRAMO_AU_05_15
100
AcDbLine
 10
86.95482927002013
 20
42.90937251970172
 30
65.03597692999995
 11
88.79176685994025
 21
42.1379910800606
 31
65.03597692999995
  0
TEXT
  5
242
330
17
100
AcDbEntity
  8
F7_ETIQUETAS
100
AcDbText
 10
87.87329806498019
 20
42.52368179988116
 30
65.03597692999995
 40
0.4
  1
TR-0263 | Au 8.36
 11
87.87329806498019
 21
42.52368179988116
 31
65.03597692999995
100
AcDbText
  0
LINE
  5
243
330
17
100
AcDbEntity
  8
F7_TRAMO_AU_05_15
100
AcDbLine
 10
88.79176685994025
 20
42.1379910800606
 30
65.03597692999995
 11
90.78799962997437
 21
42.015293249860406
 31
65.03597692999995
  0
TEXT
  5
244
330
17
100
AcDbEntity
  8
F7_ETIQUETAS
100
AcDbText
 10
89.78988324495731
 20
42.076642164960504
 30
65.03597692999995
 40
0.4
  1
TR-0264 | Au 9.30
 11
89.78988324495731
 21
42.076642164960504
 31
65.03597692999995
100
AcDbText
  0
LINE
  5
245
330
17
100
AcDbEntity
  8
F7_TRAMO_AU_05_15
100
AcDbLine
 10
90.78799962997437
 20
42.015293249860406
 30
65.03597692999995
 11
92.78423238999676
 21
41.89259541966021
 31
65.03597692999995
  0
TEXT
  5
246
330
17
100
AcDbEntity
  8
F7_ETIQUETAS
100
AcDbText
 10
91.78611600998556
 20
41.95394433476031
 30
65.03597692999995
 40
0.4
  1
TR-0265 | Au 11.44
 11
91.78611600998556
 21
41.95394433476031
 31
65.03597692999995
100
AcDbText
  0
LINE
  5
247
330
17
100
AcDbEntity
  8
F7_TRAMO_AU_05_15
100
AcDbLine
 10
100.69252551998943
 20
42.07545320969075
 30
65.05458534999991
 11
102.6923033199273
 21
42.105265060439706
 31
65.05458534999991
  0
TEXT
  5
248
330
17
100
AcDbEntity
  8
F7_ETIQUETAS
100
AcDbText
 10
101.69241441995837
 20
42.09035913506523
 30
65.05458534999991
 40
0.4
  1
TR-0266 | Au 14.16
 11
101.69241441995837
 21
42.09035913506523
 31
65.05458534999991
100
AcDbText
  0
LINE
  5
249
330
17
100
AcDbEntity
  8
F7_TRAMO_AU_05_15
100
AcDbLine
 10
102.6923033199273
 20
42.105265060439706
 30
65.05458534999991
 11
104.69234493002295
 21
42.148771749809384
 31
65.05458534999991
  0
TEXT
  5
24A
330
17
100
AcDbEntity
  8
F7_ETIQUETAS
100
AcDbText
 10
103.69232412497513
 20
42.127018405124545
 30
65.05458534999991
 40
0.4
  1
TR-0267 | Au 8.78
 11
103.69232412497513
 21
42.127018405124545
 31
65.05458534999991
100
AcDbText
  0
LINE
  5
24B
330
17
100
AcDbEntity
  8
F7_TRAMO_AU_00_01
100
AcDbLine
 10
104.69234493002295
 20
42.148771749809384
 30
65.05458534999991
 11
106.60046920995228
 21
41.640933570452034
 31
65.05458534999991
  0
TEXT
  5
24C
330
17
100
AcDbEntity
  8
F7_ETIQUETAS
100
AcDbText
 10
105.64640706998762
 20
41.89485266013071
 30
65.05458534999991
 40
0.4
  1
TR-0268 | Au 0.13
 11
105.64640706998762
 21
41.89485266013071
 31
65.05458534999991
100
AcDbText
  0
LINE
  5
24D
330
17
100
AcDbEntity
  8
F7_TRAMO_AU_00_01
100
AcDbLine
 10
139.37099999992643
 20
32.75700000021607
 30
75.81399999999996
 11
141.3619999999646
 21
32.5679999999702
 31
75.81399999999996
  0
TEXT
  5
24E
330
17
100
AcDbEntity
  8
F7_ETIQUETAS
100
AcDbText
 10
140.36649999994552
 20
32.66250000009313
 30
75.81399999999996
 40
0.4
  1
TR-0269 | Au 0.62
 11
140.36649999994552
 21
32.66250000009313
 31
75.81399999999996
100
AcDbText
  0
LINE
  5
24F
330
17
100
AcDbEntity
  8
F7_TRAMO_AU_01_05
100
AcDbLine
 10
141.3619999999646
 20
32.5679999999702
 30
75.81399999999996
 11
143.3389999999199
 21
32.28899999987334
 31
75.81399999999996
  0
TEXT
  5
250
330
17
100
AcDbEntity
  8
F7_ETIQUETAS
100
AcDbText
 10
142.35049999994226
 20
32.42849999992177
 30
75.81399999999996
 40
0.4
  1
TR-0270 | Au 1.61
 11
142.35049999994226
 21
32.42849999992177
 31
75.81399999999996
100
AcDbText
  0
LINE
  5
251
330
17
100
AcDbEntity
  8
F7_TRAMO_AU_01_05
100
AcDbLine
 10
143.3389999999199
 20
32.28899999987334
 30
75.81399999999996
 11
145.28200000000652
 21
31.813000000081956
 31
75.81399999999996
  0
TEXT
  5
252
330
17
100
AcDbEntity
  8
F7_ETIQUETAS
100
AcDbText
 10
144.3104999999632
 20
32.05099999997765
 30
75.81399999999996
 40
0.4
  1
TR-0271 | Au 1.92
 11
144.3104999999632
 21
32.05099999997765
 31
75.81399999999996
100
AcDbText
  0
LINE
  5
253
330
17
100
AcDbEntity
  8
F7_TRAMO_AU_00_01
100
AcDbLine
 10
145.28200000000652
 20
31.813000000081956
 30
75.81399999999996
 11
147.2399999999907
 21
31.412000000476837
 31
75.49599999999998
  0
TEXT
  5
254
330
17
100
AcDbEntity
  8
F7_ETIQUETAS
100
AcDbText
 10
146.2609999999986
 20
31.612500000279397
 30
75.65499999999997
 40
0.4
  1
TR-0272 | Au 0.49
 11
146.2609999999986
 21
31.612500000279397
 31
75.65499999999997
100
AcDbText
  0
LINE
  5
255
330
17
100
AcDbEntity
  8
F7_TRAMO_AU_00_01
100
AcDbLine
 10
147.2399999999907
 20
31.412000000476837
 30
75.49599999999998
 11
149.23600000003353
 21
31.32299999985844
 31
75.49599999999998
  0
TEXT
  5
256
330
17
100
AcDbEntity
  8
F7_ETIQUETAS
100
AcDbText
 10
148.2380000000121
 20
31.367500000167638
 30
75.49599999999998
 40
0.4
  1
TR-0273 | Au 0.51
 11
148.2380000000121
 21
31.367500000167638
 31
75.49599999999998
100
AcDbText
  0
LINE
  5
257
330
17
100
AcDbEntity
  8
F7_TRAMO_AU_00_01
100
AcDbLine
 10
149.23600000003353
 20
31.32299999985844
 30
75.49599999999998
 11
151.22600000002421
 21
31.127000000327826
 31
75.49599999999998
  0
TEXT
  5
258
330
17
100
AcDbEntity
  8
F7_ETIQUETAS
100
AcDbText
 10
150.23100000002887
 20
31.225000000093132
 30
75.49599999999998
 40
0.4
  1
TR-0274 | Au 0.60
 11
150.23100000002887
 21
31.225000000093132
 31
75.49599999999998
100
AcDbText
  0
LINE
  5
259
330
17
100
AcDbEntity
  8
F7_TRAMO_AU_05_15
100
AcDbLine
 10
151.22600000002421
 20
31.127000000327826
 30
75.49599999999998
 11
153.21899999992456
 21
30.973000000230968
 31
75.49599999999998
  0
TEXT
  5
25A
330
17
100
AcDbEntity
  8
F7_ETIQUETAS
100
AcDbText
 10
152.2224999999744
 20
31.050000000279397
 30
75.49599999999998
 40
0.4
  1
TR-0275 | Au 7.53
 11
152.2224999999744
 21
31.050000000279397
 31
75.49599999999998
100
AcDbText
  0
LINE
  5
25B
330
17
100
AcDbEntity
  8
F7_TRAMO_AU_05_15
100
AcDbLine
 10
153.21899999992456
 20
30.973000000230968
 30
75.49599999999998
 11
155.21199999994133
 21
30.817999999970198
 31
75.49599999999998
  0
TEXT
  5
25C
330
17
100
AcDbEntity
  8
F7_ETIQUETAS
100
AcDbText
 10
154.21549999993294
 20
30.895500000100583
 30
75.49599999999998
 40
0.4
  1
TR-0276 | Au 7.51
 11
154.21549999993294
 21
30.895500000100583
 31
75.49599999999998
100
AcDbText
  0
LINE
  5
25D
330
17
100
AcDbEntity
  8
F7_TRAMO_AU_00_01
100
AcDbLine
 10
155.21199999994133
 20
30.817999999970198
 30
75.49599999999998
 11
157.2049999999581
 21
30.65000000037253
 31
76.18999999999994
  0
TEXT
  5
25E
330
17
100
AcDbEntity
  8
F7_ETIQUETAS
100
AcDbText
 10
156.2084999999497
 20
30.734000000171363
 30
75.84299999999996
 40
0.4
  1
TR-0277 | Au 0.91
 11
156.2084999999497
 21
30.734000000171363
 31
75.84299999999996
100
AcDbText
  0
LINE
  5
25F
330
17
100
AcDbEntity
  8
F7_TRAMO_AU_00_01
100
AcDbLine
 10
157.2049999999581
 20
30.65000000037253
 30
76.18999999999994
 11
159.1929999999702
 21
30.44400000013411
 31
76.18999999999994
  0
TEXT
  5
260
330
17
100
AcDbEntity
  8
F7_ETIQUETAS
100
AcDbText
 10
158.19899999996414
 20
30.54700000025332
 30
76.18999999999994
 40
0.4
  1
TR-0278 | Au 0.65
 11
158.19899999996414
 21
30.54700000025332
 31
76.18999999999994
100
AcDbText
  0
LINE
  5
261
330
17
100
AcDbEntity
  8
F7_TRAMO_AU_00_01
100
AcDbLine
 10
159.1929999999702
 20
30.44400000013411
 30
76.18999999999994
 11
161.1699999999255
 21
30.154000000096858
 31
76.18999999999994
  0
TEXT
  5
262
330
17
100
AcDbEntity
  8
F7_ETIQUETAS
100
AcDbText
 10
160.18149999994785
 20
30.299000000115484
 30
76.18999999999994
 40
0.4
  1
TR-0279 | Au 0.20
 11
160.18149999994785
 21
30.299000000115484
 31
76.18999999999994
100
AcDbText
  0
LINE
  5
263
330
17
100
AcDbEntity
  8
F7_TRAMO_AU_01_05
100
AcDbLine
 10
161.1699999999255
 20
30.154000000096858
 30
76.18999999999994
 11
165.14899999997579
 21
29.80599999986589
 31
76.18999999999994
  0
TEXT
  5
264
330
17
100
AcDbEntity
  8
F7_ETIQUETAS
100
AcDbText
 10
163.15949999995064
 20
29.979999999981374
 30
76.18999999999994
 40
0.4
  1
TR-0280 | Au 1.19
 11
163.15949999995064
 21
29.979999999981374
 31
76.18999999999994
100
AcDbText
  0
LINE
  5
265
330
17
100
AcDbEntity
  8
F7_TRAMO_AU_01_05
100
AcDbLine
 10
165.14899999997579
 20
29.80599999986589
 30
76.18999999999994
 11
167.14199999999255
 21
29.683000000193715
 31
76.18999999999994
  0
TEXT
  5
266
330
17
100
AcDbEntity
  8
F7_ETIQUETAS
100
AcDbText
 10
166.14549999998417
 20
29.744500000029802
 30
76.18999999999994
 40
0.4
  1
TR-0281 | Au 1.16
 11
166.14549999998417
 21
29.744500000029802
 31
76.18999999999994
100
AcDbText
  0
LINE
  5
267
330
17
100
AcDbEntity
  8
F7_TRAMO_AU_05_15
100
AcDbLine
 10
167.14199999999255
 20
29.683000000193715
 30
76.18999999999994
 11
169.1350000000093
 21
29.531000000424683
 31
76.18999999999994
  0
TEXT
  5
268
330
17
100
AcDbEntity
  8
F7_ETIQUETAS
100
AcDbText
 10
168.13850000000093
 20
29.6070000003092
 30
76.18999999999994
 40
0.4
  1
TR-0282 | Au 13.62
 11
168.13850000000093
 21
29.6070000003092
 31
76.18999999999994
100
AcDbText
  0
LINE
  5
269
330
17
100
AcDbEntity
  8
F7_TRAMO_AU_15_50
100
AcDbLine
 10
169.1350000000093
 20
29.531000000424683
 30
76.18999999999994
 11
171.12199999997392
 21
29.303000000305474
 31
76.18999999999994
  0
TEXT
  5
26A
330
17
100
AcDbEntity
  8
F7_ETIQUETAS
100
AcDbText
 10
170.12849999999162
 20
29.41700000036508
 30
76.18999999999994
 40
0.4
  1
TR-0283 | Au 35.60
 11
170.12849999999162
 21
29.41700000036508
 31
76.18999999999994
100
AcDbText
  0
LINE
  5
26B
330
17
100
AcDbEntity
  8
F7_TRAMO_AU_15_50
100
AcDbLine
 10
171.12199999997392
 20
29.303000000305474
 30
76.18999999999994
 11
173.11800000001676
 21
29.16899999976158
 31
77.53599999999994
  0
TEXT
  5
26C
330
17
100
AcDbEntity
  8
F7_ETIQUETAS
100
AcDbText
 10
172.11999999999534
 20
29.236000000033528
 30
76.86299999999994
 40
0.4
  1
TR-0284 | Au 43.73
 11
172.11999999999534
 21
29.236000000033528
 31
76.86299999999994
100
AcDbText
  0
LINE
  5
26D
330
17
100
AcDbEntity
  8
F7_TRAMO_AU_15_50
100
AcDbLine
 10
173.11800000001676
 20
29.16899999976158
 30
77.53599999999994
 11
175.11699999996927
 21
29.13800000026822
 31
77.53599999999994
  0
TEXT
  5
26E
330
17
100
AcDbEntity
  8
F7_ETIQUETAS
100
AcDbText
 10
174.11749999999302
 20
29.1535000000149
 30
77.53599999999994
 40
0.4
  1
TR-0285 | Au 17.46
 11
174.11749999999302
 21
29.1535000000149
 31
77.53599999999994
100
AcDbText
  0
LINE
  5
26F
330
17
100
AcDbEntity
  8
F7_TRAMO_AU_15_50
100
AcDbLine
 10
175.11699999996927
 20
29.13800000026822
 30
77.53599999999994
 11
177.09799999999814
 21
29.06400000024587
 31
77.53599999999994
  0
TEXT
  5
270
330
17
100
AcDbEntity
  8
F7_ETIQUETAS
100
AcDbText
 10
176.1074999999837
 20
29.101000000257045
 30
77.53599999999994
 40
0.4
  1
TR-0286 | Au 37.65
 11
176.1074999999837
 21
29.101000000257045
 31
77.53599999999994
100
AcDbText
  0
LINE
  5
271
330
17
100
AcDbEntity
  8
F7_TRAMO_AU_15_50
100
AcDbLine
 10
211.62099999992643
 20
17.976999999955297
 30
92.79499999999996
 11
213.61899999994785
 21
17.940000000409782
 31
93.4079999999999
  0
TEXT
  5
272
330
17
100
AcDbEntity
  8
F7_ETIQUETAS
100
AcDbText
 10
212.61999999993714
 20
17.95850000018254
 30
93.10149999999993
 40
0.4
  1
TR-0287 | Au 49.08
 11
212.61999999993714
 21
17.95850000018254
 31
93.10149999999993
100
AcDbText
  0
LINE
  5
273
330
17
100
AcDbEntity
  8
F7_TRAMO_AU_GE_50
100
AcDbLine
 10
213.61899999994785
 20
17.940000000409782
 30
93.4079999999999
 11
215.60800000000745
 21
17.739000000059605
 31
93.91999999999996
  0
TEXT
  5
274
330
17
100
AcDbEntity
  8
F7_ETIQUETAS
100
AcDbText
 10
214.61349999997765
 20
17.839500000234693
 30
93.66399999999993
 40
0.4
  1
TR-0288 | Au 64.95
 11
214.61349999997765
 21
17.839500000234693
 31
93.66399999999993
100
AcDbText
  0
LINE
  5
275
330
17
100
AcDbEntity
  8
F7_TRAMO_AU_15_50
100
AcDbLine
 10
215.60800000000745
 20
17.739000000059605
 30
93.91999999999996
 11
217.53599999996368
 21
17.218000000342727
 31
94.03899999999999
  0
TEXT
  5
276
330
17
100
AcDbEntity
  8
F7_ETIQUETAS
100
AcDbText
 10
216.57199999998556
 20
17.478500000201166
 30
93.97949999999997
 40
0.4
  1
TR-0289 | Au 26.77
 11
216.57199999998556
 21
17.478500000201166
 31
93.97949999999997
100
AcDbText
  0
LINE
  5
277
330
17
100
AcDbEntity
  8
F7_TRAMO_AU_15_50
100
AcDbLine
 10
217.53599999996368
 20
17.218000000342727
 30
94.03899999999999
 11
219.45100000000093
 21
16.644000000320375
 31
94.14699999999993
  0
TEXT
  5
278
330
17
100
AcDbEntity
  8
F7_ETIQUETAS
100
AcDbText
 10
218.4934999999823
 20
16.93100000033155
 30
94.09299999999996
 40
0.4
  1
TR-0290 | Au 24.91
 11
218.4934999999823
 21
16.93100000033155
 31
94.09299999999996
100
AcDbText
  0
LINE
  5
279
330
17
100
AcDbEntity
  8
F7_TRAMO_AU_05_15
100
AcDbLine
 10
235.2380000000121
 20
14.524000000208616
 30
94.23799999999994
 11
241.21799999999348
 21
14.08600000012666
 31
93.88199999999995
  0
TEXT
  5
27A
330
17
100
AcDbEntity
  8
F7_ETIQUETAS
100
AcDbText
 10
238.2280000000028
 20
14.305000000167638
 30
94.05999999999995
 40
0.4
  1
TR-0291 | Au 9.88
 11
238.2280000000028
 21
14.305000000167638
 31
94.05999999999995
100
AcDbText
  0
LINE
  5
27B
330
17
100
AcDbEntity
  8
F7_TRAMO_AU_01_05
100
AcDbLine
 10
221.3869999999879
 20
16.15500000026077
 30
94.24699999999996
 11
223.35800000000745
 21
15.81400000024587
 31
94.34899999999993
  0
TEXT
  5
27C
330
17
100
AcDbEntity
  8
F7_ETIQUETAS
100
AcDbText
 10
222.37249999999767
 20
15.98450000025332
 30
94.29799999999994
 40
0.4
  1
TR-0292 | Au 3.69
 11
222.37249999999767
 21
15.98450000025332
 31
94.29799999999994
100
AcDbText
  0
LINE
  5
27D
330
17
100
AcDbEntity
  8
F7_TRAMO_AU_01_05
100
AcDbLine
 10
223.35800000000745
 20
15.81400000024587
 30
94.34899999999993
 11
225.33299999998417
 21
15.502000000327826
 31
94.447
  0
TEXT
  5
27E
330
17
100
AcDbEntity
  8
F7_ETIQUETAS
100
AcDbText
 10
224.3454999999958
 20
15.658000000286847
 30
94.39799999999997
 40
0.4
  1
TR-0293 | Au 2.33
 11
224.3454999999958
 21
15.658000000286847
 31
94.39799999999997
100
AcDbText
  0
LINE
  5
27F
330
17
100
AcDbEntity
  8
F7_TRAMO_AU_05_15
100
AcDbLine
 10
225.33299999998417
 20
15.502000000327826
 30
94.447
 11
227.32600000000093
 21
15.378999999724329
 31
94.52599999999995
  0
TEXT
  5
280
330
17
100
AcDbEntity
  8
F7_ETIQUETAS
100
AcDbText
 10
226.32949999999255
 20
15.440500000026077
 30
94.48649999999998
 40
0.4
  1
TR-0294 | Au 6.87
 11
226.32949999999255
 21
15.440500000026077
 31
94.48649999999998
100
AcDbText
  0
LINE
  5
281
330
17
100
AcDbEntity
  8
F7_TRAMO_AU_05_15
100
AcDbLine
 10
227.32600000000093
 20
15.378999999724329
 30
94.52599999999995
 11
229.32099999999627
 21
15.279000000096858
 31
94.44399999999996
  0
TEXT
  5
282
330
17
100
AcDbEntity
  8
F7_ETIQUETAS
100
AcDbText
 10
228.3234999999986
 20
15.328999999910593
 30
94.48499999999996
 40
0.4
  1
TR-0295 | Au 9.26
 11
228.3234999999986
 21
15.328999999910593
 31
94.48499999999996
100
AcDbText
  0
LINE
  5
283
330
17
100
AcDbEntity
  8
F7_TRAMO_AU_01_05
100
AcDbLine
 10
229.32099999999627
 20
15.279000000096858
 30
94.44399999999996
 11
231.27599999995437
 21
14.860000000335276
 31
94.37299999999993
  0
TEXT
  5
284
330
17
100
AcDbEntity
  8
F7_ETIQUETAS
100
AcDbText
 10
230.29849999997532
 20
15.069500000216067
 30
94.40849999999995
 40
0.4
  1
TR-0296 | Au 4.07
 11
230.29849999997532
 21
15.069500000216067
 31
94.40849999999995
100
AcDbText
  0
LINE
  5
285
330
17
100
AcDbEntity
  8
F7_TRAMO_AU_05_15
100
AcDbLine
 10
231.27599999995437
 20
14.860000000335276
 30
94.37299999999993
 11
233.24300000001676
 21
14.50899999961257
 31
94.30499999999995
  0
TEXT
  5
286
330
17
100
AcDbEntity
  8
F7_ETIQUETAS
100
AcDbText
 10
232.25949999998556
 20
14.684499999973923
 30
94.33899999999994
 40
0.4
  1
TR-0297 | Au 9.20
 11
232.25949999998556
 21
14.684499999973923
 31
94.33899999999994
100
AcDbText
  0
LINE
  5
287
330
17
100
AcDbEntity
  8
F7_TRAMO_AU_05_15
100
AcDbLine
 10
233.24300000001676
 20
14.50899999961257
 30
94.30499999999995
 11
237.22399999992922
 21
14.294999999925494
 31
94.29699999999991
  0
TEXT
  5
288
330
17
100
AcDbEntity
  8
F7_ETIQUETAS
100
AcDbText
 10
235.233499999973
 20
14.401999999769032
 30
94.30099999999993
 40
0.4
  1
TR-0298 | Au 14.92
 11
235.233499999973
 21
14.401999999769032
 31
94.30099999999993
100
AcDbText
  0
LINE
  5
289
330
17
100
AcDbEntity
  8
F7_TRAMO_AU_15_50
100
AcDbLine
 10
237.22399999992922
 20
14.294999999925494
 30
94.29699999999991
 11
239.21899999992456
 21
14.156999999657273
 31
94.6289999999999
  0
TEXT
  5
28A
330
17
100
AcDbEntity
  8
F7_ETIQUETAS
100
AcDbText
 10
238.2214999999269
 20
14.225999999791384
 30
94.46299999999991
 40
0.4
  1
TR-0299 | Au 18.53
 11
238.2214999999269
 21
14.225999999791384
 31
94.46299999999991
100
AcDbText
  0
ENDSEC
  0
SECTION
  2
OBJECTS
  0
DICTIONARY
  5
A
330
0
100
AcDbDictionary
281
1
  3
ACAD_COLOR
350
B
  3
ACAD_GROUP
350
C
  3
ACAD_LAYOUT
350
D
  3
ACAD_MATERIAL
350
E
  3
ACAD_MLEADERSTYLE
350
F
  3
ACAD_MLINESTYLE
350
10
  3
ACAD_PLOTSETTINGS
350
11
  3
ACAD_PLOTSTYLENAME
350
12
  3
ACAD_SCALELIST
350
14
  3
ACAD_TABLESTYLE
350
15
  3
ACAD_VISUALSTYLE
350
16
  3
EZDXF_META
350
2D
  0
DICTIONARY
  5
B
330
A
100
AcDbDictionary
281
1
  0
DICTIONARY
  5
C
330
A
100
AcDbDictionary
281
1
  0
DICTIONARY
  5
D
330
A
100
AcDbDictionary
281
1
  3
Model
350
1A
  3
Layout1
350
1E
  0
DICTIONARY
  5
E
330
A
100
AcDbDictionary
281
1
  3
ByBlock
350
1F
  3
ByLayer
350
20
  3
Global
350
21
  0
DICTIONARY
  5
F
330
A
100
AcDbDictionary
281
1
  3
Standard
350
2C
  0
DICTIONARY
  5
10
330
A
100
AcDbDictionary
281
1
  3
Standard
350
22
  0
DICTIONARY
  5
11
330
A
100
AcDbDictionary
281
1
  0
ACDBDICTIONARYWDFLT
  5
12
330
A
100
AcDbDictionary
281
1
  3
Normal
350
13
100
AcDbDictionaryWithDefault
340
13
  0
ACDBPLACEHOLDER
  5
13
330
12
  0
DICTIONARY
  5
14
330
A
100
AcDbDictionary
281
1
  0
DICTIONARY
  5
15
330
A
100
AcDbDictionary
281
1
  0
DICTIONARY
  5
16
330
A
100
AcDbDictionary
281
1
  0
LAYOUT
  5
1A
330
D
100
AcDbPlotSettings
  1

  4
A3
  6

 40
7.5
 41
20.0
 42
7.5
 43
20.0
 44
420.0
 45
297.0
 46
0.0
 47
0.0
 48
0.0
 49
0.0
140
0.0
141
0.0
142
1.0
143
1.0
 70
1024
 72
1
 73
0
 74
5
  7

 75
16
 76
0
 77
2
 78
300
147
1.0
148
0.0
149
0.0
100
AcDbLayout
  1
Model
 70
1
 71
0
 10
0.0
 20
0.0
 11
420.0
 21
297.0
 12
0.0
 22
0.0
 32
0.0
 14
1e+20
 24
1e+20
 34
1e+20
 15
-1e+20
 25
-1e+20
 35
-1e+20
146
0.0
 13
0.0
 23
0.0
 33
0.0
 16
1.0
 26
0.0
 36
0.0
 17
0.0
 27
1.0
 37
0.0
 76
1
330
17
  0
LAYOUT
  5
1E
330
D
100
AcDbPlotSettings
  1

  4
A3
  6

 40
7.5
 41
20.0
 42
7.5
 43
20.0
 44
420.0
 45
297.0
 46
0.0
 47
0.0
 48
0.0
 49
0.0
140
0.0
141
0.0
142
1.0
143
1.0
 70
0
 72
1
 73
0
 74
5
  7

 75
16
 76
0
 77
2
 78
300
147
1.0
148
0.0
149
0.0
100
AcDbLayout
  1
Layout1
 70
1
 71
1
 10
0.0
 20
0.0
 11
420.0
 21
297.0
 12
0.0
 22
0.0
 32
0.0
 14
1e+20
 24
1e+20
 34
1e+20
 15
-1e+20
 25
-1e+20
 35
-1e+20
146
0.0
 13
0.0
 23
0.0
 33
0.0
 16
1.0
 26
0.0
 36
0.0
 17
0.0
 27
1.0
 37
0.0
 76
1
330
1B
  0
MATERIAL
  5
1F
102
{ACAD_REACTORS
330
E
102
}
330
E
100
AcDbMaterial
  1
ByBlock
  2

 70
0
 40
1.0
 71
1
 41
1.0
 91
-1023410177
 42
1.0
 72
1
  3

 73
1
 74
1
 75
1
 44
0.5
 73
0
 45
1.0
 46
1.0
 77
1
  4

 78
1
 79
1
170
1
 48
1.0
171
1
  6

172
1
173
1
174
1
140
1.0
141
1.0
175
1
  7

176
1
177
1
178
1
143
1.0
179
1
  8

270
1
271
1
272
1
145
1.0
146
1.0
273
1
  9

274
1
275
1
276
1
 42
1.0
 72
1
  3

 73
1
 74
1
 75
1
 94
63
  0
MATERIAL
  5
20
102
{ACAD_REACTORS
330
E
102
}
330
E
100
AcDbMaterial
  1
ByLayer
  2

 70
0
 40
1.0
 71
1
 41
1.0
 91
-1023410177
 42
1.0
 72
1
  3

 73
1
 74
1
 75
1
 44
0.5
 73
0
 45
1.0
 46
1.0
 77
1
  4

 78
1
 79
1
170
1
 48
1.0
171
1
  6

172
1
173
1
174
1
140
1.0
141
1.0
175
1
  7

176
1
177
1
178
1
143
1.0
179
1
  8

270
1
271
1
272
1
145
1.0
146
1.0
273
1
  9

274
1
275
1
276
1
 42
1.0
 72
1
  3

 73
1
 74
1
 75
1
 94
63
  0
MATERIAL
  5
21
102
{ACAD_REACTORS
330
E
102
}
330
E
100
AcDbMaterial
  1
Global
  2

 70
0
 40
1.0
 71
1
 41
1.0
 91
-1023410177
 42
1.0
 72
1
  3

 73
1
 74
1
 75
1
 44
0.5
 73
0
 45
1.0
 46
1.0
 77
1
  4

 78
1
 79
1
170
1
 48
1.0
171
1
  6

172
1
173
1
174
1
140
1.0
141
1.0
175
1
  7

176
1
177
1
178
1
143
1.0
179
1
  8

270
1
271
1
272
1
145
1.0
146
1.0
273
1
  9

274
1
275
1
276
1
 42
1.0
 72
1
  3

 73
1
 74
1
 75
1
 94
63
  0
MLINESTYLE
  5
22
102
{ACAD_REACTORS
330
10
102
}
330
10
100
AcDbMlineStyle
  2
Standard
 70
0
  3

 62
256
 51
90.0
 52
90.0
 71
2
 49
0.5
 62
256
  6
BYLAYER
 49
-0.5
 62
256
  6
BYLAYER
  0
MLEADERSTYLE
  5
2C
102
{ACAD_REACTORS
330
F
102
}
330
F
100
AcDbMLeaderStyle
179
2
170
2
171
1
172
0
 90
2
 40
0.0
 41
0.0
173
1
 91
-1056964608
 92
-2
290
1
 42
2.0
291
1
 43
8.0
  3
Standard
 44
4.0
300

342
29
174
1
175
1
176
0
178
1
 93
-1056964608
 45
4.0
292
0
297
0
 46
4.0
 94
-1056964608
 47
1.0
 49
1.0
140
1.0
294
1
141
0.0
177
0
142
1.0
295
0
296
0
143
3.75
271
0
272
9
273
9
  0
DICTIONARY
  5
2D
330
A
100
AcDbDictionary
280
1
281
1
  3
CREATED_BY_EZDXF
350
2E
  3
WRITTEN_BY_EZDXF
350
28D
  0
DICTIONARYVAR
  5
2E
330
2D
100
DictionaryVariables
280
0
  1
1.4.4 @ 2026-09-15T04:33:24.556244+00:00
  0
DICTIONARYVAR
  5
28D
330
2D
100
DictionaryVariables
280
0
  1
1.4.4 @ 2026-09-15T04:33:24.576718+00:00
  0
ENDSEC
  0
EOF
