  0
SECTION
  2
HEADER
  9
$ACADVER
  1
AC1024
  9
$ACADMAINTVER
 70
6
  9
$DWGCODEPAGE
  3
ANSI_1252
  9
$LASTSAVEDBY
  1
ezdxf
  9
$INSBASE
 10
0.0
 20
0.0
 30
0.0
  9
$EXTMIN
 10
1e+20
 20
1e+20
 30
1e+20
  9
$EXTMAX
 10
-1e+20
 20
-1e+20
 30
-1e+20
  9
$LIMMIN
 10
0.0
 20
0.0
  9
$LIMMAX
 10
420.0
 20
297.0
  9
$ORTHOMODE
 70
0
  9
$REGENMODE
 70
1
  9
$FILLMODE
 70
1
  9
$QTEXTMODE
 70
0
  9
$MIRRTEXT
 70
1
  9
$LTSCALE
 40
1.0
  9
$ATTMODE
 70
1
  9
$TEXTSIZE
 40
2.5
  9
$TRACEWID
 40
1.0
  9
$TEXTSTYLE
  7
Standard
  9
$CLAYER
  8
0
  9
$CELTYPE
  6
ByLayer
  9
$CECOLOR
 62
256
  9
$CELTSCALE
 40
1.0
  9
$DISPSILH
 70
0
  9
$DIMSCALE
 40
1.0
  9
$DIMASZ
 40
2.5
  9
$DIMEXO
 40
0.625
  9
$DIMDLI
 40
3.75
  9
$DIMRND
 40
0.0
  9
$DIMDLE
 40
0.0
  9
$DIMEXE
 40
1.25
  9
$DIMTP
 40
0.0
  9
$DIMTM
 40
0.0
  9
$DIMTXT
 40
2.5
  9
$DIMCEN
 40
2.5
  9
$DIMTSZ
 40
0.0
  9
$DIMTOL
 70
0
  9
$DIMLIM
 70
0
  9
$DIMTIH
 70
0
  9
$DIMTOH
 70
0
  9
$DIMSE1
 70
0
  9
$DIMSE2
 70
0
  9
$DIMTAD
 70
1
  9
$DIMZIN
 70
8
  9
$DIMBLK
  1

  9
$DIMASO
 70
1
  9
$DIMSHO
 70
1
  9
$DIMPOST
  1

  9
$DIMAPOST
  1

  9
$DIMALT
 70
0
  9
$DIMALTD
 70
3
  9
$DIMALTF
 40
0.03937007874
  9
$DIMLFAC
 40
1.0
  9
$DIMTOFL
 70
1
  9
$DIMTVP
 40
0.0
  9
$DIMTIX
 70
0
  9
$DIMSOXD
 70
0
  9
$DIMSAH
 70
0
  9
$DIMBLK1
  1

  9
$DIMBLK2
  1

  9
$DIMSTYLE
  2
ISO-25
  9
$DIMCLRD
 70
0
  9
$DIMCLRE
 70
0
  9
$DIMCLRT
 70
0
  9
$DIMTFAC
 40
1.0
  9
$DIMGAP
 40
0.625
  9
$DIMJUST
 70
0
  9
$DIMSD1
 70
0
  9
$DIMSD2
 70
0
  9
$DIMTOLJ
 70
0
  9
$DIMTZIN
 70
8
  9
$DIMALTZ
 70
0
  9
$DIMALTTZ
 70
0
  9
$DIMUPT
 70
0
  9
$DIMDEC
 70
2
  9
$DIMTDEC
 70
2
  9
$DIMALTU
 70
2
  9
$DIMALTTD
 70
3
  9
$DIMTXSTY
  7
Standard
  9
$DIMAUNIT
 70
0
  9
$DIMADEC
 70
0
  9
$DIMALTRND
 40
0.0
  9
$DIMAZIN
 70
0
  9
$DIMDSEP
 70
44
  9
$DIMATFIT
 70
3
  9
$DIMFRAC
 70
0
  9
$DIMLDRBLK
  1

  9
$DIMLUNIT
 70
2
  9
$DIMLWD
 70
-2
  9
$DIMLWE
 70
-2
  9
$DIMTMOVE
 70
0
  9
$DIMFXL
 40
1.0
  9
$DIMFXLON
 70
0
  9
$DIMJOGANG
 40
0.785398163397
  9
$DIMTFILL
 70
0
  9
$DIMTFILLCLR
 70
0
  9
$DIMARCSYM
 70
0
  9
$DIMLTYPE
  6

  9
$DIMLTEX1
  6

  9
$DIMLTEX2
  6

  9
$DIMTXTDIRECTION
 70
0
  9
$LUNITS
 70
2
  9
$LUPREC
 70
4
  9
$SKETCHINC
 40
1.0
  9
$FILLETRAD
 40
10.0
  9
$AUNITS
 70
0
  9
$AUPREC
 70
2
  9
$MENU
  1
.
  9
$ELEVATION
 40
0.0
  9
$PELEVATION
 40
0.0
  9
$THICKNESS
 40
0.0
  9
$LIMCHECK
 70
0
  9
$CHAMFERA
 40
0.0
  9
$CHAMFERB
 40
0.0
  9
$CHAMFERC
 40
0.0
  9
$CHAMFERD
 40
0.0
  9
$SKPOLY
 70
0
  9
$TDCREATE
 40
2461299.5168055557
  9
$TDUCREATE
 40
2458532.153996898
  9
$TDUPDATE
 40
2461299.5168055557
  9
$TDUUPDATE
 40
2458532.1544311
  9
$TDINDWG
 40
0.0
  9
$TDUSRTIMER
 40
0.0
  9
$USRTIMER
 70
1
  9
$ANGBASE
 50
0.0
  9
$ANGDIR
 70
0
  9
$PDMODE
 70
0
  9
$PDSIZE
 40
0.0
  9
$PLINEWID
 40
0.0
  9
$SPLFRAME
 70
0
  9
$SPLINETYPE
 70
6
  9
$SPLINESEGS
 70
8
  9
$HANDSEED
  5
435
  9
$SURFTAB1
 70
6
  9
$SURFTAB2
 70
6
  9
$SURFTYPE
 70
6
  9
$SURFU
 70
6
  9
$SURFV
 70
6
  9
$UCSBASE
  2

  9
$UCSNAME
  2

  9
$UCSORG
 10
0.0
 20
0.0
 30
0.0
  9
$UCSXDIR
 10
1.0
 20
0.0
 30
0.0
  9
$UCSYDIR
 10
0.0
 20
1.0
 30
0.0
  9
$UCSORTHOREF
  2

  9
$UCSORTHOVIEW
 70
0
  9
$UCSORGTOP
 10
0.0
 20
0.0
 30
0.0
  9
$UCSORGBOTTOM
 10
0.0
 20
0.0
 30
0.0
  9
$UCSORGLEFT
 10
0.0
 20
0.0
 30
0.0
  9
$UCSORGRIGHT
 10
0.0
 20
0.0
 30
0.0
  9
$UCSORGFRONT
 10
0.0
 20
0.0
 30
0.0
  9
$UCSORGBACK
 10
0.0
 20
0.0
 30
0.0
  9
$PUCSBASE
  2

  9
$PUCSNAME
  2

  9
$PUCSORG
 10
0.0
 20
0.0
 30
0.0
  9
$PUCSXDIR
 10
1.0
 20
0.0
 30
0.0
  9
$PUCSYDIR
 10
0.0
 20
1.0
 30
0.0
  9
$PUCSORTHOREF
  2

  9
$PUCSORTHOVIEW
 70
0
  9
$PUCSORGTOP
 10
0.0
 20
0.0
 30
0.0
  9
$PUCSORGBOTTOM
 10
0.0
 20
0.0
 30
0.0
  9
$PUCSORGLEFT
 10
0.0
 20
0.0
 30
0.0
  9
$PUCSORGRIGHT
 10
0.0
 20
0.0
 30
0.0
  9
$PUCSORGFRONT
 10
0.0
 20
0.0
 30
0.0
  9
$PUCSORGBACK
 10
0.0
 20
0.0
 30
0.0
  9
$USERI1
 70
0
  9
$USERI2
 70
0
  9
$USERI3
 70
0
  9
$USERI4
 70
0
  9
$USERI5
 70
0
  9
$USERR1
 40
0.0
  9
$USERR2
 40
0.0
  9
$USERR3
 40
0.0
  9
$USERR4
 40
0.0
  9
$USERR5
 40
0.0
  9
$WORLDVIEW
 70
1
  9
$SHADEDGE
 70
3
  9
$SHADEDIF
 70
70
  9
$TILEMODE
 70
1
  9
$MAXACTVP
 70
64
  9
$PINSBASE
 10
0.0
 20
0.0
 30
0.0
  9
$PLIMCHECK
 70
0
  9
$PEXTMIN
 10
1e+20
 20
1e+20
 30
1e+20
  9
$PEXTMAX
 10
-1e+20
 20
-1e+20
 30
-1e+20
  9
$PLIMMIN
 10
0.0
 20
0.0
  9
$PLIMMAX
 10
420.0
 20
297.0
  9
$UNITMODE
 70
0
  9
$VISRETAIN
 70
1
  9
$PLINEGEN
 70
0
  9
$PSLTSCALE
 70
1
  9
$TREEDEPTH
 70
3020
  9
$CMLSTYLE
  2
Standard
  9
$CMLJUST
 70
0
  9
$CMLSCALE
 40
20.0
  9
$PROXYGRAPHICS
 70
1
  9
$MEASUREMENT
 70
1
  9
$CELWEIGHT
370
-1
  9
$ENDCAPS
280
0
  9
$JOINSTYLE
280
0
  9
$LWDISPLAY
290
0
  9
$INSUNITS
 70
6
  9
$HYPERLINKBASE
  1

  9
$STYLESHEET
  1

  9
$XEDIT
290
1
  9
$CEPSNTYPE
380
0
  9
$PSTYLEMODE
290
1
  9
$FINGERPRINTGUID
  2
{3B8E7F2A-E173-4D8F-A1B7-5BD329F87BD4}
  9
$VERSIONGUID
  2
{C0142002-680F-4002-ADB2-2B49165E4E7E}
  9
$EXTNAMES
290
1
  9
$PSVPSCALE
 40
0.0
  9
$OLESTARTUP
290
0
  9
$SORTENTS
280
127
  9
$INDEXCTL
280
0
  9
$HIDETEXT
280
1
  9
$XCLIPFRAME
280
1
  9
$HALOGAP
280
0
  9
$OBSCOLOR
 70
257
  9
$OBSLTYPE
280
0
  9
$INTERSECTIONDISPLAY
280
0
  9
$INTERSECTIONCOLOR
 70
257
  9
$DIMASSOC
280
2
  9
$PROJECTNAME
  1

  9
$CAMERADISPLAY
290
0
  9
$LENSLENGTH
 40
50.0
  9
$CAMERAHEIGHT
 40
0.0
  9
$STEPSPERSEC
 40
24.0
  9
$STEPSIZE
 40
100.0
  9
$3DDWFPREC
 40
2.0
  9
$PSOLWIDTH
 40
0.005
  9
$PSOLHEIGHT
 40
0.08
  9
$LOFTANG1
 40
1.570796326795
  9
$LOFTANG2
 40
1.570796326795
  9
$LOFTMAG1
 40
0.0
  9
$LOFTMAG2
 40
0.0
  9
$LOFTPARAM
 70
7
  9
$LOFTNORMALS
280
1
  9
$LATITUDE
 40
37.795
  9
$LONGITUDE
 40
-122.394
  9
$NORTHDIRECTION
 40
0.0
  9
$TIMEZONE
 70
-8000
  9
$LIGHTGLYPHDISPLAY
280
1
  9
$TILEMODELIGHTSYNCH
280
1
  9
$CMATERIAL
347
20
  9
$SOLIDHIST
280
0
  9
$SHOWHIST
280
1
  9
$DWFFRAME
280
2
  9
$DGNFRAME
280
2
  9
$REALWORLDSCALE
290
1
  9
$INTERFERECOLOR
 62
256
  9
$CSHADOW
280
0
  9
$SHADOWPLANELOCATION
 40
0.0
  0
ENDSEC
  0
SECTION
  2
CLASSES
  0
CLASS
  1
ACDBDICTIONARYWDFLT
  2
AcDbDictionaryWithDefault
  3
ObjectDBX Classes
 90
0
 91
0
280
0
281
0
  0
CLASS
  1
SUN
  2
AcDbSun
  3
SCENEOE
 90
1153
 91
0
280
0
281
0
  0
CLASS
  1
VISUALSTYLE
  2
AcDbVisualStyle
  3
ObjectDBX Classes
 90
4095
 91
0
280
0
281
0
  0
CLASS
  1
MATERIAL
  2
AcDbMaterial
  3
ObjectDBX Classes
 90
1153
 91
0
280
0
281
0
  0
CLASS
  1
SCALE
  2
AcDbScale
  3
ObjectDBX Classes
 90
1153
 91
0
280
0
281
0
  0
CLASS
  1
TABLESTYLE
  2
AcDbTableStyle
  3
ObjectDBX Classes
 90
4095
 91
0
280
0
281
0
  0
CLASS
  1
MLEADERSTYLE
  2
AcDbMLeaderStyle
  3
ACDB_MLEADERSTYLE_CLASS
 90
4095
 91
0
280
0
281
0
  0
CLASS
  1
DICTIONARYVAR
  2
AcDbDictionaryVar
  3
ObjectDBX Classes
 90
0
 91
0
280
0
281
0
  0
CLASS
  1
CELLSTYLEMAP
  2
AcDbCellStyleMap
  3
ObjectDBX Classes
 90
1152
 91
0
280
0
281
0
  0
CLASS
  1
MENTALRAYRENDERSETTINGS
  2
AcDbMentalRayRenderSettings
  3
SCENEOE
 90
1024
 91
0
280
0
281
0
  0
CLASS
  1
ACDBDETAILVIEWSTYLE
  2
AcDbDetailViewStyle
  3
ObjectDBX Classes
 90
1025
 91
0
280
0
281
0
  0
CLASS
  1
ACDBSECTIONVIEWSTYLE
  2
AcDbSectionViewStyle
  3
ObjectDBX Classes
 90
1025
 91
0
280
0
281
0
  0
CLASS
  1
RASTERVARIABLES
  2
AcDbRasterVariables
  3
ISM
 90
0
 91
0
280
0
281
0
  0
CLASS
  1
ACDBPLACEHOLDER
  2
AcDbPlaceHolder
  3
ObjectDBX Classes
 90
0
 91
0
280
0
281
0
  0
CLASS
  1
LAYOUT
  2
AcDbLayout
  3
ObjectDBX Classes
 90
0
 91
0
280
0
281
0
  0
ENDSEC
  0
SECTION
  2
TABLES
  0
TABLE
  2
VPORT
  5
8
330
0
100
AcDbSymbolTable
 70
1
  0
VPORT
  5
23
330
8
100
AcDbSymbolTableRecord
100
AcDbViewportTableRecord
  2
*Active
 70
0
 10
0.0
 20
0.0
 11
1.0
 21
1.0
 12
0.0
 22
0.0
 13
0.0
 23
0.0
 14
0.5
 24
0.5
 15
0.5
 25
0.5
 16
0.0
 26
0.0
 36
1.0
 17
0.0
 27
0.0
 37
0.0
 40
1000.0
 41
1.34
 42
50.0
 43
0.0
 44
0.0
 50
0.0
 51
0.0
 71
0
 72
1000
 73
1
 74
3
 75
0
 76
0
 77
0
 78
0
281
0
 65
0
146
0.0
  0
ENDTAB
  0
TABLE
  2
LTYPE
  5
2
330
0
100
AcDbSymbolTable
 70
3
  0
LTYPE
  5
24
330
2
100
AcDbSymbolTableRecord
100
AcDbLinetypeTableRecord
  2
ByBlock
 70
0
  3

 72
65
 73
0
 40
0.0
  0
LTYPE
  5
25
330
2
100
AcDbSymbolTableRecord
100
AcDbLinetypeTableRecord
  2
ByLayer
 70
0
  3

 72
65
 73
0
 40
0.0
  0
LTYPE
  5
26
330
2
100
AcDbSymbolTableRecord
100
AcDbLinetypeTableRecord
  2
Continuous
 70
0
  3

 72
65
 73
0
 40
0.0
  0
ENDTAB
  0
TABLE
  2
LAYER
  5
1
330
0
100
AcDbSymbolTable
 70
11
  0
LAYER
  5
27
330
1
100
AcDbSymbolTableRecord
100
AcDbLayerTableRecord
  2
0
 70
0
 62
7
  6
Continuous
370
-3
390
13
347
21
  0
LAYER
  5
28
330
1
100
AcDbSymbolTableRecord
100
AcDbLayerTableRecord
  2
Defpoints
 70
0
 62
7
  6
Continuous
290
0
370
-3
390
13
347
21
  0
LAYER
  5
2F
330
1
100
AcDbSymbolTableRecord
100
AcDbLayerTableRecord
  2
F4_AU_00_01
 70
0
 62
3
  6
Continuous
370
-3
390
13
347
21
  0
LAYER
  5
30
330
1
100
AcDbSymbolTableRecord
100
AcDbLayerTableRecord
  2
F4_AU_01_05
 70
0
 62
4
  6
Continuous
370
-3
390
13
347
21
  0
LAYER
  5
31
330
1
100
AcDbSymbolTableRecord
100
AcDbLayerTableRecord
  2
F4_AU_05_15
 70
0
 62
2
  6
Continuous
370
-3
390
13
347
21
  0
LAYER
  5
32
330
1
100
AcDbSymbolTableRecord
100
AcDbLayerTableRecord
  2
F4_AU_15_50
 70
0
 62
30
  6
Continuous
370
-3
390
13
347
21
  0
LAYER
  5
33
330
1
100
AcDbSymbolTableRecord
100
AcDbLayerTableRecord
  2
F4_AU_GE_50
 70
0
 62
1
  6
Continuous
370
-3
390
13
347
21
  0
LAYER
  5
34
330
1
100
AcDbSymbolTableRecord
100
AcDbLayerTableRecord
  2
F4_QA_DUP_XYZ
 70
0
 62
1
  6
Continuous
370
-3
390
13
347
21
  0
LAYER
  5
35
330
1
100
AcDbSymbolTableRecord
100
AcDbLayerTableRecord
  2
F4_QA_ALEJADO
 70
0
 62
6
  6
Continuous
370
-3
390
13
347
21
  0
LAYER
  5
36
330
1
100
AcDbSymbolTableRecord
100
AcDbLayerTableRecord
  2
F4_EJE_LOCAL
 70
0
 62
7
  6
Continuous
370
-3
390
13
347
21
  0
LAYER
  5
37
330
1
100
AcDbSymbolTableRecord
100
AcDbLayerTableRecord
  2
F4_ETIQUETAS
 70
0
 62
-8
  6
Continuous
370
-3
390
13
347
21
  0
ENDTAB
  0
TABLE
  2
STYLE
  5
5
330
0
100
AcDbSymbolTable
 70
1
  0
STYLE
  5
29
330
5
100
AcDbSymbolTableRecord
100
AcDbTextStyleTableRecord
  2
Standard
 70
0
 40
0.0
 41
1.0
 50
0.0
 71
0
 42
2.5
  3
txt
  4

  0
ENDTAB
  0
TABLE
  2
VIEW
  5
7
330
0
100
AcDbSymbolTable
 70
0
  0
ENDTAB
  0
TABLE
  2
UCS
  5
6
330
0
100
AcDbSymbolTable
 70
0
  0
ENDTAB
  0
TABLE
  2
APPID
  5
3
330
0
100
AcDbSymbolTable
 70
3
  0
APPID
  5
2A
330
3
100
AcDbSymbolTableRecord
100
AcDbRegAppTableRecord
  2
ACAD
 70
0
  0
APPID
  5
432
330
3
100
AcDbSymbolTableRecord
100
AcDbRegAppTableRecord
  2
HATCHBACKGROUNDCOLOR
 70
0
  0
APPID
  5
433
330
3
100
AcDbSymbolTableRecord
100
AcDbRegAppTableRecord
  2
EZDXF
 70
0
  0
ENDTAB
  0
TABLE
  2
DIMSTYLE
  5
4
330
0
100
AcDbSymbolTable
 70
1
100
AcDbDimStyleTable
  0
DIMSTYLE
105
2B
330
4
100
AcDbSymbolTableRecord
100
AcDbDimStyleTableRecord
  2
Standard
 70
0
 40
1.0
 41
2.5
 42
0.625
 43
3.75
 44
1.25
 45
0.0
 46
0.0
 47
0.0
 48
0.0
 49
2.5
140
2.5
141
2.5
142
0.0
143
0.03937007874
144
1.0
145
0.0
146
1.0
147
0.625
148
0.0
 69
0
 70
0
 71
0
 72
0
 73
0
 74
0
 75
0
 76
0
 77
1
 78
8
 79
3
170
0
171
3
172
1
173
0
174
0
175
0
176
0
177
0
178
0
179
2
271
2
272
2
273
2
274
3
275
0
276
0
277
2
278
44
279
0
280
0
281
0
282
0
283
0
284
8
285
0
286
0
288
0
289
3
290
0
371
-2
372
-2
  0
ENDTAB
  0
TABLE
  2
BLOCK_RECORD
  5
9
330
0
100
AcDbSymbolTable
 70
2
  0
BLOCK_RECORD
  5
17
330
9
100
AcDbSymbolTableRecord
100
AcDbBlockTableRecord
  2
*Model_Space
340
1A
 70
0
280
1
281
0
  0
BLOCK_RECORD
  5
1B
330
9
100
AcDbSymbolTableRecord
100
AcDbBlockTableRecord
  2
*Paper_Space
340
1E
 70
0
280
1
281
0
  0
ENDTAB
  0
ENDSEC
  0
SECTION
  2
BLOCKS
  0
BLOCK
  5
18
330
17
100
AcDbEntity
  8
0
100
AcDbBlockBegin
  2
*Model_Space
 70
0
 10
0.0
 20
0.0
 30
0.0
  3
*Model_Space
  1

  0
ENDBLK
  5
19
330
17
100
AcDbEntity
  8
0
100
AcDbBlockEnd
  0
BLOCK
  5
1C
330
1B
100
AcDbEntity
  8
0
100
AcDbBlockBegin
  2
*Paper_Space
 70
0
 10
0.0
 20
0.0
 30
0.0
  3
*Paper_Space
  1

  0
ENDBLK
  5
1D
330
1B
100
AcDbEntity
  8
0
100
AcDbBlockEnd
  0
ENDSEC
  0
SECTION
  2
ENTITIES
  0
POINT
  5
38
330
17
100
AcDbEntity
  8
F4_AU_05_15
100
AcDbPoint
 10
177.6927999999607
 20
30.10840000025928
 30
51.79699999999991
  0
CIRCLE
  5
39
330
17
100
AcDbEntity
  8
F4_AU_05_15
100
AcDbCircle
 10
177.6927999999607
 20
30.10840000025928
 30
51.79699999999991
 40
0.32
  0
TEXT
  5
3A
330
17
100
AcDbEntity
  8
F4_ETIQUETAS
100
AcDbText
 10
178.1427999999607
 20
30.55840000025928
 30
51.79699999999991
 40
0.45
  1
M-0001 | Au 8.20 | Pot 0.18
 11
178.1427999999607
 21
30.55840000025928
 31
51.79699999999991
100
AcDbText
  0
POINT
  5
3B
330
17
100
AcDbEntity
  8
F4_AU_05_15
100
AcDbPoint
 10
175.936299999943
 20
30.802500000223517
 30
51.79699999999991
  0
CIRCLE
  5
3C
330
17
100
AcDbEntity
  8
F4_AU_05_15
100
AcDbCircle
 10
175.936299999943
 20
30.802500000223517
 30
51.79699999999991
 40
0.32
  0
TEXT
  5
3D
330
17
100
AcDbEntity
  8
F4_ETIQUETAS
100
AcDbText
 10
176.386299999943
 20
31.252500000223517
 30
51.79699999999991
 40
0.45
  1
M-0002 | Au 14.18 | Pot 0.05
 11
176.386299999943
 21
31.252500000223517
 31
51.79699999999991
100
AcDbText
  0
POINT
  5
3E
330
17
100
AcDbEntity
  8
F4_AU_15_50
100
AcDbPoint
 10
174.0677999999607
 20
30.992999999783933
 30
51.79699999999991
  0
CIRCLE
  5
3F
330
17
100
AcDbEntity
  8
F4_AU_15_50
100
AcDbCircle
 10
174.0677999999607
 20
30.992999999783933
 30
51.79699999999991
 40
0.32
  0
TEXT
  5
40
330
17
100
AcDbEntity
  8
F4_ETIQUETAS
100
AcDbText
 10
174.5177999999607
 20
31.442999999783932
 30
51.79699999999991
 40
0.45
  1
M-0003 | Au 18.04 | Pot 0.15
 11
174.5177999999607
 21
31.442999999783932
 31
51.79699999999991
100
AcDbText
  0
POINT
  5
41
330
17
100
AcDbEntity
  8
F4_AU_15_50
100
AcDbPoint
 10
172.1931999999797
 20
31.13729999959469
 30
51.79699999999991
  0
CIRCLE
  5
42
330
17
100
AcDbEntity
  8
F4_AU_15_50
100
AcDbCircle
 10
172.1931999999797
 20
31.13729999959469
 30
51.79699999999991
 40
0.32
  0
TEXT
  5
43
330
17
100
AcDbEntity
  8
F4_ETIQUETAS
100
AcDbText
 10
172.6431999999797
 20
31.587299999594688
 30
51.79699999999991
 40
0.45
  1
M-0004 | Au 23.14 | Pot 0.16
 11
172.6431999999797
 21
31.587299999594688
 31
51.79699999999991
100
AcDbText
  0
POINT
  5
44
330
17
100
AcDbEntity
  8
F4_AU_15_50
100
AcDbPoint
 10
170.30929999996442
 20
31.23049999959767
 30
51.79699999999991
  0
CIRCLE
  5
45
330
17
100
AcDbEntity
  8
F4_AU_15_50
100
AcDbCircle
 10
170.30929999996442
 20
31.23049999959767
 30
51.79699999999991
 40
0.32
  0
TEXT
  5
46
330
17
100
AcDbEntity
  8
F4_ETIQUETAS
100
AcDbText
 10
170.7592999999644
 20
31.680499999597668
 30
51.79699999999991
 40
0.45
  1
M-0005 | Au 22.38 | Pot 0.07
 11
170.7592999999644
 21
31.680499999597668
 31
51.79699999999991
100
AcDbText
  0
POINT
  5
47
330
17
100
AcDbEntity
  8
F4_AU_05_15
100
AcDbPoint
 10
168.40700000000652
 20
31.310399999842048
 30
51.79699999999991
  0
CIRCLE
  5
48
330
17
100
AcDbEntity
  8
F4_AU_05_15
100
AcDbCircle
 10
168.40700000000652
 20
31.310399999842048
 30
51.79699999999991
 40
0.32
  0
TEXT
  5
49
330
17
100
AcDbEntity
  8
F4_ETIQUETAS
100
AcDbText
 10
168.8570000000065
 20
31.760399999842047
 30
51.79699999999991
 40
0.45
  1
M-0006 | Au 10.20 | Pot 0.12
 11
168.8570000000065
 21
31.760399999842047
 31
51.79699999999991
100
AcDbText
  0
POINT
  5
4A
330
17
100
AcDbEntity
  8
F4_AU_15_50
100
AcDbPoint
 10
166.62069999997038
 20
31.971300000324845
 30
51.79699999999991
  0
CIRCLE
  5
4B
330
17
100
AcDbEntity
  8
F4_AU_15_50
100
AcDbCircle
 10
166.62069999997038
 20
31.971300000324845
 30
51.79699999999991
 40
0.32
  0
TEXT
  5
4C
330
17
100
AcDbEntity
  8
F4_ETIQUETAS
100
AcDbText
 10
167.07069999997037
 20
32.42130000032485
 30
51.79699999999991
 40
0.45
  1
M-0007 | Au 43.16 | Pot 0.06
 11
167.07069999997037
 21
32.42130000032485
 31
51.79699999999991
100
AcDbText
  0
POINT
  5
4D
330
17
100
AcDbEntity
  8
F4_AU_00_01
100
AcDbPoint
 10
164.88219999999274
 20
32.691300000064075
 30
51.79699999999991
  0
CIRCLE
  5
4E
330
17
100
AcDbEntity
  8
F4_AU_00_01
100
AcDbCircle
 10
164.88219999999274
 20
32.691300000064075
 30
51.79699999999991
 40
0.32
  0
TEXT
  5
4F
330
17
100
AcDbEntity
  8
F4_ETIQUETAS
100
AcDbText
 10
165.33219999999272
 20
33.14130000006408
 30
51.79699999999991
 40
0.45
  1
M-0008 | Au 0.15 | Pot 0.05
 11
165.33219999999272
 21
33.14130000006408
 31
51.79699999999991
100
AcDbText
  0
POINT
  5
50
330
17
100
AcDbEntity
  8
F4_AU_00_01
100
AcDbPoint
 10
163.0174999999581
 20
33.01049999985844
 30
51.79699999999991
  0
CIRCLE
  5
51
330
17
100
AcDbEntity
  8
F4_AU_00_01
100
AcDbCircle
 10
163.0174999999581
 20
33.01049999985844
 30
51.79699999999991
 40
0.32
  0
TEXT
  5
52
330
17
100
AcDbEntity
  8
F4_ETIQUETAS
100
AcDbText
 10
163.46749999995808
 20
33.46049999985844
 30
51.79699999999991
 40
0.45
  1
M-0009 | Au 0.05 | Pot 0.06
 11
163.46749999995808
 21
33.46049999985844
 31
51.79699999999991
100
AcDbText
  0
POINT
  5
53
330
17
100
AcDbEntity
  8
F4_AU_00_01
100
AcDbPoint
 10
161.19439999992028
 20
33.51009999960661
 30
51.79699999999991
  0
CIRCLE
  5
54
330
17
100
AcDbEntity
  8
F4_AU_00_01
100
AcDbCircle
 10
161.19439999992028
 20
33.51009999960661
 30
51.79699999999991
 40
0.32
  0
TEXT
  5
55
330
17
100
AcDbEntity
  8
F4_ETIQUETAS
100
AcDbText
 10
161.64439999992027
 20
33.96009999960661
 30
51.79699999999991
 40
0.45
  1
M-0010 | Au 0.05 | Pot 0.03
 11
161.64439999992027
 21
33.96009999960661
 31
51.79699999999991
100
AcDbText
  0
POINT
  5
56
330
17
100
AcDbEntity
  8
F4_AU_00_01
100
AcDbPoint
 10
159.37839999992866
 20
34.017099999822676
 30
51.79699999999991
  0
CIRCLE
  5
57
330
17
100
AcDbEntity
  8
F4_AU_00_01
100
AcDbCircle
 10
159.37839999992866
 20
34.017099999822676
 30
51.79699999999991
 40
0.32
  0
TEXT
  5
58
330
17
100
AcDbEntity
  8
F4_ETIQUETAS
100
AcDbText
 10
159.82839999992865
 20
34.46709999982268
 30
51.79699999999991
 40
0.45
  1
M-0011 | Au 0.05 | Pot 0.04
 11
159.82839999992865
 21
34.46709999982268
 31
51.79699999999991
100
AcDbText
  0
POINT
  5
59
330
17
100
AcDbEntity
  8
F4_AU_00_01
100
AcDbPoint
 10
157.49529999995138
 20
34.23699999973178
 30
51.79699999999991
  0
CIRCLE
  5
5A
330
17
100
AcDbEntity
  8
F4_AU_00_01
100
AcDbCircle
 10
157.49529999995138
 20
34.23699999973178
 30
51.79699999999991
 40
0.32
  0
TEXT
  5
5B
330
17
100
AcDbEntity
  8
F4_ETIQUETAS
100
AcDbText
 10
157.94529999995137
 20
34.68699999973178
 30
51.79699999999991
 40
0.45
  1
M-0012 | Au 0.87 | Pot 0.10
 11
157.94529999995137
 21
34.68699999973178
 31
51.79699999999991
100
AcDbText
  0
POINT
  5
5C
330
17
100
AcDbEntity
  8
F4_AU_00_01
100
AcDbPoint
 10
155.62879999994766
 20
34.55929999984801
 30
51.79699999999991
  0
CIRCLE
  5
5D
330
17
100
AcDbEntity
  8
F4_AU_00_01
100
AcDbCircle
 10
155.62879999994766
 20
34.55929999984801
 30
51.79699999999991
 40
0.32
  0
TEXT
  5
5E
330
17
100
AcDbEntity
  8
F4_ETIQUETAS
100
AcDbText
 10
156.07879999994765
 20
35.00929999984801
 30
51.79699999999991
 40
0.45
  1
M-0013 | Au 0.70 | Pot 0.06
 11
156.07879999994765
 21
35.00929999984801
 31
51.79699999999991
100
AcDbText
  0
POINT
  5
5F
330
17
100
AcDbEntity
  8
F4_AU_01_05
100
AcDbPoint
 10
153.74989999993704
 20
34.71459999959916
 30
51.79699999999991
  0
CIRCLE
  5
60
330
17
100
AcDbEntity
  8
F4_AU_01_05
100
AcDbCircle
 10
153.74989999993704
 20
34.71459999959916
 30
51.79699999999991
 40
0.32
  0
TEXT
  5
61
330
17
100
AcDbEntity
  8
F4_ETIQUETAS
100
AcDbText
 10
154.19989999993703
 20
35.16459999959916
 30
51.79699999999991
 40
0.45
  1
M-0014 | Au 1.26 | Pot 0.12
 11
154.19989999993703
 21
35.16459999959916
 31
51.79699999999991
100
AcDbText
  0
POINT
  5
62
330
17
100
AcDbEntity
  8
F4_AU_15_50
100
AcDbPoint
 10
151.86060000001453
 20
34.774400000460446
 30
51.79699999999991
  0
CIRCLE
  5
63
330
17
100
AcDbEntity
  8
F4_AU_15_50
100
AcDbCircle
 10
151.86060000001453
 20
34.774400000460446
 30
51.79699999999991
 40
0.32
  0
TEXT
  5
64
330
17
100
AcDbEntity
  8
F4_ETIQUETAS
100
AcDbText
 10
152.31060000001452
 20
35.22440000046045
 30
51.79699999999991
 40
0.45
  1
M-0015 | Au 41.73 | Pot 0.05
 11
152.31060000001452
 21
35.22440000046045
 31
51.79699999999991
100
AcDbText
  0
POINT
  5
65
330
17
100
AcDbEntity
  8
F4_AU_00_01
100
AcDbPoint
 10
149.97879999992438
 20
34.69570000004023
 30
51.79699999999991
  0
CIRCLE
  5
66
330
17
100
AcDbEntity
  8
F4_AU_00_01
100
AcDbCircle
 10
149.97879999992438
 20
34.69570000004023
 30
51.79699999999991
 40
0.32
  0
TEXT
  5
67
330
17
100
AcDbEntity
  8
F4_ETIQUETAS
100
AcDbText
 10
150.42879999992437
 20
35.145700000040236
 30
51.79699999999991
 40
0.45
  1
M-0016 | Au 0.99 | Pot 0.03
 11
150.42879999992437
 21
35.145700000040236
 31
51.79699999999991
100
AcDbText
  0
POINT
  5
68
330
17
100
AcDbEntity
  8
F4_AU_00_01
100
AcDbPoint
 10
148.11069999996107
 20
34.404799999669194
 30
51.79699999999991
  0
CIRCLE
  5
69
330
17
100
AcDbEntity
  8
F4_AU_00_01
100
AcDbCircle
 10
148.11069999996107
 20
34.404799999669194
 30
51.79699999999991
 40
0.32
  0
TEXT
  5
6A
330
17
100
AcDbEntity
  8
F4_ETIQUETAS
100
AcDbText
 10
148.56069999996106
 20
34.8547999996692
 30
51.79699999999991
 40
0.45
  1
M-0017 | Au 0.13 | Pot 0.05
 11
148.56069999996106
 21
34.8547999996692
 31
51.79699999999991
100
AcDbText
  0
POINT
  5
6B
330
17
100
AcDbEntity
  8
F4_AU_00_01
100
AcDbPoint
 10
146.3275999999605
 20
35.05009999964386
 30
51.79699999999991
  0
CIRCLE
  5
6C
330
17
100
AcDbEntity
  8
F4_AU_00_01
100
AcDbCircle
 10
146.3275999999605
 20
35.05009999964386
 30
51.79699999999991
 40
0.32
  0
TEXT
  5
6D
330
17
100
AcDbEntity
  8
F4_ETIQUETAS
100
AcDbText
 10
146.7775999999605
 20
35.500099999643865
 30
51.79699999999991
 40
0.45
  1
M-0018 | Au 0.17 | Pot 0.06
 11
146.7775999999605
 21
35.500099999643865
 31
51.79699999999991
100
AcDbText
  0
POINT
  5
6E
330
17
100
AcDbEntity
  8
F4_AU_00_01
100
AcDbPoint
 10
144.50520000001416
 20
35.59979999996722
 30
51.79699999999991
  0
CIRCLE
  5
6F
330
17
100
AcDbEntity
  8
F4_AU_00_01
100
AcDbCircle
 10
144.50520000001416
 20
35.59979999996722
 30
51.79699999999991
 40
0.32
  0
TEXT
  5
70
330
17
100
AcDbEntity
  8
F4_ETIQUETAS
100
AcDbText
 10
144.95520000001414
 20
36.04979999996722
 30
51.79699999999991
 40
0.45
  1
M-0019 | Au 0.60 | Pot 0.12
 11
144.95520000001414
 21
36.04979999996722
 31
51.79699999999991
100
AcDbText
  0
POINT
  5
71
330
17
100
AcDbEntity
  8
F4_AU_00_01
100
AcDbPoint
 10
122.12780000001658
 20
35.533800000324845
 30
51.79699999999991
  0
CIRCLE
  5
72
330
17
100
AcDbEntity
  8
F4_AU_00_01
100
AcDbCircle
 10
122.12780000001658
 20
35.533800000324845
 30
51.79699999999991
 40
0.32
  0
TEXT
  5
73
330
17
100
AcDbEntity
  8
F4_ETIQUETAS
100
AcDbText
 10
122.57780000001658
 20
35.98380000032485
 30
51.79699999999991
 40
0.45
  1
M-0020 | Au 0.15 | Pot 0.06
 11
122.57780000001658
 21
35.98380000032485
 31
51.79699999999991
100
AcDbText
  0
POINT
  5
74
330
17
100
AcDbEntity
  8
F4_AU_00_01
100
AcDbPoint
 10
117.73899999994319
 20
40.317800000309944
 30
51.84699999999998
  0
CIRCLE
  5
75
330
17
100
AcDbEntity
  8
F4_AU_00_01
100
AcDbCircle
 10
117.73899999994319
 20
40.317800000309944
 30
51.84699999999998
 40
0.32
  0
TEXT
  5
76
330
17
100
AcDbEntity
  8
F4_ETIQUETAS
100
AcDbText
 10
118.18899999994319
 20
40.76780000030995
 30
51.84699999999998
 40
0.45
  1
M-0021 | Au 0.05 | Pot 0.30
 11
118.18899999994319
 21
40.76780000030995
 31
51.84699999999998
100
AcDbText
  0
POINT
  5
77
330
17
100
AcDbEntity
  8
F4_AU_00_01
100
AcDbPoint
 10
116.63549999997485
 20
41.96250000037253
 30
51.84699999999998
  0
CIRCLE
  5
78
330
17
100
AcDbEntity
  8
F4_AU_00_01
100
AcDbCircle
 10
116.63549999997485
 20
41.96250000037253
 30
51.84699999999998
 40
0.32
  0
TEXT
  5
79
330
17
100
AcDbEntity
  8
F4_ETIQUETAS
100
AcDbText
 10
117.08549999997486
 20
42.41250000037253
 30
51.84699999999998
 40
0.45
  1
M-0022 | Au 0.05 | Pot 0.07
 11
117.08549999997486
 21
42.41250000037253
 31
51.84699999999998
100
AcDbText
  0
POINT
  5
7A
330
17
100
AcDbEntity
  8
F4_AU_00_01
100
AcDbPoint
 10
114.82589999993797
 20
42.6304999999702
 30
51.84699999999998
  0
CIRCLE
  5
7B
330
17
100
AcDbEntity
  8
F4_AU_00_01
100
AcDbCircle
 10
114.82589999993797
 20
42.6304999999702
 30
51.84699999999998
 40
0.32
  0
TEXT
  5
7C
330
17
100
AcDbEntity
  8
F4_ETIQUETAS
100
AcDbText
 10
115.27589999993798
 20
43.0804999999702
 30
51.84699999999998
 40
0.45
  1
M-0023 | Au 0.05 | Pot 0.22
 11
115.27589999993798
 21
43.0804999999702
 31
51.84699999999998
100
AcDbText
  0
POINT
  5
7D
330
17
100
AcDbEntity
  8
F4_AU_00_01
100
AcDbPoint
 10
112.93859999999404
 20
43.14039999991655
 30
51.84699999999998
  0
CIRCLE
  5
7E
330
17
100
AcDbEntity
  8
F4_AU_00_01
100
AcDbCircle
 10
112.93859999999404
 20
43.14039999991655
 30
51.84699999999998
 40
0.32
  0
TEXT
  5
7F
330
17
100
AcDbEntity
  8
F4_ETIQUETAS
100
AcDbText
 10
113.38859999999404
 20
43.590399999916556
 30
51.84699999999998
 40
0.45
  1
M-0024 | Au 0.05 | Pot 0.13
 11
113.38859999999404
 21
43.590399999916556
 31
51.84699999999998
100
AcDbText
  0
POINT
  5
80
330
17
100
AcDbEntity
  8
F4_AU_00_01
100
AcDbPoint
 10
110.97279999998864
 20
43.50719999987632
 30
51.84699999999998
  0
CIRCLE
  5
81
330
17
100
AcDbEntity
  8
F4_AU_00_01
100
AcDbCircle
 10
110.97279999998864
 20
43.50719999987632
 30
51.84699999999998
 40
0.32
  0
TEXT
  5
82
330
17
100
AcDbEntity
  8
F4_ETIQUETAS
100
AcDbText
 10
111.42279999998864
 20
43.95719999987632
 30
51.84699999999998
 40
0.45
  1
M-0025 | Au 0.33 | Pot 0.09
 11
111.42279999998864
 21
43.95719999987632
 31
51.84699999999998
100
AcDbText
  0
POINT
  5
83
330
17
100
AcDbEntity
  8
F4_AU_00_01
100
AcDbPoint
 10
108.95439999992959
 20
43.637799999676645
 30
51.84699999999998
  0
CIRCLE
  5
84
330
17
100
AcDbEntity
  8
F4_AU_00_01
100
AcDbCircle
 10
108.95439999992959
 20
43.637799999676645
 30
51.84699999999998
 40
0.32
  0
TEXT
  5
85
330
17
100
AcDbEntity
  8
F4_ETIQUETAS
100
AcDbText
 10
109.4043999999296
 20
44.08779999967665
 30
51.84699999999998
 40
0.45
  1
M-0026 | Au 0.27 | Pot 0.40
 11
109.4043999999296
 21
44.08779999967665
 31
51.84699999999998
100
AcDbText
  0
POINT
  5
86
330
17
100
AcDbEntity
  8
F4_AU_01_05
100
AcDbPoint
 10
107.08779999997932
 20
44.053000000305474
 30
51.84699999999998
  0
CIRCLE
  5
87
330
17
100
AcDbEntity
  8
F4_AU_01_05
100
AcDbCircle
 10
107.08779999997932
 20
44.053000000305474
 30
51.84699999999998
 40
0.32
  0
TEXT
  5
88
330
17
100
AcDbEntity
  8
F4_ETIQUETAS
100
AcDbText
 10
107.53779999997933
 20
44.50300000030548
 30
51.84699999999998
 40
0.45
  1
M-0027 | Au 2.07 | Pot 0.90
 11
107.53779999997933
 21
44.50300000030548
 31
51.84699999999998
100
AcDbText
  0
POINT
  5
89
330
17
100
AcDbEntity
  8
F4_AU_00_01
100
AcDbPoint
 10
105.34109999996144
 20
44.52599999960512
 30
51.84699999999998
  0
CIRCLE
  5
8A
330
17
100
AcDbEntity
  8
F4_AU_00_01
100
AcDbCircle
 10
105.34109999996144
 20
44.52599999960512
 30
51.84699999999998
 40
0.32
  0
TEXT
  5
8B
330
17
100
AcDbEntity
  8
F4_ETIQUETAS
100
AcDbText
 10
105.79109999996145
 20
44.97599999960512
 30
51.84699999999998
 40
0.45
  1
M-0028 | Au 0.77 | Pot 0.27
 11
105.79109999996145
 21
44.97599999960512
 31
51.84699999999998
100
AcDbText
  0
POINT
  5
8C
330
17
100
AcDbEntity
  8
F4_AU_00_01
100
AcDbPoint
 10
103.33259999996517
 20
44.57270000036806
 30
51.84699999999998
  0
CIRCLE
  5
8D
330
17
100
AcDbEntity
  8
F4_AU_00_01
100
AcDbCircle
 10
103.33259999996517
 20
44.57270000036806
 30
51.84699999999998
 40
0.32
  0
TEXT
  5
8E
330
17
100
AcDbEntity
  8
F4_ETIQUETAS
100
AcDbText
 10
103.78259999996517
 20
45.02270000036806
 30
51.84699999999998
 40
0.45
  1
M-0029 | Au 0.60 | Pot 0.12
 11
103.78259999996517
 21
45.02270000036806
 31
51.84699999999998
100
AcDbText
  0
POINT
  5
8F
330
17
100
AcDbEntity
  8
F4_AU_01_05
100
AcDbPoint
 10
101.35800000000745
 20
44.323200000450015
 30
51.84699999999998
  0
CIRCLE
  5
90
330
17
100
AcDbEntity
  8
F4_AU_01_05
100
AcDbCircle
 10
101.35800000000745
 20
44.323200000450015
 30
51.84699999999998
 40
0.32
  0
TEXT
  5
91
330
17
100
AcDbEntity
  8
F4_ETIQUETAS
100
AcDbText
 10
101.80800000000745
 20
44.77320000045002
 30
51.84699999999998
 40
0.45
  1
M-0030 | Au 1.68 | Pot 0.13
 11
101.80800000000745
 21
44.77320000045002
 31
51.84699999999998
100
AcDbText
  0
POINT
  5
92
330
17
100
AcDbEntity
  8
F4_AU_01_05
100
AcDbPoint
 10
99.36159999994561
 20
44.29229999985546
 30
51.84699999999998
  0
CIRCLE
  5
93
330
17
100
AcDbEntity
  8
F4_AU_01_05
100
AcDbCircle
 10
99.36159999994561
 20
44.29229999985546
 30
51.84699999999998
 40
0.32
  0
TEXT
  5
94
330
17
100
AcDbEntity
  8
F4_ETIQUETAS
100
AcDbText
 10
99.81159999994561
 20
44.74229999985546
 30
51.84699999999998
 40
0.45
  1
M-0031 | Au 1.98 | Pot 0.20
 11
99.81159999994561
 21
44.74229999985546
 31
51.84699999999998
100
AcDbText
  0
POINT
  5
95
330
17
100
AcDbEntity
  8
F4_AU_05_15
100
AcDbPoint
 10
97.34789999993518
 20
44.342299999669194
 30
51.84699999999998
  0
CIRCLE
  5
96
330
17
100
AcDbEntity
  8
F4_AU_05_15
100
AcDbCircle
 10
97.34789999993518
 20
44.342299999669194
 30
51.84699999999998
 40
0.32
  0
TEXT
  5
97
330
17
100
AcDbEntity
  8
F4_ETIQUETAS
100
AcDbText
 10
97.79789999993518
 20
44.7922999996692
 30
51.84699999999998
 40
0.45
  1
M-0032 | Au 13.74 | Pot 0.15
 11
97.79789999993518
 21
44.7922999996692
 31
51.84699999999998
100
AcDbText
  0
POINT
  5
98
330
17
100
AcDbEntity
  8
F4_AU_01_05
100
AcDbPoint
 10
95.44149999995716
 20
44.74899999983609
 30
51.84699999999998
  0
CIRCLE
  5
99
330
17
100
AcDbEntity
  8
F4_AU_01_05
100
AcDbCircle
 10
95.44149999995716
 20
44.74899999983609
 30
51.84699999999998
 40
0.32
  0
TEXT
  5
9A
330
17
100
AcDbEntity
  8
F4_ETIQUETAS
100
AcDbText
 10
95.89149999995716
 20
45.19899999983609
 30
51.84699999999998
 40
0.45
  1
M-0033 | Au 1.93 | Pot 0.30
 11
95.89149999995716
 21
45.19899999983609
 31
51.84699999999998
100
AcDbText
  0
POINT
  5
9B
330
17
100
AcDbEntity
  8
F4_AU_01_05
100
AcDbPoint
 10
93.43209999997634
 20
44.96459999959916
 30
51.84699999999998
  0
CIRCLE
  5
9C
330
17
100
AcDbEntity
  8
F4_AU_01_05
100
AcDbCircle
 10
93.43209999997634
 20
44.96459999959916
 30
51.84699999999998
 40
0.32
  0
TEXT
  5
9D
330
17
100
AcDbEntity
  8
F4_ETIQUETAS
100
AcDbText
 10
93.88209999997635
 20
45.41459999959916
 30
51.84699999999998
 40
0.45
  1
M-0034 | Au 1.82 | Pot 0.31
 11
93.88209999997635
 21
45.41459999959916
 31
51.84699999999998
100
AcDbText
  0
POINT
  5
9E
330
17
100
AcDbEntity
  8
F4_AU_15_50
100
AcDbPoint
 10
90.32699999993201
 20
45.36629999987781
 30
51.84699999999998
  0
CIRCLE
  5
9F
330
17
100
AcDbEntity
  8
F4_AU_15_50
100
AcDbCircle
 10
90.32699999993201
 20
45.36629999987781
 30
51.84699999999998
 40
0.32
  0
TEXT
  5
A0
330
17
100
AcDbEntity
  8
F4_ETIQUETAS
100
AcDbText
 10
90.77699999993202
 20
45.81629999987781
 30
51.84699999999998
 40
0.45
  1
M-0035 | Au 38.31 | Pot 0.08
 11
90.77699999993202
 21
45.81629999987781
 31
51.84699999999998
100
AcDbText
  0
POINT
  5
A1
330
17
100
AcDbEntity
  8
F4_AU_15_50
100
AcDbPoint
 10
88.32799999997951
 20
45.460199999623
 30
51.84699999999998
  0
CIRCLE
  5
A2
330
17
100
AcDbEntity
  8
F4_AU_15_50
100
AcDbCircle
 10
88.32799999997951
 20
45.460199999623
 30
51.84699999999998
 40
0.32
  0
TEXT
  5
A3
330
17
100
AcDbEntity
  8
F4_ETIQUETAS
100
AcDbText
 10
88.77799999997951
 20
45.910199999623
 30
51.84699999999998
 40
0.45
  1
M-0036 | Au 17.92 | Pot 0.04
 11
88.77799999997951
 21
45.910199999623
 31
51.84699999999998
100
AcDbText
  0
POINT
  5
A4
330
17
100
AcDbEntity
  8
F4_AU_00_01
100
AcDbPoint
 10
86.33539999998175
 20
45.63229999970645
 30
51.84699999999998
  0
CIRCLE
  5
A5
330
17
100
AcDbEntity
  8
F4_AU_00_01
100
AcDbCircle
 10
86.33539999998175
 20
45.63229999970645
 30
51.84699999999998
 40
0.32
  0
TEXT
  5
A6
330
17
100
AcDbEntity
  8
F4_ETIQUETAS
100
AcDbText
 10
86.78539999998175
 20
46.08229999970645
 30
51.84699999999998
 40
0.45
  1
M-0037 | Au 0.79 | Pot 0.03
 11
86.78539999998175
 21
46.08229999970645
 31
51.84699999999998
100
AcDbText
  0
POINT
  5
A7
330
17
100
AcDbEntity
  8
F4_AU_05_15
100
AcDbPoint
 10
84.4375
 20
46.97939999960363
 30
51.84699999999998
  0
CIRCLE
  5
A8
330
17
100
AcDbEntity
  8
F4_AU_05_15
100
AcDbCircle
 10
84.4375
 20
46.97939999960363
 30
51.84699999999998
 40
0.32
  0
TEXT
  5
A9
330
17
100
AcDbEntity
  8
F4_ETIQUETAS
100
AcDbText
 10
84.8875
 20
47.42939999960363
 30
51.84699999999998
 40
0.45
  1
M-0038 | Au 9.05 | Pot 0.14
 11
84.8875
 21
47.42939999960363
 31
51.84699999999998
100
AcDbText
  0
POINT
  5
AA
330
17
100
AcDbEntity
  8
F4_AU_01_05
100
AcDbPoint
 10
82.48060000000987
 20
47.594800000078976
 30
51.84699999999998
  0
CIRCLE
  5
AB
330
17
100
AcDbEntity
  8
F4_AU_01_05
100
AcDbCircle
 10
82.48060000000987
 20
47.594800000078976
 30
51.84699999999998
 40
0.32
  0
TEXT
  5
AC
330
17
100
AcDbEntity
  8
F4_ETIQUETAS
100
AcDbText
 10
82.93060000000987
 20
48.04480000007898
 30
51.84699999999998
 40
0.45
  1
M-0039 | Au 3.43 | Pot 0.15
 11
82.93060000000987
 21
48.04480000007898
 31
51.84699999999998
100
AcDbText
  0
POINT
  5
AD
330
17
100
AcDbEntity
  8
F4_AU_15_50
100
AcDbPoint
 10
80.5060999999987
 20
47.99170000012964
 30
51.74699999999996
  0
CIRCLE
  5
AE
330
17
100
AcDbEntity
  8
F4_AU_15_50
100
AcDbCircle
 10
80.5060999999987
 20
47.99170000012964
 30
51.74699999999996
 40
0.32
  0
TEXT
  5
AF
330
17
100
AcDbEntity
  8
F4_ETIQUETAS
100
AcDbText
 10
80.9560999999987
 20
48.44170000012964
 30
51.74699999999996
 40
0.45
  1
M-0040 | Au 26.72 | Pot 0.25
 11
80.9560999999987
 21
48.44170000012964
 31
51.74699999999996
100
AcDbText
  0
POINT
  5
B0
330
17
100
AcDbEntity
  8
F4_AU_15_50
100
AcDbPoint
 10
72.80244733404834
 20
49.16273084934801
 30
51.84699999999998
  0
CIRCLE
  5
B1
330
17
100
AcDbEntity
  8
F4_AU_15_50
100
AcDbCircle
 10
72.80244733404834
 20
49.16273084934801
 30
51.84699999999998
 40
0.32
  0
TEXT
  5
B2
330
17
100
AcDbEntity
  8
F4_ETIQUETAS
100
AcDbText
 10
73.25244733404834
 20
49.61273084934801
 30
51.84699999999998
 40
0.45
  1
M-0041 | Au 41.29 | Pot 0.09
 11
73.25244733404834
 21
49.61273084934801
 31
51.84699999999998
100
AcDbText
  0
POINT
  5
B3
330
17
100
AcDbEntity
  8
F4_AU_05_15
100
AcDbPoint
 10
70.7956229436677
 20
49.1531763933599
 30
51.84699999999998
  0
CIRCLE
  5
B4
330
17
100
AcDbEntity
  8
F4_AU_05_15
100
AcDbCircle
 10
70.7956229436677
 20
49.1531763933599
 30
51.84699999999998
 40
0.32
  0
TEXT
  5
B5
330
17
100
AcDbEntity
  8
F4_ETIQUETAS
100
AcDbText
 10
71.2456229436677
 20
49.6031763933599
 30
51.84699999999998
 40
0.45
  1
M-0042 | Au 6.44 | Pot 0.08
 11
71.2456229436677
 21
49.6031763933599
 31
51.84699999999998
100
AcDbText
  0
POINT
  5
B6
330
17
100
AcDbEntity
  8
F4_AU_15_50
100
AcDbPoint
 10
68.86584864917677
 20
49.519793027080595
 30
51.84699999999998
  0
CIRCLE
  5
B7
330
17
100
AcDbEntity
  8
F4_AU_15_50
100
AcDbCircle
 10
68.86584864917677
 20
49.519793027080595
 30
51.84699999999998
 40
0.32
  0
TEXT
  5
B8
330
17
100
AcDbEntity
  8
F4_ETIQUETAS
100
AcDbText
 10
69.31584864917677
 20
49.9697930270806
 30
51.84699999999998
 40
0.45
  1
M-0043 | Au 21.50 | Pot 0.27
 11
69.31584864917677
 21
49.9697930270806
 31
51.84699999999998
100
AcDbText
  0
POINT
  5
B9
330
17
100
AcDbEntity
  8
F4_AU_00_01
100
AcDbPoint
 10
66.89033022860531
 20
49.83618706744164
 30
51.84699999999998
  0
CIRCLE
  5
BA
330
17
100
AcDbEntity
  8
F4_AU_00_01
100
AcDbCircle
 10
66.89033022860531
 20
49.83618706744164
 30
51.84699999999998
 40
0.32
  0
TEXT
  5
BB
330
17
100
AcDbEntity
  8
F4_ETIQUETAS
100
AcDbText
 10
67.34033022860531
 20
50.286187067441645
 30
51.84699999999998
 40
0.45
  1
M-0044 | Au 0.68 | Pot 0.16
 11
67.34033022860531
 21
50.286187067441645
 31
51.84699999999998
100
AcDbText
  0
POINT
  5
BC
330
17
100
AcDbEntity
  8
F4_AU_00_01
100
AcDbPoint
 10
64.9155535697937
 20
49.91657832823694
 30
51.84699999999998
  0
CIRCLE
  5
BD
330
17
100
AcDbEntity
  8
F4_AU_00_01
100
AcDbCircle
 10
64.9155535697937
 20
49.91657832823694
 30
51.84699999999998
 40
0.32
  0
TEXT
  5
BE
330
17
100
AcDbEntity
  8
F4_ETIQUETAS
100
AcDbText
 10
65.3655535697937
 20
50.36657832823694
 30
51.84699999999998
 40
0.45
  1
M-0045 | Au 0.38 | Pot 0.12
 11
65.3655535697937
 21
50.36657832823694
 31
51.84699999999998
100
AcDbText
  0
POINT
  5
BF
330
17
100
AcDbEntity
  8
F4_AU_00_01
100
AcDbPoint
 10
62.921462027938105
 20
50.165676057338715
 30
51.84699999999998
  0
CIRCLE
  5
C0
330
17
100
AcDbEntity
  8
F4_AU_00_01
100
AcDbCircle
 10
62.921462027938105
 20
50.165676057338715
 30
51.84699999999998
 40
0.32
  0
TEXT
  5
C1
330
17
100
AcDbEntity
  8
F4_ETIQUETAS
100
AcDbText
 10
63.37146202793811
 20
50.61567605733872
 30
51.84699999999998
 40
0.45
  1
M-0046 | Au 0.25 | Pot 0.10
 11
63.37146202793811
 21
50.61567605733872
 31
51.84699999999998
100
AcDbText
  0
POINT
  5
C2
330
17
100
AcDbEntity
  8
F4_AU_15_50
100
AcDbPoint
 10
60.94061027432326
 20
50.48419076669961
 30
51.84699999999998
  0
CIRCLE
  5
C3
330
17
100
AcDbEntity
  8
F4_AU_15_50
100
AcDbCircle
 10
60.94061027432326
 20
50.48419076669961
 30
51.84699999999998
 40
0.32
  0
TEXT
  5
C4
330
17
100
AcDbEntity
  8
F4_ETIQUETAS
100
AcDbText
 10
61.390610274323265
 20
50.934190766699615
 30
51.84699999999998
 40
0.45
  1
M-0047 | Au 19.34 | Pot 0.12
 11
61.390610274323265
 21
50.934190766699615
 31
51.84699999999998
100
AcDbText
  0
POINT
  5
C5
330
17
100
AcDbEntity
  8
F4_AU_00_01
100
AcDbPoint
 10
58.98438086814713
 20
50.81023244187236
 30
51.84699999999998
  0
CIRCLE
  5
C6
330
17
100
AcDbEntity
  8
F4_AU_00_01
100
AcDbCircle
 10
58.98438086814713
 20
50.81023244187236
 30
51.84699999999998
 40
0.32
  0
TEXT
  5
C7
330
17
100
AcDbEntity
  8
F4_ETIQUETAS
100
AcDbText
 10
59.43438086814713
 20
51.26023244187236
 30
51.84699999999998
 40
0.45
  1
M-0048 | Au 0.07 | Pot 0.07
 11
59.43438086814713
 21
51.26023244187236
 31
51.84699999999998
100
AcDbText
  0
POINT
  5
C8
330
17
100
AcDbEntity
  8
F4_AU_05_15
100
AcDbPoint
 10
56.98416551947594
 20
50.78019733354449
 30
51.84699999999998
  0
CIRCLE
  5
C9
330
17
100
AcDbEntity
  8
F4_AU_05_15
100
AcDbCircle
 10
56.98416551947594
 20
50.78019733354449
 30
51.84699999999998
 40
0.32
  0
TEXT
  5
CA
330
17
100
AcDbEntity
  8
F4_ETIQUETAS
100
AcDbText
 10
57.43416551947594
 20
51.230197333544496
 30
51.84699999999998
 40
0.45
  1
M-0049 | Au 13.29 | Pot 0.10
 11
57.43416551947594
 21
51.230197333544496
 31
51.84699999999998
100
AcDbText
  0
POINT
  5
CB
330
17
100
AcDbEntity
  8
F4_AU_00_01
100
AcDbPoint
 10
55.03959285560995
 20
51.27058223634958
 30
51.84699999999998
  0
CIRCLE
  5
CC
330
17
100
AcDbEntity
  8
F4_AU_00_01
100
AcDbCircle
 10
55.03959285560995
 20
51.27058223634958
 30
51.84699999999998
 40
0.32
  0
TEXT
  5
CD
330
17
100
AcDbEntity
  8
F4_ETIQUETAS
100
AcDbText
 10
55.489592855609956
 20
51.720582236349586
 30
51.84699999999998
 40
0.45
  1
M-0050 | Au 0.61 | Pot 0.04
 11
55.489592855609956
 21
51.720582236349586
 31
51.84699999999998
100
AcDbText
  0
POINT
  5
CE
330
17
100
AcDbEntity
  8
F4_AU_00_01
100
AcDbPoint
 10
53.06416299578268
 20
51.74803229048848
 30
51.84699999999998
  0
CIRCLE
  5
CF
330
17
100
AcDbEntity
  8
F4_AU_00_01
100
AcDbCircle
 10
53.06416299578268
 20
51.74803229048848
 30
51.84699999999998
 40
0.32
  0
TEXT
  5
D0
330
17
100
AcDbEntity
  8
F4_ETIQUETAS
100
AcDbText
 10
53.514162995782684
 20
52.198032290488484
 30
51.84699999999998
 40
0.45
  1
M-0051 | Au 0.30 | Pot 0.17
 11
53.514162995782684
 21
52.198032290488484
 31
51.84699999999998
100
AcDbText
  0
POINT
  5
D1
330
17
100
AcDbEntity
  8
F4_AU_05_15
100
AcDbPoint
 10
51.23100268363487
 20
52.51474748272449
 30
51.84699999999998
  0
CIRCLE
  5
D2
330
17
100
AcDbEntity
  8
F4_AU_05_15
100
AcDbCircle
 10
51.23100268363487
 20
52.51474748272449
 30
51.84699999999998
 40
0.32
  0
TEXT
  5
D3
330
17
100
AcDbEntity
  8
F4_ETIQUETAS
100
AcDbText
 10
51.68100268363487
 20
52.96474748272449
 30
51.84699999999998
 40
0.45
  1
M-0052 | Au 7.72 | Pot 0.18
 11
51.68100268363487
 21
52.96474748272449
 31
51.84699999999998
100
AcDbText
  0
POINT
  5
D4
330
17
100
AcDbEntity
  8
F4_AU_01_05
100
AcDbPoint
 10
49.39286989404354
 20
53.26837014313787
 30
51.84699999999998
  0
CIRCLE
  5
D5
330
17
100
AcDbEntity
  8
F4_AU_01_05
100
AcDbCircle
 10
49.39286989404354
 20
53.26837014313787
 30
51.84699999999998
 40
0.32
  0
TEXT
  5
D6
330
17
100
AcDbEntity
  8
F4_ETIQUETAS
100
AcDbText
 10
49.842869894043545
 20
53.718370143137875
 30
51.84699999999998
 40
0.45
  1
M-0053 | Au 1.01 | Pot 0.03
 11
49.842869894043545
 21
53.718370143137875
 31
51.84699999999998
100
AcDbText
  0
POINT
  5
D7
330
17
100
AcDbEntity
  8
F4_AU_00_01
100
AcDbPoint
 10
47.433580257580616
 20
53.64421282708645
 30
51.84699999999998
  0
CIRCLE
  5
D8
330
17
100
AcDbEntity
  8
F4_AU_00_01
100
AcDbCircle
 10
47.433580257580616
 20
53.64421282708645
 30
51.84699999999998
 40
0.32
  0
TEXT
  5
D9
330
17
100
AcDbEntity
  8
F4_ETIQUETAS
100
AcDbText
 10
47.88358025758062
 20
54.09421282708645
 30
51.84699999999998
 40
0.45
  1
M-0054 | Au 0.85 | Pot 0.05
 11
47.88358025758062
 21
54.09421282708645
 31
51.84699999999998
100
AcDbText
  0
POINT
  5
DA
330
17
100
AcDbEntity
  8
F4_AU_01_05
100
AcDbPoint
 10
45.44937002577353
 20
53.876622434705496
 30
51.84699999999998
  0
CIRCLE
  5
DB
330
17
100
AcDbEntity
  8
F4_AU_01_05
100
AcDbCircle
 10
45.44937002577353
 20
53.876622434705496
 30
51.84699999999998
 40
0.32
  0
TEXT
  5
DC
330
17
100
AcDbEntity
  8
F4_ETIQUETAS
100
AcDbText
 10
45.899370025773536
 20
54.3266224347055
 30
51.84699999999998
 40
0.45
  1
M-0055 | Au 1.67 | Pot 0.09
 11
45.899370025773536
 21
54.3266224347055
 31
51.84699999999998
100
AcDbText
  0
POINT
  5
DD
330
17
100
AcDbEntity
  8
F4_AU_00_01
100
AcDbPoint
 10
43.46342670475133
 20
54.13522894773632
 30
51.84699999999998
  0
CIRCLE
  5
DE
330
17
100
AcDbEntity
  8
F4_AU_00_01
100
AcDbCircle
 10
43.46342670475133
 20
54.13522894773632
 30
51.84699999999998
 40
0.32
  0
TEXT
  5
DF
330
17
100
AcDbEntity
  8
F4_ETIQUETAS
100
AcDbText
 10
43.91342670475133
 20
54.585228947736326
 30
51.84699999999998
 40
0.45
  1
M-0056 | Au 0.20 | Pot 0.15
 11
43.91342670475133
 21
54.585228947736326
 31
51.84699999999998
100
AcDbText
  0
POINT
  5
E0
330
17
100
AcDbEntity
  8
F4_AU_01_05
100
AcDbPoint
 10
41.489366191555746
 20
54.48798477463424
 30
51.84699999999998
  0
CIRCLE
  5
E1
330
17
100
AcDbEntity
  8
F4_AU_01_05
100
AcDbCircle
 10
41.489366191555746
 20
54.48798477463424
 30
51.84699999999998
 40
0.32
  0
TEXT
  5
E2
330
17
100
AcDbEntity
  8
F4_ETIQUETAS
100
AcDbText
 10
41.93936619155575
 20
54.937984774634245
 30
51.84699999999998
 40
0.45
  1
M-0057 | Au 1.35 | Pot 0.15
 11
41.93936619155575
 21
54.937984774634245
 31
51.84699999999998
100
AcDbText
  0
POINT
  5
E3
330
17
100
AcDbEntity
  8
F4_AU_05_15
100
AcDbPoint
 10
39.5312956153648
 20
54.85838970914483
 30
51.84699999999998
  0
CIRCLE
  5
E4
330
17
100
AcDbEntity
  8
F4_AU_05_15
100
AcDbCircle
 10
39.5312956153648
 20
54.85838970914483
 30
51.84699999999998
 40
0.32
  0
TEXT
  5
E5
330
17
100
AcDbEntity
  8
F4_ETIQUETAS
100
AcDbText
 10
39.9812956153648
 20
55.30838970914483
 30
51.84699999999998
 40
0.45
  1
M-0058 | Au 5.03 | Pot 0.13
 11
39.9812956153648
 21
55.30838970914483
 31
51.84699999999998
100
AcDbText
  0
POINT
  5
E6
330
17
100
AcDbEntity
  8
F4_AU_15_50
100
AcDbPoint
 10
37.5492730186088
 20
55.161691159941256
 30
51.84699999999998
  0
CIRCLE
  5
E7
330
17
100
AcDbEntity
  8
F4_AU_15_50
100
AcDbCircle
 10
37.5492730186088
 20
55.161691159941256
 30
51.84699999999998
 40
0.32
  0
TEXT
  5
E8
330
17
100
AcDbEntity
  8
F4_ETIQUETAS
100
AcDbText
 10
37.999273018608804
 20
55.61169115994126
 30
51.84699999999998
 40
0.45
  1
M-0059 | Au 46.16 | Pot 0.18
 11
37.999273018608804
 21
55.61169115994126
 31
51.84699999999998
100
AcDbText
  0
POINT
  5
E9
330
17
100
AcDbEntity
  8
F4_AU_GE_50
100
AcDbPoint
 10
35.64837430708576
 20
55.636726047843695
 30
51.84699999999998
  0
CIRCLE
  5
EA
330
17
100
AcDbEntity
  8
F4_AU_GE_50
100
AcDbCircle
 10
35.64837430708576
 20
55.636726047843695
 30
51.84699999999998
 40
0.5
  0
TEXT
  5
EB
330
17
100
AcDbEntity
  8
F4_ETIQUETAS
100
AcDbText
 10
36.09837430708576
 20
56.0867260478437
 30
51.84699999999998
 40
0.45
  1
M-0060 | Au 63.39 | Pot 0.26
 11
36.09837430708576
 21
56.0867260478437
 31
51.84699999999998
100
AcDbText
  0
POINT
  5
EC
330
17
100
AcDbEntity
  8
F4_AU_01_05
100
AcDbPoint
 10
34.14689364598598
 20
55.64427399635315
 30
51.84699999999998
  0
CIRCLE
  5
ED
330
17
100
AcDbEntity
  8
F4_AU_01_05
100
AcDbCircle
 10
34.14689364598598
 20
55.64427399635315
 30
51.84699999999998
 40
0.32
  0
TEXT
  5
EE
330
17
100
AcDbEntity
  8
F4_ETIQUETAS
100
AcDbText
 10
34.596893645985986
 20
56.09427399635315
 30
51.84699999999998
 40
0.45
  1
M-0061 | Au 1.81 | Pot 0.10
 11
34.596893645985986
 21
56.09427399635315
 31
51.84699999999998
100
AcDbText
  0
POINT
  5
EF
330
17
100
AcDbEntity
  8
F4_AU_05_15
100
AcDbPoint
 10
32.1483745011501
 20
55.60332972090691
 30
51.84699999999998
  0
CIRCLE
  5
F0
330
17
100
AcDbEntity
  8
F4_AU_05_15
100
AcDbCircle
 10
32.1483745011501
 20
55.60332972090691
 30
51.84699999999998
 40
0.32
  0
TEXT
  5
F1
330
17
100
AcDbEntity
  8
F4_ETIQUETAS
100
AcDbText
 10
32.598374501150104
 20
56.053329720906916
 30
51.84699999999998
 40
0.45
  1
M-0062 | Au 7.30 | Pot 0.10
 11
32.598374501150104
 21
56.053329720906916
 31
51.84699999999998
100
AcDbText
  0
POINT
  5
F2
330
17
100
AcDbEntity
  8
F4_AU_05_15
100
AcDbPoint
 10
30.152034800034016
 20
55.48247607797384
 30
51.84699999999998
  0
CIRCLE
  5
F3
330
17
100
AcDbEntity
  8
F4_AU_05_15
100
AcDbCircle
 10
30.152034800034016
 20
55.48247607797384
 30
51.84699999999998
 40
0.32
  0
TEXT
  5
F4
330
17
100
AcDbEntity
  8
F4_ETIQUETAS
100
AcDbText
 10
30.602034800034016
 20
55.932476077973845
 30
51.84699999999998
 40
0.45
  1
M-0063 | Au 10.39 | Pot 0.15
 11
30.602034800034016
 21
55.932476077973845
 31
51.84699999999998
100
AcDbText
  0
POINT
  5
F5
330
17
100
AcDbEntity
  8
F4_AU_05_15
100
AcDbPoint
 10
28.158796768984757
 20
55.32755241822451
 30
51.84699999999998
  0
CIRCLE
  5
F6
330
17
100
AcDbEntity
  8
F4_AU_05_15
100
AcDbCircle
 10
28.158796768984757
 20
55.32755241822451
 30
51.84699999999998
 40
0.32
  0
TEXT
  5
F7
330
17
100
AcDbEntity
  8
F4_ETIQUETAS
100
AcDbText
 10
28.608796768984757
 20
55.777552418224516
 30
51.84699999999998
 40
0.45
  1
M-0064 | Au 14.31 | Pot 0.10
 11
28.608796768984757
 21
55.777552418224516
 31
51.84699999999998
100
AcDbText
  0
POINT
  5
F8
330
17
100
AcDbEntity
  8
F4_AU_05_15
100
AcDbPoint
 10
26.17704373691231
 20
55.08697970956564
 30
51.84699999999998
  0
CIRCLE
  5
F9
330
17
100
AcDbEntity
  8
F4_AU_05_15
100
AcDbCircle
 10
26.17704373691231
 20
55.08697970956564
 30
51.84699999999998
 40
0.32
  0
TEXT
  5
FA
330
17
100
AcDbEntity
  8
F4_ETIQUETAS
100
AcDbText
 10
26.62704373691231
 20
55.53697970956564
 30
51.84699999999998
 40
0.45
  1
M-0065 | Au 7.22 | Pot 0.23
 11
26.62704373691231
 21
55.53697970956564
 31
51.84699999999998
100
AcDbText
  0
POINT
  5
FB
330
17
100
AcDbEntity
  8
F4_AU_GE_50
100
AcDbPoint
 10
24.294706722954288
 20
54.443118292838335
 30
51.84699999999998
  0
CIRCLE
  5
FC
330
17
100
AcDbEntity
  8
F4_AU_GE_50
100
AcDbCircle
 10
24.294706722954288
 20
54.443118292838335
 30
51.84699999999998
 40
0.5
  0
TEXT
  5
FD
330
17
100
AcDbEntity
  8
F4_ETIQUETAS
100
AcDbText
 10
24.744706722954287
 20
54.89311829283834
 30
51.84699999999998
 40
0.45
  1
M-0066 | Au 72.02 | Pot 0.21
 11
24.744706722954287
 21
54.89311829283834
 31
51.84699999999998
100
AcDbText
  0
POINT
  5
FE
330
17
100
AcDbEntity
  8
F4_AU_15_50
100
AcDbPoint
 10
22.391471189330332
 20
53.80543035827577
 30
51.84699999999998
  0
CIRCLE
  5
FF
330
17
100
AcDbEntity
  8
F4_AU_15_50
100
AcDbCircle
 10
22.391471189330332
 20
53.80543035827577
 30
51.84699999999998
 40
0.32
  0
TEXT
  5
100
330
17
100
AcDbEntity
  8
F4_ETIQUETAS
100
AcDbText
 10
22.84147118933033
 20
54.255430358275774
 30
51.84699999999998
 40
0.45
  1
M-0067 | Au 48.59 | Pot 0.10
 11
22.84147118933033
 21
54.255430358275774
 31
51.84699999999998
100
AcDbText
  0
POINT
  5
101
330
17
100
AcDbEntity
  8
F4_AU_05_15
100
AcDbPoint
 10
20.908634254476056
 20
52.49741495214403
 30
51.84699999999998
  0
CIRCLE
  5
102
330
17
100
AcDbEntity
  8
F4_AU_05_15
100
AcDbCircle
 10
20.908634254476056
 20
52.49741495214403
 30
51.84699999999998
 40
0.32
  0
TEXT
  5
103
330
17
100
AcDbEntity
  8
F4_ETIQUETAS
100
AcDbText
 10
21.358634254476055
 20
52.94741495214403
 30
51.84699999999998
 40
0.45
  1
M-0068 | Au 5.20 | Pot 0.09
 11
21.358634254476055
 21
52.94741495214403
 31
51.84699999999998
100
AcDbText
  0
POINT
  5
104
330
17
100
AcDbEntity
  8
F4_AU_15_50
100
AcDbPoint
 10
19.256555730476975
 20
51.70864383969456
 30
51.84699999999998
  0
CIRCLE
  5
105
330
17
100
AcDbEntity
  8
F4_AU_15_50
100
AcDbCircle
 10
19.256555730476975
 20
51.70864383969456
 30
51.84699999999998
 40
0.32
  0
TEXT
  5
106
330
17
100
AcDbEntity
  8
F4_ETIQUETAS
100
AcDbText
 10
19.706555730476975
 20
52.15864383969456
 30
51.84699999999998
 40
0.45
  1
M-0069 | Au 15.00 | Pot 0.12
 11
19.706555730476975
 21
52.15864383969456
 31
51.84699999999998
100
AcDbText
  0
POINT
  5
107
330
17
100
AcDbEntity
  8
F4_AU_15_50
100
AcDbPoint
 10
17.119959214585833
 20
51.59051546640694
 30
51.84699999999998
  0
CIRCLE
  5
108
330
17
100
AcDbEntity
  8
F4_AU_15_50
100
AcDbCircle
 10
17.119959214585833
 20
51.59051546640694
 30
51.84699999999998
 40
0.32
  0
TEXT
  5
109
330
17
100
AcDbEntity
  8
F4_ETIQUETAS
100
AcDbText
 10
17.569959214585833
 20
52.040515466406944
 30
51.84699999999998
 40
0.45
  1
M-0070 | Au 23.25 | Pot 0.04
 11
17.569959214585833
 21
52.040515466406944
 31
51.84699999999998
100
AcDbText
  0
POINT
  5
10A
330
17
100
AcDbEntity
  8
F4_AU_00_01
100
AcDbPoint
 10
15.135119104990736
 20
51.82399496808648
 30
51.84699999999998
  0
CIRCLE
  5
10B
330
17
100
AcDbEntity
  8
F4_AU_00_01
100
AcDbCircle
 10
15.135119104990736
 20
51.82399496808648
 30
51.84699999999998
 40
0.32
  0
TEXT
  5
10C
330
17
100
AcDbEntity
  8
F4_ETIQUETAS
100
AcDbText
 10
15.585119104990735
 20
52.273994968086484
 30
51.84699999999998
 40
0.45
  1
M-0071 | Au 0.38 | Pot 0.04
 11
15.585119104990735
 21
52.273994968086484
 31
51.84699999999998
100
AcDbText
  0
POINT
  5
10D
330
17
100
AcDbEntity
  8
F4_AU_00_01
100
AcDbPoint
 10
13.15077096002642
 20
52.015237151645124
 30
51.84699999999998
  0
CIRCLE
  5
10E
330
17
100
AcDbEntity
  8
F4_AU_00_01
100
AcDbCircle
 10
13.15077096002642
 20
52.015237151645124
 30
51.84699999999998
 40
0.32
  0
TEXT
  5
10F
330
17
100
AcDbEntity
  8
F4_ETIQUETAS
100
AcDbText
 10
13.60077096002642
 20
52.46523715164513
 30
51.84699999999998
 40
0.45
  1
M-0072 | Au 0.62 | Pot 0.04
 11
13.60077096002642
 21
52.46523715164513
 31
51.84699999999998
100
AcDbText
  0
POINT
  5
110
330
17
100
AcDbEntity
  8
F4_AU_00_01
100
AcDbPoint
 10
11.216316417674534
 20
52.52306155394763
 30
51.84699999999998
  0
CIRCLE
  5
111
330
17
100
AcDbEntity
  8
F4_AU_00_01
100
AcDbCircle
 10
11.216316417674534
 20
52.52306155394763
 30
51.84699999999998
 40
0.32
  0
TEXT
  5
112
330
17
100
AcDbEntity
  8
F4_ETIQUETAS
100
AcDbText
 10
11.666316417674533
 20
52.97306155394763
 30
51.84699999999998
 40
0.45
  1
M-0073 | Au 0.83 | Pot 0.05
 11
11.666316417674533
 21
52.97306155394763
 31
51.84699999999998
100
AcDbText
  0
POINT
  5
113
330
17
100
AcDbEntity
  8
F4_AU_00_01
100
AcDbPoint
 10
341.61509999993723
 20
2.9259999999776483
 30
51.27719999999999
  0
CIRCLE
  5
114
330
17
100
AcDbEntity
  8
F4_AU_00_01
100
AcDbCircle
 10
341.61509999993723
 20
2.9259999999776483
 30
51.27719999999999
 40
0.32
  0
CIRCLE
  5
115
330
17
100
AcDbEntity
  8
F4_QA_ALEJADO
100
AcDbCircle
 10
341.61509999993723
 20
2.9259999999776483
 30
51.27719999999999
 40
0.85
  0
TEXT
  5
116
330
17
100
AcDbEntity
  8
F4_ETIQUETAS
100
AcDbText
 10
342.0650999999372
 20
3.3759999999776484
 30
51.27719999999999
 40
0.45
  1
M-0074 | Au 0.09 | Pot 0.13
 11
342.0650999999372
 21
3.3759999999776484
 31
51.27719999999999
100
AcDbText
  0
POINT
  5
117
330
17
100
AcDbEntity
  8
F4_AU_05_15
100
AcDbPoint
 10
338.420999999973
 20
3.724399999715388
 30
51.59699999999998
  0
CIRCLE
  5
118
330
17
100
AcDbEntity
  8
F4_AU_05_15
100
AcDbCircle
 10
338.420999999973
 20
3.724399999715388
 30
51.59699999999998
 40
0.32
  0
CIRCLE
  5
119
330
17
100
AcDbEntity
  8
F4_QA_ALEJADO
100
AcDbCircle
 10
338.420999999973
 20
3.724399999715388
 30
51.59699999999998
 40
0.85
  0
TEXT
  5
11A
330
17
100
AcDbEntity
  8
F4_ETIQUETAS
100
AcDbText
 10
338.870999999973
 20
4.174399999715388
 30
51.59699999999998
 40
0.45
  1
M-0075 | Au 7.71 | Pot 0.05
 11
338.870999999973
 21
4.174399999715388
 31
51.59699999999998
100
AcDbText
  0
POINT
  5
11B
330
17
100
AcDbEntity
  8
F4_AU_05_15
100
AcDbPoint
 10
340.37509999994654
 20
3.339100000448525
 30
51.59699999999998
  0
CIRCLE
  5
11C
330
17
100
AcDbEntity
  8
F4_AU_05_15
100
AcDbCircle
 10
340.37509999994654
 20
3.339100000448525
 30
51.59699999999998
 40
0.32
  0
CIRCLE
  5
11D
330
17
100
AcDbEntity
  8
F4_QA_ALEJADO
100
AcDbCircle
 10
340.37509999994654
 20
3.339100000448525
 30
51.59699999999998
 40
0.85
  0
TEXT
  5
11E
330
17
100
AcDbEntity
  8
F4_ETIQUETAS
100
AcDbText
 10
340.82509999994653
 20
3.789100000448525
 30
51.59699999999998
 40
0.45
  1
M-0076 | Au 7.05 | Pot 0.08
 11
340.82509999994653
 21
3.789100000448525
 31
51.59699999999998
100
AcDbText
  0
POINT
  5
11F
330
17
100
AcDbEntity
  8
F4_AU_00_01
100
AcDbPoint
 10
342.31160000001546
 20
2.853400000371039
 30
51.59699999999998
  0
CIRCLE
  5
120
330
17
100
AcDbEntity
  8
F4_AU_00_01
100
AcDbCircle
 10
342.31160000001546
 20
2.853400000371039
 30
51.59699999999998
 40
0.32
  0
CIRCLE
  5
121
330
17
100
AcDbEntity
  8
F4_QA_ALEJADO
100
AcDbCircle
 10
342.31160000001546
 20
2.853400000371039
 30
51.59699999999998
 40
0.85
  0
TEXT
  5
122
330
17
100
AcDbEntity
  8
F4_ETIQUETAS
100
AcDbText
 10
342.76160000001545
 20
3.303400000371039
 30
51.59699999999998
 40
0.45
  1
M-0077 | Au 0.05 | Pot 0.05
 11
342.76160000001545
 21
3.303400000371039
 31
51.59699999999998
100
AcDbText
  0
POINT
  5
123
330
17
100
AcDbEntity
  8
F4_AU_00_01
100
AcDbPoint
 10
344.22159999993164
 20
2.2626000000163913
 30
51.59699999999998
  0
CIRCLE
  5
124
330
17
100
AcDbEntity
  8
F4_AU_00_01
100
AcDbCircle
 10
344.22159999993164
 20
2.2626000000163913
 30
51.59699999999998
 40
0.32
  0
CIRCLE
  5
125
330
17
100
AcDbEntity
  8
F4_QA_ALEJADO
100
AcDbCircle
 10
344.22159999993164
 20
2.2626000000163913
 30
51.59699999999998
 40
0.85
  0
TEXT
  5
126
330
17
100
AcDbEntity
  8
F4_ETIQUETAS
100
AcDbText
 10
344.67159999993163
 20
2.7126000000163915
 30
51.59699999999998
 40
0.45
  1
M-0078 | Au 0.14 | Pot 0.05
 11
344.67159999993163
 21
2.7126000000163915
 31
51.59699999999998
100
AcDbText
  0
POINT
  5
127
330
17
100
AcDbEntity
  8
F4_AU_01_05
100
AcDbPoint
 10
346.2060000000056
 20
1.9691000003367662
 30
51.59699999999998
  0
CIRCLE
  5
128
330
17
100
AcDbEntity
  8
F4_AU_01_05
100
AcDbCircle
 10
346.2060000000056
 20
1.9691000003367662
 30
51.59699999999998
 40
0.32
  0
CIRCLE
  5
129
330
17
100
AcDbEntity
  8
F4_QA_ALEJADO
100
AcDbCircle
 10
346.2060000000056
 20
1.9691000003367662
 30
51.59699999999998
 40
0.85
  0
TEXT
  5
12A
330
17
100
AcDbEntity
  8
F4_ETIQUETAS
100
AcDbText
 10
346.6560000000056
 20
2.4191000003367664
 30
51.59699999999998
 40
0.45
  1
M-0079 | Au 2.16 | Pot 0.04
 11
346.6560000000056
 21
2.4191000003367664
 31
51.59699999999998
100
AcDbText
  0
POINT
  5
12B
330
17
100
AcDbEntity
  8
F4_AU_05_15
100
AcDbPoint
 10
348.20649999997113
 20
1.9126000003889203
 30
51.59699999999998
  0
CIRCLE
  5
12C
330
17
100
AcDbEntity
  8
F4_AU_05_15
100
AcDbCircle
 10
348.20649999997113
 20
1.9126000003889203
 30
51.59699999999998
 40
0.32
  0
CIRCLE
  5
12D
330
17
100
AcDbEntity
  8
F4_QA_ALEJADO
100
AcDbCircle
 10
348.20649999997113
 20
1.9126000003889203
 30
51.59699999999998
 40
0.85
  0
TEXT
  5
12E
330
17
100
AcDbEntity
  8
F4_ETIQUETAS
100
AcDbText
 10
348.6564999999711
 20
2.3626000003889205
 30
51.59699999999998
 40
0.45
  1
M-0080 | Au 10.12 | Pot 0.05
 11
348.6564999999711
 21
2.3626000003889205
 31
51.59699999999998
100
AcDbText
  0
POINT
  5
12F
330
17
100
AcDbEntity
  8
F4_AU_00_01
100
AcDbPoint
 10
350.204000000027
 20
1.8161000004038215
 30
51.59699999999998
  0
CIRCLE
  5
130
330
17
100
AcDbEntity
  8
F4_AU_00_01
100
AcDbCircle
 10
350.204000000027
 20
1.8161000004038215
 30
51.59699999999998
 40
0.32
  0
CIRCLE
  5
131
330
17
100
AcDbEntity
  8
F4_QA_ALEJADO
100
AcDbCircle
 10
350.204000000027
 20
1.8161000004038215
 30
51.59699999999998
 40
0.85
  0
TEXT
  5
132
330
17
100
AcDbEntity
  8
F4_ETIQUETAS
100
AcDbText
 10
350.654000000027
 20
2.2661000004038216
 30
51.59699999999998
 40
0.45
  1
M-0081 | Au 0.47 | Pot 0.05
 11
350.654000000027
 21
2.2661000004038216
 31
51.59699999999998
100
AcDbText
  0
POINT
  5
133
330
17
100
AcDbEntity
  8
F4_AU_01_05
100
AcDbPoint
 10
352.20349999994505
 20
1.8092000000178814
 30
51.59699999999998
  0
CIRCLE
  5
134
330
17
100
AcDbEntity
  8
F4_AU_01_05
100
AcDbCircle
 10
352.20349999994505
 20
1.8092000000178814
 30
51.59699999999998
 40
0.32
  0
CIRCLE
  5
135
330
17
100
AcDbEntity
  8
F4_QA_ALEJADO
100
AcDbCircle
 10
352.20349999994505
 20
1.8092000000178814
 30
51.59699999999998
 40
0.85
  0
TEXT
  5
136
330
17
100
AcDbEntity
  8
F4_ETIQUETAS
100
AcDbText
 10
352.65349999994504
 20
2.2592000000178816
 30
51.59699999999998
 40
0.45
  1
M-0082 | Au 1.94 | Pot 0.04
 11
352.65349999994504
 21
2.2592000000178816
 31
51.59699999999998
100
AcDbText
  0
POINT
  5
137
330
17
100
AcDbEntity
  8
F4_AU_00_01
100
AcDbPoint
 10
354.48470000003
 20
1.8174999998882413
 30
51.59699999999998
  0
CIRCLE
  5
138
330
17
100
AcDbEntity
  8
F4_AU_00_01
100
AcDbCircle
 10
354.48470000003
 20
1.8174999998882413
 30
51.59699999999998
 40
0.32
  0
CIRCLE
  5
139
330
17
100
AcDbEntity
  8
F4_QA_ALEJADO
100
AcDbCircle
 10
354.48470000003
 20
1.8174999998882413
 30
51.59699999999998
 40
0.85
  0
TEXT
  5
13A
330
17
100
AcDbEntity
  8
F4_ETIQUETAS
100
AcDbText
 10
354.93470000003
 20
2.2674999998882415
 30
51.59699999999998
 40
0.45
  1
M-0083 | Au 0.51 | Pot 0.05
 11
354.93470000003
 21
2.2674999998882415
 31
51.59699999999998
100
AcDbText
  0
POINT
  5
13B
330
17
100
AcDbEntity
  8
F4_AU_00_01
100
AcDbPoint
 10
355.2927999999374
 20
1.2627999996766448
 30
51.59699999999998
  0
CIRCLE
  5
13C
330
17
100
AcDbEntity
  8
F4_AU_00_01
100
AcDbCircle
 10
355.2927999999374
 20
1.2627999996766448
 30
51.59699999999998
 40
0.32
  0
CIRCLE
  5
13D
330
17
100
AcDbEntity
  8
F4_QA_ALEJADO
100
AcDbCircle
 10
355.2927999999374
 20
1.2627999996766448
 30
51.59699999999998
 40
0.85
  0
TEXT
  5
13E
330
17
100
AcDbEntity
  8
F4_ETIQUETAS
100
AcDbText
 10
355.7427999999374
 20
1.7127999996766448
 30
51.59699999999998
 40
0.45
  1
M-0084 | Au 0.72 | Pot 0.12
 11
355.7427999999374
 21
1.7127999996766448
 31
51.59699999999998
100
AcDbText
  0
POINT
  5
13F
330
17
100
AcDbEntity
  8
F4_AU_00_01
100
AcDbPoint
 10
357.54839999997057
 20
0.8005999997258186
 30
51.59699999999998
  0
CIRCLE
  5
140
330
17
100
AcDbEntity
  8
F4_AU_00_01
100
AcDbCircle
 10
357.54839999997057
 20
0.8005999997258186
 30
51.59699999999998
 40
0.32
  0
CIRCLE
  5
141
330
17
100
AcDbEntity
  8
F4_QA_ALEJADO
100
AcDbCircle
 10
357.54839999997057
 20
0.8005999997258186
 30
51.59699999999998
 40
0.85
  0
TEXT
  5
142
330
17
100
AcDbEntity
  8
F4_ETIQUETAS
100
AcDbText
 10
357.99839999997056
 20
1.2505999997258186
 30
51.59699999999998
 40
0.45
  1
M-0085 | Au 0.20 | Pot 0.13
 11
357.99839999997056
 21
1.2505999997258186
 31
51.59699999999998
100
AcDbText
  0
POINT
  5
143
330
17
100
AcDbEntity
  8
F4_AU_01_05
100
AcDbPoint
 10
359.91419999999925
 20
0.6986999996006489
 30
51.59699999999998
  0
CIRCLE
  5
144
330
17
100
AcDbEntity
  8
F4_AU_01_05
100
AcDbCircle
 10
359.91419999999925
 20
0.6986999996006489
 30
51.59699999999998
 40
0.32
  0
CIRCLE
  5
145
330
17
100
AcDbEntity
  8
F4_QA_ALEJADO
100
AcDbCircle
 10
359.91419999999925
 20
0.6986999996006489
 30
51.59699999999998
 40
0.85
  0
TEXT
  5
146
330
17
100
AcDbEntity
  8
F4_ETIQUETAS
100
AcDbText
 10
360.36419999999924
 20
1.1486999996006488
 30
51.59699999999998
 40
0.45
  1
M-0086 | Au 4.14 | Pot 0.07
 11
360.36419999999924
 21
1.1486999996006488
 31
51.59699999999998
100
AcDbText
  0
POINT
  5
147
330
17
100
AcDbEntity
  8
F4_AU_01_05
100
AcDbPoint
 10
361.45880000002217
 20
0.5189000004902482
 30
51.59699999999998
  0
CIRCLE
  5
148
330
17
100
AcDbEntity
  8
F4_AU_01_05
100
AcDbCircle
 10
361.45880000002217
 20
0.5189000004902482
 30
51.59699999999998
 40
0.32
  0
CIRCLE
  5
149
330
17
100
AcDbEntity
  8
F4_QA_ALEJADO
100
AcDbCircle
 10
361.45880000002217
 20
0.5189000004902482
 30
51.59699999999998
 40
0.85
  0
TEXT
  5
14A
330
17
100
AcDbEntity
  8
F4_ETIQUETAS
100
AcDbText
 10
361.90880000002215
 20
0.9689000004902482
 30
51.59699999999998
 40
0.45
  1
M-0087 | Au 1.55 | Pot 0.10
 11
361.90880000002215
 21
0.9689000004902482
 31
51.59699999999998
100
AcDbText
  0
POINT
  5
14B
330
17
100
AcDbEntity
  8
F4_AU_00_01
100
AcDbPoint
 10
364.38670000003185
 20
0.80489999987185
 30
51.59699999999998
  0
CIRCLE
  5
14C
330
17
100
AcDbEntity
  8
F4_AU_00_01
100
AcDbCircle
 10
364.38670000003185
 20
0.80489999987185
 30
51.59699999999998
 40
0.32
  0
CIRCLE
  5
14D
330
17
100
AcDbEntity
  8
F4_QA_ALEJADO
100
AcDbCircle
 10
364.38670000003185
 20
0.80489999987185
 30
51.59699999999998
 40
0.85
  0
TEXT
  5
14E
330
17
100
AcDbEntity
  8
F4_ETIQUETAS
100
AcDbText
 10
364.83670000003184
 20
1.25489999987185
 30
51.59699999999998
 40
0.45
  1
M-0088 | Au 0.33 | Pot 0.18
 11
364.83670000003184
 21
1.25489999987185
 31
51.59699999999998
100
AcDbText
  0
POINT
  5
14F
330
17
100
AcDbEntity
  8
F4_AU_01_05
100
AcDbPoint
 10
366.3283999999985
 20
0.0
 30
51.59699999999998
  0
CIRCLE
  5
150
330
17
100
AcDbEntity
  8
F4_AU_01_05
100
AcDbCircle
 10
366.3283999999985
 20
0.0
 30
51.59699999999998
 40
0.32
  0
CIRCLE
  5
151
330
17
100
AcDbEntity
  8
F4_QA_ALEJADO
100
AcDbCircle
 10
366.3283999999985
 20
0.0
 30
51.59699999999998
 40
0.85
  0
TEXT
  5
152
330
17
100
AcDbEntity
  8
F4_ETIQUETAS
100
AcDbText
 10
366.7783999999985
 20
0.45
 30
51.59699999999998
 40
0.45
  1
M-0089 | Au 1.89 | Pot 0.06
 11
366.7783999999985
 21
0.45
 31
51.59699999999998
100
AcDbText
  0
POINT
  5
153
330
17
100
AcDbEntity
  8
F4_AU_00_01
100
AcDbPoint
 10
366.3674999999348
 20
0.7852999996393919
 30
51.59699999999998
  0
CIRCLE
  5
154
330
17
100
AcDbEntity
  8
F4_AU_00_01
100
AcDbCircle
 10
366.3674999999348
 20
0.7852999996393919
 30
51.59699999999998
 40
0.32
  0
CIRCLE
  5
155
330
17
100
AcDbEntity
  8
F4_QA_ALEJADO
100
AcDbCircle
 10
366.3674999999348
 20
0.7852999996393919
 30
51.59699999999998
 40
0.85
  0
TEXT
  5
156
330
17
100
AcDbEntity
  8
F4_ETIQUETAS
100
AcDbText
 10
366.8174999999348
 20
1.2352999996393919
 30
51.59699999999998
 40
0.45
  1
M-0090 | Au 0.70 | Pot 0.07
 11
366.8174999999348
 21
1.2352999996393919
 31
51.59699999999998
100
AcDbText
  0
POINT
  5
157
330
17
100
AcDbEntity
  8
F4_AU_01_05
100
AcDbPoint
 10
213.57681134995073
 20
16.27727985009551
 30
84.27016185999992
  0
CIRCLE
  5
158
330
17
100
AcDbEntity
  8
F4_AU_01_05
100
AcDbCircle
 10
213.57681134995073
 20
16.27727985009551
 30
84.27016185999992
 40
0.32
  0
TEXT
  5
159
330
17
100
AcDbEntity
  8
F4_ETIQUETAS
100
AcDbText
 10
214.02681134995072
 20
16.72727985009551
 30
84.27016185999992
 40
0.45
  1
M-0091 | Au 2.74 | Pot 0.47
 11
214.02681134995072
 21
16.72727985009551
 31
84.27016185999992
100
AcDbText
  0
POINT
  5
15A
330
17
100
AcDbEntity
  8
F4_AU_GE_50
100
AcDbPoint
 10
215.6154546199832
 20
16.353971740230918
 30
84.27016185999992
  0
CIRCLE
  5
15B
330
17
100
AcDbEntity
  8
F4_AU_GE_50
100
AcDbCircle
 10
215.6154546199832
 20
16.353971740230918
 30
84.27016185999992
 40
0.5
  0
TEXT
  5
15C
330
17
100
AcDbEntity
  8
F4_ETIQUETAS
100
AcDbText
 10
216.0654546199832
 20
16.803971740230917
 30
84.27016185999992
 40
0.45
  1
M-0092 | Au 131.70 | Pot 0.19
 11
216.0654546199832
 21
16.803971740230917
 31
84.27016185999992
100
AcDbText
  0
POINT
  5
15D
330
17
100
AcDbEntity
  8
F4_AU_GE_50
100
AcDbPoint
 10
217.53055618994404
 20
16.39336314983666
 30
84.27016185999992
  0
CIRCLE
  5
15E
330
17
100
AcDbEntity
  8
F4_AU_GE_50
100
AcDbCircle
 10
217.53055618994404
 20
16.39336314983666
 30
84.27016185999992
 40
0.5
  0
TEXT
  5
15F
330
17
100
AcDbEntity
  8
F4_ETIQUETAS
100
AcDbText
 10
217.98055618994402
 20
16.84336314983666
 30
84.27016185999992
 40
0.45
  1
M-0093 | Au 96.10 | Pot 0.11
 11
217.98055618994402
 21
16.84336314983666
 31
84.27016185999992
100
AcDbText
  0
POINT
  5
160
330
17
100
AcDbEntity
  8
F4_AU_05_15
100
AcDbPoint
 10
219.4243575599976
 20
15.654856899753213
 30
84.27016185999992
  0
CIRCLE
  5
161
330
17
100
AcDbEntity
  8
F4_AU_05_15
100
AcDbCircle
 10
219.4243575599976
 20
15.654856899753213
 30
84.27016185999992
 40
0.32
  0
TEXT
  5
162
330
17
100
AcDbEntity
  8
F4_ETIQUETAS
100
AcDbText
 10
219.87435755999758
 20
16.104856899753212
 30
84.27016185999992
 40
0.45
  1
M-0094 | Au 5.28 | Pot 0.26
 11
219.87435755999758
 21
16.104856899753212
 31
84.27016185999992
100
AcDbText
  0
POINT
  5
163
330
17
100
AcDbEntity
  8
F4_AU_15_50
100
AcDbPoint
 10
221.49929375993088
 20
15.369591570459306
 30
84.27016185999992
  0
CIRCLE
  5
164
330
17
100
AcDbEntity
  8
F4_AU_15_50
100
AcDbCircle
 10
221.49929375993088
 20
15.369591570459306
 30
84.27016185999992
 40
0.32
  0
TEXT
  5
165
330
17
100
AcDbEntity
  8
F4_ETIQUETAS
100
AcDbText
 10
221.94929375993087
 20
15.819591570459306
 30
84.27016185999992
 40
0.45
  1
M-0095 | Au 24.69 | Pot 0.13
 11
221.94929375993087
 21
15.819591570459306
 31
84.27016185999992
100
AcDbText
  0
POINT
  5
166
330
17
100
AcDbEntity
  8
F4_AU_GE_50
100
AcDbPoint
 10
223.2245855500223
 20
14.85223693959415
 30
84.27016185999992
  0
CIRCLE
  5
167
330
17
100
AcDbEntity
  8
F4_AU_GE_50
100
AcDbCircle
 10
223.2245855500223
 20
14.85223693959415
 30
84.27016185999992
 40
0.5
  0
TEXT
  5
168
330
17
100
AcDbEntity
  8
F4_ETIQUETAS
100
AcDbText
 10
223.6745855500223
 20
15.302236939594149
 30
84.27016185999992
 40
0.45
  1
M-0096 | Au 61.20 | Pot 0.20
 11
223.6745855500223
 21
15.302236939594149
 31
84.27016185999992
100
AcDbText
  0
POINT
  5
169
330
17
100
AcDbEntity
  8
F4_AU_15_50
100
AcDbPoint
 10
225.23419376998208
 20
15.13000997994095
 30
84.27016185999992
  0
CIRCLE
  5
16A
330
17
100
AcDbEntity
  8
F4_AU_15_50
100
AcDbCircle
 10
225.23419376998208
 20
15.13000997994095
 30
84.27016185999992
 40
0.32
  0
TEXT
  5
16B
330
17
100
AcDbEntity
  8
F4_ETIQUETAS
100
AcDbText
 10
225.68419376998207
 20
15.58000997994095
 30
84.27016185999992
 40
0.45
  1
M-0097 | Au 26.09 | Pot 0.18
 11
225.68419376998207
 21
15.58000997994095
 31
84.27016185999992
100
AcDbText
  0
POINT
  5
16C
330
17
100
AcDbEntity
  8
F4_AU_05_15
100
AcDbPoint
 10
227.22626238001976
 20
14.902717269957066
 30
84.27016185999992
  0
CIRCLE
  5
16D
330
17
100
AcDbEntity
  8
F4_AU_05_15
100
AcDbCircle
 10
227.22626238001976
 20
14.902717269957066
 30
84.27016185999992
 40
0.32
  0
TEXT
  5
16E
330
17
100
AcDbEntity
  8
F4_ETIQUETAS
100
AcDbText
 10
227.67626238001975
 20
15.352717269957065
 30
84.27016185999992
 40
0.45
  1
M-0098 | Au 12.01 | Pot 0.14
 11
227.67626238001975
 21
15.352717269957065
 31
84.27016185999992
100
AcDbText
  0
POINT
  5
16F
330
17
100
AcDbEntity
  8
F4_AU_GE_50
100
AcDbPoint
 10
229.6056067799218
 20
14.7414526399225
 30
84.27016185999992
  0
CIRCLE
  5
170
330
17
100
AcDbEntity
  8
F4_AU_GE_50
100
AcDbCircle
 10
229.6056067799218
 20
14.7414526399225
 30
84.27016185999992
 40
0.5
  0
TEXT
  5
171
330
17
100
AcDbEntity
  8
F4_ETIQUETAS
100
AcDbText
 10
230.0556067799218
 20
15.191452639922499
 30
84.27016185999992
 40
0.45
  1
M-0099 | Au 59.52 | Pot 0.13
 11
230.0556067799218
 21
15.191452639922499
 31
84.27016185999992
100
AcDbText
  0
POINT
  5
172
330
17
100
AcDbEntity
  8
F4_AU_05_15
100
AcDbPoint
 10
231.42000615992583
 20
14.65389281976968
 30
84.27016185999992
  0
CIRCLE
  5
173
330
17
100
AcDbEntity
  8
F4_AU_05_15
100
AcDbCircle
 10
231.42000615992583
 20
14.65389281976968
 30
84.27016185999992
 40
0.32
  0
TEXT
  5
174
330
17
100
AcDbEntity
  8
F4_ETIQUETAS
100
AcDbText
 10
231.87000615992582
 20
15.10389281976968
 30
84.27016185999992
 40
0.45
  1
M-0100 | Au 10.96 | Pot 0.07
 11
231.87000615992582
 21
15.10389281976968
 31
84.27016185999992
100
AcDbText
  0
POINT
  5
175
330
17
100
AcDbEntity
  8
F4_AU_00_01
100
AcDbPoint
 10
233.43386425997596
 20
14.569520279765129
 30
84.27016185999992
  0
CIRCLE
  5
176
330
17
100
AcDbEntity
  8
F4_AU_00_01
100
AcDbCircle
 10
233.43386425997596
 20
14.569520279765129
 30
84.27016185999992
 40
0.32
  0
TEXT
  5
177
330
17
100
AcDbEntity
  8
F4_ETIQUETAS
100
AcDbText
 10
233.88386425997595
 20
15.019520279765128
 30
84.27016185999992
 40
0.45
  1
M-0101 | Au 0.65 | Pot 0.14
 11
233.88386425997595
 21
15.019520279765128
 31
84.27016185999992
100
AcDbText
  0
POINT
  5
178
330
17
100
AcDbEntity
  8
F4_AU_00_01
100
AcDbPoint
 10
235.3584810399916
 20
14.667303510010242
 30
84.27016185999992
  0
CIRCLE
  5
179
330
17
100
AcDbEntity
  8
F4_AU_00_01
100
AcDbCircle
 10
235.3584810399916
 20
14.667303510010242
 30
84.27016185999992
 40
0.32
  0
TEXT
  5
17A
330
17
100
AcDbEntity
  8
F4_ETIQUETAS
100
AcDbText
 10
235.8084810399916
 20
15.117303510010242
 30
84.27016185999992
 40
0.45
  1
M-0102 | Au 0.38 | Pot 0.04
 11
235.8084810399916
 21
15.117303510010242
 31
84.27016185999992
100
AcDbText
  0
POINT
  5
17B
330
17
100
AcDbEntity
  8
F4_AU_15_50
100
AcDbPoint
 10
237.37644372996874
 20
14.816250430420041
 30
84.27016185999992
  0
CIRCLE
  5
17C
330
17
100
AcDbEntity
  8
F4_AU_15_50
100
AcDbCircle
 10
237.37644372996874
 20
14.816250430420041
 30
84.27016185999992
 40
0.32
  0
TEXT
  5
17D
330
17
100
AcDbEntity
  8
F4_ETIQUETAS
100
AcDbText
 10
237.82644372996873
 20
15.26625043042004
 30
84.27016185999992
 40
0.45
  1
M-0103 | Au 15.84 | Pot 0.22
 11
237.82644372996873
 21
15.26625043042004
 31
84.27016185999992
100
AcDbText
  0
POINT
  5
17E
330
17
100
AcDbEntity
  8
F4_AU_01_05
100
AcDbPoint
 10
239.41731019993313
 20
14.71877321973443
 30
84.27016185999992
  0
CIRCLE
  5
17F
330
17
100
AcDbEntity
  8
F4_AU_01_05
100
AcDbCircle
 10
239.41731019993313
 20
14.71877321973443
 30
84.27016185999992
 40
0.32
  0
TEXT
  5
180
330
17
100
AcDbEntity
  8
F4_ETIQUETAS
100
AcDbText
 10
239.86731019993312
 20
15.16877321973443
 30
84.27016185999992
 40
0.45
  1
M-0104 | Au 4.04 | Pot 0.19
 11
239.86731019993312
 21
15.16877321973443
 31
84.27016185999992
100
AcDbText
  0
POINT
  5
181
330
17
100
AcDbEntity
  8
F4_AU_05_15
100
AcDbPoint
 10
241.34046579001006
 20
14.683374130167067
 30
84.27016185999992
  0
CIRCLE
  5
182
330
17
100
AcDbEntity
  8
F4_AU_05_15
100
AcDbCircle
 10
241.34046579001006
 20
14.683374130167067
 30
84.27016185999992
 40
0.32
  0
TEXT
  5
183
330
17
100
AcDbEntity
  8
F4_ETIQUETAS
100
AcDbText
 10
241.79046579001005
 20
15.133374130167066
 30
84.27016185999992
 40
0.45
  1
M-0105 | Au 10.75 | Pot 0.12
 11
241.79046579001005
 21
15.133374130167066
 31
84.27016185999992
100
AcDbText
  0
POINT
  5
184
330
17
100
AcDbEntity
  8
F4_AU_01_05
100
AcDbPoint
 10
208.38295271003153
 20
16.85336131043732
 30
80.39017710999997
  0
CIRCLE
  5
185
330
17
100
AcDbEntity
  8
F4_AU_01_05
100
AcDbCircle
 10
208.38295271003153
 20
16.85336131043732
 30
80.39017710999997
 40
0.32
  0
TEXT
  5
186
330
17
100
AcDbEntity
  8
F4_ETIQUETAS
100
AcDbText
 10
208.83295271003152
 20
17.30336131043732
 30
80.39017710999997
 40
0.45
  1
M-0106 | Au 1.53 | Pot 0.08
 11
208.83295271003152
 21
17.30336131043732
 31
80.39017710999997
100
AcDbText
  0
POINT
  5
187
330
17
100
AcDbEntity
  8
F4_AU_05_15
100
AcDbPoint
 10
206.479117579991
 20
17.041776590049267
 30
80.39017710999997
  0
CIRCLE
  5
188
330
17
100
AcDbEntity
  8
F4_AU_05_15
100
AcDbCircle
 10
206.479117579991
 20
17.041776590049267
 30
80.39017710999997
 40
0.32
  0
TEXT
  5
189
330
17
100
AcDbEntity
  8
F4_ETIQUETAS
100
AcDbText
 10
206.929117579991
 20
17.491776590049266
 30
80.39017710999997
 40
0.45
  1
M-0107 | Au 7.26 | Pot 0.90
 11
206.929117579991
 21
17.491776590049266
 31
80.39017710999997
100
AcDbText
  0
POINT
  5
18A
330
17
100
AcDbEntity
  8
F4_AU_05_15
100
AcDbPoint
 10
204.52652185002808
 20
17.012948400340974
 30
80.39017710999997
  0
CIRCLE
  5
18B
330
17
100
AcDbEntity
  8
F4_AU_05_15
100
AcDbCircle
 10
204.52652185002808
 20
17.012948400340974
 30
80.39017710999997
 40
0.32
  0
TEXT
  5
18C
330
17
100
AcDbEntity
  8
F4_ETIQUETAS
100
AcDbText
 10
204.97652185002806
 20
17.462948400340974
 30
80.39017710999997
 40
0.45
  1
M-0108 | Au 5.47 | Pot 0.12
 11
204.97652185002806
 21
17.462948400340974
 31
80.39017710999997
100
AcDbText
  0
POINT
  5
18D
330
17
100
AcDbEntity
  8
F4_AU_05_15
100
AcDbPoint
 10
202.303314890014
 20
16.934685019776225
 30
80.39017710999997
  0
CIRCLE
  5
18E
330
17
100
AcDbEntity
  8
F4_AU_05_15
100
AcDbCircle
 10
202.303314890014
 20
16.934685019776225
 30
80.39017710999997
 40
0.32
  0
TEXT
  5
18F
330
17
100
AcDbEntity
  8
F4_ETIQUETAS
100
AcDbText
 10
202.753314890014
 20
17.384685019776224
 30
80.39017710999997
 40
0.45
  1
M-0109 | Au 8.64 | Pot 0.09
 11
202.753314890014
 21
17.384685019776224
 31
80.39017710999997
100
AcDbText
  0
POINT
  5
190
330
17
100
AcDbEntity
  8
F4_AU_01_05
100
AcDbPoint
 10
200.27193971001543
 20
16.979376980103552
 30
80.39017710999997
  0
CIRCLE
  5
191
330
17
100
AcDbEntity
  8
F4_AU_01_05
100
AcDbCircle
 10
200.27193971001543
 20
16.979376980103552
 30
80.39017710999997
 40
0.32
  0
TEXT
  5
192
330
17
100
AcDbEntity
  8
F4_ETIQUETAS
100
AcDbText
 10
200.72193971001542
 20
17.42937698010355
 30
80.39017710999997
 40
0.45
  1
M-0110 | Au 1.30 | Pot 0.07
 11
200.72193971001542
 21
17.42937698010355
 31
80.39017710999997
100
AcDbText
  0
POINT
  5
193
330
17
100
AcDbEntity
  8
F4_AU_00_01
100
AcDbPoint
 10
198.6526709999889
 20
16.75952162966132
 30
80.39017710999997
  0
CIRCLE
  5
194
330
17
100
AcDbEntity
  8
F4_AU_00_01
100
AcDbCircle
 10
198.6526709999889
 20
16.75952162966132
 30
80.39017710999997
 40
0.32
  0
TEXT
  5
195
330
17
100
AcDbEntity
  8
F4_ETIQUETAS
100
AcDbText
 10
199.1026709999889
 20
17.20952162966132
 30
80.39017710999997
 40
0.45
  1
M-0111 | Au 0.88 | Pot 0.04
 11
199.1026709999889
 21
17.20952162966132
 31
80.39017710999997
100
AcDbText
  0
POINT
  5
196
330
17
100
AcDbEntity
  8
F4_AU_15_50
100
AcDbPoint
 10
196.65626721002627
 20
16.71346857957542
 30
80.39017710999997
  0
CIRCLE
  5
197
330
17
100
AcDbEntity
  8
F4_AU_15_50
100
AcDbCircle
 10
196.65626721002627
 20
16.71346857957542
 30
80.39017710999997
 40
0.32
  0
TEXT
  5
198
330
17
100
AcDbEntity
  8
F4_ETIQUETAS
100
AcDbText
 10
197.10626721002626
 20
17.16346857957542
 30
80.39017710999997
 40
0.45
  1
M-0112 | Au 26.19 | Pot 0.10
 11
197.10626721002626
 21
17.16346857957542
 31
80.39017710999997
100
AcDbText
  0
POINT
  5
199
330
17
100
AcDbEntity
  8
F4_AU_01_05
100
AcDbPoint
 10
194.55193320999388
 20
16.61434544995427
 30
80.39017710999997
  0
CIRCLE
  5
19A
330
17
100
AcDbEntity
  8
F4_AU_01_05
100
AcDbCircle
 10
194.55193320999388
 20
16.61434544995427
 30
80.39017710999997
 40
0.32
  0
TEXT
  5
19B
330
17
100
AcDbEntity
  8
F4_ETIQUETAS
100
AcDbText
 10
195.00193320999387
 20
17.06434544995427
 30
80.39017710999997
 40
0.45
  1
M-0113 | Au 3.99 | Pot 0.09
 11
195.00193320999387
 21
17.06434544995427
 31
80.39017710999997
100
AcDbText
  0
POINT
  5
19C
330
17
100
AcDbEntity
  8
F4_AU_05_15
100
AcDbPoint
 10
192.46727699995972
 20
16.833984290249646
 30
80.39017710999997
  0
CIRCLE
  5
19D
330
17
100
AcDbEntity
  8
F4_AU_05_15
100
AcDbCircle
 10
192.46727699995972
 20
16.833984290249646
 30
80.39017710999997
 40
0.32
  0
TEXT
  5
19E
330
17
100
AcDbEntity
  8
F4_ETIQUETAS
100
AcDbText
 10
192.9172769999597
 20
17.283984290249645
 30
80.39017710999997
 40
0.45
  1
M-0114 | Au 5.53 | Pot 0.15
 11
192.9172769999597
 21
17.283984290249645
 31
80.39017710999997
100
AcDbText
  0
POINT
  5
19F
330
17
100
AcDbEntity
  8
F4_AU_05_15
100
AcDbPoint
 10
190.5258601399837
 20
16.829443220049143
 30
80.39017710999997
  0
CIRCLE
  5
1A0
330
17
100
AcDbEntity
  8
F4_AU_05_15
100
AcDbCircle
 10
190.5258601399837
 20
16.829443220049143
 30
80.39017710999997
 40
0.32
  0
TEXT
  5
1A1
330
17
100
AcDbEntity
  8
F4_ETIQUETAS
100
AcDbText
 10
190.9758601399837
 20
17.279443220049142
 30
80.39017710999997
 40
0.45
  1
M-0115 | Au 7.04 | Pot 0.13
 11
190.9758601399837
 21
17.279443220049142
 31
80.39017710999997
100
AcDbText
  0
POINT
  5
1A2
330
17
100
AcDbEntity
  8
F4_AU_05_15
100
AcDbPoint
 10
188.56858433003072
 20
17.44276881031692
 30
80.39017710999997
  0
CIRCLE
  5
1A3
330
17
100
AcDbEntity
  8
F4_AU_05_15
100
AcDbCircle
 10
188.56858433003072
 20
17.44276881031692
 30
80.39017710999997
 40
0.32
  0
TEXT
  5
1A4
330
17
100
AcDbEntity
  8
F4_ETIQUETAS
100
AcDbText
 10
189.0185843300307
 20
17.89276881031692
 30
80.39017710999997
 40
0.45
  1
M-0116 | Au 6.76 | Pot 0.21
 11
189.0185843300307
 21
17.89276881031692
 31
80.39017710999997
100
AcDbText
  0
POINT
  5
1A5
330
17
100
AcDbEntity
  8
F4_AU_00_01
100
AcDbPoint
 10
186.70525351993274
 20
17.898805749602616
 30
80.39017710999997
  0
CIRCLE
  5
1A6
330
17
100
AcDbEntity
  8
F4_AU_00_01
100
AcDbCircle
 10
186.70525351993274
 20
17.898805749602616
 30
80.39017710999997
 40
0.32
  0
TEXT
  5
1A7
330
17
100
AcDbEntity
  8
F4_ETIQUETAS
100
AcDbText
 10
187.15525351993273
 20
18.348805749602615
 30
80.39017710999997
 40
0.45
  1
M-0117 | Au 0.25 | Pot 0.08
 11
187.15525351993273
 21
18.348805749602615
 31
80.39017710999997
100
AcDbText
  0
POINT
  5
1A8
330
17
100
AcDbEntity
  8
F4_AU_00_01
100
AcDbPoint
 10
184.77308452001307
 20
18.371690340340137
 30
80.39017710999997
  0
CIRCLE
  5
1A9
330
17
100
AcDbEntity
  8
F4_AU_00_01
100
AcDbCircle
 10
184.77308452001307
 20
18.371690340340137
 30
80.39017710999997
 40
0.32
  0
TEXT
  5
1AA
330
17
100
AcDbEntity
  8
F4_ETIQUETAS
100
AcDbText
 10
185.22308452001306
 20
18.821690340340137
 30
80.39017710999997
 40
0.45
  1
M-0118 | Au 0.11 | Pot 0.05
 11
185.22308452001306
 21
18.821690340340137
 31
80.39017710999997
100
AcDbText
  0
POINT
  5
1AB
330
17
100
AcDbEntity
  8
F4_AU_05_15
100
AcDbPoint
 10
37.69059999997262
 20
52.73170000035316
 30
55.995399999999904
  0
CIRCLE
  5
1AC
330
17
100
AcDbEntity
  8
F4_AU_05_15
100
AcDbCircle
 10
37.69059999997262
 20
52.73170000035316
 30
55.995399999999904
 40
0.32
  0
TEXT
  5
1AD
330
17
100
AcDbEntity
  8
F4_ETIQUETAS
100
AcDbText
 10
38.14059999997262
 20
53.18170000035316
 30
55.995399999999904
 40
0.45
  1
M-0119 | Au 12.63 | Pot 0.06
 11
38.14059999997262
 21
53.18170000035316
 31
55.995399999999904
100
AcDbText
  0
POINT
  5
1AE
330
17
100
AcDbEntity
  8
F4_AU_00_01
100
AcDbPoint
 10
41.29629999992903
 20
52.1288999998942
 30
56.789999999999964
  0
CIRCLE
  5
1AF
330
17
100
AcDbEntity
  8
F4_AU_00_01
100
AcDbCircle
 10
41.29629999992903
 20
52.1288999998942
 30
56.789999999999964
 40
0.32
  0
TEXT
  5
1B0
330
17
100
AcDbEntity
  8
F4_ETIQUETAS
100
AcDbText
 10
41.746299999929036
 20
52.578899999894205
 30
56.789999999999964
 40
0.45
  1
M-0120 | Au 0.11 | Pot 0.06
 11
41.746299999929036
 21
52.578899999894205
 31
56.789999999999964
100
AcDbText
  0
POINT
  5
1B1
330
17
100
AcDbEntity
  8
F4_AU_00_01
100
AcDbPoint
 10
47.35809999995399
 20
50.142099999822676
 30
56.46289999999999
  0
CIRCLE
  5
1B2
330
17
100
AcDbEntity
  8
F4_AU_00_01
100
AcDbCircle
 10
47.35809999995399
 20
50.142099999822676
 30
56.46289999999999
 40
0.32
  0
TEXT
  5
1B3
330
17
100
AcDbEntity
  8
F4_ETIQUETAS
100
AcDbText
 10
47.808099999953996
 20
50.59209999982268
 30
56.46289999999999
 40
0.45
  1
M-0121 | Au 0.06 | Pot 0.03
 11
47.808099999953996
 21
50.59209999982268
 31
56.46289999999999
100
AcDbText
  0
POINT
  5
1B4
330
17
100
AcDbEntity
  8
F4_AU_01_05
100
AcDbPoint
 10
367.73649999999907
 20
0.5001999996602535
 30
51.59699999999998
  0
CIRCLE
  5
1B5
330
17
100
AcDbEntity
  8
F4_AU_01_05
100
AcDbCircle
 10
367.73649999999907
 20
0.5001999996602535
 30
51.59699999999998
 40
0.32
  0
CIRCLE
  5
1B6
330
17
100
AcDbEntity
  8
F4_QA_ALEJADO
100
AcDbCircle
 10
367.73649999999907
 20
0.5001999996602535
 30
51.59699999999998
 40
0.85
  0
TEXT
  5
1B7
330
17
100
AcDbEntity
  8
F4_ETIQUETAS
100
AcDbText
 10
368.18649999999906
 20
0.9501999996602535
 30
51.59699999999998
 40
0.45
  1
M-0122 | Au 1.01 | Pot 0.07
 11
368.18649999999906
 21
0.9501999996602535
 31
51.59699999999998
100
AcDbText
  0
POINT
  5
1B8
330
17
100
AcDbEntity
  8
F4_AU_00_01
100
AcDbPoint
 10
370.7321000000229
 20
0.007699999958276749
 30
51.59699999999998
  0
CIRCLE
  5
1B9
330
17
100
AcDbEntity
  8
F4_AU_00_01
100
AcDbCircle
 10
370.7321000000229
 20
0.007699999958276749
 30
51.59699999999998
 40
0.32
  0
CIRCLE
  5
1BA
330
17
100
AcDbEntity
  8
F4_QA_ALEJADO
100
AcDbCircle
 10
370.7321000000229
 20
0.007699999958276749
 30
51.59699999999998
 40
0.85
  0
TEXT
  5
1BB
330
17
100
AcDbEntity
  8
F4_ETIQUETAS
100
AcDbText
 10
371.1821000000229
 20
0.45769999995827676
 30
51.59699999999998
 40
0.45
  1
M-0123 | Au 0.10 | Pot 0.08
 11
371.1821000000229
 21
0.45769999995827676
 31
51.59699999999998
100
AcDbText
  0
POINT
  5
1BC
330
17
100
AcDbEntity
  8
F4_AU_00_01
100
AcDbPoint
 10
373.87569999997504
 20
0.8459000000730157
 30
51.59699999999998
  0
CIRCLE
  5
1BD
330
17
100
AcDbEntity
  8
F4_AU_00_01
100
AcDbCircle
 10
373.87569999997504
 20
0.8459000000730157
 30
51.59699999999998
 40
0.32
  0
CIRCLE
  5
1BE
330
17
100
AcDbEntity
  8
F4_QA_ALEJADO
100
AcDbCircle
 10
373.87569999997504
 20
0.8459000000730157
 30
51.59699999999998
 40
0.85
  0
TEXT
  5
1BF
330
17
100
AcDbEntity
  8
F4_ETIQUETAS
100
AcDbText
 10
374.32569999997503
 20
1.2959000000730156
 30
51.59699999999998
 40
0.45
  1
M-0124 | Au 0.10 | Pot 0.05
 11
374.32569999997503
 21
1.2959000000730156
 31
51.59699999999998
100
AcDbText
  0
POINT
  5
1C0
330
17
100
AcDbEntity
  8
F4_AU_01_05
100
AcDbPoint
 10
34.852599999983795
 20
53.081799999810755
 30
56.51109999999994
  0
CIRCLE
  5
1C1
330
17
100
AcDbEntity
  8
F4_AU_01_05
100
AcDbCircle
 10
34.852599999983795
 20
53.081799999810755
 30
56.51109999999994
 40
0.32
  0
TEXT
  5
1C2
330
17
100
AcDbEntity
  8
F4_ETIQUETAS
100
AcDbText
 10
35.3025999999838
 20
53.53179999981076
 30
56.51109999999994
 40
0.45
  1
M-0125 | Au 1.02 | Pot 0.08
 11
35.3025999999838
 21
53.53179999981076
 31
56.51109999999994
100
AcDbText
  0
POINT
  5
1C3
330
17
100
AcDbEntity
  8
F4_AU_15_50
100
AcDbPoint
 10
32.89839999994729
 20
53.43730000033975
 30
56.851299999999924
  0
CIRCLE
  5
1C4
330
17
100
AcDbEntity
  8
F4_AU_15_50
100
AcDbCircle
 10
32.89839999994729
 20
53.43730000033975
 30
56.851299999999924
 40
0.32
  0
TEXT
  5
1C5
330
17
100
AcDbEntity
  8
F4_ETIQUETAS
100
AcDbText
 10
33.34839999994729
 20
53.88730000033975
 30
56.851299999999924
 40
0.45
  1
M-0126 | Au 22.95 | Pot 0.09
 11
33.34839999994729
 21
53.88730000033975
 31
56.851299999999924
100
AcDbText
  0
POINT
  5
1C6
330
17
100
AcDbEntity
  8
F4_AU_00_01
100
AcDbPoint
 10
30.91279999993276
 20
53.82510000001639
 30
56.851299999999924
  0
CIRCLE
  5
1C7
330
17
100
AcDbEntity
  8
F4_AU_00_01
100
AcDbCircle
 10
30.91279999993276
 20
53.82510000001639
 30
56.851299999999924
 40
0.32
  0
TEXT
  5
1C8
330
17
100
AcDbEntity
  8
F4_ETIQUETAS
100
AcDbText
 10
31.362799999932758
 20
54.275100000016394
 30
56.851299999999924
 40
0.45
  1
M-0127 | Au 0.93 | Pot 0.11
 11
31.362799999932758
 21
54.275100000016394
 31
56.851299999999924
100
AcDbText
  0
POINT
  5
1C9
330
17
100
AcDbEntity
  8
F4_AU_00_01
100
AcDbPoint
 10
28.697799999965355
 20
54.02560000028461
 30
57.098499999999945
  0
CIRCLE
  5
1CA
330
17
100
AcDbEntity
  8
F4_AU_00_01
100
AcDbCircle
 10
28.697799999965355
 20
54.02560000028461
 30
57.098499999999945
 40
0.32
  0
TEXT
  5
1CB
330
17
100
AcDbEntity
  8
F4_ETIQUETAS
100
AcDbText
 10
29.147799999965354
 20
54.475600000284615
 30
57.098499999999945
 40
0.45
  1
M-0128 | Au 0.85 | Pot 0.06
 11
29.147799999965354
 21
54.475600000284615
 31
57.098499999999945
100
AcDbText
  0
POINT
  5
1CC
330
17
100
AcDbEntity
  8
F4_AU_00_01
100
AcDbPoint
 10
26.807700000004843
 20
54.18769999966025
 30
57.04289999999992
  0
CIRCLE
  5
1CD
330
17
100
AcDbEntity
  8
F4_AU_00_01
100
AcDbCircle
 10
26.807700000004843
 20
54.18769999966025
 30
57.04289999999992
 40
0.32
  0
TEXT
  5
1CE
330
17
100
AcDbEntity
  8
F4_ETIQUETAS
100
AcDbText
 10
27.257700000004842
 20
54.637699999660256
 30
57.04289999999992
 40
0.45
  1
M-0129 | Au 0.25 | Pot 0.09
 11
27.257700000004842
 21
54.637699999660256
 31
57.04289999999992
100
AcDbText
  0
POINT
  5
1CF
330
17
100
AcDbEntity
  8
F4_AU_01_05
100
AcDbPoint
 10
24.803799999994226
 20
54.043600000441074
 30
57.05939999999998
  0
CIRCLE
  5
1D0
330
17
100
AcDbEntity
  8
F4_AU_01_05
100
AcDbCircle
 10
24.803799999994226
 20
54.043600000441074
 30
57.05939999999998
 40
0.32
  0
TEXT
  5
1D1
330
17
100
AcDbEntity
  8
F4_ETIQUETAS
100
AcDbText
 10
25.253799999994225
 20
54.49360000044108
 30
57.05939999999998
 40
0.45
  1
M-0130 | Au 2.60 | Pot 0.06
 11
25.253799999994225
 21
54.49360000044108
 31
57.05939999999998
100
AcDbText
  0
POINT
  5
1D2
330
17
100
AcDbEntity
  8
F4_AU_05_15
100
AcDbPoint
 10
208.38295271003153
 20
16.85336131043732
 30
83.19653406999998
  0
CIRCLE
  5
1D3
330
17
100
AcDbEntity
  8
F4_AU_05_15
100
AcDbCircle
 10
208.38295271003153
 20
16.85336131043732
 30
83.19653406999998
 40
0.32
  0
TEXT
  5
1D4
330
17
100
AcDbEntity
  8
F4_ETIQUETAS
100
AcDbText
 10
208.83295271003152
 20
17.30336131043732
 30
83.19653406999998
 40
0.45
  1
M-0131 | Au 10.59 | Pot 0.10
 11
208.83295271003152
 21
17.30336131043732
 31
83.19653406999998
100
AcDbText
  0
POINT
  5
1D5
330
17
100
AcDbEntity
  8
F4_AU_15_50
100
AcDbPoint
 10
206.479117579991
 20
17.041776590049267
 30
83.19653406999998
  0
CIRCLE
  5
1D6
330
17
100
AcDbEntity
  8
F4_AU_15_50
100
AcDbCircle
 10
206.479117579991
 20
17.041776590049267
 30
83.19653406999998
 40
0.32
  0
TEXT
  5
1D7
330
17
100
AcDbEntity
  8
F4_ETIQUETAS
100
AcDbText
 10
206.929117579991
 20
17.491776590049266
 30
83.19653406999998
 40
0.45
  1
M-0132 | Au 28.71 | Pot 0.20
 11
206.929117579991
 21
17.491776590049266
 31
83.19653406999998
100
AcDbText
  0
POINT
  5
1D8
330
17
100
AcDbEntity
  8
F4_AU_05_15
100
AcDbPoint
 10
204.52652185002808
 20
17.012948400340974
 30
83.19653406999998
  0
CIRCLE
  5
1D9
330
17
100
AcDbEntity
  8
F4_AU_05_15
100
AcDbCircle
 10
204.52652185002808
 20
17.012948400340974
 30
83.19653406999998
 40
0.32
  0
TEXT
  5
1DA
330
17
100
AcDbEntity
  8
F4_ETIQUETAS
100
AcDbText
 10
204.97652185002806
 20
17.462948400340974
 30
83.19653406999998
 40
0.45
  1
M-0133 | Au 13.30 | Pot 0.10
 11
204.97652185002806
 21
17.462948400340974
 31
83.19653406999998
100
AcDbText
  0
POINT
  5
1DB
330
17
100
AcDbEntity
  8
F4_AU_05_15
100
AcDbPoint
 10
202.303314890014
 20
16.934685019776225
 30
83.19653406999998
  0
CIRCLE
  5
1DC
330
17
100
AcDbEntity
  8
F4_AU_05_15
100
AcDbCircle
 10
202.303314890014
 20
16.934685019776225
 30
83.19653406999998
 40
0.32
  0
TEXT
  5
1DD
330
17
100
AcDbEntity
  8
F4_ETIQUETAS
100
AcDbText
 10
202.753314890014
 20
17.384685019776224
 30
83.19653406999998
 40
0.45
  1
M-0134 | Au 9.94 | Pot 0.10
 11
202.753314890014
 21
17.384685019776224
 31
83.19653406999998
100
AcDbText
  0
POINT
  5
1DE
330
17
100
AcDbEntity
  8
F4_AU_15_50
100
AcDbPoint
 10
200.27193971001543
 20
16.979376980103552
 30
83.19653406999998
  0
CIRCLE
  5
1DF
330
17
100
AcDbEntity
  8
F4_AU_15_50
100
AcDbCircle
 10
200.27193971001543
 20
16.979376980103552
 30
83.19653406999998
 40
0.32
  0
TEXT
  5
1E0
330
17
100
AcDbEntity
  8
F4_ETIQUETAS
100
AcDbText
 10
200.72193971001542
 20
17.42937698010355
 30
83.19653406999998
 40
0.45
  1
M-0135 | Au 39.00 | Pot 0.20
 11
200.72193971001542
 21
17.42937698010355
 31
83.19653406999998
100
AcDbText
  0
POINT
  5
1E1
330
17
100
AcDbEntity
  8
F4_AU_01_05
100
AcDbPoint
 10
198.6526709999889
 20
16.75952162966132
 30
83.19653406999998
  0
CIRCLE
  5
1E2
330
17
100
AcDbEntity
  8
F4_AU_01_05
100
AcDbCircle
 10
198.6526709999889
 20
16.75952162966132
 30
83.19653406999998
 40
0.32
  0
TEXT
  5
1E3
330
17
100
AcDbEntity
  8
F4_ETIQUETAS
100
AcDbText
 10
199.1026709999889
 20
17.20952162966132
 30
83.19653406999998
 40
0.45
  1
M-0136 | Au 1.44 | Pot 0.25
 11
199.1026709999889
 21
17.20952162966132
 31
83.19653406999998
100
AcDbText
  0
POINT
  5
1E4
330
17
100
AcDbEntity
  8
F4_AU_05_15
100
AcDbPoint
 10
196.65626721002627
 20
16.71346857957542
 30
83.19653406999998
  0
CIRCLE
  5
1E5
330
17
100
AcDbEntity
  8
F4_AU_05_15
100
AcDbCircle
 10
196.65626721002627
 20
16.71346857957542
 30
83.19653406999998
 40
0.32
  0
TEXT
  5
1E6
330
17
100
AcDbEntity
  8
F4_ETIQUETAS
100
AcDbText
 10
197.10626721002626
 20
17.16346857957542
 30
83.19653406999998
 40
0.45
  1
M-0137 | Au 13.85 | Pot 0.16
 11
197.10626721002626
 21
17.16346857957542
 31
83.19653406999998
100
AcDbText
  0
POINT
  5
1E7
330
17
100
AcDbEntity
  8
F4_AU_01_05
100
AcDbPoint
 10
194.55193320999388
 20
16.61434544995427
 30
84.45912624999994
  0
CIRCLE
  5
1E8
330
17
100
AcDbEntity
  8
F4_AU_01_05
100
AcDbCircle
 10
194.55193320999388
 20
16.61434544995427
 30
84.45912624999994
 40
0.32
  0
TEXT
  5
1E9
330
17
100
AcDbEntity
  8
F4_ETIQUETAS
100
AcDbText
 10
195.00193320999387
 20
17.06434544995427
 30
84.45912624999994
 40
0.45
  1
M-0138 | Au 1.13 | Pot 0.24
 11
195.00193320999387
 21
17.06434544995427
 31
84.45912624999994
100
AcDbText
  0
POINT
  5
1EA
330
17
100
AcDbEntity
  8
F4_AU_01_05
100
AcDbPoint
 10
192.46727699995972
 20
16.833984290249646
 30
84.45912624999994
  0
CIRCLE
  5
1EB
330
17
100
AcDbEntity
  8
F4_AU_01_05
100
AcDbCircle
 10
192.46727699995972
 20
16.833984290249646
 30
84.45912624999994
 40
0.32
  0
TEXT
  5
1EC
330
17
100
AcDbEntity
  8
F4_ETIQUETAS
100
AcDbText
 10
192.9172769999597
 20
17.283984290249645
 30
84.45912624999994
 40
0.45
  1
M-0139 | Au 3.45 | Pot 0.12
 11
192.9172769999597
 21
17.283984290249645
 31
84.45912624999994
100
AcDbText
  0
POINT
  5
1ED
330
17
100
AcDbEntity
  8
F4_AU_15_50
100
AcDbPoint
 10
190.5258601399837
 20
16.829443220049143
 30
84.45912624999994
  0
CIRCLE
  5
1EE
330
17
100
AcDbEntity
  8
F4_AU_15_50
100
AcDbCircle
 10
190.5258601399837
 20
16.829443220049143
 30
84.45912624999994
 40
0.32
  0
TEXT
  5
1EF
330
17
100
AcDbEntity
  8
F4_ETIQUETAS
100
AcDbText
 10
190.9758601399837
 20
17.279443220049142
 30
84.45912624999994
 40
0.45
  1
M-0140 | Au 30.60 | Pot 0.11
 11
190.9758601399837
 21
17.279443220049142
 31
84.45912624999994
100
AcDbText
  0
POINT
  5
1F0
330
17
100
AcDbEntity
  8
F4_AU_15_50
100
AcDbPoint
 10
188.56858433003072
 20
17.44276881031692
 30
84.45912624999994
  0
CIRCLE
  5
1F1
330
17
100
AcDbEntity
  8
F4_AU_15_50
100
AcDbCircle
 10
188.56858433003072
 20
17.44276881031692
 30
84.45912624999994
 40
0.32
  0
TEXT
  5
1F2
330
17
100
AcDbEntity
  8
F4_ETIQUETAS
100
AcDbText
 10
189.0185843300307
 20
17.89276881031692
 30
84.45912624999994
 40
0.45
  1
M-0141 | Au 31.30 | Pot 0.14
 11
189.0185843300307
 21
17.89276881031692
 31
84.45912624999994
100
AcDbText
  0
POINT
  5
1F3
330
17
100
AcDbEntity
  8
F4_AU_05_15
100
AcDbPoint
 10
186.70525351993274
 20
17.898805749602616
 30
84.45912624999994
  0
CIRCLE
  5
1F4
330
17
100
AcDbEntity
  8
F4_AU_05_15
100
AcDbCircle
 10
186.70525351993274
 20
17.898805749602616
 30
84.45912624999994
 40
0.32
  0
TEXT
  5
1F5
330
17
100
AcDbEntity
  8
F4_ETIQUETAS
100
AcDbText
 10
187.15525351993273
 20
18.348805749602615
 30
84.45912624999994
 40
0.45
  1
M-0142 | Au 13.20 | Pot 0.14
 11
187.15525351993273
 21
18.348805749602615
 31
84.45912624999994
100
AcDbText
  0
POINT
  5
1F6
330
17
100
AcDbEntity
  8
F4_AU_15_50
100
AcDbPoint
 10
184.77308452001307
 20
18.371690340340137
 30
84.45912624999994
  0
CIRCLE
  5
1F7
330
17
100
AcDbEntity
  8
F4_AU_15_50
100
AcDbCircle
 10
184.77308452001307
 20
18.371690340340137
 30
84.45912624999994
 40
0.32
  0
TEXT
  5
1F8
330
17
100
AcDbEntity
  8
F4_ETIQUETAS
100
AcDbText
 10
185.22308452001306
 20
18.821690340340137
 30
84.45912624999994
 40
0.45
  1
M-0143 | Au 30.61 | Pot 0.07
 11
185.22308452001306
 21
18.821690340340137
 31
84.45912624999994
100
AcDbText
  0
POINT
  5
1F9
330
17
100
AcDbEntity
  8
F4_AU_GE_50
100
AcDbPoint
 10
78.88240000000224
 20
47.52630000002682
 30
55.625
  0
CIRCLE
  5
1FA
330
17
100
AcDbEntity
  8
F4_AU_GE_50
100
AcDbCircle
 10
78.88240000000224
 20
47.52630000002682
 30
55.625
 40
0.5
  0
TEXT
  5
1FB
330
17
100
AcDbEntity
  8
F4_ETIQUETAS
100
AcDbText
 10
79.33240000000224
 20
47.976300000026825
 30
55.625
 40
0.45
  1
M-0144 | Au 83.23 | Pot 0.15
 11
79.33240000000224
 21
47.976300000026825
 31
55.625
100
AcDbText
  0
POINT
  5
1FC
330
17
100
AcDbEntity
  8
F4_AU_01_05
100
AcDbPoint
 10
76.69310000003316
 20
47.76439999975264
 30
55.625
  0
CIRCLE
  5
1FD
330
17
100
AcDbEntity
  8
F4_AU_01_05
100
AcDbCircle
 10
76.69310000003316
 20
47.76439999975264
 30
55.625
 40
0.32
  0
CIRCLE
  5
1FE
330
17
100
AcDbEntity
  8
F4_QA_DUP_XYZ
100
AcDbCircle
 10
76.69310000003316
 20
47.76439999975264
 30
55.625
 40
0.65
  0
TEXT
  5
1FF
330
17
100
AcDbEntity
  8
F4_ETIQUETAS
100
AcDbText
 10
77.14310000003316
 20
48.214399999752644
 30
55.625
 40
0.45
  1
M-0145 | Au 3.00 | Pot 0.15
 11
77.14310000003316
 21
48.214399999752644
 31
55.625
100
AcDbText
  0
POINT
  5
200
330
17
100
AcDbEntity
  8
F4_AU_GE_50
100
AcDbPoint
 10
76.69310000003316
 20
47.76439999975264
 30
55.625
  0
CIRCLE
  5
201
330
17
100
AcDbEntity
  8
F4_AU_GE_50
100
AcDbCircle
 10
76.69310000003316
 20
47.76439999975264
 30
55.625
 40
0.5
  0
CIRCLE
  5
202
330
17
100
AcDbEntity
  8
F4_QA_DUP_XYZ
100
AcDbCircle
 10
76.69310000003316
 20
47.76439999975264
 30
55.625
 40
0.65
  0
TEXT
  5
203
330
17
100
AcDbEntity
  8
F4_ETIQUETAS
100
AcDbText
 10
77.14310000003316
 20
48.214399999752644
 30
55.625
 40
0.45
  1
M-0146 | Au 72.64 | Pot 0.22
 11
77.14310000003316
 21
48.214399999752644
 31
55.625
100
AcDbText
  0
POINT
  5
204
330
17
100
AcDbEntity
  8
F4_AU_05_15
100
AcDbPoint
 10
74.82149999996182
 20
48.50619999971241
 30
55.625
  0
CIRCLE
  5
205
330
17
100
AcDbEntity
  8
F4_AU_05_15
100
AcDbCircle
 10
74.82149999996182
 20
48.50619999971241
 30
55.625
 40
0.32
  0
TEXT
  5
206
330
17
100
AcDbEntity
  8
F4_ETIQUETAS
100
AcDbText
 10
75.27149999996182
 20
48.95619999971241
 30
55.625
 40
0.45
  1
M-0147 | Au 7.22 | Pot 0.42
 11
75.27149999996182
 21
48.95619999971241
 31
55.625
100
AcDbText
  0
POINT
  5
207
330
17
100
AcDbEntity
  8
F4_AU_05_15
100
AcDbPoint
 10
71.55400000000373
 20
48.93020000029355
 30
56.019199999999955
  0
CIRCLE
  5
208
330
17
100
AcDbEntity
  8
F4_AU_05_15
100
AcDbCircle
 10
71.55400000000373
 20
48.93020000029355
 30
56.019199999999955
 40
0.32
  0
TEXT
  5
209
330
17
100
AcDbEntity
  8
F4_ETIQUETAS
100
AcDbText
 10
72.00400000000373
 20
49.380200000293556
 30
56.019199999999955
 40
0.45
  1
M-0148 | Au 13.12 | Pot 0.25
 11
72.00400000000373
 21
49.380200000293556
 31
56.019199999999955
100
AcDbText
  0
POINT
  5
20A
330
17
100
AcDbEntity
  8
F4_AU_05_15
100
AcDbPoint
 10
69.34970000002068
 20
49.384200000204146
 30
56.019199999999955
  0
CIRCLE
  5
20B
330
17
100
AcDbEntity
  8
F4_AU_05_15
100
AcDbCircle
 10
69.34970000002068
 20
49.384200000204146
 30
56.019199999999955
 40
0.32
  0
TEXT
  5
20C
330
17
100
AcDbEntity
  8
F4_ETIQUETAS
100
AcDbText
 10
69.79970000002068
 20
49.83420000020415
 30
56.019199999999955
 40
0.45
  1
M-0149 | Au 8.83 | Pot 0.15
 11
69.79970000002068
 21
49.83420000020415
 31
56.019199999999955
100
AcDbText
  0
POINT
  5
20D
330
17
100
AcDbEntity
  8
F4_AU_00_01
100
AcDbPoint
 10
66.94900000002235
 20
49.213700000196695
 30
56.019199999999955
  0
CIRCLE
  5
20E
330
17
100
AcDbEntity
  8
F4_AU_00_01
100
AcDbCircle
 10
66.94900000002235
 20
49.213700000196695
 30
56.019199999999955
 40
0.32
  0
TEXT
  5
20F
330
17
100
AcDbEntity
  8
F4_ETIQUETAS
100
AcDbText
 10
67.39900000002235
 20
49.6637000001967
 30
56.019199999999955
 40
0.45
  1
M-0150 | Au 0.34 | Pot 0.22
 11
67.39900000002235
 21
49.6637000001967
 31
56.019199999999955
100
AcDbText
  0
POINT
  5
210
330
17
100
AcDbEntity
  8
F4_AU_GE_50
100
AcDbPoint
 10
213.57681134995073
 20
16.27727985009551
 30
85.97229115999994
  0
CIRCLE
  5
211
330
17
100
AcDbEntity
  8
F4_AU_GE_50
100
AcDbCircle
 10
213.57681134995073
 20
16.27727985009551
 30
85.97229115999994
 40
0.5
  0
TEXT
  5
212
330
17
100
AcDbEntity
  8
F4_ETIQUETAS
100
AcDbText
 10
214.02681134995072
 20
16.72727985009551
 30
85.97229115999994
 40
0.45
  1
M-0151 | Au 235.71 | Pot 0.38
 11
214.02681134995072
 21
16.72727985009551
 31
85.97229115999994
100
AcDbText
  0
POINT
  5
213
330
17
100
AcDbEntity
  8
F4_AU_15_50
100
AcDbPoint
 10
215.6154546199832
 20
16.353971740230918
 30
85.97229115999994
  0
CIRCLE
  5
214
330
17
100
AcDbEntity
  8
F4_AU_15_50
100
AcDbCircle
 10
215.6154546199832
 20
16.353971740230918
 30
85.97229115999994
 40
0.32
  0
TEXT
  5
215
330
17
100
AcDbEntity
  8
F4_ETIQUETAS
100
AcDbText
 10
216.0654546199832
 20
16.803971740230917
 30
85.97229115999994
 40
0.45
  1
M-0152 | Au 34.92 | Pot 0.40
 11
216.0654546199832
 21
16.803971740230917
 31
85.97229115999994
100
AcDbText
  0
POINT
  5
216
330
17
100
AcDbEntity
  8
F4_AU_GE_50
100
AcDbPoint
 10
217.53055618994404
 20
16.39336314983666
 30
85.97229115999994
  0
CIRCLE
  5
217
330
17
100
AcDbEntity
  8
F4_AU_GE_50
100
AcDbCircle
 10
217.53055618994404
 20
16.39336314983666
 30
85.97229115999994
 40
0.5
  0
TEXT
  5
218
330
17
100
AcDbEntity
  8
F4_ETIQUETAS
100
AcDbText
 10
217.98055618994402
 20
16.84336314983666
 30
85.97229115999994
 40
0.45
  1
M-0153 | Au 70.26 | Pot 0.16
 11
217.98055618994402
 21
16.84336314983666
 31
85.97229115999994
100
AcDbText
  0
POINT
  5
219
330
17
100
AcDbEntity
  8
F4_AU_15_50
100
AcDbPoint
 10
219.4243575599976
 20
15.654856899753213
 30
85.97229115999994
  0
CIRCLE
  5
21A
330
17
100
AcDbEntity
  8
F4_AU_15_50
100
AcDbCircle
 10
219.4243575599976
 20
15.654856899753213
 30
85.97229115999994
 40
0.32
  0
TEXT
  5
21B
330
17
100
AcDbEntity
  8
F4_ETIQUETAS
100
AcDbText
 10
219.87435755999758
 20
16.104856899753212
 30
85.97229115999994
 40
0.45
  1
M-0154 | Au 48.53 | Pot 0.45
 11
219.87435755999758
 21
16.104856899753212
 31
85.97229115999994
100
AcDbText
  0
POINT
  5
21C
330
17
100
AcDbEntity
  8
F4_AU_05_15
100
AcDbPoint
 10
221.49929375993088
 20
15.369591570459306
 30
85.97229115999994
  0
CIRCLE
  5
21D
330
17
100
AcDbEntity
  8
F4_AU_05_15
100
AcDbCircle
 10
221.49929375993088
 20
15.369591570459306
 30
85.97229115999994
 40
0.32
  0
TEXT
  5
21E
330
17
100
AcDbEntity
  8
F4_ETIQUETAS
100
AcDbText
 10
221.94929375993087
 20
15.819591570459306
 30
85.97229115999994
 40
0.45
  1
M-0155 | Au 7.68 | Pot 0.55
 11
221.94929375993087
 21
15.819591570459306
 31
85.97229115999994
100
AcDbText
  0
POINT
  5
21F
330
17
100
AcDbEntity
  8
F4_AU_GE_50
100
AcDbPoint
 10
223.2245855500223
 20
14.85223693959415
 30
85.97229115999994
  0
CIRCLE
  5
220
330
17
100
AcDbEntity
  8
F4_AU_GE_50
100
AcDbCircle
 10
223.2245855500223
 20
14.85223693959415
 30
85.97229115999994
 40
0.5
  0
TEXT
  5
221
330
17
100
AcDbEntity
  8
F4_ETIQUETAS
100
AcDbText
 10
223.6745855500223
 20
15.302236939594149
 30
85.97229115999994
 40
0.45
  1
M-0156 | Au 153.04 | Pot 0.50
 11
223.6745855500223
 21
15.302236939594149
 31
85.97229115999994
100
AcDbText
  0
POINT
  5
222
330
17
100
AcDbEntity
  8
F4_AU_15_50
100
AcDbPoint
 10
225.23419376998208
 20
15.13000997994095
 30
85.97229115999994
  0
CIRCLE
  5
223
330
17
100
AcDbEntity
  8
F4_AU_15_50
100
AcDbCircle
 10
225.23419376998208
 20
15.13000997994095
 30
85.97229115999994
 40
0.32
  0
TEXT
  5
224
330
17
100
AcDbEntity
  8
F4_ETIQUETAS
100
AcDbText
 10
225.68419376998207
 20
15.58000997994095
 30
85.97229115999994
 40
0.45
  1
M-0157 | Au 29.81 | Pot 0.15
 11
225.68419376998207
 21
15.58000997994095
 31
85.97229115999994
100
AcDbText
  0
POINT
  5
225
330
17
100
AcDbEntity
  8
F4_AU_05_15
100
AcDbPoint
 10
227.22626238001976
 20
14.902717269957066
 30
85.97229115999994
  0
CIRCLE
  5
226
330
17
100
AcDbEntity
  8
F4_AU_05_15
100
AcDbCircle
 10
227.22626238001976
 20
14.902717269957066
 30
85.97229115999994
 40
0.32
  0
TEXT
  5
227
330
17
100
AcDbEntity
  8
F4_ETIQUETAS
100
AcDbText
 10
227.67626238001975
 20
15.352717269957065
 30
85.97229115999994
 40
0.45
  1
M-0158 | Au 8.05 | Pot 0.15
 11
227.67626238001975
 21
15.352717269957065
 31
85.97229115999994
100
AcDbText
  0
POINT
  5
228
330
17
100
AcDbEntity
  8
F4_AU_05_15
100
AcDbPoint
 10
229.6056067799218
 20
14.7414526399225
 30
85.97229115999994
  0
CIRCLE
  5
229
330
17
100
AcDbEntity
  8
F4_AU_05_15
100
AcDbCircle
 10
229.6056067799218
 20
14.7414526399225
 30
85.97229115999994
 40
0.32
  0
TEXT
  5
22A
330
17
100
AcDbEntity
  8
F4_ETIQUETAS
100
AcDbText
 10
230.0556067799218
 20
15.191452639922499
 30
85.97229115999994
 40
0.45
  1
M-0159 | Au 14.86 | Pot 0.10
 11
230.0556067799218
 21
15.191452639922499
 31
85.97229115999994
100
AcDbText
  0
POINT
  5
22B
330
17
100
AcDbEntity
  8
F4_AU_15_50
100
AcDbPoint
 10
231.42000615992583
 20
14.65389281976968
 30
85.97229115999994
  0
CIRCLE
  5
22C
330
17
100
AcDbEntity
  8
F4_AU_15_50
100
AcDbCircle
 10
231.42000615992583
 20
14.65389281976968
 30
85.97229115999994
 40
0.32
  0
TEXT
  5
22D
330
17
100
AcDbEntity
  8
F4_ETIQUETAS
100
AcDbText
 10
231.87000615992582
 20
15.10389281976968
 30
85.97229115999994
 40
0.45
  1
M-0160 | Au 16.85 | Pot 0.16
 11
231.87000615992582
 21
15.10389281976968
 31
85.97229115999994
100
AcDbText
  0
POINT
  5
22E
330
17
100
AcDbEntity
  8
F4_AU_01_05
100
AcDbPoint
 10
233.43386425997596
 20
14.569520279765129
 30
85.97229115999994
  0
CIRCLE
  5
22F
330
17
100
AcDbEntity
  8
F4_AU_01_05
100
AcDbCircle
 10
233.43386425997596
 20
14.569520279765129
 30
85.97229115999994
 40
0.32
  0
TEXT
  5
230
330
17
100
AcDbEntity
  8
F4_ETIQUETAS
100
AcDbText
 10
233.88386425997595
 20
15.019520279765128
 30
85.97229115999994
 40
0.45
  1
M-0161 | Au 1.46 | Pot 0.10
 11
233.88386425997595
 21
15.019520279765128
 31
85.97229115999994
100
AcDbText
  0
POINT
  5
231
330
17
100
AcDbEntity
  8
F4_AU_15_50
100
AcDbPoint
 10
235.3584810399916
 20
14.667303510010242
 30
85.97229115999994
  0
CIRCLE
  5
232
330
17
100
AcDbEntity
  8
F4_AU_15_50
100
AcDbCircle
 10
235.3584810399916
 20
14.667303510010242
 30
85.97229115999994
 40
0.32
  0
TEXT
  5
233
330
17
100
AcDbEntity
  8
F4_ETIQUETAS
100
AcDbText
 10
235.8084810399916
 20
15.117303510010242
 30
85.97229115999994
 40
0.45
  1
M-0162 | Au 21.86 | Pot 0.04
 11
235.8084810399916
 21
15.117303510010242
 31
85.97229115999994
100
AcDbText
  0
POINT
  5
234
330
17
100
AcDbEntity
  8
F4_AU_01_05
100
AcDbPoint
 10
237.37644372996874
 20
14.816250430420041
 30
85.97229115999994
  0
CIRCLE
  5
235
330
17
100
AcDbEntity
  8
F4_AU_01_05
100
AcDbCircle
 10
237.37644372996874
 20
14.816250430420041
 30
85.97229115999994
 40
0.32
  0
TEXT
  5
236
330
17
100
AcDbEntity
  8
F4_ETIQUETAS
100
AcDbText
 10
237.82644372996873
 20
15.26625043042004
 30
85.97229115999994
 40
0.45
  1
M-0163 | Au 2.00 | Pot 0.10
 11
237.82644372996873
 21
15.26625043042004
 31
85.97229115999994
100
AcDbText
  0
POINT
  5
237
330
17
100
AcDbEntity
  8
F4_AU_15_50
100
AcDbPoint
 10
239.41731019993313
 20
14.71877321973443
 30
85.97229115999994
  0
CIRCLE
  5
238
330
17
100
AcDbEntity
  8
F4_AU_15_50
100
AcDbCircle
 10
239.41731019993313
 20
14.71877321973443
 30
85.97229115999994
 40
0.32
  0
TEXT
  5
239
330
17
100
AcDbEntity
  8
F4_ETIQUETAS
100
AcDbText
 10
239.86731019993312
 20
15.16877321973443
 30
85.97229115999994
 40
0.45
  1
M-0164 | Au 25.94 | Pot 0.32
 11
239.86731019993312
 21
15.16877321973443
 31
85.97229115999994
100
AcDbText
  0
POINT
  5
23A
330
17
100
AcDbEntity
  8
F4_AU_05_15
100
AcDbPoint
 10
241.34046579001006
 20
14.683374130167067
 30
85.97229115999994
  0
CIRCLE
  5
23B
330
17
100
AcDbEntity
  8
F4_AU_05_15
100
AcDbCircle
 10
241.34046579001006
 20
14.683374130167067
 30
85.97229115999994
 40
0.32
  0
TEXT
  5
23C
330
17
100
AcDbEntity
  8
F4_ETIQUETAS
100
AcDbText
 10
241.79046579001005
 20
15.133374130167066
 30
85.97229115999994
 40
0.45
  1
M-0165 | Au 9.39 | Pot 0.23
 11
241.79046579001005
 21
15.133374130167066
 31
85.97229115999994
100
AcDbText
  0
POINT
  5
23D
330
17
100
AcDbEntity
  8
F4_AU_15_50
100
AcDbPoint
 10
64.96149999997579
 20
49.410199999809265
 30
56.945499999999925
  0
CIRCLE
  5
23E
330
17
100
AcDbEntity
  8
F4_AU_15_50
100
AcDbCircle
 10
64.96149999997579
 20
49.410199999809265
 30
56.945499999999925
 40
0.32
  0
TEXT
  5
23F
330
17
100
AcDbEntity
  8
F4_ETIQUETAS
100
AcDbText
 10
65.41149999997579
 20
49.86019999980927
 30
56.945499999999925
 40
0.45
  1
M-0166 | Au 47.91 | Pot 0.08
 11
65.41149999997579
 21
49.86019999980927
 31
56.945499999999925
100
AcDbText
  0
POINT
  5
240
330
17
100
AcDbEntity
  8
F4_AU_GE_50
100
AcDbPoint
 10
62.79449999995995
 20
49.58990000002086
 30
56.945499999999925
  0
CIRCLE
  5
241
330
17
100
AcDbEntity
  8
F4_AU_GE_50
100
AcDbCircle
 10
62.79449999995995
 20
49.58990000002086
 30
56.945499999999925
 40
0.5
  0
TEXT
  5
242
330
17
100
AcDbEntity
  8
F4_ETIQUETAS
100
AcDbText
 10
63.244499999959956
 20
50.039900000020864
 30
56.945499999999925
 40
0.45
  1
M-0167 | Au 67.05 | Pot 0.13
 11
63.244499999959956
 21
50.039900000020864
 31
56.945499999999925
100
AcDbText
  0
POINT
  5
243
330
17
100
AcDbEntity
  8
F4_AU_01_05
100
AcDbPoint
 10
60.79839999997057
 20
49.71490000002086
 30
56.945499999999925
  0
CIRCLE
  5
244
330
17
100
AcDbEntity
  8
F4_AU_01_05
100
AcDbCircle
 10
60.79839999997057
 20
49.71490000002086
 30
56.945499999999925
 40
0.32
  0
TEXT
  5
245
330
17
100
AcDbEntity
  8
F4_ETIQUETAS
100
AcDbText
 10
61.24839999997057
 20
50.164900000020864
 30
56.945499999999925
 40
0.45
  1
M-0168 | Au 2.06 | Pot 0.10
 11
61.24839999997057
 21
50.164900000020864
 31
56.945499999999925
100
AcDbText
  0
POINT
  5
246
330
17
100
AcDbEntity
  8
F4_AU_05_15
100
AcDbPoint
 10
128.18599999998696
 20
33.50300000049174
 30
76.10699999999997
  0
CIRCLE
  5
247
330
17
100
AcDbEntity
  8
F4_AU_05_15
100
AcDbCircle
 10
128.18599999998696
 20
33.50300000049174
 30
76.10699999999997
 40
0.32
  0
TEXT
  5
248
330
17
100
AcDbEntity
  8
F4_ETIQUETAS
100
AcDbText
 10
128.63599999998695
 20
33.95300000049174
 30
76.10699999999997
 40
0.45
  1
M-0169 | Au 7.27 | Pot 0.34
 11
128.63599999998695
 21
33.95300000049174
 31
76.10699999999997
100
AcDbText
  0
POINT
  5
249
330
17
100
AcDbEntity
  8
F4_AU_00_01
100
AcDbPoint
 10
126.2139999999199
 20
33.178000000305474
 30
76.20499999999993
  0
CIRCLE
  5
24A
330
17
100
AcDbEntity
  8
F4_AU_00_01
100
AcDbCircle
 10
126.2139999999199
 20
33.178000000305474
 30
76.20499999999993
 40
0.32
  0
TEXT
  5
24B
330
17
100
AcDbEntity
  8
F4_ETIQUETAS
100
AcDbText
 10
126.66399999991991
 20
33.62800000030548
 30
76.20499999999993
 40
0.45
  1
M-0170 | Au 0.14 | Pot 0.25
 11
126.66399999991991
 21
33.62800000030548
 31
76.20499999999993
100
AcDbText
  0
POINT
  5
24C
330
17
100
AcDbEntity
  8
F4_AU_00_01
100
AcDbPoint
 10
124.2149999999674
 20
33.16500000003725
 30
76.20499999999993
  0
CIRCLE
  5
24D
330
17
100
AcDbEntity
  8
F4_AU_00_01
100
AcDbCircle
 10
124.2149999999674
 20
33.16500000003725
 30
76.20499999999993
 40
0.32
  0
TEXT
  5
24E
330
17
100
AcDbEntity
  8
F4_ETIQUETAS
100
AcDbText
 10
124.6649999999674
 20
33.615000000037256
 30
76.20499999999993
 40
0.45
  1
M-0171 | Au 0.33 | Pot 0.32
 11
124.6649999999674
 21
33.615000000037256
 31
76.20499999999993
100
AcDbText
  0
POINT
  5
24F
330
17
100
AcDbEntity
  8
F4_AU_00_01
100
AcDbPoint
 10
122.2149999999674
 20
33.186999999918044
 30
76.20499999999993
  0
CIRCLE
  5
250
330
17
100
AcDbEntity
  8
F4_AU_00_01
100
AcDbCircle
 10
122.2149999999674
 20
33.186999999918044
 30
76.20499999999993
 40
0.32
  0
TEXT
  5
251
330
17
100
AcDbEntity
  8
F4_ETIQUETAS
100
AcDbText
 10
122.6649999999674
 20
33.63699999991805
 30
76.20499999999993
 40
0.45
  1
M-0172 | Au 0.80 | Pot 0.15
 11
122.6649999999674
 21
33.63699999991805
 31
76.20499999999993
100
AcDbText
  0
POINT
  5
252
330
17
100
AcDbEntity
  8
F4_AU_00_01
100
AcDbPoint
 10
130.16299999994226
 20
33.80099999997765
 30
76.10699999999997
  0
CIRCLE
  5
253
330
17
100
AcDbEntity
  8
F4_AU_00_01
100
AcDbCircle
 10
130.16299999994226
 20
33.80099999997765
 30
76.10699999999997
 40
0.32
  0
TEXT
  5
254
330
17
100
AcDbEntity
  8
F4_ETIQUETAS
100
AcDbText
 10
130.61299999994225
 20
34.25099999997765
 30
76.10699999999997
 40
0.45
  1
M-0173 | Au 0.19 | Pot 0.11
 11
130.61299999994225
 21
34.25099999997765
 31
76.10699999999997
100
AcDbText
  0
POINT
  5
255
330
17
100
AcDbEntity
  8
F4_AU_GE_50
100
AcDbPoint
 10
177.09799999999814
 20
29.06400000024587
 30
77.53599999999994
  0
CIRCLE
  5
256
330
17
100
AcDbEntity
  8
F4_AU_GE_50
100
AcDbCircle
 10
177.09799999999814
 20
29.06400000024587
 30
77.53599999999994
 40
0.5
  0
TEXT
  5
257
330
17
100
AcDbEntity
  8
F4_ETIQUETAS
100
AcDbText
 10
177.54799999999813
 20
29.51400000024587
 30
77.53599999999994
 40
0.45
  1
M-0174 | Au 65.59 | Pot 0.04
 11
177.54799999999813
 21
29.51400000024587
 31
77.53599999999994
100
AcDbText
  0
POINT
  5
258
330
17
100
AcDbEntity
  8
F4_AU_00_01
100
AcDbPoint
 10
175.11699999996927
 20
29.13800000026822
 30
77.53599999999994
  0
CIRCLE
  5
259
330
17
100
AcDbEntity
  8
F4_AU_00_01
100
AcDbCircle
 10
175.11699999996927
 20
29.13800000026822
 30
77.53599999999994
 40
0.32
  0
TEXT
  5
25A
330
17
100
AcDbEntity
  8
F4_ETIQUETAS
100
AcDbText
 10
175.56699999996925
 20
29.58800000026822
 30
77.53599999999994
 40
0.45
  1
M-0175 | Au 0.39 | Pot 0.03
 11
175.56699999996925
 21
29.58800000026822
 31
77.53599999999994
100
AcDbText
  0
POINT
  5
25B
330
17
100
AcDbEntity
  8
F4_AU_15_50
100
AcDbPoint
 10
173.11800000001676
 20
29.16899999976158
 30
77.53599999999994
  0
CIRCLE
  5
25C
330
17
100
AcDbEntity
  8
F4_AU_15_50
100
AcDbCircle
 10
173.11800000001676
 20
29.16899999976158
 30
77.53599999999994
 40
0.32
  0
TEXT
  5
25D
330
17
100
AcDbEntity
  8
F4_ETIQUETAS
100
AcDbText
 10
173.56800000001675
 20
29.61899999976158
 30
77.53599999999994
 40
0.45
  1
M-0176 | Au 25.99 | Pot 0.06
 11
173.56800000001675
 21
29.61899999976158
 31
77.53599999999994
100
AcDbText
  0
POINT
  5
25E
330
17
100
AcDbEntity
  8
F4_AU_GE_50
100
AcDbPoint
 10
171.12199999997392
 20
29.303000000305474
 30
76.18999999999994
  0
CIRCLE
  5
25F
330
17
100
AcDbEntity
  8
F4_AU_GE_50
100
AcDbCircle
 10
171.12199999997392
 20
29.303000000305474
 30
76.18999999999994
 40
0.5
  0
TEXT
  5
260
330
17
100
AcDbEntity
  8
F4_ETIQUETAS
100
AcDbText
 10
171.5719999999739
 20
29.753000000305473
 30
76.18999999999994
 40
0.45
  1
M-0177 | Au 55.55 | Pot 0.09
 11
171.5719999999739
 21
29.753000000305473
 31
76.18999999999994
100
AcDbText
  0
POINT
  5
261
330
17
100
AcDbEntity
  8
F4_AU_15_50
100
AcDbPoint
 10
169.1350000000093
 20
29.531000000424683
 30
76.18999999999994
  0
CIRCLE
  5
262
330
17
100
AcDbEntity
  8
F4_AU_15_50
100
AcDbCircle
 10
169.1350000000093
 20
29.531000000424683
 30
76.18999999999994
 40
0.32
  0
TEXT
  5
263
330
17
100
AcDbEntity
  8
F4_ETIQUETAS
100
AcDbText
 10
169.5850000000093
 20
29.981000000424682
 30
76.18999999999994
 40
0.45
  1
M-0178 | Au 17.66 | Pot 0.10
 11
169.5850000000093
 21
29.981000000424682
 31
76.18999999999994
100
AcDbText
  0
POINT
  5
264
330
17
100
AcDbEntity
  8
F4_AU_00_01
100
AcDbPoint
 10
167.14199999999255
 20
29.683000000193715
 30
76.18999999999994
  0
CIRCLE
  5
265
330
17
100
AcDbEntity
  8
F4_AU_00_01
100
AcDbCircle
 10
167.14199999999255
 20
29.683000000193715
 30
76.18999999999994
 40
0.32
  0
TEXT
  5
266
330
17
100
AcDbEntity
  8
F4_ETIQUETAS
100
AcDbText
 10
167.59199999999254
 20
30.133000000193714
 30
76.18999999999994
 40
0.45
  1
M-0179 | Au 0.16 | Pot 0.03
 11
167.59199999999254
 21
30.133000000193714
 31
76.18999999999994
100
AcDbText
  0
POINT
  5
267
330
17
100
AcDbEntity
  8
F4_AU_01_05
100
AcDbPoint
 10
165.14899999997579
 20
29.80599999986589
 30
76.18999999999994
  0
CIRCLE
  5
268
330
17
100
AcDbEntity
  8
F4_AU_01_05
100
AcDbCircle
 10
165.14899999997579
 20
29.80599999986589
 30
76.18999999999994
 40
0.32
  0
TEXT
  5
269
330
17
100
AcDbEntity
  8
F4_ETIQUETAS
100
AcDbText
 10
165.59899999997577
 20
30.25599999986589
 30
76.18999999999994
 40
0.45
  1
M-0180 | Au 2.16 | Pot 0.03
 11
165.59899999997577
 21
30.25599999986589
 31
76.18999999999994
100
AcDbText
  0
POINT
  5
26A
330
17
100
AcDbEntity
  8
F4_AU_00_01
100
AcDbPoint
 10
161.1699999999255
 20
30.154000000096858
 30
76.18999999999994
  0
CIRCLE
  5
26B
330
17
100
AcDbEntity
  8
F4_AU_00_01
100
AcDbCircle
 10
161.1699999999255
 20
30.154000000096858
 30
76.18999999999994
 40
0.32
  0
TEXT
  5
26C
330
17
100
AcDbEntity
  8
F4_ETIQUETAS
100
AcDbText
 10
161.61999999992548
 20
30.604000000096857
 30
76.18999999999994
 40
0.45
  1
M-0181 | Au 0.22 | Pot 0.03
 11
161.61999999992548
 21
30.604000000096857
 31
76.18999999999994
100
AcDbText
  0
POINT
  5
26D
330
17
100
AcDbEntity
  8
F4_AU_00_01
100
AcDbPoint
 10
159.1929999999702
 20
30.44400000013411
 30
76.18999999999994
  0
CIRCLE
  5
26E
330
17
100
AcDbEntity
  8
F4_AU_00_01
100
AcDbCircle
 10
159.1929999999702
 20
30.44400000013411
 30
76.18999999999994
 40
0.32
  0
TEXT
  5
26F
330
17
100
AcDbEntity
  8
F4_ETIQUETAS
100
AcDbText
 10
159.6429999999702
 20
30.89400000013411
 30
76.18999999999994
 40
0.45
  1
M-0182 | Au 0.18 | Pot 0.03
 11
159.6429999999702
 21
30.89400000013411
 31
76.18999999999994
100
AcDbText
  0
POINT
  5
270
330
17
100
AcDbEntity
  8
F4_AU_01_05
100
AcDbPoint
 10
157.2049999999581
 20
30.65000000037253
 30
76.18999999999994
  0
CIRCLE
  5
271
330
17
100
AcDbEntity
  8
F4_AU_01_05
100
AcDbCircle
 10
157.2049999999581
 20
30.65000000037253
 30
76.18999999999994
 40
0.32
  0
TEXT
  5
272
330
17
100
AcDbEntity
  8
F4_ETIQUETAS
100
AcDbText
 10
157.65499999995808
 20
31.10000000037253
 30
76.18999999999994
 40
0.45
  1
M-0183 | Au 1.13 | Pot 0.03
 11
157.65499999995808
 21
31.10000000037253
 31
76.18999999999994
100
AcDbText
  0
POINT
  5
273
330
17
100
AcDbEntity
  8
F4_AU_00_01
100
AcDbPoint
 10
155.21199999994133
 20
30.817999999970198
 30
75.49599999999998
  0
CIRCLE
  5
274
330
17
100
AcDbEntity
  8
F4_AU_00_01
100
AcDbCircle
 10
155.21199999994133
 20
30.817999999970198
 30
75.49599999999998
 40
0.32
  0
TEXT
  5
275
330
17
100
AcDbEntity
  8
F4_ETIQUETAS
100
AcDbText
 10
155.66199999994132
 20
31.267999999970197
 30
75.49599999999998
 40
0.45
  1
M-0184 | Au 0.69 | Pot 0.03
 11
155.66199999994132
 21
31.267999999970197
 31
75.49599999999998
100
AcDbText
  0
POINT
  5
276
330
17
100
AcDbEntity
  8
F4_AU_05_15
100
AcDbPoint
 10
153.21899999992456
 20
30.973000000230968
 30
75.49599999999998
  0
CIRCLE
  5
277
330
17
100
AcDbEntity
  8
F4_AU_05_15
100
AcDbCircle
 10
153.21899999992456
 20
30.973000000230968
 30
75.49599999999998
 40
0.32
  0
TEXT
  5
278
330
17
100
AcDbEntity
  8
F4_ETIQUETAS
100
AcDbText
 10
153.66899999992455
 20
31.423000000230967
 30
75.49599999999998
 40
0.45
  1
M-0185 | Au 12.62 | Pot 0.04
 11
153.66899999992455
 21
31.423000000230967
 31
75.49599999999998
100
AcDbText
  0
POINT
  5
279
330
17
100
AcDbEntity
  8
F4_AU_00_01
100
AcDbPoint
 10
151.22600000002421
 20
31.127000000327826
 30
75.49599999999998
  0
CIRCLE
  5
27A
330
17
100
AcDbEntity
  8
F4_AU_00_01
100
AcDbCircle
 10
151.22600000002421
 20
31.127000000327826
 30
75.49599999999998
 40
0.32
  0
TEXT
  5
27B
330
17
100
AcDbEntity
  8
F4_ETIQUETAS
100
AcDbText
 10
151.6760000000242
 20
31.577000000327825
 30
75.49599999999998
 40
0.45
  1
M-0186 | Au 0.75 | Pot 0.03
 11
151.6760000000242
 21
31.577000000327825
 31
75.49599999999998
100
AcDbText
  0
POINT
  5
27C
330
17
100
AcDbEntity
  8
F4_AU_00_01
100
AcDbPoint
 10
149.23600000003353
 20
31.32299999985844
 30
75.49599999999998
  0
CIRCLE
  5
27D
330
17
100
AcDbEntity
  8
F4_AU_00_01
100
AcDbCircle
 10
149.23600000003353
 20
31.32299999985844
 30
75.49599999999998
 40
0.32
  0
TEXT
  5
27E
330
17
100
AcDbEntity
  8
F4_ETIQUETAS
100
AcDbText
 10
149.68600000003352
 20
31.77299999985844
 30
75.49599999999998
 40
0.45
  1
M-0187 | Au 0.45 | Pot 0.03
 11
149.68600000003352
 21
31.77299999985844
 31
75.49599999999998
100
AcDbText
  0
POINT
  5
27F
330
17
100
AcDbEntity
  8
F4_AU_00_01
100
AcDbPoint
 10
147.2399999999907
 20
31.412000000476837
 30
75.49599999999998
  0
CIRCLE
  5
280
330
17
100
AcDbEntity
  8
F4_AU_00_01
100
AcDbCircle
 10
147.2399999999907
 20
31.412000000476837
 30
75.49599999999998
 40
0.32
  0
TEXT
  5
281
330
17
100
AcDbEntity
  8
F4_ETIQUETAS
100
AcDbText
 10
147.68999999999068
 20
31.862000000476836
 30
75.49599999999998
 40
0.45
  1
M-0188 | Au 0.53 | Pot 0.13
 11
147.68999999999068
 21
31.862000000476836
 31
75.49599999999998
100
AcDbText
  0
POINT
  5
282
330
17
100
AcDbEntity
  8
F4_AU_00_01
100
AcDbPoint
 10
145.28200000000652
 20
31.813000000081956
 30
75.81399999999996
  0
CIRCLE
  5
283
330
17
100
AcDbEntity
  8
F4_AU_00_01
100
AcDbCircle
 10
145.28200000000652
 20
31.813000000081956
 30
75.81399999999996
 40
0.32
  0
TEXT
  5
284
330
17
100
AcDbEntity
  8
F4_ETIQUETAS
100
AcDbText
 10
145.7320000000065
 20
32.26300000008196
 30
75.81399999999996
 40
0.45
  1
M-0189 | Au 0.32 | Pot 0.03
 11
145.7320000000065
 21
32.26300000008196
 31
75.81399999999996
100
AcDbText
  0
POINT
  5
285
330
17
100
AcDbEntity
  8
F4_AU_01_05
100
AcDbPoint
 10
143.3389999999199
 20
32.28899999987334
 30
75.81399999999996
  0
CIRCLE
  5
286
330
17
100
AcDbEntity
  8
F4_AU_01_05
100
AcDbCircle
 10
143.3389999999199
 20
32.28899999987334
 30
75.81399999999996
 40
0.32
  0
TEXT
  5
287
330
17
100
AcDbEntity
  8
F4_ETIQUETAS
100
AcDbText
 10
143.7889999999199
 20
32.73899999987334
 30
75.81399999999996
 40
0.45
  1
M-0190 | Au 3.12 | Pot 0.04
 11
143.7889999999199
 21
32.73899999987334
 31
75.81399999999996
100
AcDbText
  0
POINT
  5
288
330
17
100
AcDbEntity
  8
F4_AU_00_01
100
AcDbPoint
 10
141.3619999999646
 20
32.5679999999702
 30
75.81399999999996
  0
CIRCLE
  5
289
330
17
100
AcDbEntity
  8
F4_AU_00_01
100
AcDbCircle
 10
141.3619999999646
 20
32.5679999999702
 30
75.81399999999996
 40
0.32
  0
TEXT
  5
28A
330
17
100
AcDbEntity
  8
F4_ETIQUETAS
100
AcDbText
 10
141.8119999999646
 20
33.0179999999702
 30
75.81399999999996
 40
0.45
  1
M-0191 | Au 0.61 | Pot 0.06
 11
141.8119999999646
 21
33.0179999999702
 31
75.81399999999996
100
AcDbText
  0
POINT
  5
28B
330
17
100
AcDbEntity
  8
F4_AU_00_01
100
AcDbPoint
 10
139.37099999992643
 20
32.75700000021607
 30
75.81399999999996
  0
CIRCLE
  5
28C
330
17
100
AcDbEntity
  8
F4_AU_00_01
100
AcDbCircle
 10
139.37099999992643
 20
32.75700000021607
 30
75.81399999999996
 40
0.32
  0
TEXT
  5
28D
330
17
100
AcDbEntity
  8
F4_ETIQUETAS
100
AcDbText
 10
139.8209999999264
 20
33.20700000021607
 30
75.81399999999996
 40
0.45
  1
M-0192 | Au 0.64 | Pot 0.04
 11
139.8209999999264
 21
33.20700000021607
 31
75.81399999999996
100
AcDbText
  0
POINT
  5
28E
330
17
100
AcDbEntity
  8
F4_AU_01_05
100
AcDbPoint
 10
81.98710000002757
 20
47.103799999691546
 30
55.303
  0
CIRCLE
  5
28F
330
17
100
AcDbEntity
  8
F4_AU_01_05
100
AcDbCircle
 10
81.98710000002757
 20
47.103799999691546
 30
55.303
 40
0.32
  0
TEXT
  5
290
330
17
100
AcDbEntity
  8
F4_ETIQUETAS
100
AcDbText
 10
82.43710000002757
 20
47.55379999969155
 30
55.303
 40
0.45
  1
M-0193 | Au 4.55 | Pot 0.06
 11
82.43710000002757
 21
47.55379999969155
 31
55.303
100
AcDbText
  0
POINT
  5
291
330
17
100
AcDbEntity
  8
F4_AU_00_01
100
AcDbPoint
 10
83.97430000000168
 20
46.87800000049174
 30
55.21639999999991
  0
CIRCLE
  5
292
330
17
100
AcDbEntity
  8
F4_AU_00_01
100
AcDbCircle
 10
83.97430000000168
 20
46.87800000049174
 30
55.21639999999991
 40
0.32
  0
TEXT
  5
293
330
17
100
AcDbEntity
  8
F4_ETIQUETAS
100
AcDbText
 10
84.42430000000168
 20
47.32800000049174
 30
55.21639999999991
 40
0.45
  1
M-0194 | Au 0.44 | Pot 0.04
 11
84.42430000000168
 21
47.32800000049174
 31
55.21639999999991
100
AcDbText
  0
POINT
  5
294
330
17
100
AcDbEntity
  8
F4_AU_05_15
100
AcDbPoint
 10
85.70389999996405
 20
45.897699999623
 30
55.553
  0
CIRCLE
  5
295
330
17
100
AcDbEntity
  8
F4_AU_05_15
100
AcDbCircle
 10
85.70389999996405
 20
45.897699999623
 30
55.553
 40
0.32
  0
TEXT
  5
296
330
17
100
AcDbEntity
  8
F4_ETIQUETAS
100
AcDbText
 10
86.15389999996405
 20
46.347699999623
 30
55.553
 40
0.45
  1
M-0195 | Au 8.51 | Pot 0.08
 11
86.15389999996405
 21
46.347699999623
 31
55.553
100
AcDbText
  0
POINT
  5
297
330
17
100
AcDbEntity
  8
F4_AU_01_05
100
AcDbPoint
 10
87.40720000001602
 20
44.85879999957979
 30
55.450399999999945
  0
CIRCLE
  5
298
330
17
100
AcDbEntity
  8
F4_AU_01_05
100
AcDbCircle
 10
87.40720000001602
 20
44.85879999957979
 30
55.450399999999945
 40
0.32
  0
TEXT
  5
299
330
17
100
AcDbEntity
  8
F4_ETIQUETAS
100
AcDbText
 10
87.85720000001602
 20
45.30879999957979
 30
55.450399999999945
 40
0.45
  1
M-0196 | Au 3.38 | Pot 0.08
 11
87.85720000001602
 21
45.30879999957979
 31
55.450399999999945
100
AcDbText
  0
POINT
  5
29A
330
17
100
AcDbEntity
  8
F4_AU_15_50
100
AcDbPoint
 10
89.32140000001527
 20
44.36079999990761
 30
55.62189999999998
  0
CIRCLE
  5
29B
330
17
100
AcDbEntity
  8
F4_AU_15_50
100
AcDbCircle
 10
89.32140000001527
 20
44.36079999990761
 30
55.62189999999998
 40
0.32
  0
TEXT
  5
29C
330
17
100
AcDbEntity
  8
F4_ETIQUETAS
100
AcDbText
 10
89.77140000001528
 20
44.810799999907616
 30
55.62189999999998
 40
0.45
  1
M-0197 | Au 34.27 | Pot 0.20
 11
89.77140000001528
 21
44.810799999907616
 31
55.62189999999998
100
AcDbText
  0
POINT
  5
29D
330
17
100
AcDbEntity
  8
F4_AU_01_05
100
AcDbPoint
 10
120.2149999999674
 20
33.186999999918044
 30
76.56899999999996
  0
CIRCLE
  5
29E
330
17
100
AcDbEntity
  8
F4_AU_01_05
100
AcDbCircle
 10
120.2149999999674
 20
33.186999999918044
 30
76.56899999999996
 40
0.32
  0
TEXT
  5
29F
330
17
100
AcDbEntity
  8
F4_ETIQUETAS
100
AcDbText
 10
120.6649999999674
 20
33.63699999991805
 30
76.56899999999996
 40
0.45
  1
M-0198 | Au 3.30 | Pot 0.13
 11
120.6649999999674
 21
33.63699999991805
 31
76.56899999999996
100
AcDbText
  0
POINT
  5
2A0
330
17
100
AcDbEntity
  8
F4_AU_GE_50
100
AcDbPoint
 10
118.2149999999674
 20
33.186999999918044
 30
76.74799999999993
  0
CIRCLE
  5
2A1
330
17
100
AcDbEntity
  8
F4_AU_GE_50
100
AcDbCircle
 10
118.2149999999674
 20
33.186999999918044
 30
76.74799999999993
 40
0.5
  0
TEXT
  5
2A2
330
17
100
AcDbEntity
  8
F4_ETIQUETAS
100
AcDbText
 10
118.6649999999674
 20
33.63699999991805
 30
76.74799999999993
 40
0.45
  1
M-0199 | Au 132.64 | Pot 0.14
 11
118.6649999999674
 21
33.63699999991805
 31
76.74799999999993
100
AcDbText
  0
POINT
  5
2A3
330
17
100
AcDbEntity
  8
F4_AU_01_05
100
AcDbPoint
 10
116.2149999999674
 20
33.186999999918044
 30
76.88099999999997
  0
CIRCLE
  5
2A4
330
17
100
AcDbEntity
  8
F4_AU_01_05
100
AcDbCircle
 10
116.2149999999674
 20
33.186999999918044
 30
76.88099999999997
 40
0.32
  0
TEXT
  5
2A5
330
17
100
AcDbEntity
  8
F4_ETIQUETAS
100
AcDbText
 10
116.6649999999674
 20
33.63699999991805
 30
76.88099999999997
 40
0.45
  1
M-0200 | Au 3.72 | Pot 0.15
 11
116.6649999999674
 21
33.63699999991805
 31
76.88099999999997
100
AcDbText
  0
POINT
  5
2A6
330
17
100
AcDbEntity
  8
F4_AU_01_05
100
AcDbPoint
 10
114.22199999995064
 20
33.26200000010431
 30
76.94899999999996
  0
CIRCLE
  5
2A7
330
17
100
AcDbEntity
  8
F4_AU_01_05
100
AcDbCircle
 10
114.22199999995064
 20
33.26200000010431
 30
76.94899999999996
 40
0.32
  0
TEXT
  5
2A8
330
17
100
AcDbEntity
  8
F4_ETIQUETAS
100
AcDbText
 10
114.67199999995064
 20
33.71200000010431
 30
76.94899999999996
 40
0.45
  1
M-0201 | Au 3.09 | Pot 0.11
 11
114.67199999995064
 21
33.71200000010431
 31
76.94899999999996
100
AcDbText
  0
POINT
  5
2A9
330
17
100
AcDbEntity
  8
F4_AU_00_01
100
AcDbPoint
 10
91.32140000001527
 20
44.36079999990761
 30
55.865099999999984
  0
CIRCLE
  5
2AA
330
17
100
AcDbEntity
  8
F4_AU_00_01
100
AcDbCircle
 10
91.32140000001527
 20
44.36079999990761
 30
55.865099999999984
 40
0.32
  0
TEXT
  5
2AB
330
17
100
AcDbEntity
  8
F4_ETIQUETAS
100
AcDbText
 10
91.77140000001528
 20
44.810799999907616
 30
55.865099999999984
 40
0.45
  1
M-0202 | Au 0.44 | Pot 0.10
 11
91.77140000001528
 21
44.810799999907616
 31
55.865099999999984
100
AcDbText
  0
POINT
  5
2AC
330
17
100
AcDbEntity
  8
F4_AU_00_01
100
AcDbPoint
 10
93.31810000003316
 20
44.25729999970645
 30
55.78120000000001
  0
CIRCLE
  5
2AD
330
17
100
AcDbEntity
  8
F4_AU_00_01
100
AcDbCircle
 10
93.31810000003316
 20
44.25729999970645
 30
55.78120000000001
 40
0.32
  0
TEXT
  5
2AE
330
17
100
AcDbEntity
  8
F4_ETIQUETAS
100
AcDbText
 10
93.76810000003316
 20
44.70729999970645
 30
55.78120000000001
 40
0.45
  1
M-0203 | Au 0.24 | Pot 0.24
 11
93.76810000003316
 21
44.70729999970645
 31
55.78120000000001
100
AcDbText
  0
POINT
  5
2AF
330
17
100
AcDbEntity
  8
F4_AU_05_15
100
AcDbPoint
 10
95.31409999995958
 20
44.13009999971837
 30
55.65199999999993
  0
CIRCLE
  5
2B0
330
17
100
AcDbEntity
  8
F4_AU_05_15
100
AcDbCircle
 10
95.31409999995958
 20
44.13009999971837
 30
55.65199999999993
 40
0.32
  0
TEXT
  5
2B1
330
17
100
AcDbEntity
  8
F4_ETIQUETAS
100
AcDbText
 10
95.76409999995958
 20
44.58009999971837
 30
55.65199999999993
 40
0.45
  1
M-0204 | Au 6.23 | Pot 0.20
 11
95.76409999995958
 21
44.58009999971837
 31
55.65199999999993
100
AcDbText
  0
POINT
  5
2B2
330
17
100
AcDbEntity
  8
F4_AU_05_15
100
AcDbPoint
 10
97.30589999991935
 20
44.20230000000447
 30
55.67199999999991
  0
CIRCLE
  5
2B3
330
17
100
AcDbEntity
  8
F4_AU_05_15
100
AcDbCircle
 10
97.30589999991935
 20
44.20230000000447
 30
55.67199999999991
 40
0.32
  0
TEXT
  5
2B4
330
17
100
AcDbEntity
  8
F4_ETIQUETAS
100
AcDbText
 10
97.75589999991935
 20
44.65230000000447
 30
55.67199999999991
 40
0.45
  1
M-0205 | Au 13.91 | Pot 0.10
 11
97.75589999991935
 21
44.65230000000447
 31
55.67199999999991
100
AcDbText
  0
POINT
  5
2B5
330
17
100
AcDbEntity
  8
F4_AU_01_05
100
AcDbPoint
 10
99.29940000001807
 20
44.309100000187755
 30
55.826799999999935
  0
CIRCLE
  5
2B6
330
17
100
AcDbEntity
  8
F4_AU_01_05
100
AcDbCircle
 10
99.29940000001807
 20
44.309100000187755
 30
55.826799999999935
 40
0.32
  0
TEXT
  5
2B7
330
17
100
AcDbEntity
  8
F4_ETIQUETAS
100
AcDbText
 10
99.74940000001807
 20
44.75910000018776
 30
55.826799999999935
 40
0.45
  1
M-0206 | Au 2.79 | Pot 0.13
 11
99.74940000001807
 21
44.75910000018776
 31
55.826799999999935
100
AcDbText
  0
POINT
  5
2B8
330
17
100
AcDbEntity
  8
F4_AU_01_05
100
AcDbPoint
 10
101.29920000000857
 20
44.279099999926984
 30
55.92999999999995
  0
CIRCLE
  5
2B9
330
17
100
AcDbEntity
  8
F4_AU_01_05
100
AcDbCircle
 10
101.29920000000857
 20
44.279099999926984
 30
55.92999999999995
 40
0.32
  0
TEXT
  5
2BA
330
17
100
AcDbEntity
  8
F4_ETIQUETAS
100
AcDbText
 10
101.74920000000857
 20
44.72909999992699
 30
55.92999999999995
 40
0.45
  1
M-0207 | Au 2.44 | Pot 0.18
 11
101.74920000000857
 21
44.72909999992699
 31
55.92999999999995
100
AcDbText
  0
POINT
  5
2BB
330
17
100
AcDbEntity
  8
F4_AU_01_05
100
AcDbPoint
 10
112.25699999998324
 20
33.63200000021607
 30
77.01799999999992
  0
CIRCLE
  5
2BC
330
17
100
AcDbEntity
  8
F4_AU_01_05
100
AcDbCircle
 10
112.25699999998324
 20
33.63200000021607
 30
77.01799999999992
 40
0.32
  0
TEXT
  5
2BD
330
17
100
AcDbEntity
  8
F4_ETIQUETAS
100
AcDbText
 10
112.70699999998324
 20
34.08200000021607
 30
77.01799999999992
 40
0.45
  1
M-0208 | Au 1.32 | Pot 0.04
 11
112.70699999998324
 21
34.08200000021607
 31
77.01799999999992
100
AcDbText
  0
POINT
  5
2BE
330
17
100
AcDbEntity
  8
F4_AU_01_05
100
AcDbPoint
 10
110.28999999992084
 20
33.99299999978393
 30
77.08699999999999
  0
CIRCLE
  5
2BF
330
17
100
AcDbEntity
  8
F4_AU_01_05
100
AcDbCircle
 10
110.28999999992084
 20
33.99299999978393
 30
77.08699999999999
 40
0.32
  0
TEXT
  5
2C0
330
17
100
AcDbEntity
  8
F4_ETIQUETAS
100
AcDbText
 10
110.73999999992084
 20
34.442999999783936
 30
77.08699999999999
 40
0.45
  1
M-0209 | Au 1.20 | Pot 0.34
 11
110.73999999992084
 21
34.442999999783936
 31
77.08699999999999
100
AcDbText
  0
POINT
  5
2C1
330
17
100
AcDbEntity
  8
F4_AU_00_01
100
AcDbPoint
 10
108.30999999993946
 20
34.274000000208616
 30
77.15699999999993
  0
CIRCLE
  5
2C2
330
17
100
AcDbEntity
  8
F4_AU_00_01
100
AcDbCircle
 10
108.30999999993946
 20
34.274000000208616
 30
77.15699999999993
 40
0.32
  0
TEXT
  5
2C3
330
17
100
AcDbEntity
  8
F4_ETIQUETAS
100
AcDbText
 10
108.75999999993947
 20
34.72400000020862
 30
77.15699999999993
 40
0.45
  1
M-0210 | Au 0.27 | Pot 0.18
 11
108.75999999993947
 21
34.72400000020862
 31
77.15699999999993
100
AcDbText
  0
POINT
  5
2C4
330
17
100
AcDbEntity
  8
F4_AU_01_05
100
AcDbPoint
 10
106.32999999995809
 20
34.55599999986589
 30
77.22699999999998
  0
CIRCLE
  5
2C5
330
17
100
AcDbEntity
  8
F4_AU_01_05
100
AcDbCircle
 10
106.32999999995809
 20
34.55599999986589
 30
77.22699999999998
 40
0.32
  0
TEXT
  5
2C6
330
17
100
AcDbEntity
  8
F4_ETIQUETAS
100
AcDbText
 10
106.7799999999581
 20
35.00599999986589
 30
77.22699999999998
 40
0.45
  1
M-0211 | Au 3.20 | Pot 0.10
 11
106.7799999999581
 21
35.00599999986589
 31
77.22699999999998
100
AcDbText
  0
POINT
  5
2C7
330
17
100
AcDbEntity
  8
F4_AU_00_01
100
AcDbPoint
 10
104.34999999997672
 20
34.838000000454485
 30
77.29699999999991
  0
CIRCLE
  5
2C8
330
17
100
AcDbEntity
  8
F4_AU_00_01
100
AcDbCircle
 10
104.34999999997672
 20
34.838000000454485
 30
77.29699999999991
 40
0.32
  0
TEXT
  5
2C9
330
17
100
AcDbEntity
  8
F4_ETIQUETAS
100
AcDbText
 10
104.79999999997672
 20
35.28800000045449
 30
77.29699999999991
 40
0.45
  1
M-0212 | Au 0.55 | Pot 0.58
 11
104.79999999997672
 21
35.28800000045449
 31
77.29699999999991
100
AcDbText
  0
POINT
  5
2CA
330
17
100
AcDbEntity
  8
F4_AU_01_05
100
AcDbPoint
 10
102.3519999999553
 20
34.87800000049174
 30
77.33600000000001
  0
CIRCLE
  5
2CB
330
17
100
AcDbEntity
  8
F4_AU_01_05
100
AcDbCircle
 10
102.3519999999553
 20
34.87800000049174
 30
77.33600000000001
 40
0.32
  0
TEXT
  5
2CC
330
17
100
AcDbEntity
  8
F4_ETIQUETAS
100
AcDbText
 10
102.8019999999553
 20
35.32800000049174
 30
77.33600000000001
 40
0.45
  1
M-0213 | Au 4.34 | Pot 0.19
 11
102.8019999999553
 21
35.32800000049174
 31
77.33600000000001
100
AcDbText
  0
POINT
  5
2CD
330
17
100
AcDbEntity
  8
F4_AU_01_05
100
AcDbPoint
 10
100.36699999996927
 20
34.66799999959767
 30
77.33699999999999
  0
CIRCLE
  5
2CE
330
17
100
AcDbEntity
  8
F4_AU_01_05
100
AcDbCircle
 10
100.36699999996927
 20
34.66799999959767
 30
77.33699999999999
 40
0.32
  0
TEXT
  5
2CF
330
17
100
AcDbEntity
  8
F4_ETIQUETAS
100
AcDbText
 10
100.81699999996927
 20
35.11799999959767
 30
77.33699999999999
 40
0.45
  1
M-0214 | Au 1.45 | Pot 0.06
 11
100.81699999996927
 21
35.11799999959767
 31
77.33699999999999
100
AcDbText
  0
POINT
  5
2D0
330
17
100
AcDbEntity
  8
F4_AU_05_15
100
AcDbPoint
 10
98.375
 20
34.49600000027567
 30
77.33699999999999
  0
CIRCLE
  5
2D1
330
17
100
AcDbEntity
  8
F4_AU_05_15
100
AcDbCircle
 10
98.375
 20
34.49600000027567
 30
77.33699999999999
 40
0.32
  0
TEXT
  5
2D2
330
17
100
AcDbEntity
  8
F4_ETIQUETAS
100
AcDbText
 10
98.825
 20
34.946000000275674
 30
77.33699999999999
 40
0.45
  1
M-0215 | Au 14.75 | Pot 0.17
 11
98.825
 21
34.946000000275674
 31
77.33699999999999
100
AcDbText
  0
POINT
  5
2D3
330
17
100
AcDbEntity
  8
F4_AU_15_50
100
AcDbPoint
 10
96.37899999995716
 20
34.50800000037998
 30
77.33699999999999
  0
CIRCLE
  5
2D4
330
17
100
AcDbEntity
  8
F4_AU_15_50
100
AcDbCircle
 10
96.37899999995716
 20
34.50800000037998
 30
77.33699999999999
 40
0.32
  0
TEXT
  5
2D5
330
17
100
AcDbEntity
  8
F4_ETIQUETAS
100
AcDbText
 10
96.82899999995716
 20
34.95800000037998
 30
77.33699999999999
 40
0.45
  1
M-0216 | Au 36.17 | Pot 0.11
 11
96.82899999995716
 21
34.95800000037998
 31
77.33699999999999
100
AcDbText
  0
POINT
  5
2D6
330
17
100
AcDbEntity
  8
F4_AU_01_05
100
AcDbPoint
 10
94.38300000003073
 20
34.62999999988824
 30
77.33699999999999
  0
CIRCLE
  5
2D7
330
17
100
AcDbEntity
  8
F4_AU_01_05
100
AcDbCircle
 10
94.38300000003073
 20
34.62999999988824
 30
77.33699999999999
 40
0.32
  0
TEXT
  5
2D8
330
17
100
AcDbEntity
  8
F4_ETIQUETAS
100
AcDbText
 10
94.83300000003074
 20
35.079999999888244
 30
77.33699999999999
 40
0.45
  1
M-0217 | Au 3.63 | Pot 0.13
 11
94.83300000003074
 21
35.079999999888244
 31
77.33699999999999
100
AcDbText
  0
POINT
  5
2D9
330
17
100
AcDbEntity
  8
F4_AU_15_50
100
AcDbPoint
 10
92.38699999998789
 20
34.74600000027567
 30
77.33699999999999
  0
CIRCLE
  5
2DA
330
17
100
AcDbEntity
  8
F4_AU_15_50
100
AcDbCircle
 10
92.38699999998789
 20
34.74600000027567
 30
77.33699999999999
 40
0.32
  0
TEXT
  5
2DB
330
17
100
AcDbEntity
  8
F4_ETIQUETAS
100
AcDbText
 10
92.8369999999879
 20
35.196000000275674
 30
77.33699999999999
 40
0.45
  1
M-0218 | Au 15.57 | Pot 0.25
 11
92.8369999999879
 21
35.196000000275674
 31
77.33699999999999
100
AcDbText
  0
POINT
  5
2DC
330
17
100
AcDbEntity
  8
F4_AU_GE_50
100
AcDbPoint
 10
90.39299999992363
 20
34.59499999973923
 30
77.33699999999999
  0
CIRCLE
  5
2DD
330
17
100
AcDbEntity
  8
F4_AU_GE_50
100
AcDbCircle
 10
90.39299999992363
 20
34.59499999973923
 30
77.33699999999999
 40
0.5
  0
TEXT
  5
2DE
330
17
100
AcDbEntity
  8
F4_ETIQUETAS
100
AcDbText
 10
90.84299999992363
 20
35.04499999973923
 30
77.33699999999999
 40
0.45
  1
M-0219 | Au 111.97 | Pot 0.16
 11
90.84299999992363
 21
35.04499999973923
 31
77.33699999999999
100
AcDbText
  0
POINT
  5
2DF
330
17
100
AcDbEntity
  8
F4_AU_00_01
100
AcDbPoint
 10
88.39299999992363
 20
34.59499999973923
 30
77.33699999999999
  0
CIRCLE
  5
2E0
330
17
100
AcDbEntity
  8
F4_AU_00_01
100
AcDbCircle
 10
88.39299999992363
 20
34.59499999973923
 30
77.33699999999999
 40
0.32
  0
TEXT
  5
2E1
330
17
100
AcDbEntity
  8
F4_ETIQUETAS
100
AcDbText
 10
88.84299999992363
 20
35.04499999973923
 30
77.33699999999999
 40
0.45
  1
M-0220 | Au 0.89 | Pot 0.10
 11
88.84299999992363
 21
35.04499999973923
 31
77.33699999999999
100
AcDbText
  0
POINT
  5
2E2
330
17
100
AcDbEntity
  8
F4_AU_15_50
100
AcDbPoint
 10
211.62099999992643
 20
17.976999999955297
 30
92.79499999999996
  0
CIRCLE
  5
2E3
330
17
100
AcDbEntity
  8
F4_AU_15_50
100
AcDbCircle
 10
211.62099999992643
 20
17.976999999955297
 30
92.79499999999996
 40
0.32
  0
TEXT
  5
2E4
330
17
100
AcDbEntity
  8
F4_ETIQUETAS
100
AcDbText
 10
212.0709999999264
 20
18.426999999955296
 30
92.79499999999996
 40
0.45
  1
M-0221 | Au 30.48 | Pot 0.32
 11
212.0709999999264
 21
18.426999999955296
 31
92.79499999999996
100
AcDbText
  0
POINT
  5
2E5
330
17
100
AcDbEntity
  8
F4_AU_GE_50
100
AcDbPoint
 10
213.61899999994785
 20
17.940000000409782
 30
93.4079999999999
  0
CIRCLE
  5
2E6
330
17
100
AcDbEntity
  8
F4_AU_GE_50
100
AcDbCircle
 10
213.61899999994785
 20
17.940000000409782
 30
93.4079999999999
 40
0.5
  0
TEXT
  5
2E7
330
17
100
AcDbEntity
  8
F4_ETIQUETAS
100
AcDbText
 10
214.06899999994783
 20
18.39000000040978
 30
93.4079999999999
 40
0.45
  1
M-0222 | Au 94.87 | Pot 0.13
 11
214.06899999994783
 21
18.39000000040978
 31
93.4079999999999
100
AcDbText
  0
POINT
  5
2E8
330
17
100
AcDbEntity
  8
F4_AU_15_50
100
AcDbPoint
 10
215.60800000000745
 20
17.739000000059605
 30
93.91999999999996
  0
CIRCLE
  5
2E9
330
17
100
AcDbEntity
  8
F4_AU_15_50
100
AcDbCircle
 10
215.60800000000745
 20
17.739000000059605
 30
93.91999999999996
 40
0.32
  0
TEXT
  5
2EA
330
17
100
AcDbEntity
  8
F4_ETIQUETAS
100
AcDbText
 10
216.05800000000744
 20
18.189000000059604
 30
93.91999999999996
 40
0.45
  1
M-0223 | Au 26.05 | Pot 0.10
 11
216.05800000000744
 21
18.189000000059604
 31
93.91999999999996
100
AcDbText
  0
POINT
  5
2EB
330
17
100
AcDbEntity
  8
F4_AU_15_50
100
AcDbPoint
 10
217.53599999996368
 20
17.218000000342727
 30
94.03899999999999
  0
CIRCLE
  5
2EC
330
17
100
AcDbEntity
  8
F4_AU_15_50
100
AcDbCircle
 10
217.53599999996368
 20
17.218000000342727
 30
94.03899999999999
 40
0.32
  0
TEXT
  5
2ED
330
17
100
AcDbEntity
  8
F4_ETIQUETAS
100
AcDbText
 10
217.98599999996367
 20
17.668000000342726
 30
94.03899999999999
 40
0.45
  1
M-0224 | Au 27.19 | Pot 0.17
 11
217.98599999996367
 21
17.668000000342726
 31
94.03899999999999
100
AcDbText
  0
POINT
  5
2EE
330
17
100
AcDbEntity
  8
F4_AU_15_50
100
AcDbPoint
 10
219.45100000000093
 20
16.644000000320375
 30
94.14699999999993
  0
CIRCLE
  5
2EF
330
17
100
AcDbEntity
  8
F4_AU_15_50
100
AcDbCircle
 10
219.45100000000093
 20
16.644000000320375
 30
94.14699999999993
 40
0.32
  0
TEXT
  5
2F0
330
17
100
AcDbEntity
  8
F4_ETIQUETAS
100
AcDbText
 10
219.90100000000092
 20
17.094000000320374
 30
94.14699999999993
 40
0.45
  1
M-0225 | Au 15.20 | Pot 0.04
 11
219.90100000000092
 21
17.094000000320374
 31
94.14699999999993
100
AcDbText
  0
POINT
  5
2F1
330
17
100
AcDbEntity
  8
F4_AU_01_05
100
AcDbPoint
 10
221.3869999999879
 20
16.15500000026077
 30
94.24699999999996
  0
CIRCLE
  5
2F2
330
17
100
AcDbEntity
  8
F4_AU_01_05
100
AcDbCircle
 10
221.3869999999879
 20
16.15500000026077
 30
94.24699999999996
 40
0.32
  0
TEXT
  5
2F3
330
17
100
AcDbEntity
  8
F4_ETIQUETAS
100
AcDbText
 10
221.83699999998788
 20
16.60500000026077
 30
94.24699999999996
 40
0.45
  1
M-0226 | Au 3.31 | Pot 0.20
 11
221.83699999998788
 21
16.60500000026077
 31
94.24699999999996
100
AcDbText
  0
POINT
  5
2F4
330
17
100
AcDbEntity
  8
F4_AU_01_05
100
AcDbPoint
 10
223.35800000000745
 20
15.81400000024587
 30
94.34899999999993
  0
CIRCLE
  5
2F5
330
17
100
AcDbEntity
  8
F4_AU_01_05
100
AcDbCircle
 10
223.35800000000745
 20
15.81400000024587
 30
94.34899999999993
 40
0.32
  0
TEXT
  5
2F6
330
17
100
AcDbEntity
  8
F4_ETIQUETAS
100
AcDbText
 10
223.80800000000744
 20
16.26400000024587
 30
94.34899999999993
 40
0.45
  1
M-0227 | Au 4.06 | Pot 0.20
 11
223.80800000000744
 21
16.26400000024587
 31
94.34899999999993
100
AcDbText
  0
POINT
  5
2F7
330
17
100
AcDbEntity
  8
F4_AU_00_01
100
AcDbPoint
 10
225.33299999998417
 20
15.502000000327826
 30
94.447
  0
CIRCLE
  5
2F8
330
17
100
AcDbEntity
  8
F4_AU_00_01
100
AcDbCircle
 10
225.33299999998417
 20
15.502000000327826
 30
94.447
 40
0.32
  0
TEXT
  5
2F9
330
17
100
AcDbEntity
  8
F4_ETIQUETAS
100
AcDbText
 10
225.78299999998416
 20
15.952000000327825
 30
94.447
 40
0.45
  1
M-0228 | Au 0.89 | Pot 0.24
 11
225.78299999998416
 21
15.952000000327825
 31
94.447
100
AcDbText
  0
POINT
  5
2FA
330
17
100
AcDbEntity
  8
F4_AU_15_50
100
AcDbPoint
 10
227.32600000000093
 20
15.378999999724329
 30
94.52599999999995
  0
CIRCLE
  5
2FB
330
17
100
AcDbEntity
  8
F4_AU_15_50
100
AcDbCircle
 10
227.32600000000093
 20
15.378999999724329
 30
94.52599999999995
 40
0.32
  0
TEXT
  5
2FC
330
17
100
AcDbEntity
  8
F4_ETIQUETAS
100
AcDbText
 10
227.77600000000092
 20
15.828999999724328
 30
94.52599999999995
 40
0.45
  1
M-0229 | Au 22.80 | Pot 0.09
 11
227.77600000000092
 21
15.828999999724328
 31
94.52599999999995
100
AcDbText
  0
POINT
  5
2FD
330
17
100
AcDbEntity
  8
F4_AU_05_15
100
AcDbPoint
 10
229.32099999999627
 20
15.279000000096858
 30
94.44399999999996
  0
CIRCLE
  5
2FE
330
17
100
AcDbEntity
  8
F4_AU_05_15
100
AcDbCircle
 10
229.32099999999627
 20
15.279000000096858
 30
94.44399999999996
 40
0.32
  0
TEXT
  5
2FF
330
17
100
AcDbEntity
  8
F4_ETIQUETAS
100
AcDbText
 10
229.77099999999626
 20
15.729000000096857
 30
94.44399999999996
 40
0.45
  1
M-0230 | Au 5.20 | Pot 0.30
 11
229.77099999999626
 21
15.729000000096857
 31
94.44399999999996
100
AcDbText
  0
POINT
  5
300
330
17
100
AcDbEntity
  8
F4_AU_01_05
100
AcDbPoint
 10
231.27599999995437
 20
14.860000000335276
 30
94.37299999999993
  0
CIRCLE
  5
301
330
17
100
AcDbEntity
  8
F4_AU_01_05
100
AcDbCircle
 10
231.27599999995437
 20
14.860000000335276
 30
94.37299999999993
 40
0.32
  0
TEXT
  5
302
330
17
100
AcDbEntity
  8
F4_ETIQUETAS
100
AcDbText
 10
231.72599999995435
 20
15.310000000335275
 30
94.37299999999993
 40
0.45
  1
M-0231 | Au 1.45 | Pot 0.13
 11
231.72599999995435
 21
15.310000000335275
 31
94.37299999999993
100
AcDbText
  0
POINT
  5
303
330
17
100
AcDbEntity
  8
F4_AU_15_50
100
AcDbPoint
 10
233.24300000001676
 20
14.50899999961257
 30
94.30499999999995
  0
CIRCLE
  5
304
330
17
100
AcDbEntity
  8
F4_AU_15_50
100
AcDbCircle
 10
233.24300000001676
 20
14.50899999961257
 30
94.30499999999995
 40
0.32
  0
TEXT
  5
305
330
17
100
AcDbEntity
  8
F4_ETIQUETAS
100
AcDbText
 10
233.69300000001675
 20
14.958999999612569
 30
94.30499999999995
 40
0.45
  1
M-0232 | Au 19.28 | Pot 0.10
 11
233.69300000001675
 21
14.958999999612569
 31
94.30499999999995
100
AcDbText
  0
POINT
  5
306
330
17
100
AcDbEntity
  8
F4_AU_05_15
100
AcDbPoint
 10
235.2380000000121
 20
14.524000000208616
 30
94.23799999999994
  0
CIRCLE
  5
307
330
17
100
AcDbEntity
  8
F4_AU_05_15
100
AcDbCircle
 10
235.2380000000121
 20
14.524000000208616
 30
94.23799999999994
 40
0.32
  0
TEXT
  5
308
330
17
100
AcDbEntity
  8
F4_ETIQUETAS
100
AcDbText
 10
235.6880000000121
 20
14.974000000208616
 30
94.23799999999994
 40
0.45
  1
M-0233 | Au 9.13 | Pot 0.12
 11
235.6880000000121
 21
14.974000000208616
 31
94.23799999999994
100
AcDbText
  0
POINT
  5
309
330
17
100
AcDbEntity
  8
F4_AU_05_15
100
AcDbPoint
 10
237.22399999992922
 20
14.294999999925494
 30
94.29699999999991
  0
CIRCLE
  5
30A
330
17
100
AcDbEntity
  8
F4_AU_05_15
100
AcDbCircle
 10
237.22399999992922
 20
14.294999999925494
 30
94.29699999999991
 40
0.32
  0
TEXT
  5
30B
330
17
100
AcDbEntity
  8
F4_ETIQUETAS
100
AcDbText
 10
237.6739999999292
 20
14.744999999925493
 30
94.29699999999991
 40
0.45
  1
M-0234 | Au 12.50 | Pot 0.18
 11
237.6739999999292
 21
14.744999999925493
 31
94.29699999999991
100
AcDbText
  0
POINT
  5
30C
330
17
100
AcDbEntity
  8
F4_AU_15_50
100
AcDbPoint
 10
239.21899999992456
 20
14.156999999657273
 30
94.6289999999999
  0
CIRCLE
  5
30D
330
17
100
AcDbEntity
  8
F4_AU_15_50
100
AcDbCircle
 10
239.21899999992456
 20
14.156999999657273
 30
94.6289999999999
 40
0.32
  0
TEXT
  5
30E
330
17
100
AcDbEntity
  8
F4_ETIQUETAS
100
AcDbText
 10
239.66899999992455
 20
14.606999999657273
 30
94.6289999999999
 40
0.45
  1
M-0235 | Au 29.40 | Pot 0.10
 11
239.66899999992455
 21
14.606999999657273
 31
94.6289999999999
100
AcDbText
  0
POINT
  5
30F
330
17
100
AcDbEntity
  8
F4_AU_05_15
100
AcDbPoint
 10
241.21799999999348
 20
14.08600000012666
 30
93.88199999999995
  0
CIRCLE
  5
310
330
17
100
AcDbEntity
  8
F4_AU_05_15
100
AcDbCircle
 10
241.21799999999348
 20
14.08600000012666
 30
93.88199999999995
 40
0.32
  0
TEXT
  5
311
330
17
100
AcDbEntity
  8
F4_ETIQUETAS
100
AcDbText
 10
241.66799999999347
 20
14.53600000012666
 30
93.88199999999995
 40
0.45
  1
M-0236 | Au 12.16 | Pot 0.04
 11
241.66799999999347
 21
14.53600000012666
 31
93.88199999999995
100
AcDbText
  0
POINT
  5
312
330
17
100
AcDbEntity
  8
F4_AU_15_50
100
AcDbPoint
 10
207.27599999995437
 20
17.99199999962002
 30
92.19899999999996
  0
CIRCLE
  5
313
330
17
100
AcDbEntity
  8
F4_AU_15_50
100
AcDbCircle
 10
207.27599999995437
 20
17.99199999962002
 30
92.19899999999996
 40
0.32
  0
TEXT
  5
314
330
17
100
AcDbEntity
  8
F4_ETIQUETAS
100
AcDbText
 10
207.72599999995435
 20
18.44199999962002
 30
92.19899999999996
 40
0.45
  1
M-0237 | Au 37.75 | Pot 0.48
 11
207.72599999995435
 21
18.44199999962002
 31
92.19899999999996
100
AcDbText
  0
POINT
  5
315
330
17
100
AcDbEntity
  8
F4_AU_15_50
100
AcDbPoint
 10
205.27599999995437
 20
17.998999999836087
 30
92.09499999999991
  0
CIRCLE
  5
316
330
17
100
AcDbEntity
  8
F4_AU_15_50
100
AcDbCircle
 10
205.27599999995437
 20
17.998999999836087
 30
92.09499999999991
 40
0.32
  0
TEXT
  5
317
330
17
100
AcDbEntity
  8
F4_ETIQUETAS
100
AcDbText
 10
205.72599999995435
 20
18.448999999836087
 30
92.09499999999991
 40
0.45
  1
M-0238 | Au 15.67 | Pot 0.07
 11
205.72599999995435
 21
18.448999999836087
 31
92.09499999999991
100
AcDbText
  0
POINT
  5
318
330
17
100
AcDbEntity
  8
F4_AU_GE_50
100
AcDbPoint
 10
203.28099999995902
 20
18.09499999973923
 30
91.98699999999997
  0
CIRCLE
  5
319
330
17
100
AcDbEntity
  8
F4_AU_GE_50
100
AcDbCircle
 10
203.28099999995902
 20
18.09499999973923
 30
91.98699999999997
 40
0.5
  0
TEXT
  5
31A
330
17
100
AcDbEntity
  8
F4_ETIQUETAS
100
AcDbText
 10
203.730999999959
 20
18.54499999973923
 30
91.98699999999997
 40
0.45
  1
M-0239 | Au 209.01 | Pot 0.17
 11
203.730999999959
 21
18.54499999973923
 31
91.98699999999997
100
AcDbText
  0
POINT
  5
31B
330
17
100
AcDbEntity
  8
F4_AU_01_05
100
AcDbPoint
 10
201.28200000000652
 20
18.03000000026077
 30
91.98699999999997
  0
CIRCLE
  5
31C
330
17
100
AcDbEntity
  8
F4_AU_01_05
100
AcDbCircle
 10
201.28200000000652
 20
18.03000000026077
 30
91.98699999999997
 40
0.32
  0
TEXT
  5
31D
330
17
100
AcDbEntity
  8
F4_ETIQUETAS
100
AcDbText
 10
201.7320000000065
 20
18.48000000026077
 30
91.98699999999997
 40
0.45
  1
M-0240 | Au 3.67 | Pot 0.11
 11
201.7320000000065
 21
18.48000000026077
 31
91.98699999999997
100
AcDbText
  0
POINT
  5
31E
330
17
100
AcDbEntity
  8
F4_AU_05_15
100
AcDbPoint
 10
199.2839999999851
 20
17.940999999642372
 30
91.78099999999995
  0
CIRCLE
  5
31F
330
17
100
AcDbEntity
  8
F4_AU_05_15
100
AcDbCircle
 10
199.2839999999851
 20
17.940999999642372
 30
91.78099999999995
 40
0.32
  0
TEXT
  5
320
330
17
100
AcDbEntity
  8
F4_ETIQUETAS
100
AcDbText
 10
199.7339999999851
 20
18.39099999964237
 30
91.78099999999995
 40
0.45
  1
M-0241 | Au 6.44 | Pot 0.18
 11
199.7339999999851
 21
18.39099999964237
 31
91.78099999999995
100
AcDbText
  0
POINT
  5
321
330
17
100
AcDbEntity
  8
F4_AU_00_01
100
AcDbPoint
 10
197.28799999994226
 20
17.924999999813735
 30
91.67699999999991
  0
CIRCLE
  5
322
330
17
100
AcDbEntity
  8
F4_AU_00_01
100
AcDbCircle
 10
197.28799999994226
 20
17.924999999813735
 30
91.67699999999991
 40
0.32
  0
TEXT
  5
323
330
17
100
AcDbEntity
  8
F4_ETIQUETAS
100
AcDbText
 10
197.73799999994225
 20
18.374999999813735
 30
91.67699999999991
 40
0.45
  1
M-0242 | Au 0.78 | Pot 0.09
 11
197.73799999994225
 21
18.374999999813735
 31
91.67699999999991
100
AcDbText
  0
POINT
  5
324
330
17
100
AcDbEntity
  8
F4_AU_00_01
100
AcDbPoint
 10
195.2949999999255
 20
18.09499999973923
 30
91.57399999999996
  0
CIRCLE
  5
325
330
17
100
AcDbEntity
  8
F4_AU_00_01
100
AcDbCircle
 10
195.2949999999255
 20
18.09499999973923
 30
91.57399999999996
 40
0.32
  0
TEXT
  5
326
330
17
100
AcDbEntity
  8
F4_ETIQUETAS
100
AcDbText
 10
195.74499999992548
 20
18.54499999973923
 30
91.57399999999996
 40
0.45
  1
M-0243 | Au 0.53 | Pot 0.15
 11
195.74499999992548
 21
18.54499999973923
 31
91.57399999999996
100
AcDbText
  0
POINT
  5
327
330
17
100
AcDbEntity
  8
F4_AU_15_50
100
AcDbPoint
 10
191.3059999999823
 20
18.356999999843538
 30
91.46499999999992
  0
CIRCLE
  5
328
330
17
100
AcDbEntity
  8
F4_AU_15_50
100
AcDbCircle
 10
191.3059999999823
 20
18.356999999843538
 30
91.46499999999992
 40
0.32
  0
TEXT
  5
329
330
17
100
AcDbEntity
  8
F4_ETIQUETAS
100
AcDbText
 10
191.7559999999823
 20
18.806999999843537
 30
91.46499999999992
 40
0.45
  1
M-0244 | Au 15.52 | Pot 0.14
 11
191.7559999999823
 21
18.806999999843537
 31
91.46499999999992
100
AcDbText
  0
POINT
  5
32A
330
17
100
AcDbEntity
  8
F4_AU_01_05
100
AcDbPoint
 10
235.3229000000283
 20
22.745799999684095
 30
11.09579999999994
  0
CIRCLE
  5
32B
330
17
100
AcDbEntity
  8
F4_AU_01_05
100
AcDbCircle
 10
235.3229000000283
 20
22.745799999684095
 30
11.09579999999994
 40
0.32
  0
TEXT
  5
32C
330
17
100
AcDbEntity
  8
F4_ETIQUETAS
100
AcDbText
 10
235.7729000000283
 20
23.195799999684095
 30
11.09579999999994
 40
0.45
  1
M-0245 | Au 2.86 | Pot 0.08
 11
235.7729000000283
 21
23.195799999684095
 31
11.09579999999994
100
AcDbText
  0
POINT
  5
32D
330
17
100
AcDbEntity
  8
F4_AU_01_05
100
AcDbPoint
 10
233.33750000002328
 20
22.981700000353158
 30
11.09579999999994
  0
CIRCLE
  5
32E
330
17
100
AcDbEntity
  8
F4_AU_01_05
100
AcDbCircle
 10
233.33750000002328
 20
22.981700000353158
 30
11.09579999999994
 40
0.32
  0
TEXT
  5
32F
330
17
100
AcDbEntity
  8
F4_ETIQUETAS
100
AcDbText
 10
233.78750000002327
 20
23.431700000353157
 30
11.09579999999994
 40
0.45
  1
M-0246 | Au 3.62 | Pot 0.10
 11
233.78750000002327
 21
23.431700000353157
 31
11.09579999999994
100
AcDbText
  0
POINT
  5
330
330
17
100
AcDbEntity
  8
F4_AU_00_01
100
AcDbPoint
 10
231.37320000003092
 20
23.355999999679625
 30
11.09579999999994
  0
CIRCLE
  5
331
330
17
100
AcDbEntity
  8
F4_AU_00_01
100
AcDbCircle
 10
231.37320000003092
 20
23.355999999679625
 30
11.09579999999994
 40
0.32
  0
TEXT
  5
332
330
17
100
AcDbEntity
  8
F4_ETIQUETAS
100
AcDbText
 10
231.8232000000309
 20
23.805999999679624
 30
11.09579999999994
 40
0.45
  1
M-0247 | Au 0.63 | Pot 0.10
 11
231.8232000000309
 21
23.805999999679624
 31
11.09579999999994
100
AcDbText
  0
POINT
  5
333
330
17
100
AcDbEntity
  8
F4_AU_01_05
100
AcDbPoint
 10
227.43920000002254
 20
24.074199999682605
 30
11.09579999999994
  0
CIRCLE
  5
334
330
17
100
AcDbEntity
  8
F4_AU_01_05
100
AcDbCircle
 10
227.43920000002254
 20
24.074199999682605
 30
11.09579999999994
 40
0.32
  0
TEXT
  5
335
330
17
100
AcDbEntity
  8
F4_ETIQUETAS
100
AcDbText
 10
227.88920000002253
 20
24.524199999682605
 30
11.09579999999994
 40
0.45
  1
M-0248 | Au 1.74 | Pot 0.12
 11
227.88920000002253
 21
24.524199999682605
 31
11.09579999999994
100
AcDbText
  0
POINT
  5
336
330
17
100
AcDbEntity
  8
F4_AU_05_15
100
AcDbPoint
 10
13.449799999943934
 20
48.84790000040084
 30
109.24699999999996
  0
CIRCLE
  5
337
330
17
100
AcDbEntity
  8
F4_AU_05_15
100
AcDbCircle
 10
13.449799999943934
 20
48.84790000040084
 30
109.24699999999996
 40
0.32
  0
TEXT
  5
338
330
17
100
AcDbEntity
  8
F4_ETIQUETAS
100
AcDbText
 10
13.899799999943934
 20
49.297900000400844
 30
109.24699999999996
 40
0.45
  1
M-0249 | Au 8.86 | Pot 0.10
 11
13.899799999943934
 21
49.297900000400844
 31
109.24699999999996
100
AcDbText
  0
POINT
  5
339
330
17
100
AcDbEntity
  8
F4_AU_00_01
100
AcDbPoint
 10
11.572799999965355
 20
49.53859999962151
 30
109.24699999999996
  0
CIRCLE
  5
33A
330
17
100
AcDbEntity
  8
F4_AU_00_01
100
AcDbCircle
 10
11.572799999965355
 20
49.53859999962151
 30
109.24699999999996
 40
0.32
  0
TEXT
  5
33B
330
17
100
AcDbEntity
  8
F4_ETIQUETAS
100
AcDbText
 10
12.022799999965354
 20
49.98859999962151
 30
109.24699999999996
 40
0.45
  1
M-0250 | Au 0.10 | Pot 0.03
 11
12.022799999965354
 21
49.98859999962151
 31
109.24699999999996
100
AcDbText
  0
POINT
  5
33C
330
17
100
AcDbEntity
  8
F4_AU_00_01
100
AcDbPoint
 10
9.630000000004657
 20
50.00300000049174
 30
109.24699999999996
  0
CIRCLE
  5
33D
330
17
100
AcDbEntity
  8
F4_AU_00_01
100
AcDbCircle
 10
9.630000000004657
 20
50.00300000049174
 30
109.24699999999996
 40
0.32
  0
TEXT
  5
33E
330
17
100
AcDbEntity
  8
F4_ETIQUETAS
100
AcDbText
 10
10.080000000004656
 20
50.45300000049174
 30
109.24699999999996
 40
0.45
  1
M-0251 | Au 0.16 | Pot 0.03
 11
10.080000000004656
 21
50.45300000049174
 31
109.24699999999996
100
AcDbText
  0
POINT
  5
33F
330
17
100
AcDbEntity
  8
F4_AU_00_01
100
AcDbPoint
 10
7.675700000021607
 20
50.4281000001356
 30
109.24699999999996
  0
CIRCLE
  5
340
330
17
100
AcDbEntity
  8
F4_AU_00_01
100
AcDbCircle
 10
7.675700000021607
 20
50.4281000001356
 30
109.24699999999996
 40
0.32
  0
TEXT
  5
341
330
17
100
AcDbEntity
  8
F4_ETIQUETAS
100
AcDbText
 10
8.125700000021606
 20
50.8781000001356
 30
109.24699999999996
 40
0.45
  1
M-0252 | Au 0.44 | Pot 0.10
 11
8.125700000021606
 21
50.8781000001356
 31
109.24699999999996
100
AcDbText
  0
POINT
  5
342
330
17
100
AcDbEntity
  8
F4_AU_01_05
100
AcDbPoint
 10
5.756399999954738
 20
50.988599999807775
 30
109.24699999999996
  0
CIRCLE
  5
343
330
17
100
AcDbEntity
  8
F4_AU_01_05
100
AcDbCircle
 10
5.756399999954738
 20
50.988599999807775
 30
109.24699999999996
 40
0.32
  0
TEXT
  5
344
330
17
100
AcDbEntity
  8
F4_ETIQUETAS
100
AcDbText
 10
6.206399999954738
 20
51.43859999980778
 30
109.24699999999996
 40
0.45
  1
M-0253 | Au 4.24 | Pot 0.13
 11
6.206399999954738
 21
51.43859999980778
 31
109.24699999999996
100
AcDbText
  0
POINT
  5
345
330
17
100
AcDbEntity
  8
F4_AU_05_15
100
AcDbPoint
 10
3.8402999999234453
 20
51.561999999918044
 30
109.24699999999996
  0
CIRCLE
  5
346
330
17
100
AcDbEntity
  8
F4_AU_05_15
100
AcDbCircle
 10
3.8402999999234453
 20
51.561999999918044
 30
109.24699999999996
 40
0.32
  0
TEXT
  5
347
330
17
100
AcDbEntity
  8
F4_ETIQUETAS
100
AcDbText
 10
4.2902999999234455
 20
52.01199999991805
 30
109.24699999999996
 40
0.45
  1
M-0254 | Au 5.76 | Pot 0.21
 11
4.2902999999234455
 21
52.01199999991805
 31
109.24699999999996
100
AcDbText
  0
POINT
  5
348
330
17
100
AcDbEntity
  8
F4_AU_01_05
100
AcDbPoint
 10
1.9201999999349937
 20
52.121600000187755
 30
109.24699999999996
  0
CIRCLE
  5
349
330
17
100
AcDbEntity
  8
F4_AU_01_05
100
AcDbCircle
 10
1.9201999999349937
 20
52.121600000187755
 30
109.24699999999996
 40
0.32
  0
TEXT
  5
34A
330
17
100
AcDbEntity
  8
F4_ETIQUETAS
100
AcDbText
 10
2.370199999934994
 20
52.57160000018776
 30
109.24699999999996
 40
0.45
  1
M-0255 | Au 1.85 | Pot 0.16
 11
2.370199999934994
 21
52.57160000018776
 31
109.24699999999996
100
AcDbText
  0
POINT
  5
34B
330
17
100
AcDbEntity
  8
F4_AU_15_50
100
AcDbPoint
 10
0.0
 20
52.681099999696016
 30
109.24699999999996
  0
CIRCLE
  5
34C
330
17
100
AcDbEntity
  8
F4_AU_15_50
100
AcDbCircle
 10
0.0
 20
52.681099999696016
 30
109.24699999999996
 40
0.32
  0
TEXT
  5
34D
330
17
100
AcDbEntity
  8
F4_ETIQUETAS
100
AcDbText
 10
0.45
 20
53.13109999969602
 30
109.24699999999996
 40
0.45
  1
M-0256 | Au 48.61 | Pot 0.10
 11
0.45
 21
53.13109999969602
 31
109.24699999999996
100
AcDbText
  0
POINT
  5
34E
330
17
100
AcDbEntity
  8
F4_AU_01_05
100
AcDbPoint
 10
81.28191149001941
 20
44.75128006003797
 30
65.03597692999995
  0
CIRCLE
  5
34F
330
17
100
AcDbEntity
  8
F4_AU_01_05
100
AcDbCircle
 10
81.28191149001941
 20
44.75128006003797
 30
65.03597692999995
 40
0.32
  0
TEXT
  5
350
330
17
100
AcDbEntity
  8
F4_ETIQUETAS
100
AcDbText
 10
81.73191149001941
 20
45.20128006003797
 30
65.03597692999995
 40
0.45
  1
M-0257 | Au 4.91 | Pot 0.20
 11
81.73191149001941
 21
45.20128006003797
 31
65.03597692999995
100
AcDbText
  0
POINT
  5
351
330
17
100
AcDbEntity
  8
F4_AU_00_01
100
AcDbPoint
 10
83.24740702996496
 20
44.366842470131814
 30
65.03597692999995
  0
CIRCLE
  5
352
330
17
100
AcDbEntity
  8
F4_AU_00_01
100
AcDbCircle
 10
83.24740702996496
 20
44.366842470131814
 30
65.03597692999995
 40
0.32
  0
TEXT
  5
353
330
17
100
AcDbEntity
  8
F4_ETIQUETAS
100
AcDbText
 10
83.69740702996496
 20
44.81684247013182
 30
65.03597692999995
 40
0.45
  1
M-0258 | Au 0.52 | Pot 0.10
 11
83.69740702996496
 21
44.81684247013182
 31
65.03597692999995
100
AcDbText
  0
POINT
  5
354
330
17
100
AcDbEntity
  8
F4_AU_15_50
100
AcDbPoint
 10
85.12882789992727
 20
43.725288569927216
 30
65.03597692999995
  0
CIRCLE
  5
355
330
17
100
AcDbEntity
  8
F4_AU_15_50
100
AcDbCircle
 10
85.12882789992727
 20
43.725288569927216
 30
65.03597692999995
 40
0.32
  0
TEXT
  5
356
330
17
100
AcDbEntity
  8
F4_ETIQUETAS
100
AcDbText
 10
85.57882789992728
 20
44.17528856992722
 30
65.03597692999995
 40
0.45
  1
M-0259 | Au 28.54 | Pot 0.12
 11
85.57882789992728
 21
44.17528856992722
 31
65.03597692999995
100
AcDbText
  0
POINT
  5
357
330
17
100
AcDbEntity
  8
F4_AU_05_15
100
AcDbPoint
 10
86.95482927002013
 20
42.90937251970172
 30
65.03597692999995
  0
CIRCLE
  5
358
330
17
100
AcDbEntity
  8
F4_AU_05_15
100
AcDbCircle
 10
86.95482927002013
 20
42.90937251970172
 30
65.03597692999995
 40
0.32
  0
TEXT
  5
359
330
17
100
AcDbEntity
  8
F4_ETIQUETAS
100
AcDbText
 10
87.40482927002013
 20
43.35937251970172
 30
65.03597692999995
 40
0.45
  1
M-0260 | Au 6.36 | Pot 0.16
 11
87.40482927002013
 21
43.35937251970172
 31
65.03597692999995
100
AcDbText
  0
POINT
  5
35A
330
17
100
AcDbEntity
  8
F4_AU_05_15
100
AcDbPoint
 10
88.79176685994025
 20
42.1379910800606
 30
65.03597692999995
  0
CIRCLE
  5
35B
330
17
100
AcDbEntity
  8
F4_AU_05_15
100
AcDbCircle
 10
88.79176685994025
 20
42.1379910800606
 30
65.03597692999995
 40
0.32
  0
TEXT
  5
35C
330
17
100
AcDbEntity
  8
F4_ETIQUETAS
100
AcDbText
 10
89.24176685994026
 20
42.587991080060604
 30
65.03597692999995
 40
0.45
  1
M-0261 | Au 10.65 | Pot 0.14
 11
89.24176685994026
 21
42.587991080060604
 31
65.03597692999995
100
AcDbText
  0
POINT
  5
35D
330
17
100
AcDbEntity
  8
F4_AU_05_15
100
AcDbPoint
 10
90.78799962997437
 20
42.015293249860406
 30
65.03597692999995
  0
CIRCLE
  5
35E
330
17
100
AcDbEntity
  8
F4_AU_05_15
100
AcDbCircle
 10
90.78799962997437
 20
42.015293249860406
 30
65.03597692999995
 40
0.32
  0
TEXT
  5
35F
330
17
100
AcDbEntity
  8
F4_ETIQUETAS
100
AcDbText
 10
91.23799962997437
 20
42.46529324986041
 30
65.03597692999995
 40
0.45
  1
M-0262 | Au 7.41 | Pot 0.10
 11
91.23799962997437
 21
42.46529324986041
 31
65.03597692999995
100
AcDbText
  0
POINT
  5
360
330
17
100
AcDbEntity
  8
F4_AU_05_15
100
AcDbPoint
 10
92.78423238999676
 20
41.89259541966021
 30
65.03597692999995
  0
CIRCLE
  5
361
330
17
100
AcDbEntity
  8
F4_AU_05_15
100
AcDbCircle
 10
92.78423238999676
 20
41.89259541966021
 30
65.03597692999995
 40
0.32
  0
TEXT
  5
362
330
17
100
AcDbEntity
  8
F4_ETIQUETAS
100
AcDbText
 10
93.23423238999676
 20
42.34259541966021
 30
65.03597692999995
 40
0.45
  1
M-0263 | Au 14.32 | Pot 0.14
 11
93.23423238999676
 21
42.34259541966021
 31
65.03597692999995
100
AcDbText
  0
POINT
  5
363
330
17
100
AcDbEntity
  8
F4_AU_00_01
100
AcDbPoint
 10
106.60046920995228
 20
41.640933570452034
 30
65.05458534999991
  0
CIRCLE
  5
364
330
17
100
AcDbEntity
  8
F4_AU_00_01
100
AcDbCircle
 10
106.60046920995228
 20
41.640933570452034
 30
65.05458534999991
 40
0.32
  0
TEXT
  5
365
330
17
100
AcDbEntity
  8
F4_ETIQUETAS
100
AcDbText
 10
107.05046920995228
 20
42.09093357045204
 30
65.05458534999991
 40
0.45
  1
M-0264 | Au 0.17 | Pot 0.09
 11
107.05046920995228
 21
42.09093357045204
 31
65.05458534999991
100
AcDbText
  0
POINT
  5
366
330
17
100
AcDbEntity
  8
F4_AU_00_01
100
AcDbPoint
 10
104.69234493002295
 20
42.148771749809384
 30
65.05458534999991
  0
CIRCLE
  5
367
330
17
100
AcDbEntity
  8
F4_AU_00_01
100
AcDbCircle
 10
104.69234493002295
 20
42.148771749809384
 30
65.05458534999991
 40
0.32
  0
TEXT
  5
368
330
17
100
AcDbEntity
  8
F4_ETIQUETAS
100
AcDbText
 10
105.14234493002296
 20
42.59877174980939
 30
65.05458534999991
 40
0.45
  1
M-0265 | Au 0.11 | Pot 0.26
 11
105.14234493002296
 21
42.59877174980939
 31
65.05458534999991
100
AcDbText
  0
POINT
  5
369
330
17
100
AcDbEntity
  8
F4_AU_15_50
100
AcDbPoint
 10
102.6923033199273
 20
42.105265060439706
 30
65.05458534999991
  0
CIRCLE
  5
36A
330
17
100
AcDbEntity
  8
F4_AU_15_50
100
AcDbCircle
 10
102.6923033199273
 20
42.105265060439706
 30
65.05458534999991
 40
0.32
  0
TEXT
  5
36B
330
17
100
AcDbEntity
  8
F4_ETIQUETAS
100
AcDbText
 10
103.14230331992731
 20
42.55526506043971
 30
65.05458534999991
 40
0.45
  1
M-0266 | Au 17.80 | Pot 0.25
 11
103.14230331992731
 21
42.55526506043971
 31
65.05458534999991
100
AcDbText
  0
POINT
  5
36C
330
17
100
AcDbEntity
  8
F4_AU_05_15
100
AcDbPoint
 10
100.69252551998943
 20
42.07545320969075
 30
65.05458534999991
  0
CIRCLE
  5
36D
330
17
100
AcDbEntity
  8
F4_AU_05_15
100
AcDbCircle
 10
100.69252551998943
 20
42.07545320969075
 30
65.05458534999991
 40
0.32
  0
TEXT
  5
36E
330
17
100
AcDbEntity
  8
F4_ETIQUETAS
100
AcDbText
 10
101.14252551998943
 20
42.52545320969075
 30
65.05458534999991
 40
0.45
  1
M-0267 | Au 5.08 | Pot 0.10
 11
101.14252551998943
 21
42.52545320969075
 31
65.05458534999991
100
AcDbText
  0
POINT
  5
36F
330
17
100
AcDbEntity
  8
F4_AU_05_15
100
AcDbPoint
 10
78.784217169974
 20
45.1068180501461
 30
63.82161428999996
  0
CIRCLE
  5
370
330
17
100
AcDbEntity
  8
F4_AU_05_15
100
AcDbCircle
 10
78.784217169974
 20
45.1068180501461
 30
63.82161428999996
 40
0.32
  0
TEXT
  5
371
330
17
100
AcDbEntity
  8
F4_ETIQUETAS
100
AcDbText
 10
79.234217169974
 20
45.556818050146106
 30
63.82161428999996
 40
0.45
  1
M-0268 | Au 14.69 | Pot 0.07
 11
79.234217169974
 21
45.556818050146106
 31
63.82161428999996
100
AcDbText
  0
POINT
  5
372
330
17
100
AcDbEntity
  8
F4_AU_01_05
100
AcDbPoint
 10
76.78944586997386
 20
45.251343039795756
 30
63.82161428999996
  0
CIRCLE
  5
373
330
17
100
AcDbEntity
  8
F4_AU_01_05
100
AcDbCircle
 10
76.78944586997386
 20
45.251343039795756
 30
63.82161428999996
 40
0.32
  0
TEXT
  5
374
330
17
100
AcDbEntity
  8
F4_ETIQUETAS
100
AcDbText
 10
77.23944586997386
 20
45.70134303979576
 30
63.82161428999996
 40
0.45
  1
M-0269 | Au 1.62 | Pot 0.04
 11
77.23944586997386
 21
45.70134303979576
 31
63.82161428999996
100
AcDbText
  0
POINT
  5
375
330
17
100
AcDbEntity
  8
F4_AU_00_01
100
AcDbPoint
 10
74.79467456997372
 20
45.39586803968996
 30
63.82161428999996
  0
CIRCLE
  5
376
330
17
100
AcDbEntity
  8
F4_AU_00_01
100
AcDbCircle
 10
74.79467456997372
 20
45.39586803968996
 30
63.82161428999996
 40
0.32
  0
TEXT
  5
377
330
17
100
AcDbEntity
  8
F4_ETIQUETAS
100
AcDbText
 10
75.24467456997372
 20
45.84586803968996
 30
63.82161428999996
 40
0.45
  1
M-0270 | Au 0.13 | Pot 0.06
 11
75.24467456997372
 21
45.84586803968996
 31
63.82161428999996
100
AcDbText
  0
POINT
  5
378
330
17
100
AcDbEntity
  8
F4_AU_00_01
100
AcDbPoint
 10
70.84191709000152
 20
45.99203892983496
 30
63.82161428999996
  0
CIRCLE
  5
379
330
17
100
AcDbEntity
  8
F4_AU_00_01
100
AcDbCircle
 10
70.84191709000152
 20
45.99203892983496
 30
63.82161428999996
 40
0.32
  0
TEXT
  5
37A
330
17
100
AcDbEntity
  8
F4_ETIQUETAS
100
AcDbText
 10
71.29191709000152
 20
46.442038929834965
 30
63.82161428999996
 40
0.45
  1
M-0271 | Au 0.39 | Pot 0.03
 11
71.29191709000152
 21
46.442038929834965
 31
63.82161428999996
100
AcDbText
  0
POINT
  5
37B
330
17
100
AcDbEntity
  8
F4_AU_05_15
100
AcDbPoint
 10
68.85999133996665
 20
46.25914919003844
 30
63.82161428999996
  0
CIRCLE
  5
37C
330
17
100
AcDbEntity
  8
F4_AU_05_15
100
AcDbCircle
 10
68.85999133996665
 20
46.25914919003844
 30
63.82161428999996
 40
0.32
  0
TEXT
  5
37D
330
17
100
AcDbEntity
  8
F4_ETIQUETAS
100
AcDbText
 10
69.30999133996666
 20
46.709149190038445
 30
63.82161428999996
 40
0.45
  1
M-0272 | Au 12.02 | Pot 0.04
 11
69.30999133996666
 21
46.709149190038445
 31
63.82161428999996
100
AcDbText
  0
POINT
  5
37E
330
17
100
AcDbEntity
  8
F4_AU_15_50
100
AcDbPoint
 10
66.89810719992965
 20
46.51388810016215
 30
63.82161428999996
  0
CIRCLE
  5
37F
330
17
100
AcDbEntity
  8
F4_AU_15_50
100
AcDbCircle
 10
66.89810719992965
 20
46.51388810016215
 30
63.82161428999996
 40
0.32
  0
TEXT
  5
380
330
17
100
AcDbEntity
  8
F4_ETIQUETAS
100
AcDbText
 10
67.34810719992966
 20
46.96388810016215
 30
63.82161428999996
 40
0.45
  1
M-0273 | Au 39.59 | Pot 0.05
 11
67.34810719992966
 21
46.96388810016215
 31
63.82161428999996
100
AcDbText
  0
POINT
  5
381
330
17
100
AcDbEntity
  8
F4_AU_01_05
100
AcDbPoint
 10
64.89328981994186
 20
46.774201639927924
 30
63.82161428999996
  0
CIRCLE
  5
382
330
17
100
AcDbEntity
  8
F4_AU_01_05
100
AcDbCircle
 10
64.89328981994186
 20
46.774201639927924
 30
63.82161428999996
 40
0.32
  0
TEXT
  5
383
330
17
100
AcDbEntity
  8
F4_ETIQUETAS
100
AcDbText
 10
65.34328981994186
 20
47.22420163992793
 30
63.82161428999996
 40
0.45
  1
M-0274 | Au 3.23 | Pot 0.23
 11
65.34328981994186
 21
47.22420163992793
 31
63.82161428999996
100
AcDbText
  0
POINT
  5
384
330
17
100
AcDbEntity
  8
F4_AU_01_05
100
AcDbPoint
 10
62.92117106996011
 20
47.083089450374246
 30
63.82161428999996
  0
CIRCLE
  5
385
330
17
100
AcDbEntity
  8
F4_AU_01_05
100
AcDbCircle
 10
62.92117106996011
 20
47.083089450374246
 30
63.82161428999996
 40
0.32
  0
TEXT
  5
386
330
17
100
AcDbEntity
  8
F4_ETIQUETAS
100
AcDbText
 10
63.37117106996011
 20
47.53308945037425
 30
63.82161428999996
 40
0.45
  1
M-0275 | Au 1.69 | Pot 0.03
 11
63.37117106996011
 21
47.53308945037425
 31
63.82161428999996
100
AcDbText
  0
POINT
  5
387
330
17
100
AcDbEntity
  8
F4_AU_01_05
100
AcDbPoint
 10
61.01136897993274
 20
47.676937909796834
 30
63.82161428999996
  0
CIRCLE
  5
388
330
17
100
AcDbEntity
  8
F4_AU_01_05
100
AcDbCircle
 10
61.01136897993274
 20
47.676937909796834
 30
63.82161428999996
 40
0.32
  0
TEXT
  5
389
330
17
100
AcDbEntity
  8
F4_ETIQUETAS
100
AcDbText
 10
61.46136897993274
 20
48.12693790979684
 30
63.82161428999996
 40
0.45
  1
M-0276 | Au 4.18 | Pot 0.03
 11
61.46136897993274
 21
48.12693790979684
 31
63.82161428999996
100
AcDbText
  0
POINT
  5
38A
330
17
100
AcDbEntity
  8
F4_AU_00_01
100
AcDbPoint
 10
37.35719633998815
 20
52.29344537016004
 30
60.70540822999999
  0
CIRCLE
  5
38B
330
17
100
AcDbEntity
  8
F4_AU_00_01
100
AcDbCircle
 10
37.35719633998815
 20
52.29344537016004
 30
60.70540822999999
 40
0.32
  0
TEXT
  5
38C
330
17
100
AcDbEntity
  8
F4_ETIQUETAS
100
AcDbText
 10
37.80719633998815
 20
52.743445370160046
 30
60.70540822999999
 40
0.45
  1
M-0277 | Au 0.56 | Pot 0.03
 11
37.80719633998815
 21
52.743445370160046
 31
60.70540822999999
100
AcDbText
  0
POINT
  5
38D
330
17
100
AcDbEntity
  8
F4_AU_01_05
100
AcDbPoint
 10
39.247705599991605
 20
51.641674970276654
 30
60.70540822999999
  0
CIRCLE
  5
38E
330
17
100
AcDbEntity
  8
F4_AU_01_05
100
AcDbCircle
 10
39.247705599991605
 20
51.641674970276654
 30
60.70540822999999
 40
0.32
  0
TEXT
  5
38F
330
17
100
AcDbEntity
  8
F4_ETIQUETAS
100
AcDbText
 10
39.69770559999161
 20
52.09167497027666
 30
60.70540822999999
 40
0.45
  1
M-0278 | Au 2.81 | Pot 0.04
 11
39.69770559999161
 21
52.09167497027666
 31
60.70540822999999
100
AcDbText
  0
POINT
  5
390
330
17
100
AcDbEntity
  8
F4_AU_00_01
100
AcDbPoint
 10
41.17618682002649
 20
51.13116534985602
 30
60.70540822999999
  0
CIRCLE
  5
391
330
17
100
AcDbEntity
  8
F4_AU_00_01
100
AcDbCircle
 10
41.17618682002649
 20
51.13116534985602
 30
60.70540822999999
 40
0.32
  0
TEXT
  5
392
330
17
100
AcDbEntity
  8
F4_ETIQUETAS
100
AcDbText
 10
41.62618682002649
 20
51.58116534985602
 30
60.70540822999999
 40
0.45
  1
M-0279 | Au 0.63 | Pot 0.14
 11
41.62618682002649
 21
51.58116534985602
 31
60.70540822999999
100
AcDbText
  0
POINT
  5
393
330
17
100
AcDbEntity
  8
F4_AU_01_05
100
AcDbPoint
 10
43.14157532993704
 20
50.77542440965772
 30
60.70540822999999
  0
CIRCLE
  5
394
330
17
100
AcDbEntity
  8
F4_AU_01_05
100
AcDbCircle
 10
43.14157532993704
 20
50.77542440965772
 30
60.70540822999999
 40
0.32
  0
TEXT
  5
395
330
17
100
AcDbEntity
  8
F4_ETIQUETAS
100
AcDbText
 10
43.591575329937044
 20
51.22542440965772
 30
60.70540822999999
 40
0.45
  1
M-0280 | Au 3.63 | Pot 0.40
 11
43.591575329937044
 21
51.22542440965772
 31
60.70540822999999
100
AcDbText
  0
POINT
  5
396
330
17
100
AcDbEntity
  8
F4_AU_00_01
100
AcDbPoint
 10
49.13818064995576
 20
50.582580329850316
 30
60.70540822999999
  0
CIRCLE
  5
397
330
17
100
AcDbEntity
  8
F4_AU_00_01
100
AcDbCircle
 10
49.13818064995576
 20
50.582580329850316
 30
60.70540822999999
 40
0.32
  0
TEXT
  5
398
330
17
100
AcDbEntity
  8
F4_ETIQUETAS
100
AcDbText
 10
49.58818064995576
 20
51.03258032985032
 30
60.70540822999999
 40
0.45
  1
M-0281 | Au 0.85 | Pot 0.10
 11
49.58818064995576
 21
51.03258032985032
 31
60.70540822999999
100
AcDbText
  0
POINT
  5
399
330
17
100
AcDbEntity
  8
F4_AU_01_05
100
AcDbPoint
 10
51.137108749942854
 20
50.51710931956768
 30
60.70540822999999
  0
CIRCLE
  5
39A
330
17
100
AcDbEntity
  8
F4_AU_01_05
100
AcDbCircle
 10
51.137108749942854
 20
50.51710931956768
 30
60.70540822999999
 40
0.32
  0
TEXT
  5
39B
330
17
100
AcDbEntity
  8
F4_ETIQUETAS
100
AcDbText
 10
51.58710874994286
 20
50.96710931956768
 30
60.70540822999999
 40
0.45
  1
M-0282 | Au 2.33 | Pot 0.09
 11
51.58710874994286
 21
50.96710931956768
 31
60.70540822999999
100
AcDbText
  0
POINT
  5
39C
330
17
100
AcDbEntity
  8
F4_AU_00_01
100
AcDbPoint
 10
53.13241915998515
 20
50.42702335957438
 30
60.70540822999999
  0
CIRCLE
  5
39D
330
17
100
AcDbEntity
  8
F4_AU_00_01
100
AcDbCircle
 10
53.13241915998515
 20
50.42702335957438
 30
60.70540822999999
 40
0.32
  0
TEXT
  5
39E
330
17
100
AcDbEntity
  8
F4_ETIQUETAS
100
AcDbText
 10
53.58241915998515
 20
50.87702335957438
 30
60.70540822999999
 40
0.45
  1
M-0283 | Au 0.81 | Pot 0.09
 11
53.58241915998515
 21
50.87702335957438
 31
60.70540822999999
100
AcDbText
  0
POINT
  5
39F
330
17
100
AcDbEntity
  8
F4_AU_05_15
100
AcDbPoint
 10
55.01156096998602
 20
49.74231463018805
 30
60.70540822999999
  0
CIRCLE
  5
3A0
330
17
100
AcDbEntity
  8
F4_AU_05_15
100
AcDbCircle
 10
55.01156096998602
 20
49.74231463018805
 30
60.70540822999999
 40
0.32
  0
TEXT
  5
3A1
330
17
100
AcDbEntity
  8
F4_ETIQUETAS
100
AcDbText
 10
55.461560969986024
 20
50.19231463018805
 30
60.70540822999999
 40
0.45
  1
M-0284 | Au 10.27 | Pot 0.05
 11
55.461560969986024
 21
50.19231463018805
 31
60.70540822999999
100
AcDbText
  0
POINT
  5
3A2
330
17
100
AcDbEntity
  8
F4_AU_01_05
100
AcDbPoint
 10
56.88976145000197
 20
49.054158699698746
 30
60.70540822999999
  0
CIRCLE
  5
3A3
330
17
100
AcDbEntity
  8
F4_AU_01_05
100
AcDbCircle
 10
56.88976145000197
 20
49.054158699698746
 30
60.70540822999999
 40
0.32
  0
TEXT
  5
3A4
330
17
100
AcDbEntity
  8
F4_ETIQUETAS
100
AcDbText
 10
57.33976145000197
 20
49.50415869969875
 30
60.70540822999999
 40
0.45
  1
M-0285 | Au 1.52 | Pot 0.04
 11
57.33976145000197
 21
49.50415869969875
 31
60.70540822999999
100
AcDbText
  0
POINT
  5
3A5
330
17
100
AcDbEntity
  8
F4_AU_01_05
100
AcDbPoint
 10
58.768903260002844
 20
48.36944997031242
 30
60.70540822999999
  0
CIRCLE
  5
3A6
330
17
100
AcDbEntity
  8
F4_AU_01_05
100
AcDbCircle
 10
58.768903260002844
 20
48.36944997031242
 30
60.70540822999999
 40
0.32
  0
TEXT
  5
3A7
330
17
100
AcDbEntity
  8
F4_ETIQUETAS
100
AcDbText
 10
59.21890326000285
 20
48.81944997031242
 30
60.70540822999999
 40
0.45
  1
M-0286 | Au 3.10 | Pot 0.06
 11
59.21890326000285
 21
48.81944997031242
 31
60.70540822999999
100
AcDbText
  0
POINT
  5
3A8
330
17
100
AcDbEntity
  8
F4_AU_01_05
100
AcDbPoint
 10
14.594700000016019
 20
48.32589999958873
 30
58.0098999999999
  0
CIRCLE
  5
3A9
330
17
100
AcDbEntity
  8
F4_AU_01_05
100
AcDbCircle
 10
14.594700000016019
 20
48.32589999958873
 30
58.0098999999999
 40
0.32
  0
TEXT
  5
3AA
330
17
100
AcDbEntity
  8
F4_ETIQUETAS
100
AcDbText
 10
15.044700000016018
 20
48.77589999958873
 30
58.0098999999999
 40
0.45
  1
M-0287 | Au 2.63 | Pot 0.04
 11
15.044700000016018
 21
48.77589999958873
 31
58.0098999999999
100
AcDbText
  0
POINT
  5
3AB
330
17
100
AcDbEntity
  8
F4_AU_05_15
100
AcDbPoint
 10
16.586000000010245
 20
48.15110000036657
 30
58.0098999999999
  0
CIRCLE
  5
3AC
330
17
100
AcDbEntity
  8
F4_AU_05_15
100
AcDbCircle
 10
16.586000000010245
 20
48.15110000036657
 30
58.0098999999999
 40
0.32
  0
TEXT
  5
3AD
330
17
100
AcDbEntity
  8
F4_ETIQUETAS
100
AcDbText
 10
17.036000000010244
 20
48.60110000036657
 30
58.0098999999999
 40
0.45
  1
M-0288 | Au 6.93 | Pot 0.03
 11
17.036000000010244
 21
48.60110000036657
 31
58.0098999999999
100
AcDbText
  0
POINT
  5
3AE
330
17
100
AcDbEntity
  8
F4_AU_15_50
100
AcDbPoint
 10
223.45429999998305
 20
24.671099999919534
 30
11.09579999999994
  0
CIRCLE
  5
3AF
330
17
100
AcDbEntity
  8
F4_AU_15_50
100
AcDbCircle
 10
223.45429999998305
 20
24.671099999919534
 30
11.09579999999994
 40
0.32
  0
TEXT
  5
3B0
330
17
100
AcDbEntity
  8
F4_ETIQUETAS
100
AcDbText
 10
223.90429999998304
 20
25.121099999919533
 30
11.09579999999994
 40
0.45
  1
M-0289 | Au 39.59 | Pot 0.12
 11
223.90429999998304
 21
25.121099999919533
 31
11.09579999999994
100
AcDbText
  0
POINT
  5
3B1
330
17
100
AcDbEntity
  8
F4_AU_05_15
100
AcDbPoint
 10
221.50769999995828
 20
24.831899999640882
 30
11.09579999999994
  0
CIRCLE
  5
3B2
330
17
100
AcDbEntity
  8
F4_AU_05_15
100
AcDbCircle
 10
221.50769999995828
 20
24.831899999640882
 30
11.09579999999994
 40
0.32
  0
TEXT
  5
3B3
330
17
100
AcDbEntity
  8
F4_ETIQUETAS
100
AcDbText
 10
221.95769999995827
 20
25.28189999964088
 30
11.09579999999994
 40
0.45
  1
M-0290 | Au 7.12 | Pot 0.10
 11
221.95769999995827
 21
25.28189999964088
 31
11.09579999999994
100
AcDbText
  0
POINT
  5
3B4
330
17
100
AcDbEntity
  8
F4_AU_01_05
100
AcDbPoint
 10
219.5097999999998
 20
24.700299999676645
 30
11.09579999999994
  0
CIRCLE
  5
3B5
330
17
100
AcDbEntity
  8
F4_AU_01_05
100
AcDbCircle
 10
219.5097999999998
 20
24.700299999676645
 30
11.09579999999994
 40
0.32
  0
CIRCLE
  5
3B6
330
17
100
AcDbEntity
  8
F4_QA_DUP_XYZ
100
AcDbCircle
 10
219.5097999999998
 20
24.700299999676645
 30
11.09579999999994
 40
0.65
  0
TEXT
  5
3B7
330
17
100
AcDbEntity
  8
F4_ETIQUETAS
100
AcDbText
 10
219.9597999999998
 20
25.150299999676644
 30
11.09579999999994
 40
0.45
  1
M-0291 | Au 3.29 | Pot 0.23
 11
219.9597999999998
 21
25.150299999676644
 31
11.09579999999994
100
AcDbText
  0
POINT
  5
3B8
330
17
100
AcDbEntity
  8
F4_AU_00_01
100
AcDbPoint
 10
154.4714999999851
 20
46.43350000027567
 30
0.0
  0
CIRCLE
  5
3B9
330
17
100
AcDbEntity
  8
F4_AU_00_01
100
AcDbCircle
 10
154.4714999999851
 20
46.43350000027567
 30
0.0
 40
0.32
  0
TEXT
  5
3BA
330
17
100
AcDbEntity
  8
F4_ETIQUETAS
100
AcDbText
 10
154.9214999999851
 20
46.883500000275674
 30
0.0
 40
0.45
  1
M-0292 | Au 0.23 | Pot 0.03
 11
154.9214999999851
 21
46.883500000275674
 31
0.0
100
AcDbText
  0
POINT
  5
3BB
330
17
100
AcDbEntity
  8
F4_AU_00_01
100
AcDbPoint
 10
152.51319999992847
 20
46.044700000435114
 30
0.0
  0
CIRCLE
  5
3BC
330
17
100
AcDbEntity
  8
F4_AU_00_01
100
AcDbCircle
 10
152.51319999992847
 20
46.044700000435114
 30
0.0
 40
0.32
  0
TEXT
  5
3BD
330
17
100
AcDbEntity
  8
F4_ETIQUETAS
100
AcDbText
 10
152.96319999992846
 20
46.49470000043512
 30
0.0
 40
0.45
  1
M-0293 | Au 0.09 | Pot 0.03
 11
152.96319999992846
 21
46.49470000043512
 31
0.0
100
AcDbText
  0
POINT
  5
3BE
330
17
100
AcDbEntity
  8
F4_AU_00_01
100
AcDbPoint
 10
150.52939999999944
 20
45.8238000003621
 30
0.0
  0
CIRCLE
  5
3BF
330
17
100
AcDbEntity
  8
F4_AU_00_01
100
AcDbCircle
 10
150.52939999999944
 20
45.8238000003621
 30
0.0
 40
0.32
  0
TEXT
  5
3C0
330
17
100
AcDbEntity
  8
F4_ETIQUETAS
100
AcDbText
 10
150.97939999999943
 20
46.2738000003621
 30
0.0
 40
0.45
  1
M-0294 | Au 0.14 | Pot 0.03
 11
150.97939999999943
 21
46.2738000003621
 31
0.0
100
AcDbText
  0
POINT
  5
3C1
330
17
100
AcDbEntity
  8
F4_AU_00_01
100
AcDbPoint
 10
148.54960000002757
 20
46.05319999996573
 30
0.0
  0
CIRCLE
  5
3C2
330
17
100
AcDbEntity
  8
F4_AU_00_01
100
AcDbCircle
 10
148.54960000002757
 20
46.05319999996573
 30
0.0
 40
0.32
  0
TEXT
  5
3C3
330
17
100
AcDbEntity
  8
F4_ETIQUETAS
100
AcDbText
 10
148.99960000002756
 20
46.50319999996573
 30
0.0
 40
0.45
  1
M-0295 | Au 0.92 | Pot 0.03
 11
148.99960000002756
 21
46.50319999996573
 31
0.0
100
AcDbText
  0
POINT
  5
3C4
330
17
100
AcDbEntity
  8
F4_AU_00_01
100
AcDbPoint
 10
146.59679999994114
 20
46.48489999957383
 30
0.0
  0
CIRCLE
  5
3C5
330
17
100
AcDbEntity
  8
F4_AU_00_01
100
AcDbCircle
 10
146.59679999994114
 20
46.48489999957383
 30
0.0
 40
0.32
  0
TEXT
  5
3C6
330
17
100
AcDbEntity
  8
F4_ETIQUETAS
100
AcDbText
 10
147.04679999994113
 20
46.93489999957383
 30
0.0
 40
0.45
  1
M-0296 | Au 0.07 | Pot 0.03
 11
147.04679999994113
 21
46.93489999957383
 31
0.0
100
AcDbText
  0
POINT
  5
3C7
330
17
100
AcDbEntity
  8
F4_AU_00_01
100
AcDbPoint
 10
144.6422999999486
 20
46.9093000004068
 30
0.0
  0
CIRCLE
  5
3C8
330
17
100
AcDbEntity
  8
F4_AU_00_01
100
AcDbCircle
 10
144.6422999999486
 20
46.9093000004068
 30
0.0
 40
0.32
  0
TEXT
  5
3C9
330
17
100
AcDbEntity
  8
F4_ETIQUETAS
100
AcDbText
 10
145.09229999994858
 20
47.359300000406805
 30
0.0
 40
0.45
  1
M-0297 | Au 0.11 | Pot 0.03
 11
145.09229999994858
 21
47.359300000406805
 31
0.0
100
AcDbText
  0
POINT
  5
3CA
330
17
100
AcDbEntity
  8
F4_AU_00_01
100
AcDbPoint
 10
142.68880000000354
 20
47.33779999986291
 30
0.0
  0
CIRCLE
  5
3CB
330
17
100
AcDbEntity
  8
F4_AU_00_01
100
AcDbCircle
 10
142.68880000000354
 20
47.33779999986291
 30
0.0
 40
0.32
  0
TEXT
  5
3CC
330
17
100
AcDbEntity
  8
F4_ETIQUETAS
100
AcDbText
 10
143.13880000000353
 20
47.78779999986291
 30
0.0
 40
0.45
  1
M-0298 | Au 0.12 | Pot 0.03
 11
143.13880000000353
 21
47.78779999986291
 31
0.0
100
AcDbText
  0
POINT
  5
3CD
330
17
100
AcDbEntity
  8
F4_AU_00_01
100
AcDbPoint
 10
140.74060000001919
 20
47.787800000049174
 30
0.0
  0
CIRCLE
  5
3CE
330
17
100
AcDbEntity
  8
F4_AU_00_01
100
AcDbCircle
 10
140.74060000001919
 20
47.787800000049174
 30
0.0
 40
0.32
  0
TEXT
  5
3CF
330
17
100
AcDbEntity
  8
F4_ETIQUETAS
100
AcDbText
 10
141.19060000001917
 20
48.23780000004918
 30
0.0
 40
0.45
  1
M-0299 | Au 0.18 | Pot 0.03
 11
141.19060000001917
 21
48.23780000004918
 31
0.0
100
AcDbText
  0
POINT
  5
3D0
330
17
100
AcDbEntity
  8
F4_AU_00_01
100
AcDbPoint
 10
138.82319999998435
 20
48.35670000035316
 30
0.0
  0
CIRCLE
  5
3D1
330
17
100
AcDbEntity
  8
F4_AU_00_01
100
AcDbCircle
 10
138.82319999998435
 20
48.35670000035316
 30
0.0
 40
0.32
  0
TEXT
  5
3D2
330
17
100
AcDbEntity
  8
F4_ETIQUETAS
100
AcDbText
 10
139.27319999998434
 20
48.80670000035316
 30
0.0
 40
0.45
  1
M-0300 | Au 0.08 | Pot 0.03
 11
139.27319999998434
 21
48.80670000035316
 31
0.0
100
AcDbText
  0
POINT
  5
3D3
330
17
100
AcDbEntity
  8
F4_AU_00_01
100
AcDbPoint
 10
136.88919999997597
 20
48.865100000053644
 30
0.0
  0
CIRCLE
  5
3D4
330
17
100
AcDbEntity
  8
F4_AU_00_01
100
AcDbCircle
 10
136.88919999997597
 20
48.865100000053644
 30
0.0
 40
0.32
  0
TEXT
  5
3D5
330
17
100
AcDbEntity
  8
F4_ETIQUETAS
100
AcDbText
 10
137.33919999997596
 20
49.31510000005365
 30
0.0
 40
0.45
  1
M-0301 | Au 0.16 | Pot 0.03
 11
137.33919999997596
 21
49.31510000005365
 31
0.0
100
AcDbText
  0
POINT
  5
3D6
330
17
100
AcDbEntity
  8
F4_AU_00_01
100
AcDbPoint
 10
134.99029999994673
 20
49.48909999988973
 30
0.0
  0
CIRCLE
  5
3D7
330
17
100
AcDbEntity
  8
F4_AU_00_01
100
AcDbCircle
 10
134.99029999994673
 20
49.48909999988973
 30
0.0
 40
0.32
  0
TEXT
  5
3D8
330
17
100
AcDbEntity
  8
F4_ETIQUETAS
100
AcDbText
 10
135.44029999994672
 20
49.939099999889734
 30
0.0
 40
0.45
  1
M-0302 | Au 0.46 | Pot 0.03
 11
135.44029999994672
 21
49.939099999889734
 31
0.0
100
AcDbText
  0
POINT
  5
3D9
330
17
100
AcDbEntity
  8
F4_AU_00_01
100
AcDbPoint
 10
133.13509999995586
 20
50.231399999931455
 30
0.0
  0
CIRCLE
  5
3DA
330
17
100
AcDbEntity
  8
F4_AU_00_01
100
AcDbCircle
 10
133.13509999995586
 20
50.231399999931455
 30
0.0
 40
0.32
  0
TEXT
  5
3DB
330
17
100
AcDbEntity
  8
F4_ETIQUETAS
100
AcDbText
 10
133.58509999995584
 20
50.68139999993146
 30
0.0
 40
0.45
  1
M-0303 | Au 0.34 | Pot 0.06
 11
133.58509999995584
 21
50.68139999993146
 31
0.0
100
AcDbText
  0
POINT
  5
3DC
330
17
100
AcDbEntity
  8
F4_AU_05_15
100
AcDbPoint
 10
219.5097999999998
 20
24.700299999676645
 30
11.09579999999994
  0
CIRCLE
  5
3DD
330
17
100
AcDbEntity
  8
F4_AU_05_15
100
AcDbCircle
 10
219.5097999999998
 20
24.700299999676645
 30
11.09579999999994
 40
0.32
  0
CIRCLE
  5
3DE
330
17
100
AcDbEntity
  8
F4_QA_DUP_XYZ
100
AcDbCircle
 10
219.5097999999998
 20
24.700299999676645
 30
11.09579999999994
 40
0.65
  0
TEXT
  5
3DF
330
17
100
AcDbEntity
  8
F4_ETIQUETAS
100
AcDbText
 10
219.9597999999998
 20
25.150299999676644
 30
11.09579999999994
 40
0.45
  1
M-0304 | Au 7.77 | Pot 0.50
 11
219.9597999999998
 21
25.150299999676644
 31
11.09579999999994
100
AcDbText
  0
POINT
  5
3E0
330
17
100
AcDbEntity
  8
F4_AU_15_50
100
AcDbPoint
 10
217.52610000001732
 20
24.88190000038594
 30
11.09579999999994
  0
CIRCLE
  5
3E1
330
17
100
AcDbEntity
  8
F4_AU_15_50
100
AcDbCircle
 10
217.52610000001732
 20
24.88190000038594
 30
11.09579999999994
 40
0.32
  0
TEXT
  5
3E2
330
17
100
AcDbEntity
  8
F4_ETIQUETAS
100
AcDbText
 10
217.9761000000173
 20
25.33190000038594
 30
11.09579999999994
 40
0.45
  1
M-0305 | Au 19.88 | Pot 0.06
 11
217.9761000000173
 21
25.33190000038594
 31
11.09579999999994
100
AcDbText
  0
POINT
  5
3E3
330
17
100
AcDbEntity
  8
F4_AU_01_05
100
AcDbPoint
 10
237.52209999994375
 20
22.78110000025481
 30
11.09579999999994
  0
CIRCLE
  5
3E4
330
17
100
AcDbEntity
  8
F4_AU_01_05
100
AcDbCircle
 10
237.52209999994375
 20
22.78110000025481
 30
11.09579999999994
 40
0.32
  0
TEXT
  5
3E5
330
17
100
AcDbEntity
  8
F4_ETIQUETAS
100
AcDbText
 10
237.97209999994374
 20
23.23110000025481
 30
11.09579999999994
 40
0.45
  1
M-0306 | Au 3.44 | Pot 0.03
 11
237.97209999994374
 21
23.23110000025481
 31
11.09579999999994
100
AcDbText
  0
POINT
  5
3E6
330
17
100
AcDbEntity
  8
F4_AU_00_01
100
AcDbPoint
 10
239.52090000000317
 20
22.71750000026077
 30
11.09579999999994
  0
CIRCLE
  5
3E7
330
17
100
AcDbEntity
  8
F4_AU_00_01
100
AcDbCircle
 10
239.52090000000317
 20
22.71750000026077
 30
11.09579999999994
 40
0.32
  0
TEXT
  5
3E8
330
17
100
AcDbEntity
  8
F4_ETIQUETAS
100
AcDbText
 10
239.97090000000316
 20
23.16750000026077
 30
11.09579999999994
 40
0.45
  1
M-0307 | Au 0.52 | Pot 0.03
 11
239.97090000000316
 21
23.16750000026077
 31
11.09579999999994
100
AcDbText
  0
POINT
  5
3E9
330
17
100
AcDbEntity
  8
F4_AU_00_01
100
AcDbPoint
 10
241.38419999997132
 20
22.00899999961257
 30
11.09579999999994
  0
CIRCLE
  5
3EA
330
17
100
AcDbEntity
  8
F4_AU_00_01
100
AcDbCircle
 10
241.38419999997132
 20
22.00899999961257
 30
11.09579999999994
 40
0.32
  0
TEXT
  5
3EB
330
17
100
AcDbEntity
  8
F4_ETIQUETAS
100
AcDbText
 10
241.8341999999713
 20
22.45899999961257
 30
11.09579999999994
 40
0.45
  1
M-0308 | Au 0.53 | Pot 0.05
 11
241.8341999999713
 21
22.45899999961257
 31
11.09579999999994
100
AcDbText
  0
POINT
  5
3EC
330
17
100
AcDbEntity
  8
F4_AU_01_05
100
AcDbPoint
 10
242.66310000000522
 20
20.503200000151992
 30
11.09579999999994
  0
CIRCLE
  5
3ED
330
17
100
AcDbEntity
  8
F4_AU_01_05
100
AcDbCircle
 10
242.66310000000522
 20
20.503200000151992
 30
11.09579999999994
 40
0.32
  0
TEXT
  5
3EE
330
17
100
AcDbEntity
  8
F4_ETIQUETAS
100
AcDbText
 10
243.1131000000052
 20
20.95320000015199
 30
11.09579999999994
 40
0.45
  1
M-0309 | Au 1.48 | Pot 0.03
 11
243.1131000000052
 21
20.95320000015199
 31
11.09579999999994
100
AcDbText
  0
POINT
  5
3EF
330
17
100
AcDbEntity
  8
F4_AU_00_01
100
AcDbPoint
 10
244.35800000000745
 20
19.674100000411272
 30
11.09579999999994
  0
CIRCLE
  5
3F0
330
17
100
AcDbEntity
  8
F4_AU_00_01
100
AcDbCircle
 10
244.35800000000745
 20
19.674100000411272
 30
11.09579999999994
 40
0.32
  0
TEXT
  5
3F1
330
17
100
AcDbEntity
  8
F4_ETIQUETAS
100
AcDbText
 10
244.80800000000744
 20
20.12410000041127
 30
11.09579999999994
 40
0.45
  1
M-0310 | Au 0.74 | Pot 0.04
 11
244.80800000000744
 21
20.12410000041127
 31
11.09579999999994
100
AcDbText
  0
POINT
  5
3F2
330
17
100
AcDbEntity
  8
F4_AU_01_05
100
AcDbPoint
 10
216.18426810996607
 20
25.539671749807894
 30
10.974164789999918
  0
CIRCLE
  5
3F3
330
17
100
AcDbEntity
  8
F4_AU_01_05
100
AcDbCircle
 10
216.18426810996607
 20
25.539671749807894
 30
10.974164789999918
 40
0.32
  0
TEXT
  5
3F4
330
17
100
AcDbEntity
  8
F4_ETIQUETAS
100
AcDbText
 10
216.63426810996606
 20
25.989671749807894
 30
10.974164789999918
 40
0.45
  1
M-0311 | Au 1.19 | Pot 0.07
 11
216.63426810996606
 21
25.989671749807894
 31
10.974164789999918
100
AcDbText
  0
POINT
  5
3F5
330
17
100
AcDbEntity
  8
F4_AU_05_15
100
AcDbPoint
 10
214.21708660002332
 20
25.29149517044425
 30
11.043972139999937
  0
CIRCLE
  5
3F6
330
17
100
AcDbEntity
  8
F4_AU_05_15
100
AcDbCircle
 10
214.21708660002332
 20
25.29149517044425
 30
11.043972139999937
 40
0.32
  0
TEXT
  5
3F7
330
17
100
AcDbEntity
  8
F4_ETIQUETAS
100
AcDbText
 10
214.6670866000233
 20
25.74149517044425
 30
11.043972139999937
 40
0.45
  1
M-0312 | Au 10.26 | Pot 0.12
 11
214.6670866000233
 21
25.74149517044425
 31
11.043972139999937
100
AcDbText
  0
POINT
  5
3F8
330
17
100
AcDbEntity
  8
F4_AU_00_01
100
AcDbPoint
 10
212.22321555996314
 20
25.36422611027956
 30
11.105633669999975
  0
CIRCLE
  5
3F9
330
17
100
AcDbEntity
  8
F4_AU_00_01
100
AcDbCircle
 10
212.22321555996314
 20
25.36422611027956
 30
11.105633669999975
 40
0.32
  0
TEXT
  5
3FA
330
17
100
AcDbEntity
  8
F4_ETIQUETAS
100
AcDbText
 10
212.67321555996313
 20
25.81422611027956
 30
11.105633669999975
 40
0.45
  1
M-0313 | Au 0.12 | Pot 0.09
 11
212.67321555996313
 21
25.81422611027956
 31
11.105633669999975
100
AcDbText
  0
POINT
  5
3FB
330
17
100
AcDbEntity
  8
F4_AU_00_01
100
AcDbPoint
 10
210.31382615992334
 20
25.92171906027943
 30
11.142827109999985
  0
CIRCLE
  5
3FC
330
17
100
AcDbEntity
  8
F4_AU_00_01
100
AcDbCircle
 10
210.31382615992334
 20
25.92171906027943
 30
11.142827109999985
 40
0.32
  0
TEXT
  5
3FD
330
17
100
AcDbEntity
  8
F4_ETIQUETAS
100
AcDbText
 10
210.76382615992333
 20
26.37171906027943
 30
11.142827109999985
 40
0.45
  1
M-0314 | Au 0.25 | Pot 0.04
 11
210.76382615992333
 21
26.37171906027943
 31
11.142827109999985
100
AcDbText
  0
POINT
  5
3FE
330
17
100
AcDbEntity
  8
F4_AU_00_01
100
AcDbPoint
 10
208.32793946994934
 20
26.294828670099378
 30
11.175313249999931
  0
CIRCLE
  5
3FF
330
17
100
AcDbEntity
  8
F4_AU_00_01
100
AcDbCircle
 10
208.32793946994934
 20
26.294828670099378
 30
11.175313249999931
 40
0.32
  0
TEXT
  5
400
330
17
100
AcDbEntity
  8
F4_ETIQUETAS
100
AcDbText
 10
208.77793946994933
 20
26.744828670099377
 30
11.175313249999931
 40
0.45
  1
M-0315 | Au 0.80 | Pot 0.10
 11
208.77793946994933
 21
26.744828670099377
 31
11.175313249999931
100
AcDbText
  0
POINT
  5
401
330
17
100
AcDbEntity
  8
F4_AU_00_01
100
AcDbPoint
 10
206.4467935699504
 20
26.00908020976931
 30
11.190239959999985
  0
CIRCLE
  5
402
330
17
100
AcDbEntity
  8
F4_AU_00_01
100
AcDbCircle
 10
206.4467935699504
 20
26.00908020976931
 30
11.190239959999985
 40
0.32
  0
TEXT
  5
403
330
17
100
AcDbEntity
  8
F4_ETIQUETAS
100
AcDbText
 10
206.89679356995038
 20
26.459080209769308
 30
11.190239959999985
 40
0.45
  1
M-0316 | Au 0.18 | Pot 0.16
 11
206.89679356995038
 21
26.459080209769308
 31
11.190239959999985
100
AcDbText
  0
POINT
  5
404
330
17
100
AcDbEntity
  8
F4_AU_01_05
100
AcDbPoint
 10
204.46238829998765
 20
25.672290969640017
 30
11.190239959999985
  0
CIRCLE
  5
405
330
17
100
AcDbEntity
  8
F4_AU_01_05
100
AcDbCircle
 10
204.46238829998765
 20
25.672290969640017
 30
11.190239959999985
 40
0.32
  0
TEXT
  5
406
330
17
100
AcDbEntity
  8
F4_ETIQUETAS
100
AcDbText
 10
204.91238829998764
 20
26.122290969640016
 30
11.190239959999985
 40
0.45
  1
M-0317 | Au 1.20 | Pot 0.06
 11
204.91238829998764
 21
26.122290969640016
 31
11.190239959999985
100
AcDbText
  0
POINT
  5
407
330
17
100
AcDbEntity
  8
F4_AU_00_01
100
AcDbPoint
 10
202.67765541002154
 20
25.769269480369985
 30
11.190239959999985
  0
CIRCLE
  5
408
330
17
100
AcDbEntity
  8
F4_AU_00_01
100
AcDbCircle
 10
202.67765541002154
 20
25.769269480369985
 30
11.190239959999985
 40
0.32
  0
TEXT
  5
409
330
17
100
AcDbEntity
  8
F4_ETIQUETAS
100
AcDbText
 10
203.12765541002153
 20
26.219269480369984
 30
11.190239959999985
 40
0.45
  1
M-0318 | Au 0.98 | Pot 0.11
 11
203.12765541002153
 21
26.219269480369984
 31
11.190239959999985
100
AcDbText
  0
POINT
  5
40A
330
17
100
AcDbEntity
  8
F4_AU_15_50
100
AcDbPoint
 10
216.0769391199574
 20
25.25137470010668
 30
10.97486927
  0
CIRCLE
  5
40B
330
17
100
AcDbEntity
  8
F4_AU_15_50
100
AcDbCircle
 10
216.0769391199574
 20
25.25137470010668
 30
10.97486927
 40
0.32
  0
TEXT
  5
40C
330
17
100
AcDbEntity
  8
F4_ETIQUETAS
100
AcDbText
 10
216.52693911995738
 20
25.70137470010668
 30
10.97486927
 40
0.45
  1
M-0319 | Au 21.39 | Pot 0.20
 11
216.52693911995738
 21
25.70137470010668
 31
10.97486927
100
AcDbText
  0
POINT
  5
40D
330
17
100
AcDbEntity
  8
F4_AU_01_05
100
AcDbPoint
 10
201.02879999997094
 20
25.31400000024587
 30
11.190200000000004
  0
CIRCLE
  5
40E
330
17
100
AcDbEntity
  8
F4_AU_01_05
100
AcDbCircle
 10
201.02879999997094
 20
25.31400000024587
 30
11.190200000000004
 40
0.32
  0
TEXT
  5
40F
330
17
100
AcDbEntity
  8
F4_ETIQUETAS
100
AcDbText
 10
201.47879999997093
 20
25.76400000024587
 30
11.190200000000004
 40
0.45
  1
M-0320 | Au 1.46 | Pot 0.13
 11
201.47879999997093
 21
25.76400000024587
 31
11.190200000000004
100
AcDbText
  0
POINT
  5
410
330
17
100
AcDbEntity
  8
F4_AU_01_05
100
AcDbPoint
 10
199.07199999992736
 20
25.727800000458956
 30
11.494899999999916
  0
CIRCLE
  5
411
330
17
100
AcDbEntity
  8
F4_AU_01_05
100
AcDbCircle
 10
199.07199999992736
 20
25.727800000458956
 30
11.494899999999916
 40
0.32
  0
TEXT
  5
412
330
17
100
AcDbEntity
  8
F4_ETIQUETAS
100
AcDbText
 10
199.52199999992735
 20
26.177800000458955
 30
11.494899999999916
 40
0.45
  1
M-0321 | Au 4.41 | Pot 0.15
 11
199.52199999992735
 21
26.177800000458955
 31
11.494899999999916
100
AcDbText
  0
POINT
  5
413
330
17
100
AcDbEntity
  8
F4_AU_01_05
100
AcDbPoint
 10
197.25740000000224
 20
26.568800000473857
 30
11.494899999999916
  0
CIRCLE
  5
414
330
17
100
AcDbEntity
  8
F4_AU_01_05
100
AcDbCircle
 10
197.25740000000224
 20
26.568800000473857
 30
11.494899999999916
 40
0.32
  0
TEXT
  5
415
330
17
100
AcDbEntity
  8
F4_ETIQUETAS
100
AcDbText
 10
197.70740000000222
 20
27.018800000473856
 30
11.494899999999916
 40
0.45
  1
M-0322 | Au 4.23 | Pot 0.04
 11
197.70740000000222
 21
27.018800000473856
 31
11.494899999999916
100
AcDbText
  0
POINT
  5
416
330
17
100
AcDbEntity
  8
F4_AU_00_01
100
AcDbPoint
 10
246.91599999996834
 20
19.603900000452995
 30
11.047599999999989
  0
CIRCLE
  5
417
330
17
100
AcDbEntity
  8
F4_AU_00_01
100
AcDbCircle
 10
246.91599999996834
 20
19.603900000452995
 30
11.047599999999989
 40
0.32
  0
TEXT
  5
418
330
17
100
AcDbEntity
  8
F4_ETIQUETAS
100
AcDbText
 10
247.36599999996832
 20
20.053900000452995
 30
11.047599999999989
 40
0.45
  1
M-0323 | Au 0.19 | Pot 0.04
 11
247.36599999996832
 21
20.053900000452995
 31
11.047599999999989
100
AcDbText
  0
POINT
  5
419
330
17
100
AcDbEntity
  8
F4_AU_00_01
100
AcDbPoint
 10
252.8177999999607
 20
19.004200000315905
 30
11.09579999999994
  0
CIRCLE
  5
41A
330
17
100
AcDbEntity
  8
F4_AU_00_01
100
AcDbCircle
 10
252.8177999999607
 20
19.004200000315905
 30
11.09579999999994
 40
0.32
  0
TEXT
  5
41B
330
17
100
AcDbEntity
  8
F4_ETIQUETAS
100
AcDbText
 10
253.2677999999607
 20
19.454200000315904
 30
11.09579999999994
 40
0.45
  1
M-0324 | Au 0.06 | Pot 0.04
 11
253.2677999999607
 21
19.454200000315904
 31
11.09579999999994
100
AcDbText
  0
POINT
  5
41C
330
17
100
AcDbEntity
  8
F4_AU_00_01
100
AcDbPoint
 10
254.81319999997504
 20
18.86739999987185
 30
11.09579999999994
  0
CIRCLE
  5
41D
330
17
100
AcDbEntity
  8
F4_AU_00_01
100
AcDbCircle
 10
254.81319999997504
 20
18.86739999987185
 30
11.09579999999994
 40
0.32
  0
TEXT
  5
41E
330
17
100
AcDbEntity
  8
F4_ETIQUETAS
100
AcDbText
 10
255.26319999997503
 20
19.31739999987185
 30
11.09579999999994
 40
0.45
  1
M-0325 | Au 0.22 | Pot 0.03
 11
255.26319999997503
 21
19.31739999987185
 31
11.09579999999994
100
AcDbText
  0
POINT
  5
41F
330
17
100
AcDbEntity
  8
F4_AU_00_01
100
AcDbPoint
 10
115.32423700997606
 20
43.04377449024469
 30
51.75699999999995
  0
CIRCLE
  5
420
330
17
100
AcDbEntity
  8
F4_AU_00_01
100
AcDbCircle
 10
115.32423700997606
 20
43.04377449024469
 30
51.75699999999995
 40
0.32
  0
TEXT
  5
421
330
17
100
AcDbEntity
  8
F4_ETIQUETAS
100
AcDbText
 10
115.77423700997606
 20
43.49377449024469
 30
51.75699999999995
 40
0.45
  1
M-0326 | Au 0.11 | Pot 0.13
 11
115.77423700997606
 21
43.49377449024469
 31
51.75699999999995
100
AcDbText
  0
POINT
  5
422
330
17
100
AcDbEntity
  8
F4_AU_00_01
100
AcDbPoint
 10
115.1293932099361
 20
40.82177759986371
 30
59.456999999999994
  0
CIRCLE
  5
423
330
17
100
AcDbEntity
  8
F4_AU_00_01
100
AcDbCircle
 10
115.1293932099361
 20
40.82177759986371
 30
59.456999999999994
 40
0.32
  0
TEXT
  5
424
330
17
100
AcDbEntity
  8
F4_ETIQUETAS
100
AcDbText
 10
115.5793932099361
 20
41.27177759986371
 30
59.456999999999994
 40
0.45
  1
M-0327 | Au 0.10 | Pot 0.10
 11
115.5793932099361
 21
41.27177759986371
 31
59.456999999999994
100
AcDbText
  0
POINT
  5
425
330
17
100
AcDbEntity
  8
F4_AU_00_01
100
AcDbPoint
 10
114.9862258899957
 20
40.05391908995807
 30
61.36699999999996
  0
CIRCLE
  5
426
330
17
100
AcDbEntity
  8
F4_AU_00_01
100
AcDbCircle
 10
114.9862258899957
 20
40.05391908995807
 30
61.36699999999996
 40
0.32
  0
TEXT
  5
427
330
17
100
AcDbEntity
  8
F4_ETIQUETAS
100
AcDbText
 10
115.4362258899957
 20
40.503919089958075
 30
61.36699999999996
 40
0.45
  1
M-0328 | Au 0.19 | Pot 0.17
 11
115.4362258899957
 21
40.503919089958075
 31
61.36699999999996
100
AcDbText
  0
POINT
  5
428
330
17
100
AcDbEntity
  8
F4_AU_00_01
100
AcDbPoint
 10
114.87578452995513
 20
39.61854344047606
 30
63.3069999999999
  0
CIRCLE
  5
429
330
17
100
AcDbEntity
  8
F4_AU_00_01
100
AcDbCircle
 10
114.87578452995513
 20
39.61854344047606
 30
63.3069999999999
 40
0.32
  0
TEXT
  5
42A
330
17
100
AcDbEntity
  8
F4_ETIQUETAS
100
AcDbText
 10
115.32578452995513
 20
40.06854344047606
 30
63.3069999999999
 40
0.45
  1
M-0329 | Au 0.85 | Pot 0.12
 11
115.32578452995513
 21
40.06854344047606
 31
63.3069999999999
100
AcDbText
  0
POINT
  5
42B
330
17
100
AcDbEntity
  8
F4_AU_00_01
100
AcDbPoint
 10
114.72371014999226
 20
39.16502629965544
 30
65.197
  0
CIRCLE
  5
42C
330
17
100
AcDbEntity
  8
F4_AU_00_01
100
AcDbCircle
 10
114.72371014999226
 20
39.16502629965544
 30
65.197
 40
0.32
  0
TEXT
  5
42D
330
17
100
AcDbEntity
  8
F4_ETIQUETAS
100
AcDbText
 10
115.17371014999226
 20
39.61502629965544
 30
65.197
 40
0.45
  1
M-0330 | Au 0.27 | Pot 0.04
 11
115.17371014999226
 21
39.61502629965544
 31
65.197
100
AcDbText
  0
POINT
  5
42E
330
17
100
AcDbEntity
  8
F4_AU_00_01
100
AcDbPoint
 10
114.57659833994694
 20
38.50816186983138
 30
67.13699999999994
  0
CIRCLE
  5
42F
330
17
100
AcDbEntity
  8
F4_AU_00_01
100
AcDbCircle
 10
114.57659833994694
 20
38.50816186983138
 30
67.13699999999994
 40
0.32
  0
TEXT
  5
430
330
17
100
AcDbEntity
  8
F4_ETIQUETAS
100
AcDbText
 10
115.02659833994694
 20
38.958161869831386
 30
67.13699999999994
 40
0.45
  1
M-0331 | Au 0.14 | Pot 0.06
 11
115.02659833994694
 21
38.958161869831386
 31
67.13699999999994
100
AcDbText
  0
LINE
  5
431
330
17
100
AcDbEntity
  8
F4_EJE_LOCAL
100
AcDbLine
 10
0.0
 20
33.51009999960661
 30
58.0098999999999
 11
373.87569999997504
 21
33.51009999960661
 31
58.0098999999999
  0
ENDSEC
  0
SECTION
  2
OBJECTS
  0
DICTIONARY
  5
A
330
0
100
AcDbDictionary
281
1
  3
ACAD_COLOR
350
B
  3
ACAD_GROUP
350
C
  3
ACAD_LAYOUT
350
D
  3
ACAD_MATERIAL
350
E
  3
ACAD_MLEADERSTYLE
350
F
  3
ACAD_MLINESTYLE
350
10
  3
ACAD_PLOTSETTINGS
350
11
  3
ACAD_PLOTSTYLENAME
350
12
  3
ACAD_SCALELIST
350
14
  3
ACAD_TABLESTYLE
350
15
  3
ACAD_VISUALSTYLE
350
16
  3
EZDXF_META
350
2D
  0
DICTIONARY
  5
B
330
A
100
AcDbDictionary
281
1
  0
DICTIONARY
  5
C
330
A
100
AcDbDictionary
281
1
  0
DICTIONARY
  5
D
330
A
100
AcDbDictionary
281
1
  3
Model
350
1A
  3
Layout1
350
1E
  0
DICTIONARY
  5
E
330
A
100
AcDbDictionary
281
1
  3
ByBlock
350
1F
  3
ByLayer
350
20
  3
Global
350
21
  0
DICTIONARY
  5
F
330
A
100
AcDbDictionary
281
1
  3
Standard
350
2C
  0
DICTIONARY
  5
10
330
A
100
AcDbDictionary
281
1
  3
Standard
350
22
  0
DICTIONARY
  5
11
330
A
100
AcDbDictionary
281
1
  0
ACDBDICTIONARYWDFLT
  5
12
330
A
100
AcDbDictionary
281
1
  3
Normal
350
13
100
AcDbDictionaryWithDefault
340
13
  0
ACDBPLACEHOLDER
  5
13
330
12
  0
DICTIONARY
  5
14
330
A
100
AcDbDictionary
281
1
  0
DICTIONARY
  5
15
330
A
100
AcDbDictionary
281
1
  0
DICTIONARY
  5
16
330
A
100
AcDbDictionary
281
1
  0
LAYOUT
  5
1A
330
D
100
AcDbPlotSettings
  1

  4
A3
  6

 40
7.5
 41
20.0
 42
7.5
 43
20.0
 44
420.0
 45
297.0
 46
0.0
 47
0.0
 48
0.0
 49
0.0
140
0.0
141
0.0
142
1.0
143
1.0
 70
1024
 72
1
 73
0
 74
5
  7

 75
16
 76
0
 77
2
 78
300
147
1.0
148
0.0
149
0.0
100
AcDbLayout
  1
Model
 70
1
 71
0
 10
0.0
 20
0.0
 11
420.0
 21
297.0
 12
0.0
 22
0.0
 32
0.0
 14
1e+20
 24
1e+20
 34
1e+20
 15
-1e+20
 25
-1e+20
 35
-1e+20
146
0.0
 13
0.0
 23
0.0
 33
0.0
 16
1.0
 26
0.0
 36
0.0
 17
0.0
 27
1.0
 37
0.0
 76
1
330
17
  0
LAYOUT
  5
1E
330
D
100
AcDbPlotSettings
  1

  4
A3
  6

 40
7.5
 41
20.0
 42
7.5
 43
20.0
 44
420.0
 45
297.0
 46
0.0
 47
0.0
 48
0.0
 49
0.0
140
0.0
141
0.0
142
1.0
143
1.0
 70
0
 72
1
 73
0
 74
5
  7

 75
16
 76
0
 77
2
 78
300
147
1.0
148
0.0
149
0.0
100
AcDbLayout
  1
Layout1
 70
1
 71
1
 10
0.0
 20
0.0
 11
420.0
 21
297.0
 12
0.0
 22
0.0
 32
0.0
 14
1e+20
 24
1e+20
 34
1e+20
 15
-1e+20
 25
-1e+20
 35
-1e+20
146
0.0
 13
0.0
 23
0.0
 33
0.0
 16
1.0
 26
0.0
 36
0.0
 17
0.0
 27
1.0
 37
0.0
 76
1
330
1B
  0
MATERIAL
  5
1F
102
{ACAD_REACTORS
330
E
102
}
330
E
100
AcDbMaterial
  1
ByBlock
  2

 70
0
 40
1.0
 71
1
 41
1.0
 91
-1023410177
 42
1.0
 72
1
  3

 73
1
 74
1
 75
1
 44
0.5
 73
0
 45
1.0
 46
1.0
 77
1
  4

 78
1
 79
1
170
1
 48
1.0
171
1
  6

172
1
173
1
174
1
140
1.0
141
1.0
175
1
  7

176
1
177
1
178
1
143
1.0
179
1
  8

270
1
271
1
272
1
145
1.0
146
1.0
273
1
  9

274
1
275
1
276
1
 42
1.0
 72
1
  3

 73
1
 74
1
 75
1
 94
63
  0
MATERIAL
  5
20
102
{ACAD_REACTORS
330
E
102
}
330
E
100
AcDbMaterial
  1
ByLayer
  2

 70
0
 40
1.0
 71
1
 41
1.0
 91
-1023410177
 42
1.0
 72
1
  3

 73
1
 74
1
 75
1
 44
0.5
 73
0
 45
1.0
 46
1.0
 77
1
  4

 78
1
 79
1
170
1
 48
1.0
171
1
  6

172
1
173
1
174
1
140
1.0
141
1.0
175
1
  7

176
1
177
1
178
1
143
1.0
179
1
  8

270
1
271
1
272
1
145
1.0
146
1.0
273
1
  9

274
1
275
1
276
1
 42
1.0
 72
1
  3

 73
1
 74
1
 75
1
 94
63
  0
MATERIAL
  5
21
102
{ACAD_REACTORS
330
E
102
}
330
E
100
AcDbMaterial
  1
Global
  2

 70
0
 40
1.0
 71
1
 41
1.0
 91
-1023410177
 42
1.0
 72
1
  3

 73
1
 74
1
 75
1
 44
0.5
 73
0
 45
1.0
 46
1.0
 77
1
  4

 78
1
 79
1
170
1
 48
1.0
171
1
  6

172
1
173
1
174
1
140
1.0
141
1.0
175
1
  7

176
1
177
1
178
1
143
1.0
179
1
  8

270
1
271
1
272
1
145
1.0
146
1.0
273
1
  9

274
1
275
1
276
1
 42
1.0
 72
1
  3

 73
1
 74
1
 75
1
 94
63
  0
MLINESTYLE
  5
22
102
{ACAD_REACTORS
330
10
102
}
330
10
100
AcDbMlineStyle
  2
Standard
 70
0
  3

 62
256
 51
90.0
 52
90.0
 71
2
 49
0.5
 62
256
  6
BYLAYER
 49
-0.5
 62
256
  6
BYLAYER
  0
MLEADERSTYLE
  5
2C
102
{ACAD_REACTORS
330
F
102
}
330
F
100
AcDbMLeaderStyle
179
2
170
2
171
1
172
0
 90
2
 40
0.0
 41
0.0
173
1
 91
-1056964608
 92
-2
290
1
 42
2.0
291
1
 43
8.0
  3
Standard
 44
4.0
300

342
29
174
1
175
1
176
0
178
1
 93
-1056964608
 45
4.0
292
0
297
0
 46
4.0
 94
-1056964608
 47
1.0
 49
1.0
140
1.0
294
1
141
0.0
177
0
142
1.0
295
0
296
0
143
3.75
271
0
272
9
273
9
  0
DICTIONARY
  5
2D
330
A
100
AcDbDictionary
280
1
281
1
  3
CREATED_BY_EZDXF
350
2E
  3
WRITTEN_BY_EZDXF
350
434
  0
DICTIONARYVAR
  5
2E
330
2D
100
DictionaryVariables
280
0
  1
1.4.4 @ 2026-09-15T04:24:12.208609+00:00
  0
DICTIONARYVAR
  5
434
330
2D
100
DictionaryVariables
280
0
  1
1.4.4 @ 2026-09-15T04:24:12.243291+00:00
  0
ENDSEC
  0
EOF
